<svg version="1.2" xmlns="http://www.w3.org/2000/svg" viewBox="0 0 800 700" width="800" height="700">
	<title>altura-svg</title>
	<style>
		.s0 { opacity: .3;fill: none;stroke: #ffffff;stroke-miterlimit:10;stroke-width: 2 } 
		.s1 { fill: none;stroke: #26133f;stroke-linecap: round;stroke-linejoin: round;stroke-width: 8 } 
		.s2 { fill: #26133f } 
		.s3 { fill: #ffffff } 
		.s4 { opacity: .4;fill: #ffffff } 
		.s5 { fill: none;stroke: #ffffff;stroke-miterlimit:10;stroke-width: 2 } 
		.s6 { fill: #ffb3b3 } 
		.s7 { fill: none;stroke: #26133f;stroke-miterlimit:10 } 
		.s8 { fill: none;stroke: #ffffff;stroke-miterlimit:10 } 
		.s9 { mix-blend-mode: multiply;fill: #ffb3b3 } 
		.s10 { fill: #00d39c } 
	</style>
	<g id="OBJECTS">
		<g id="&lt;Group&gt;">
			<g id="&lt;Group&gt;">
				<path id="&lt;Path&gt;" fill-rule="evenodd" class="s0" d="m58.8 70.8h708.8"/>
				<path id="&lt;Path&gt;" fill-rule="evenodd" class="s0" d="m58.8 166.3h708.8"/>
				<path id="&lt;Path&gt;" fill-rule="evenodd" class="s0" d="m58.8 261.8h708.8"/>
				<path id="&lt;Path&gt;" fill-rule="evenodd" class="s0" d="m58.8 357.2h708.8"/>
				<path id="&lt;Path&gt;" fill-rule="evenodd" class="s0" d="m58.8 452.7h708.8"/>
				<path id="&lt;Path&gt;" fill-rule="evenodd" class="s0" d="m58.8 548.2h708.8"/>
			</g>
			<path id="&lt;Path&gt;" fill-rule="evenodd" class="s1" d="m58.8 55.4v556.7l712.8 4"/>
			<path id="&lt;Path&gt;" class="s2" d="m58.8 34.4l-14.5 25.1 14.5-7.7 14.5 7.7z"/>
			<path id="&lt;Path&gt;" class="s2" d="m790.9 616.1l-25.1-14.6c13 17.1 3 21.3 0 29.1z"/>
			<g id="&lt;Group&gt;">
				<g id="&lt;Group&gt;">
					<g id="&lt;Group&gt;">
						<path id="&lt;Path&gt;" class="s3" d="m44.3 73.6h-35c-1.5 0-2.8-1.2-2.8-2.8 0-1.5 1.3-2.7 2.8-2.7h35c1.5 0 2.8 1.2 2.8 2.7 0 1.6-1.3 2.8-2.8 2.8z"/>
					</g>
					<g id="&lt;Group&gt;">
						<path id="&lt;Path&gt;" class="s4" d="m44.3 92.7h-15.8c-1.5 0-2.7-1.2-2.7-2.8 0-1.5 1.2-2.7 2.7-2.7h15.8c1.5 0 2.8 1.2 2.8 2.7 0 1.6-1.3 2.8-2.8 2.8z"/>
					</g>
					<g id="&lt;Group&gt;">
						<path id="&lt;Path&gt;" class="s4" d="m44.3 111.8h-15.8c-1.5 0-2.7-1.2-2.7-2.8 0-1.5 1.2-2.7 2.7-2.7h15.8c1.5 0 2.8 1.2 2.8 2.7 0 1.6-1.3 2.8-2.8 2.8z"/>
					</g>
					<g id="&lt;Group&gt;">
						<path id="&lt;Path&gt;" class="s4" d="m44.3 130.9h-15.8c-1.5 0-2.7-1.3-2.7-2.8 0-1.5 1.2-2.7 2.7-2.7h15.8c1.5 0 2.8 1.2 2.8 2.7 0 1.5-1.3 2.8-2.8 2.8z"/>
					</g>
					<g id="&lt;Group&gt;">
						<path id="&lt;Path&gt;" class="s3" d="m44.3 150h-35c-1.5 0-2.8-1.3-2.8-2.8 0-1.5 1.3-2.7 2.8-2.7h35c1.5 0 2.8 1.2 2.8 2.7 0 1.5-1.3 2.8-2.8 2.8z"/>
					</g>
					<g id="&lt;Group&gt;">
						<path id="&lt;Path&gt;" class="s4" d="m44.3 169.1h-15.8c-1.5 0-2.7-1.3-2.7-2.8 0-1.5 1.2-2.7 2.7-2.7h15.8c1.5 0 2.8 1.2 2.8 2.7 0 1.5-1.3 2.8-2.8 2.8z"/>
					</g>
					<g id="&lt;Group&gt;">
						<path id="&lt;Path&gt;" class="s4" d="m44.3 188.2h-15.8c-1.5 0-2.7-1.3-2.7-2.8 0-1.5 1.2-2.7 2.7-2.7h15.8c1.5 0 2.8 1.2 2.8 2.7 0 1.5-1.3 2.8-2.8 2.8z"/>
					</g>
					<g id="&lt;Group&gt;">
						<path id="&lt;Path&gt;" class="s4" d="m44.3 207.2h-15.8c-1.5 0-2.7-1.2-2.7-2.7 0-1.5 1.2-2.8 2.7-2.8h15.8c1.5 0 2.8 1.3 2.8 2.8 0 1.5-1.3 2.7-2.8 2.7z"/>
					</g>
					<g id="&lt;Group&gt;">
						<path id="&lt;Path&gt;" class="s4" d="m44.3 226.3h-15.8c-1.5 0-2.7-1.2-2.7-2.7 0-1.5 1.2-2.8 2.7-2.8h15.8c1.5 0 2.8 1.3 2.8 2.8 0 1.5-1.3 2.7-2.8 2.7z"/>
					</g>
					<g id="&lt;Group&gt;">
						<path id="&lt;Path&gt;" class="s3" d="m44.3 245.4h-35c-1.5 0-2.8-1.2-2.8-2.7 0-1.5 1.3-2.8 2.8-2.8h35c1.5 0 2.8 1.3 2.8 2.8 0 1.5-1.3 2.7-2.8 2.7z"/>
					</g>
					<g id="&lt;Group&gt;">
						<path id="&lt;Path&gt;" class="s4" d="m44.3 264.5h-15.8c-1.5 0-2.7-1.2-2.7-2.7 0-1.5 1.2-2.8 2.7-2.8h15.8c1.5 0 2.8 1.3 2.8 2.8 0 1.5-1.3 2.7-2.8 2.7z"/>
					</g>
					<g id="&lt;Group&gt;">
						<path id="&lt;Path&gt;" class="s4" d="m44.3 283.6h-15.8c-1.5 0-2.7-1.2-2.7-2.7 0-1.6 1.2-2.8 2.7-2.8h15.8c1.5 0 2.8 1.2 2.8 2.8 0 1.5-1.3 2.7-2.8 2.7z"/>
					</g>
					<g id="&lt;Group&gt;">
						<path id="&lt;Path&gt;" class="s4" d="m44.3 302.7h-15.8c-1.5 0-2.7-1.2-2.7-2.7 0-1.6 1.2-2.8 2.7-2.8h15.8c1.5 0 2.8 1.2 2.8 2.8 0 1.5-1.3 2.7-2.8 2.7z"/>
					</g>
					<g id="&lt;Group&gt;">
						<path id="&lt;Path&gt;" class="s4" d="m44.3 321.8h-15.8c-1.5 0-2.7-1.2-2.7-2.8 0-1.5 1.2-2.7 2.7-2.7h15.8c1.5 0 2.8 1.2 2.8 2.7 0 1.6-1.3 2.8-2.8 2.8z"/>
					</g>
					<g id="&lt;Group&gt;">
						<path id="&lt;Path&gt;" class="s3" d="m44.3 340.9h-35c-1.5 0-2.8-1.2-2.8-2.8 0-1.5 1.3-2.7 2.8-2.7h35c1.5 0 2.8 1.2 2.8 2.7 0 1.6-1.3 2.8-2.8 2.8z"/>
					</g>
					<g id="&lt;Group&gt;">
						<path id="&lt;Path&gt;" class="s4" d="m44.3 360h-15.8c-1.5 0-2.7-1.2-2.7-2.8 0-1.5 1.2-2.7 2.7-2.7h15.8c1.5 0 2.8 1.2 2.8 2.7 0 1.6-1.3 2.8-2.8 2.8z"/>
					</g>
					<g id="&lt;Group&gt;">
						<path id="&lt;Path&gt;" class="s4" d="m44.3 379.1h-15.8c-1.5 0-2.7-1.3-2.7-2.8 0-1.5 1.2-2.7 2.7-2.7h15.8c1.5 0 2.8 1.2 2.8 2.7 0 1.5-1.3 2.8-2.8 2.8z"/>
					</g>
					<g id="&lt;Group&gt;">
						<path id="&lt;Path&gt;" class="s4" d="m44.3 398.2h-15.8c-1.5 0-2.7-1.3-2.7-2.8 0-1.5 1.2-2.7 2.7-2.7h15.8c1.5 0 2.8 1.2 2.8 2.7 0 1.5-1.3 2.8-2.8 2.8z"/>
					</g>
					<g id="&lt;Group&gt;">
						<path id="&lt;Path&gt;" class="s4" d="m44.3 417.3h-15.8c-1.5 0-2.7-1.3-2.7-2.8 0-1.5 1.2-2.7 2.7-2.7h15.8c1.5 0 2.8 1.2 2.8 2.7 0 1.5-1.3 2.8-2.8 2.8z"/>
					</g>
					<g id="&lt;Group&gt;">
						<path id="&lt;Path&gt;" class="s3" d="m44.3 436.4h-35c-1.5 0-2.8-1.3-2.8-2.8 0-1.5 1.3-2.7 2.8-2.7h35c1.5 0 2.8 1.2 2.8 2.7 0 1.5-1.3 2.8-2.8 2.8z"/>
					</g>
					<g id="&lt;Group&gt;">
						<path id="&lt;Path&gt;" class="s4" d="m44.3 455.4h-15.8c-1.5 0-2.7-1.2-2.7-2.7 0-1.5 1.2-2.8 2.7-2.8h15.8c1.5 0 2.8 1.3 2.8 2.8 0 1.5-1.3 2.7-2.8 2.7z"/>
					</g>
					<g id="&lt;Group&gt;">
						<path id="&lt;Path&gt;" class="s4" d="m44.3 474.5h-15.8c-1.5 0-2.7-1.2-2.7-2.7 0-1.5 1.2-2.8 2.7-2.8h15.8c1.5 0 2.8 1.3 2.8 2.8 0 1.5-1.3 2.7-2.8 2.7z"/>
					</g>
					<g id="&lt;Group&gt;">
						<path id="&lt;Path&gt;" class="s4" d="m44.3 493.6h-15.8c-1.5 0-2.7-1.2-2.7-2.7 0-1.5 1.2-2.8 2.7-2.8h15.8c1.5 0 2.8 1.3 2.8 2.8 0 1.5-1.3 2.7-2.8 2.7z"/>
					</g>
					<g id="&lt;Group&gt;">
						<path id="&lt;Path&gt;" class="s4" d="m44.3 512.7h-15.8c-1.5 0-2.7-1.2-2.7-2.7 0-1.5 1.2-2.8 2.7-2.8h15.8c1.5 0 2.8 1.3 2.8 2.8 0 1.5-1.3 2.7-2.8 2.7z"/>
					</g>
					<g id="&lt;Group&gt;">
						<path id="&lt;Path&gt;" class="s3" d="m44.3 531.8h-35c-1.5 0-2.8-1.2-2.8-2.7 0-1.6 1.3-2.8 2.8-2.8h35c1.5 0 2.8 1.2 2.8 2.8 0 1.5-1.3 2.7-2.8 2.7z"/>
					</g>
					<g id="&lt;Group&gt;">
						<path id="&lt;Path&gt;" class="s4" d="m44.3 550.9h-15.8c-1.5 0-2.7-1.2-2.7-2.7 0-1.6 1.2-2.8 2.7-2.8h15.8c1.5 0 2.8 1.2 2.8 2.8 0 1.5-1.3 2.7-2.8 2.7z"/>
					</g>
					<g id="&lt;Group&gt;">
						<path id="&lt;Path&gt;" class="s4" d="m44.3 570h-15.8c-1.5 0-2.7-1.2-2.7-2.7 0-1.6 1.2-2.8 2.7-2.8h15.8c1.5 0 2.8 1.2 2.8 2.8 0 1.5-1.3 2.7-2.8 2.7z"/>
					</g>
					<g id="&lt;Group&gt;">
						<path id="&lt;Path&gt;" class="s4" d="m44.3 589.1h-15.8c-1.5 0-2.7-1.2-2.7-2.8 0-1.5 1.2-2.7 2.7-2.7h15.8c1.5 0 2.8 1.2 2.8 2.7 0 1.6-1.3 2.8-2.8 2.8z"/>
					</g>
				</g>
				<g id="&lt;Group&gt;">
					<g id="&lt;Group&gt;">
						<path id="&lt;Path&gt;" class="s4" d="m73.2 654.3c-1.5 0-2.8-1.3-2.8-2.8v-15.8c0-1.5 1.3-2.7 2.8-2.7 1.5 0 2.7 1.2 2.7 2.7v15.8c0 1.5-1.2 2.8-2.7 2.8z"/>
					</g>
					<g id="&lt;Group&gt;">
						<path id="&lt;Path&gt;" class="s4" d="m92.3 654.3c-1.5 0-2.8-1.3-2.8-2.8v-15.8c0-1.5 1.3-2.7 2.8-2.7 1.5 0 2.7 1.2 2.7 2.7v15.8c0 1.5-1.2 2.8-2.7 2.8z"/>
					</g>
					<g id="&lt;Group&gt;">
						<path id="&lt;Path&gt;" class="s4" d="m111.4 654.3c-1.5 0-2.8-1.3-2.8-2.8v-15.8c0-1.5 1.3-2.7 2.8-2.7 1.5 0 2.7 1.2 2.7 2.7v15.8c0 1.5-1.2 2.8-2.7 2.8z"/>
					</g>
					<g id="&lt;Group&gt;">
						<path id="&lt;Path&gt;" class="s3" d="m130.5 670.8c-1.6 0-2.8-1.3-2.8-2.8v-32.3c0-1.5 1.2-2.7 2.8-2.7 1.5 0 2.7 1.2 2.7 2.7v32.3c0 1.5-1.2 2.8-2.7 2.8z"/>
					</g>
					<g id="&lt;Group&gt;">
						<path id="&lt;Path&gt;" class="s4" d="m149.6 654.3c-1.6 0-2.8-1.3-2.8-2.8v-15.8c0-1.5 1.2-2.7 2.8-2.7 1.5 0 2.7 1.2 2.7 2.7v15.8c0 1.5-1.2 2.8-2.7 2.8z"/>
					</g>
					<g id="&lt;Group&gt;">
						<path id="&lt;Path&gt;" class="s4" d="m168.7 654.3c-1.6 0-2.8-1.3-2.8-2.8v-15.8c0-1.5 1.2-2.7 2.8-2.7 1.5 0 2.7 1.2 2.7 2.7v15.8c0 1.5-1.2 2.8-2.7 2.8z"/>
					</g>
					<g id="&lt;Group&gt;">
						<path id="&lt;Path&gt;" class="s4" d="m187.7 654.3c-1.5 0-2.7-1.3-2.7-2.8v-15.8c0-1.5 1.2-2.7 2.7-2.7 1.6 0 2.8 1.2 2.8 2.7v15.8c0 1.5-1.2 2.8-2.8 2.8z"/>
					</g>
					<g id="&lt;Group&gt;">
						<path id="&lt;Path&gt;" class="s4" d="m206.8 654.3c-1.5 0-2.7-1.3-2.7-2.8v-15.8c0-1.5 1.2-2.7 2.7-2.7 1.6 0 2.8 1.2 2.8 2.7v15.8c0 1.5-1.2 2.8-2.8 2.8z"/>
					</g>
					<g id="&lt;Group&gt;">
						<path id="&lt;Path&gt;" class="s3" d="m225.9 670.8c-1.5 0-2.7-1.3-2.7-2.8v-32.3c0-1.5 1.2-2.7 2.7-2.7 1.6 0 2.8 1.2 2.8 2.7v32.3c0 1.5-1.2 2.8-2.8 2.8z"/>
					</g>
					<g id="&lt;Group&gt;" style="opacity: .4">
						<path id="&lt;Path&gt;" class="s3" d="m245 654.3c-1.5 0-2.7-1.3-2.7-2.8v-15.8c0-1.5 1.2-2.7 2.7-2.7 1.5 0 2.8 1.2 2.8 2.7v15.8c0 1.5-1.3 2.8-2.8 2.8z"/>
					</g>
					<g id="&lt;Group&gt;" style="opacity: .4">
						<path id="&lt;Path&gt;" class="s3" d="m264.1 654.3c-1.5 0-2.7-1.3-2.7-2.8v-15.8c0-1.5 1.2-2.7 2.7-2.7 1.5 0 2.8 1.2 2.8 2.7v15.8c0 1.5-1.3 2.8-2.8 2.8z"/>
					</g>
					<g id="&lt;Group&gt;" style="opacity: .4">
						<path id="&lt;Path&gt;" class="s3" d="m283.2 654.3c-1.5 0-2.7-1.3-2.7-2.8v-15.8c0-1.5 1.2-2.7 2.7-2.7 1.5 0 2.8 1.2 2.8 2.7v15.8c0 1.5-1.3 2.8-2.8 2.8z"/>
					</g>
					<g id="&lt;Group&gt;">
						<path id="&lt;Path&gt;" class="s4" d="m302.3 654.3c-1.5 0-2.7-1.3-2.7-2.8v-15.8c0-1.5 1.2-2.7 2.7-2.7 1.5 0 2.8 1.2 2.8 2.7v15.8c0 1.5-1.3 2.8-2.8 2.8z"/>
					</g>
					<g id="&lt;Group&gt;">
						<path id="&lt;Path&gt;" class="s3" d="m321.4 670.8c-1.5 0-2.8-1.3-2.8-2.8v-32.3c0-1.5 1.3-2.7 2.8-2.7 1.5 0 2.7 1.2 2.7 2.7v32.3c0 1.5-1.2 2.8-2.7 2.8z"/>
					</g>
					<g id="&lt;Group&gt;" style="opacity: .4">
						<path id="&lt;Path&gt;" class="s3" d="m340.5 654.3c-1.5 0-2.8-1.3-2.8-2.8v-15.8c0-1.5 1.3-2.7 2.8-2.7 1.5 0 2.7 1.2 2.7 2.7v15.8c0 1.5-1.2 2.8-2.7 2.8z"/>
					</g>
					<g id="&lt;Group&gt;" style="opacity: .4">
						<path id="&lt;Path&gt;" class="s3" d="m359.6 654.3c-1.5 0-2.8-1.3-2.8-2.8v-15.8c0-1.5 1.3-2.7 2.8-2.7 1.5 0 2.7 1.2 2.7 2.7v15.8c0 1.5-1.2 2.8-2.7 2.8z"/>
					</g>
					<g id="&lt;Group&gt;" style="opacity: .4">
						<path id="&lt;Path&gt;" class="s3" d="m378.7 654.3c-1.5 0-2.8-1.3-2.8-2.8v-15.8c0-1.5 1.3-2.7 2.8-2.7 1.5 0 2.7 1.2 2.7 2.7v15.8c0 1.5-1.2 2.8-2.7 2.8z"/>
					</g>
					<g id="&lt;Group&gt;">
						<path id="&lt;Path&gt;" class="s4" d="m397.8 654.3c-1.6 0-2.8-1.3-2.8-2.8v-15.8c0-1.5 1.2-2.7 2.8-2.7 1.5 0 2.7 1.2 2.7 2.7v15.8c0 1.5-1.2 2.8-2.7 2.8z"/>
					</g>
					<g id="&lt;Group&gt;">
						<path id="&lt;Path&gt;" class="s3" d="m416.9 670.8c-1.6 0-2.8-1.3-2.8-2.8v-32.3c0-1.5 1.2-2.7 2.8-2.7 1.5 0 2.7 1.2 2.7 2.7v32.3c0 1.5-1.2 2.8-2.7 2.8z"/>
					</g>
					<g id="&lt;Group&gt;">
						<path id="&lt;Path&gt;" class="s4" d="m435.9 654.3c-1.5 0-2.7-1.3-2.7-2.8v-15.8c0-1.5 1.2-2.7 2.7-2.7 1.6 0 2.8 1.2 2.8 2.7v15.8c0 1.5-1.2 2.8-2.8 2.8z"/>
					</g>
					<g id="&lt;Group&gt;">
						<path id="&lt;Path&gt;" class="s4" d="m455 654.3c-1.5 0-2.7-1.3-2.7-2.8v-15.8c0-1.5 1.2-2.7 2.7-2.7 1.6 0 2.8 1.2 2.8 2.7v15.8c0 1.5-1.2 2.8-2.8 2.8z"/>
					</g>
					<g id="&lt;Group&gt;">
						<path id="&lt;Path&gt;" class="s4" d="m474.1 654.3c-1.5 0-2.7-1.3-2.7-2.8v-15.8c0-1.5 1.2-2.7 2.7-2.7 1.6 0 2.8 1.2 2.8 2.7v15.8c0 1.5-1.2 2.8-2.8 2.8z"/>
					</g>
					<g id="&lt;Group&gt;">
						<path id="&lt;Path&gt;" class="s4" d="m493.2 654.3c-1.5 0-2.7-1.3-2.7-2.8v-15.8c0-1.5 1.2-2.7 2.7-2.7 1.5 0 2.8 1.2 2.8 2.7v15.8c0 1.5-1.3 2.8-2.8 2.8z"/>
					</g>
					<g id="&lt;Group&gt;">
						<path id="&lt;Path&gt;" class="s3" d="m512.3 670.8c-1.5 0-2.7-1.3-2.7-2.8v-32.3c0-1.5 1.2-2.7 2.7-2.7 1.5 0 2.8 1.2 2.8 2.7v32.3c0 1.5-1.3 2.8-2.8 2.8z"/>
					</g>
					<g id="&lt;Group&gt;">
						<path id="&lt;Path&gt;" class="s4" d="m531.4 654.3c-1.5 0-2.7-1.3-2.7-2.8v-15.8c0-1.5 1.2-2.7 2.7-2.7 1.5 0 2.8 1.2 2.8 2.7v15.8c0 1.5-1.3 2.8-2.8 2.8z"/>
					</g>
					<g id="&lt;Group&gt;">
						<path id="&lt;Path&gt;" class="s4" d="m550.5 654.3c-1.5 0-2.7-1.3-2.7-2.8v-15.8c0-1.5 1.2-2.7 2.7-2.7 1.5 0 2.8 1.2 2.8 2.7v15.8c0 1.5-1.3 2.8-2.8 2.8z"/>
					</g>
					<g id="&lt;Group&gt;">
						<path id="&lt;Path&gt;" class="s4" d="m569.6 654.3c-1.5 0-2.8-1.3-2.8-2.8v-15.8c0-1.5 1.3-2.7 2.8-2.7 1.5 0 2.7 1.2 2.7 2.7v15.8c0 1.5-1.2 2.8-2.7 2.8z"/>
					</g>
					<g id="&lt;Group&gt;">
						<path id="&lt;Path&gt;" class="s4" d="m588.7 654.3c-1.5 0-2.8-1.3-2.8-2.8v-15.8c0-1.5 1.3-2.7 2.8-2.7 1.5 0 2.7 1.2 2.7 2.7v15.8c0 1.5-1.2 2.8-2.7 2.8z"/>
					</g>
					<g id="&lt;Group&gt;">
						<path id="&lt;Path&gt;" class="s3" d="m607.8 670.8c-1.5 0-2.8-1.3-2.8-2.8v-32.3c0-1.5 1.3-2.7 2.8-2.7 1.5 0 2.7 1.2 2.7 2.7v32.3c0 1.5-1.2 2.8-2.7 2.8z"/>
					</g>
					<g id="&lt;Group&gt;">
						<path id="&lt;Path&gt;" class="s4" d="m626.9 654.3c-1.5 0-2.8-1.3-2.8-2.8v-15.8c0-1.5 1.3-2.7 2.8-2.7 1.5 0 2.7 1.2 2.7 2.7v15.8c0 1.5-1.2 2.8-2.7 2.8z"/>
					</g>
					<g id="&lt;Group&gt;">
						<path id="&lt;Path&gt;" class="s4" d="m646 654.3c-1.6 0-2.8-1.3-2.8-2.8v-15.8c0-1.5 1.2-2.7 2.8-2.7 1.5 0 2.7 1.2 2.7 2.7v15.8c0 1.5-1.2 2.8-2.7 2.8z"/>
					</g>
					<g id="&lt;Group&gt;">
						<path id="&lt;Path&gt;" class="s4" d="m665.1 654.3c-1.6 0-2.8-1.3-2.8-2.8v-15.8c0-1.5 1.2-2.7 2.8-2.7 1.5 0 2.7 1.2 2.7 2.7v15.8c0 1.5-1.2 2.8-2.7 2.8z"/>
					</g>
					<g id="&lt;Group&gt;">
						<path id="&lt;Path&gt;" class="s4" d="m684.2 654.3c-1.6 0-2.8-1.3-2.8-2.8v-15.8c0-1.5 1.2-2.7 2.8-2.7 1.5 0 2.7 1.2 2.7 2.7v15.8c0 1.5-1.2 2.8-2.7 2.8z"/>
					</g>
					<g id="&lt;Group&gt;">
						<path id="&lt;Path&gt;" class="s3" d="m703.2 670.8c-1.5 0-2.7-1.3-2.7-2.8v-32.3c0-1.5 1.2-2.7 2.7-2.7 1.6 0 2.8 1.2 2.8 2.7v32.3c0 1.5-1.2 2.8-2.8 2.8z"/>
					</g>
					<g id="&lt;Group&gt;">
						<path id="&lt;Path&gt;" class="s4" d="m722.3 654.3c-1.5 0-2.7-1.3-2.7-2.8v-15.8c0-1.5 1.2-2.7 2.7-2.7 1.6 0 2.8 1.2 2.8 2.7v15.8c0 1.5-1.2 2.8-2.8 2.8z"/>
					</g>
					<g id="&lt;Group&gt;">
						<path id="&lt;Path&gt;" class="s4" d="m741.4 654.3c-1.5 0-2.7-1.3-2.7-2.8v-15.8c0-1.5 1.2-2.7 2.7-2.7 1.5 0 2.8 1.2 2.8 2.7v15.8c0 1.5-1.3 2.8-2.8 2.8z"/>
					</g>
				</g>
			</g>
			<path id="&lt;Path&gt;" fill-rule="evenodd" class="s5" d="m153.5 123.8l13.6-2.9"/>
		</g>
		<g id="&lt;Group&gt;">
			<path id="&lt;Path&gt;" class="s3" d="m189.7 100.5c0 0 5.9-3.2 9.6 0 3.6 3.2 0.7 8.8 0.7 8.8 0 0 3.7 3.7 3.5 8.6-0.1 5-3.5 5.9-3.5 5.9 0 0 3.4 7.1-3.4 8.3-6.7 1.3-6.9-31.6-6.9-31.6z"/>
			<path id="&lt;Path&gt;" class="s3" d="m123 181.7c0 0-8.7-0.7-23 27.5-13 26-34.8 64-23.8 78.5 11 14.5 45.7-13.9 51.4-56.8 5.7-42.9-4.6-49.2-4.6-49.2z"/>
			<path id="c" class="s6" d="m265.5 342.4c0 0 2.9 9.5 8.8 14.9 6 5.3 8.1 17 13.3 21.4 5.2 4.4 7.7-15.4 1.9-26.8-5.8-11.5-12.9-25.5-24.8-26.1z"/>
			<path id="b" class="s3" d="m232.2 194.2c0 0-5.2 9.6 4.6 40.9 9.8 31.3 48.4 93.4 48.4 93.4 0 0-2.8 18-27.3 19.9 0 0-65.5-75.3-68.2-150.2z"/>
			<path id="&lt;Path&gt;" fill-rule="evenodd" class="s3" d="m232.3 585.4c4.4 1.5 14.2 16.4 22.4 17.6 8.2 1.3 6.6 8.5 6.6 8.5 0 0-58.6 1.3-61.5 0-2.8-1.2 0-22 0-22 0 0 28.1-5.7 32.5-4.1zm-39.3-411.4c0 0 19.8-0.5 34.3 12.3 7.7 6.8 6.2 39.9 6.2 39.9l-23.5-23.2-8-19z"/>
			<path id="&lt;Path&gt;" class="s3" d="m83.3 589.5c0 0-2.8 20.8 0 22 2.9 1.3 61.5 0 61.5 0 0 0 1.6-7.2-6.6-8.5-8.2-1.2-18-16.1-22.4-17.6-4.4-1.6-32.5 4.1-32.5 4.1z"/>
			<path id="&lt;Path&gt;" class="s2" d="m169.4 374.6c2 3.7 21.6 160.8 25.4 218.8 0 0 19.5 7 44.1-3.8 0 0-6.3-150.7-17.6-223.2z"/>
			<path id="&lt;Path&gt;" class="s2" d="m112.3 372.5c1 4.2-20.4 161-31.6 218.1 0 0 18.8 15.3 44.9 1.9 0 0 31.3-141.6 38.9-214.6z"/>
			<path id="&lt;Path&gt;" class="s3" d="m115.6 198.1c0 0-0.6-15.8 10.4-17.3 11.1-1.6 53.5-9.8 69.8-6 16.3 3.8 23.6 6.6 24.5 29.6 1 23 0 82.3 11.4 178.5 0 0-63.1 29.3-124.6 0 0 0 1.6-147.3 8.5-184.8z"/>
			<path id="&lt;Path&gt;" fill-rule="evenodd" class="s7" d="m191.5 175.4c0 0 9 9.8 11.2 16.9 2.2 7.1-13.2 24.1-12.5 25 0.6 1 8.3 16.1 8.3 16.1l-29.1 32.8"/>
			<path id="&lt;Path&gt;" fill-rule="evenodd" class="s7" d="m139.6 178.6c0 0-13.7 15.6-10.9 21.3 2.9 5.7 14.6 17.7 14.6 17.7l-7.5 14c0 0 16.1 21.4 28.1 34.6"/>
			<path id="&lt;Path&gt;" fill-rule="evenodd" class="s7" d="m166.8 266.2c0 0 1.4 82.5 0.2 129.7"/>
			<path id="&lt;Path&gt;" fill-rule="evenodd" class="s7" d="m108.7 305.6c1-33.5 2.6-70.3 5-93.3"/>
			<path id="&lt;Path&gt;" class="s2" d="m146 177.6c2.3 14.5 9 51.3 20.8 88.6 0 0 16-37.1 21.2-92.3-11.8-0.5-28.5 1.6-42 3.7z"/>
			<path id="&lt;Path&gt;" fill-rule="evenodd" class="s8" d="m169.3 185.6c0 0 2.6 7.8-2.3 8.6 0 0 4.5 54.9 3 67.2"/>
			<path id="&lt;Path&gt;" class="s6" d="m151.6 138.6v36.7c0 0 3.7 10.9 17.7 10.3 14.1-0.6 11.6-11.3 11.6-11.3l-5.6-31.5z"/>
			<path id="&lt;Path&gt;" class="s9" d="m151.6 154.2c6.1 6.7 15.7 13.7 28 12.9l-4.3-24.3-23.7-4.2z"/>
			<path id="&lt;Path&gt;" class="s6" d="m174 96.6c0 0 20.5-1.9 21.7 15.7 1.3 17.7 5.7 37.6-7.5 48 0 0-34.7 4.1-37.2-25.9-2.6-29.9 10.4-37.8 23-37.8z"/>
			<path id="&lt;Path&gt;" class="s3" d="m192.3 91.6c3 3.3 0 11.4 0 11.4 0 0 0 0-7.2 3.2-7.2 3.3-13.2-1.7-19.5-2-6.3-0.2-7.6 4-7.6 4 0 0 0.2 13.5 0.2 21.7 0 8.2-5.3 6.9-5.3 6.9 0 10.5-0.8 17.7-0.8 17.7 0 0-8.3-1.6-7.6-6 0 0-8.5-3.3-7.8-9.9 0.6-6.6 2-6.3 2-6.3 0 0-8.4-6-7.7-13 0.6-7 3.9-7.2 3.9-7.2 0 0-2.2-9 2.7-13 5-4 10.5-2.6 10.5-2.6 0 0-0.8-7.1 6.7-8.8 7.6-1.8 9.7 1.9 9.7 1.9 0 0 2.6-5.4 7.6-5.6 4.9-0.2 8.9 2.4 9 5.1 0 0 5.2-4.1 11.2 2.5z"/>
			<path id="&lt;Path&gt;" class="s6" d="m154.8 139.1l-1-13.8c0 0-2.9-6.1-8.2-4-5.3 2-0.9 18.1 9.2 17.8z"/>
			<g id="&lt;Group&gt;">
				<path id="&lt;Path&gt;" fill-rule="evenodd" class="s7" d="m182.3 119.3c0 0 0.1 8.3 6.1 8.2 6-0.2-0.3 5.2-5 5.7"/>
				<path id="&lt;Path&gt;" fill-rule="evenodd" class="s7" d="m167.5 114.7c0 0 5.5-4.4 9.2-1.7"/>
				<path id="&lt;Path&gt;" fill-rule="evenodd" class="s7" d="m187.8 112.1c0 0 4.9-4.1 8 1.3"/>
			</g>
			<g id="&lt;Group&gt;">
				<path id="&lt;Path&gt;" class="s2" d="m175.3 123.8c-0.7 0-1.3-1.3-1.3-2.9 0-1.7 0.6-3 1.3-3 0.8 0 1.4 1.3 1.4 3 0 1.6-0.6 2.9-1.4 2.9z"/>
				<path id="&lt;Path&gt;" class="s2" d="m192.8 122.2c-0.7 0-1.3-1.3-1.3-2.9 0-1.6 0.6-2.9 1.3-2.9 0.7 0 1.3 1.3 1.3 2.9 0 1.6-0.6 2.9-1.3 2.9z"/>
			</g>
			<path id="&lt;Path&gt;" class="s2" d="m166.3 185.6c0 0-5.4 3.5-6.4 8.6 0 0-11.3-5.6-13.9-16.6 0 0-0.6-7.1 5.6-9.3 0 0 5.3 14.8 14.7 17.3z"/>
			<path id="&lt;Path&gt;" class="s2" d="m180 169.3c0 0 0.2 10.7-9.3 16.2 0 0 4.1 2.2 4.7 8.7 0 0 9.3-4.5 9.9-20.4 0 0-0.8-5.6-5.3-4.5z"/>
			<path id="&lt;Path&gt;" fill-rule="evenodd" class="s8" d="m166.3 185.6c0 0-5.4 3.5-6.4 8.6 0 0-11.3-5.6-13.9-16.6"/>
			<path id="&lt;Path&gt;" fill-rule="evenodd" class="s8" d="m170.7 185.5c0 0 4.1 2.2 4.7 8.7 0 0 9.3-4.5 9.9-20.4"/>
			<path id="&lt;Path&gt;" class="s10" d="m86.3 230c0 0 36-12.6 75.9-13.7l23.1 101.3c0 0-40.1-0.4-74.8 16.2 0 0-21.5-75-24.2-103.8z"/>
			<path id="a" fill-rule="evenodd" class="s7" d="m277.7 344.1c0 0 4.5 3.7 4 10.3-0.5 6.6 2.8 9.1-0.3 10.2-3.1 1.2-4.7-11.8-9.6-15.2"/>
			<path id="&lt;Path&gt;" class="s2" d="m144.5 607.6h-62.4c0.2 2.1 0.5 3.6 1.2 3.9 2.9 1.3 61.5 0 61.5 0 0 0 0.4-1.8-0.3-3.9z"/>
			<path id="&lt;Path&gt;" class="s2" d="m261 607.6h-62.4c0.2 2.1 0.5 3.6 1.2 3.9 2.9 1.3 61.5 0 61.5 0 0 0 0.4-1.8-0.3-3.9z"/>
			<path id="&lt;Path&gt;" class="s6" d="m147.4 258.3c0 0 4.9-8.8 11-8.4 6.1 0.5-0.6 3.4 1.9 5.9 2.5 2.5 5.2-1 9.1-0.3 3.9 0.7 13 17.8-18.8 20.9z"/>
			<path id="&lt;Path&gt;" class="s3" d="m83.5 296.5c0 0-10.6-0.3-9.9-17.3 0.7-17.1 31.7-15.5 73.8-25.6 0 0 9.5 10.4 5.4 29 0 0-41.9 13.9-69.3 13.9z"/>
			<path id="&lt;Path&gt;" fill-rule="evenodd" class="s7" d="m163.9 260.2c0 0 5.8-1.4 6.7-4.1"/>
			<path id="&lt;Path&gt;" fill-rule="evenodd" class="s7" d="m167.1 263.8c0 0 4.4-2.4 5.7-4.8"/>
			<path id="&lt;Path&gt;" fill-rule="evenodd" class="s7" d="m169.4 267.3c0 0 4-1.8 4.3-3.5"/>
			<path id="&lt;Path&gt;" fill-rule="evenodd" class="s7" d="m82 268c0 0 5.7-4.2 11.6-3.9"/>
			<path id="&lt;Path&gt;" class="s3" d="m186.2 135.6c-0.4 0-10.1-0.3-13.5 5.1-3.3 5.4-1.3 8.9 1.3 8.9 2.7 0 4-1.7 4-1.7 0 0 1.6 1.7 3.1 1.7 1.5 0 3.1-3.2 3.1-3.2 0 0 1.7 3.4 3.8 2.6 2-0.8 2.7-3.4 2.7-3.4 0 0 2.7 3.2 4.1 2.6 1.4-0.6 1.9-3.2 1.9-3.2 0 0 2.6 1.6 3.2-0.5 0.6-2-1.2-9.2-13.7-8.9z"/>
			<path id="&lt;Path&gt;" fill-rule="evenodd" class="s5" d="m173.2 128.5c-3.4 0-6.1-3.4-6.1-7.6 0-4.1 2.7-7.5 6.1-7.5 3.4 0 6.1 3.4 6.1 7.5 0 4.2-2.7 7.6-6.1 7.6z"/>
			<path id="&lt;Path&gt;" fill-rule="evenodd" class="s5" d="m190.9 126.5c-3.4 0-6.2-3.3-6.2-7.5 0-4.2 2.8-7.6 6.2-7.6 3.3 0 6.1 3.4 6.1 7.6 0 4.2-2.8 7.5-6.1 7.5z"/>
		</g>
	</g>
</svg>