<svg version="1.2" xmlns="http://www.w3.org/2000/svg" viewBox="0 0 1000 700" width="1000" height="700">
	<title>10053-ai</title>
	<style>
		.s0 { fill: #3c8f7c } 
		.s1 { fill: #327f6b } 
		.s2 { fill: #50bfa5 } 
		.s3 { fill: #96d9c9 } 
		.s4 { fill: #f47458 } 
		.s5 { opacity: .3;mix-blend-mode: multiply;fill: #f47458 } 
		.s6 { opacity: .5;mix-blend-mode: multiply;fill: #f47458 } 
		.s7 { fill: #fae0b2 } 
		.s8 { opacity: .3;mix-blend-mode: multiply;fill: #9bc1f9 } 
		.s9 { fill: #b75742 } 
		.s10 { fill: #f7cc7f } 
		.s11 { fill: #ffffff } 
		.s12 { fill: #9bc1f9 } 
		.s13 { opacity: .5;mix-blend-mode: multiply;fill: #f7cc7f } 
		.s14 { fill: #5184ce } 
		.s15 { fill: #a1c5ff } 
		.s16 { fill: #eafcfc } 
		.s17 { opacity: .4;mix-blend-mode: multiply;fill: #9bc1f9 } 
		.s18 { opacity: .1;fill: #ffffff } 
		.s19 { fill: #13375b } 
		.s20 { fill: #f79c8d } 
		.s21 { fill: #f7a491 } 
		.s22 { fill: #f48c7f } 
		.s23 { fill: #eab054 } 
		.s24 { fill: #184655 } 
		.s25 { fill: #c5ddf9 } 
		.s26 { fill: #355389 } 
		.s27 { fill: #e25a44 } 
	</style>
	<g id="Layer 1">
		<g id="&lt;Group&gt;">
			<g id="&lt;Group&gt;">
				<g id="&lt;Group&gt;">
					<path id="&lt;Path&gt;" class="s0" d="m201.4 413.7c-1.1-9.2-2.1-18.6 0.1-27.5 2.7-10.8 9.8-19.9 15.7-29.4 11-17.8 17.8-38.1 19.9-58.9 1.5-16.1 0.3-32.5 4-48.3 2.3-9.6 6.4-18.6 9.3-28 6.9-22.3 7.7-46.8 19.6-66.9 7.7 19 6.8 41.4-2.6 59.7-2.8 5.5-6.3 10.6-8 16.5-3.1 10.7 0.1 22 2.1 33 3.7 20.6 2.7 42-2.7 62.2-5.8 21.4-16.6 41.9-17.2 64.1-0.3 16.7 5.1 33.9-0.5 49.6-0.6 1.7-1.3 3.4-1.1 5.2 0.1 1 0.5 2 0.8 2.9q0.8 1.9 1.5 3.7c5.1 12.3 11.1 28.1 2.4 40.3-6 8.5-15.8 11-23.4 3.5-7.7-7.6-10.3-20.7-12.3-30.8-3.3-16.8-5.5-33.9-7.6-50.9z"/>
					<path id="&lt;Path&gt;" class="s1" d="m179.1 408.1c0.7-15.9 4-31.6 3.7-47.4-0.3-15.4-3.9-30.6-7.5-45.5q-5.9-24.7-11.7-49.3c-2.5-10.2-4.9-20.5-5.7-31-1.5-22.5 4.9-45.3 1.6-67.6-1.4-9.7-4.7-19-5.9-28.7-0.7-5.6-0.7-11.4 0.7-16.8 1.4-5.8 8.9-7.3 12.6-2.6 8.3 10.5 14.9 22.5 15.7 35.7 0.5 8-1.1 15.9-1.8 23.8-3.1 35.3 11.4 70 10.9 105.4-0.2 10.7-1.7 21.5 0.4 32 4.8 25.1 28.8 43.4 33.1 68.6 3.5 20.7-7.1 41.1-8.6 62-0.8 11.7 1.2 23.5 0.1 35.2-0.8 9.1-5 20.9-16 20.8-10.4 0-9.3-8.8-10.7-16.5-4.7-26.3-12.2-51.1-10.9-78.1z"/>
					<path id="&lt;Path&gt;" class="s0" d="m159.9 427.1c-1.4-7.8-2-15.9-4.9-23.3-2.5-6.2-6.5-11.7-9.8-17.5-6.3-10.9-10.1-23-13.8-35q-10.3-32.7-20.5-65.3c-10.6-33.9-21.3-67.9-35.8-100.2-4.1-9-8.5-18.7-6.4-28.4 0.5-2 1.8-4.3 3.9-4.2 1.4 0.1 2.5 1.5 3.3 2.7 23.2 34.9 38.4 74.8 63.1 108.6 6 8.1 12.5 15.9 16.7 25 5.1 11 6.7 23.1 9.2 34.9 3.6 16.9 9.3 33.5 17.8 48.5 4.4 7.9 9.7 15.4 13.1 23.8 4.3 10.4 5.5 21.8 7.1 33 3 21.5 7.4 42.7 13.1 63.7 3.4 12.3-7.2 14.5-15.9 8.5-6.1-4.2-7.5-10-10.8-16.2-10.6-20.5-25.1-34.7-29.4-58.6z"/>
					<path id="&lt;Path&gt;" class="s1" d="m233.3 445c5.7-17.1 22.1-29.9 24-47.8 0.5-4.6 0.1-9.3 0.9-13.8 1.9-9.9 10-17.3 18.1-23.6 1.2-0.9 2.8-0.3 3.2 1.1 0.5 2.2 0 4.6-1.5 6.2-5.9 6.4-9.6 15-10 23.7-0.5 10.3 3.3 20.6 2 30.9-1 8.6-5.5 16.6-6.4 25.2-0.9 7.9 1.3 15.8 1.9 23.7 0.6 7.9-0.9 16.8-7.1 21.7-22.5 17.8-28.8-36.2-25.1-47.3z"/>
					<path id="&lt;Path&gt;" class="s0" d="m126.7 465.4c2.1 7.1 2.8 14.9 7.2 20.8 2.9 3.8 6.9 6.5 10.5 9.6 12.5 11 20.3 28.8 36.4 32.8 1.1 0.3 2.3 0.5 3.3 0 1.4-0.6 2-2.2 2.3-3.7 1.5-9.1-4.6-17.4-9-25.4-0.8-1.4-1.6-3-1.2-4.6 0.4-1.7 2.1-2.8 3-4.2 1.9-3 0.7-6.9-0.6-10.2q-4.8-12.2-11.1-23.9c-2.4-4.3-4.9-8.7-8.6-12.1-4-3.7-9.1-6-14-8.5-21.5-11.1-40-28-53-48.4-2.9-4.4-5.6-9.2-9.9-12.1-4.3-3-10.9-3.5-14.3 0.4-2.5 2.8 14.3 19.5 16.3 21.5 5.7 5.7 7.1 11.5 11.2 18.4 9.9 16.9 25.8 30.3 31.5 49.6z"/>
					<path id="&lt;Path&gt;" class="s1" d="m142.8 470.3c-4.3-6.2-8.6-12.5-11.2-19.6-2.9-7.9-3.6-16.5-7-24.2-4.2-10-12.4-17.6-17.9-27-3.9-6.7-6.2-14.2-9.3-21.4-8.8-20.5-23.9-39-26.2-61.2-0.5-4.8 0.3-10.8 4.8-12.7 4-1.7 8.8 1.2 10.9 5.1 2 3.9 2.3 8.4 3 12.7 2 12.1 8.3 23.5 17.5 31.5 8.8 7.8 20.1 12.5 28.4 20.9 10.2 10.2 16.6 18.5 23.6 31.2 13.8 25.1 36.1 50.3 46.1 77.2 4 10.7 4.6 24.7-4.5 31.6-26.4 19.8-47.4-28.4-58.2-44.1z"/>
				</g>
				<path id="&lt;Path&gt;" class="s2" d="m218 418.9l-6.6-16.1c-5.2-11.8-18.4-17.5-29.5-12.6-28.1 12.2-40.3 46.3-27.3 76.1l9.5 21.8c4.2 9.5 2.8 20-2.9 27.4-5.1 6.7-5.9 16.1-2.4 24.2l5.1 11.5c5.4 12.4 15.9 21.6 28.5 25.4 7.3 2.2 13.8 7.7 17.2 15.6l7.1 16.2c7.8 18 27.9 26.6 44.8 19.2l9.7-4.2c16.9-7.4 24.2-28 16.4-45.9-12.7-21.5-11.7-37.6-7.2-48.4 6.6-16 6.6-34.5-0.6-50.8l-1-2.3c-7.5-17.3-22.1-30.2-39.5-35.8-7.6-2.4-15.6-8.4-21.3-21.3z"/>
				<path id="&lt;Path&gt;" class="s3" d="m317.1 633.5c-10-13-65.3-83.1-101.4-94.7-39.8-12.9-2.3 38.2-2.3 38.2 0 0-70.6-77.2-96.5-70.2-23.7 6.4 0 54.2 0 54.2 0 0-26.7-26.5-59.2-26.5-10.7 0-11.6 10.9-8 25.3 10.8 43.5 50.1 73.7 94.8 73.7z"/>
				<g id="&lt;Group&gt;">
					<g id="&lt;Group&gt;">
						<path id="&lt;Path&gt;" class="s0" d="m104.4 482c28.8 45.1 49.9 95.1 61.9 148.3l2-0.5c-12-52.1-32.9-102.1-61.7-147.1-6.7-10.4-13.9-22.8-26.5-26.9-0.2-0.1-0.3 0.3-0.1 0.4 11.5 4.3 18.1 16 24.4 25.8z"/>
					</g>
					<g id="&lt;Group&gt;">
						<path id="&lt;Path&gt;" class="s0" d="m159.4 632.2c-32.3-43.9-71.5-84.4-118.1-119.6-0.4-0.4-1.1 0.4-0.6 0.8 44.2 34 83.3 74.1 116.2 119.4z"/>
					</g>
					<path id="&lt;Path&gt;" class="s0" d="m101.7 454.1c-0.7 1.1-3.5 3.9-4.4 7.7-1.1 3.5-0.2 8-0.1 7.8 0.2 0.1-3.3-2.9-4.4-7.6-1.4-4.5-0.4-10.8 1.3-12.8 3.1-4.7 8.4-5.2 9.4-2.9 1.1 2.2-0.3 5.3-1.8 7.8z"/>
					<path id="&lt;Path&gt;" class="s0" d="m94.8 494.3c1.1-0.8 3.9-3.7 7.6-4.6 3.6-1.2 8-0.4 7.9-0.3 0.1 0.2-3-3.2-7.7-4.2-4.5-1.3-10.8-0.2-12.8 1.6-4.7 3.1-5 8.5-2.7 9.4 2.2 1.1 5.3-0.4 7.7-1.9z"/>
					<path id="&lt;Path&gt;" class="s0" d="m105.3 511.9c1-0.7 3.8-3.6 7.5-4.5 3.6-1.2 8-0.4 7.9-0.3 0.1 0.2-3-3.3-7.7-4.3-4.5-1.3-10.8-0.2-12.8 1.6-4.7 3.2-5 8.5-2.7 9.5 2.3 1 5.3-0.4 7.8-2z"/>
					<path id="&lt;Path&gt;" class="s0" d="m68.1 552.8c1.1-0.8 3.9-3.7 7.6-4.6 3.5-1.2 8-0.4 7.8-0.3 0.1 0.3-2.9-3.2-7.6-4.2-4.6-1.3-10.8-0.2-12.9 1.6-4.6 3.1-5 8.5-2.7 9.4 2.3 1.1 5.4-0.4 7.8-1.9z"/>
					<path id="&lt;Path&gt;" class="s0" d="m49.1 536.1c1.1-0.8 3.9-3.7 7.6-4.6 3.5-1.2 8-0.4 7.9-0.3 0 0.2-3-3.2-7.7-4.2-4.6-1.3-10.8-0.2-12.8 1.6-4.7 3.1-5.1 8.4-2.8 9.4 2.3 1.1 5.4-0.4 7.8-1.9z"/>
					<path id="&lt;Path&gt;" class="s0" d="m116.3 474c-0.9 1-4.1 3.4-5.6 6.9-1.6 3.3-1.5 7.9-1.3 7.7 0.2 0.2-2.8-3.3-3.2-8.1-0.7-4.7 1.3-10.8 3.4-12.5 3.7-4.2 9-3.8 9.7-1.4 0.7 2.4-1.1 5.2-3 7.4z"/>
					<path id="&lt;Path&gt;" class="s0" d="m131.6 494c-1.3 0.7-5.8 1.9-8 5.3-2.6 3-2.9 8.1-2.7 8 0.2 0.3-3.3-4.9-3.1-10.4-0.3-5.6 3-11.5 5.8-12.5 5.4-3.1 12.3-0.4 12.8 2.6 0.7 3-2.1 5.3-4.8 7z"/>
					<path id="&lt;Path&gt;" class="s0" d="m147.7 524.3c-1.3 0.4-6 0.9-8.8 3.9-3 2.5-4.2 7.5-4 7.4 0.2 0.3-2.3-5.4-1.3-10.8 0.6-5.5 4.9-10.8 7.9-11.4 5.8-2.1 12.1 1.8 12.1 4.8 0.2 3-2.9 4.9-5.9 6.1z"/>
					<path id="&lt;Path&gt;" class="s0" d="m100 545.4c-1 0.6-4.6 1.9-6.2 4.7-1.9 2.6-1.9 6.8-1.8 6.7 0.3 0.2-2.8-3.8-3-8.3-0.6-4.5 1.7-9.5 4-10.5 4.2-2.8 9.9-1 10.5 1.4 0.7 2.4-1.4 4.5-3.5 6z"/>
					<path id="&lt;Path&gt;" class="s0" d="m75.2 461.2c0.6-0.5 2.1-2.4 4.3-3.1 2-0.8 4.7-0.5 4.6-0.5 0.1 0.1-1.8-1.8-4.7-2.1-2.7-0.6-6.4 0.3-7.5 1.5-2.6 2-2.6 5.2-1.2 5.7 1.4 0.5 3.1-0.5 4.5-1.5z"/>
					<path id="&lt;Path&gt;" class="s0" d="m81 448.3c0 0.8-0.5 3.1 0.2 5.3 0.6 2.1 2.4 4 2.4 3.9 0.2 0-2.5-0.4-4.6-2.4-2.1-1.8-3.6-5.3-3.4-6.9 0.1-3.3 2.6-5.2 3.8-4.4 1.3 0.8 1.6 2.8 1.6 4.5z"/>
					<path id="&lt;Path&gt;" class="s0" d="m35.5 519.1c0.6-0.5 2.1-2.4 4.3-3.1 2-0.8 4.7-0.6 4.6-0.5 0 0.1-1.9-1.8-4.7-2.2-2.8-0.6-6.4 0.4-7.6 1.5-2.6 2.1-2.6 5.3-1.2 5.7 1.4 0.6 3.2-0.4 4.6-1.4z"/>
					<path id="&lt;Path&gt;" class="s0" d="m42.4 506.1c-0.1 0.8-0.8 3-0.2 5.2 0.4 2.2 2.1 4.3 2.1 4.2 0.1 0-2.5-0.6-4.4-2.8-2-2-3.2-5.5-2.8-7.1 0.3-3.3 3-5 4.1-4.1 1.2 0.9 1.3 2.9 1.2 4.6z"/>
				</g>
				<g id="&lt;Group&gt;">
					<g id="&lt;Group&gt;">
						<path id="&lt;Path&gt;" class="s0" d="m47.3 589.9c29.4 3.3 56.9 16.3 83.3 28.9 17.8 8.6 16.9 11 20.5 12.3 0.6 0.2 1.2-0.4 0.9-1-1.4-2.8-5-4.6-7.6-6.2-2.9-1.9-6-3.5-9.2-5-6.7-3.3-13.6-6.2-20.5-9.2-13.9-6.1-28.1-11.8-42.8-15.6-8.1-2.1-16.3-3.7-24.6-4.4-0.1 0-0.2 0.2 0 0.2z"/>
					</g>
					<path id="&lt;Path&gt;" class="s0" d="m73.8 580.8c-0.2 1.2-1.4 4.7-0.6 8.2 0.4 3.4 2.9 6.8 2.9 6.6 0.3 0-3.9-1.1-6.6-4.6-3-3.3-4.6-8.9-4-11.3 0.7-5.2 5-7.7 6.8-6.2 1.8 1.5 1.8 4.6 1.5 7.3z"/>
					<path id="&lt;Path&gt;" class="s0" d="m99.8 590.1c-0.2 1.2-1.5 4.7-0.7 8.2 0.5 3.4 3 6.8 3 6.6 0.2 0-3.9-1.1-6.7-4.6-2.9-3.3-4.6-8.9-3.9-11.3 0.7-5.2 4.9-7.7 6.7-6.2 1.8 1.5 1.9 4.6 1.6 7.3z"/>
					<path id="&lt;Path&gt;" class="s0" d="m126.2 601.8c-0.2 1.2-1.5 4.8-0.7 8.2 0.4 3.4 2.9 6.8 3 6.6 0.2 0-3.9-1.1-6.7-4.6-3-3.2-4.6-8.9-4-11.3 0.7-5.1 5-7.6 6.8-6.1 1.8 1.4 1.8 4.6 1.6 7.2z"/>
					<path id="&lt;Path&gt;" class="s0" d="m66.1 605c0.5-1 1.6-4.2 4.1-6.4 2.2-2.2 5.9-3.3 5.9-3.2 0.1 0.1-3.5-1.3-7.5-0.3-4 0.7-8.4 4-9.3 6.1-2.3 4.2-0.6 8.4 1.6 8.3 2.1-0.1 3.9-2.3 5.2-4.5z"/>
					<path id="&lt;Path&gt;" class="s0" d="m93.1 614.6c0.5-1 1.5-4.3 4.1-6.4 2.2-2.3 5.9-3.4 5.8-3.2 0.2 0.1-3.4-1.4-7.5-0.3-3.9 0.7-8.3 3.9-9.2 6.1-2.3 4.2-0.6 8.4 1.6 8.3 2.1-0.1 3.9-2.4 5.2-4.5z"/>
					<path id="&lt;Path&gt;" class="s0" d="m45.5 595.2c0.5-0.5 1.6-2.5 3.4-3.5 1.7-1.1 4.2-1.3 4.2-1.2 0 0.1-2-1.3-4.7-1.2-2.6-0.1-5.8 1.4-6.6 2.6-2 2.3-1.5 5.2-0.1 5.4 1.3 0.3 2.7-0.9 3.8-2.1z"/>
					<path id="&lt;Path&gt;" class="s0" d="m48.7 582.5c0.1 0.7 0 2.9 1 4.8 0.9 1.8 2.9 3.3 2.9 3.2 0.1-0.1-2.4 0.1-4.6-1.4-2.3-1.3-4.2-4.2-4.3-5.7-0.5-3.1 1.5-5.2 2.8-4.7 1.2 0.5 1.8 2.3 2.2 3.8z"/>
				</g>
			</g>
			<g id="&lt;Group&gt;">
				<path id="&lt;Path&gt;" class="s4" d="m808 435.7l-78.7-55.2c-7.4-5.1-9.2-15.4-4-22.7l102.3-146c5.2-7.4 15.4-9.2 22.8-4l78.7 55.2c7.4 5.2 9.2 15.4 4 22.8l-102.3 145.9c-5.2 7.4-15.4 9.2-22.8 4z"/>
				<path id="&lt;Path&gt;" class="s5" d="m929.5 263.3l-38.2-26.8-121.2 172.7 38.3 26.8c7.1 5.1 17.2 3.2 22.4-4.2l102.3-146c5.2-7.4 3.6-17.5-3.6-22.5z"/>
				<path id="&lt;Path&gt;" class="s6" d="m886.9 236.2l3.1 2.2-118.5 168.9-3.1-2.2z"/>
				<g id="&lt;Group&gt;">
					<path id="&lt;Path&gt;" class="s7" d="m898.9 277.4l-9.8-7c-3-2.2-7.1-1.5-9.3 1.5-2.1 3-1.4 7.1 1.6 9.3l9.9 7z"/>
					<path id="&lt;Path&gt;" class="s2" d="m898.9 277.4l-7.6 10.8 9.8 7c3 2.1 7.1 1.4 9.2-1.5 2.2-3 1.5-7.2-1.5-9.3z"/>
					<path id="&lt;Path&gt;" class="s8" d="m895.1 282.8l-15.3-10.9c-2.1 3-1.4 7.1 1.6 9.3l9.9 7z"/>
					<path id="&lt;Path&gt;" class="s5" d="m910.3 293.7l-15.2-10.9-3.8 5.4 9.8 7c3 2.1 7.1 1.4 9.2-1.5z"/>
				</g>
				<g id="&lt;Group&gt;">
					<path id="&lt;Path&gt;" class="s7" d="m881.6 302.2l-9.9-7.1c-3-2.1-7.1-1.4-9.2 1.6-2.2 3-1.5 7.1 1.5 9.2l9.9 7.1z"/>
					<path id="&lt;Path&gt;" class="s2" d="m881.6 302.2l-7.7 10.8 9.8 7c3 2.1 7.1 1.4 9.3-1.6 2.1-2.9 1.4-7.1-1.6-9.2z"/>
					<path id="&lt;Path&gt;" class="s8" d="m877.7 307.6l-15.2-10.9c-2.2 3-1.5 7.1 1.5 9.2l9.9 7.1z"/>
					<path id="&lt;Path&gt;" class="s5" d="m893 318.4l-15.3-10.8-3.8 5.4 9.8 7c3 2.1 7.1 1.4 9.3-1.6z"/>
				</g>
				<g id="&lt;Group&gt;">
					<path id="&lt;Path&gt;" class="s7" d="m864.2 327l-9.9-7.1c-3-2.1-7.1-1.4-9.2 1.6-2.1 3-1.5 7.1 1.5 9.2l9.9 7z"/>
					<path id="&lt;Path&gt;" class="s2" d="m864.2 327l-7.7 10.7 9.8 7.1c3 2.1 7.2 1.4 9.3-1.6 2.1-3 1.4-7.1-1.6-9.2z"/>
					<path id="&lt;Path&gt;" class="s8" d="m860.3 332.3l-15.2-10.8c-2.1 3-1.5 7.1 1.5 9.2l9.9 7z"/>
					<path id="&lt;Path&gt;" class="s5" d="m875.6 343.2l-15.3-10.9-3.8 5.4 9.8 7.1c3 2.1 7.2 1.4 9.3-1.6z"/>
				</g>
				<g id="&lt;Group&gt;">
					<path id="&lt;Path&gt;" class="s7" d="m846.8 351.7l-9.9-7c-2.9-2.1-7.1-1.4-9.2 1.6-2.1 2.9-1.4 7.1 1.5 9.2l9.9 7z"/>
					<path id="&lt;Path&gt;" class="s2" d="m846.8 351.7l-7.7 10.8 9.9 7c2.9 2.2 7.1 1.5 9.2-1.5 2.1-3 1.4-7.1-1.5-9.2z"/>
					<path id="&lt;Path&gt;" class="s8" d="m842.9 357.1l-15.2-10.8c-2.1 2.9-1.4 7.1 1.5 9.2l9.9 7z"/>
					<path id="&lt;Path&gt;" class="s5" d="m858.2 368l-15.3-10.9-3.8 5.4 9.9 7c2.9 2.2 7.1 1.5 9.2-1.5z"/>
				</g>
				<g id="&lt;Group&gt;">
					<path id="&lt;Path&gt;" class="s7" d="m829.4 376.5l-9.8-7c-3-2.1-7.2-1.4-9.3 1.5-2.1 3-1.4 7.2 1.6 9.3l9.8 7z"/>
					<path id="&lt;Path&gt;" class="s2" d="m829.4 376.5l-7.7 10.8 9.9 7c3 2.2 7.1 1.5 9.2-1.5 2.1-3 1.4-7.1-1.5-9.3z"/>
					<path id="&lt;Path&gt;" class="s8" d="m825.6 381.9l-15.3-10.9c-2.1 3-1.4 7.2 1.6 9.3l9.8 7z"/>
					<path id="&lt;Path&gt;" class="s5" d="m840.8 392.8l-15.2-10.9-3.9 5.4 9.9 7c3 2.2 7.1 1.5 9.2-1.5z"/>
				</g>
				<g id="&lt;Group&gt;">
					<path id="&lt;Path&gt;" class="s7" d="m812 401.3l-9.8-7c-3-2.2-7.1-1.5-9.3 1.5-2.1 3-1.4 7.1 1.6 9.3l9.8 7z"/>
					<path id="&lt;Path&gt;" class="s2" d="m812 401.3l-7.7 10.8 9.9 7c3 2.1 7.1 1.4 9.2-1.5 2.2-3 1.5-7.2-1.5-9.3z"/>
					<path id="&lt;Path&gt;" class="s8" d="m808.2 406.7l-15.3-10.9c-2.1 3-1.4 7.1 1.6 9.3l9.8 7z"/>
					<path id="&lt;Path&gt;" class="s5" d="m823.4 417.6l-15.2-10.9-3.9 5.4 9.9 7c3 2.1 7.1 1.4 9.2-1.5z"/>
				</g>
				<g id="&lt;Group&gt;">
					<path id="&lt;Path&gt;" class="s7" d="m846.8 240.8l10 6.9c3 2.1 3.7 6.2 1.7 9.2-2.1 3-6.2 3.8-9.3 1.7l-9.9-6.9z"/>
					<path id="&lt;Path&gt;" class="s2" d="m846.8 240.8l-7.5 10.9-10-6.9c-3-2-3.8-6.2-1.7-9.2 2.1-3 6.2-3.7 9.2-1.7z"/>
					<path id="&lt;Path&gt;" class="s8" d="m843 246.3l15.5 10.6c-2.1 3-6.2 3.8-9.3 1.7l-9.9-6.9z"/>
					<path id="&lt;Path&gt;" class="s5" d="m827.6 235.6l15.4 10.7-3.7 5.4-10-6.9c-3-2-3.8-6.2-1.7-9.2z"/>
				</g>
				<g id="&lt;Group&gt;">
					<path id="&lt;Path&gt;" class="s7" d="m829.4 265.6l10 6.9c3 2.1 3.8 6.2 1.7 9.2-2.1 3-6.2 3.8-9.2 1.7l-10-6.9z"/>
					<path id="&lt;Path&gt;" class="s2" d="m829.4 265.6l-7.5 10.9-10-6.9c-3-2-3.7-6.2-1.7-9.2 2.1-3 6.2-3.8 9.3-1.7z"/>
					<path id="&lt;Path&gt;" class="s8" d="m825.7 271.1l15.4 10.6c-2.1 3-6.2 3.8-9.2 1.7l-10-6.9z"/>
					<path id="&lt;Path&gt;" class="s5" d="m810.2 260.4l15.5 10.7-3.8 5.4-10-6.9c-3-2-3.7-6.2-1.7-9.2z"/>
				</g>
				<g id="&lt;Group&gt;">
					<path id="&lt;Path&gt;" class="s7" d="m812 290.4l10 6.9c3 2 3.8 6.2 1.7 9.2-2.1 3-6.2 3.7-9.2 1.7l-10-6.9z"/>
					<path id="&lt;Path&gt;" class="s2" d="m812 290.4l-7.5 10.9-9.9-6.9c-3.1-2.1-3.8-6.2-1.7-9.2 2-3 6.2-3.8 9.2-1.7z"/>
					<path id="&lt;Path&gt;" class="s8" d="m808.3 295.8l15.4 10.7c-2.1 3-6.2 3.7-9.2 1.7l-10-6.9z"/>
					<path id="&lt;Path&gt;" class="s5" d="m792.9 285.2l15.4 10.6-3.8 5.5-9.9-6.9c-3.1-2.1-3.8-6.2-1.7-9.2z"/>
				</g>
				<g id="&lt;Group&gt;">
					<path id="&lt;Path&gt;" class="s7" d="m794.7 315.2l9.9 6.8c3 2.1 3.8 6.2 1.7 9.3-2.1 3-6.2 3.7-9.2 1.6l-10-6.8z"/>
					<path id="&lt;Path&gt;" class="s2" d="m794.7 315.2l-7.6 10.9-9.9-6.9c-3-2.1-3.8-6.2-1.7-9.2 2.1-3 6.2-3.8 9.2-1.7z"/>
					<path id="&lt;Path&gt;" class="s8" d="m790.9 320.6l15.4 10.7c-2.1 3-6.2 3.7-9.2 1.6l-10-6.8z"/>
					<path id="&lt;Path&gt;" class="s5" d="m775.5 310l15.4 10.6-3.8 5.5-9.9-6.9c-3-2.1-3.8-6.2-1.7-9.2z"/>
				</g>
				<g id="&lt;Group&gt;">
					<path id="&lt;Path&gt;" class="s7" d="m777.3 339.9l9.9 6.9c3 2.1 3.8 6.2 1.7 9.2-2.1 3-6.2 3.8-9.2 1.7l-10-6.9z"/>
					<path id="&lt;Path&gt;" class="s4" d="m777.3 339.9l-7.6 10.9-9.9-6.8c-3-2.1-3.8-6.2-1.7-9.2 2.1-3.1 6.2-3.8 9.2-1.7z"/>
					<path id="&lt;Path&gt;" class="s8" d="m773.5 345.4l15.4 10.6c-2.1 3-6.2 3.8-9.2 1.7l-10-6.9z"/>
					<path id="&lt;Path&gt;" class="s5" d="m758.1 334.8l15.4 10.6-3.8 5.4-9.9-6.8c-3-2.1-3.8-6.2-1.7-9.2z"/>
				</g>
				<g id="&lt;Group&gt;">
					<path id="&lt;Path&gt;" class="s7" d="m759.9 364.7l10 6.9c3 2.1 3.7 6.2 1.6 9.2-2 3-6.2 3.8-9.2 1.7l-9.9-6.9z"/>
					<path id="&lt;Path&gt;" class="s4" d="m759.9 364.7l-7.5 10.9-10-6.8c-3-2.1-3.8-6.3-1.7-9.3 2.1-3 6.2-3.7 9.2-1.7z"/>
					<path id="&lt;Path&gt;" class="s8" d="m756.1 370.2l15.4 10.6c-2 3-6.2 3.8-9.2 1.7l-9.9-6.9z"/>
					<path id="&lt;Path&gt;" class="s5" d="m740.7 359.5l15.4 10.7-3.7 5.4-10-6.8c-3-2.1-3.8-6.3-1.7-9.3z"/>
				</g>
				<g id="&lt;Group&gt;">
					<g id="&lt;Group&gt;">
						<path id="&lt;Path&gt;" class="s4" d="m805.7 120.1l-71.6-26.5c-3.9-1.4-8.2 0.6-9.6 4.4l-17.5 47.5c-1.4 3.9 0.5 8.2 4.4 9.6l71.6 26.4c3.9 1.5 8.2-0.5 9.7-4.4l17.5-47.4c1.4-3.9-0.6-8.2-4.5-9.6z"/>
						<path id="&lt;Path&gt;" class="s9" d="m719 151.6l-0.9-0.3c-1.3-0.5-1.9-1.9-1.5-3.2l14.9-40.2c0.5-1.3 1.9-2 3.2-1.5l0.8 0.3c1.3 0.5 2 1.9 1.5 3.2l-14.8 40.2c-0.5 1.3-2 2-3.2 1.5z"/>
						<path id="&lt;Path&gt;" class="s9" d="m733.8 157.1l-0.8-0.3c-1.3-0.5-2-1.9-1.5-3.2l14.8-40.3c0.5-1.3 1.9-1.9 3.2-1.4l0.9 0.3c1.3 0.5 1.9 1.9 1.5 3.2l-14.9 40.2c-0.5 1.3-1.9 2-3.2 1.5z"/>
						<path id="&lt;Path&gt;" class="s9" d="m748.7 162.6l-0.9-0.3c-1.3-0.5-1.9-2-1.5-3.3l14.9-40.2c0.5-1.3 1.9-1.9 3.2-1.5l0.8 0.4c1.3 0.4 2 1.9 1.5 3.2l-14.8 40.2c-0.5 1.3-1.9 1.9-3.2 1.5z"/>
						<path id="&lt;Path&gt;" class="s9" d="m763.5 168l-0.8-0.3c-1.3-0.4-2-1.9-1.5-3.2l14.8-40.2c0.5-1.3 2-1.9 3.2-1.5l0.9 0.3c1.3 0.5 1.9 2 1.5 3.2l-14.9 40.3c-0.5 1.3-1.9 1.9-3.2 1.4z"/>
						<path id="&lt;Path&gt;" class="s9" d="m778.4 173.5l-0.9-0.3c-1.3-0.5-1.9-1.9-1.5-3.2l14.9-40.2c0.5-1.3 1.9-2 3.2-1.5l0.8 0.3c1.3 0.5 2 1.9 1.5 3.2l-14.8 40.3c-0.5 1.2-1.9 1.9-3.2 1.4z"/>
						<path id="&lt;Path&gt;" class="s7" d="m729.6 407.6l-125-46.1c-1.4-0.6-2.1-2.1-1.6-3.6l1.7-4.6c0.5-1.5 2.1-2.2 3.5-1.7l125 46.2c1.5 0.5 2.2 2.1 1.7 3.5l-1.8 4.7c-0.5 1.4-2.1 2.2-3.5 1.6z"/>
						<path id="&lt;Path&gt;" class="s10" d="m807.4 203.9l-7.7-2.9 3.1-8.3c0.6-1.7 2.5-2.6 4.3-2 1.7 0.7 3.6-0.2 4.2-1.9l4.8-13c0.6-1.7-0.2-3.6-2-4.3l-119.8-44.2c-1.7-0.7-3.6 0.2-4.3 1.9l-4.8 13c-0.6 1.7 0.3 3.7 2 4.3 1.7 0.6 2.6 2.5 2 4.2l-3.1 8.4-7.7-2.9c-12.7-4.6-26.7 1.8-31.3 14.5l-56.9 153.9c-4.6 12.6 1.8 26.6 14.5 31.3l129 47.6c12.6 4.7 26.7-1.8 31.3-14.4l56.8-153.9c4.7-12.6-1.8-26.7-14.4-31.3z"/>
						<path id="&lt;Path&gt;" class="s11" d="m758.5 329.5l-124.5-46c-4.6-1.7-6.9-6.7-5.2-11.3l25.8-69.8c1.7-4.6 6.7-6.9 11.3-5.2l124.4 45.9c4.6 1.7 6.9 6.7 5.2 11.3l-25.8 69.9c-1.7 4.5-6.7 6.8-11.2 5.2z"/>
						<g id="&lt;Group&gt;">
							<path id="&lt;Compound Path&gt;" fill-rule="evenodd" class="s9" d="m674.7 259.1l-5.2-1.9-2.4-12.8q-0.3-1.7-0.7-3.1-0.4-1.3-1-2.3-0.6-0.9-1.5-1.6-0.9-0.6-2.1-1.1l-3.6-1.3-5.8 15.9-4.4-1.7 13.8-37.2 11.1 4.1q2.4 0.9 4.3 2.2 1.8 1.4 2.9 3.2 1 1.8 1.2 4 0.2 2.2-0.7 4.7-0.8 1.9-1.9 3.3-1.2 1.4-2.8 2.3-1.5 0.9-3.4 1.2-1.8 0.4-3.9 0.2v0.1q0.7 0.7 1.2 1.5 0.5 0.8 0.9 1.8 0.3 0.9 0.6 2.1 0.3 1.1 0.6 2.6zm-10.1-41.6l-5 13.5 6 2.2q1.6 0.6 3.2 0.7 1.5 0 2.9-0.6 1.4-0.5 2.4-1.6 1.1-1.2 1.7-2.8 1.1-3-0.2-5.4-1.3-2.4-5-3.8z"/>
							<path id="&lt;Compound Path&gt;" class="s9" d="m710.8 272.4l-5.4-2-3.3-17.4q-0.1-0.8-0.2-2.2h-0.1q-0.4 0.5-1.5 1.5l-14.1 11-5.4-1.9 19.4-14.2-4.6-22.8 5.3 2 2.8 15.9q0.3 1.6 0.4 3.1l0.1 0.1q1.4-1.5 2.4-2.2l12.8-10.1 5 1.9-18.6 14.1z"/>
						</g>
						<path id="&lt;Path&gt;" class="s12" d="m781.3 260.3l-52.9-19.6 1.4-3.6 52.8 19.6z"/>
						<path id="&lt;Path&gt;" class="s12" d="m774.7 278.3l-52.9-19.7 1.3-3.6 52.9 19.7z"/>
						<path id="&lt;Path&gt;" class="s12" d="m768 296.3l-52.9-19.7 1.4-3.6 52.9 19.6z"/>
						<path id="&lt;Path&gt;" class="s12" d="m761.4 314.2l-120.9-44.8 1.4-3.6 120.8 44.8z"/>
						<path id="&lt;Path&gt;" class="s7" d="m686 145.7l122.5 45.2c1.2-0.1 2.4-0.9 2.8-2.1l4.8-13c0.6-1.7-0.2-3.6-2-4.3l-119.8-44.2c-1.7-0.7-3.6 0.2-4.3 1.9l-4.8 13c-0.4 1.3-0.1 2.6 0.8 3.5z"/>
					</g>
					<path id="&lt;Path&gt;" class="s13" d="m807.4 203.9l-7.7-2.9 3.1-8.3c0.6-1.7 2.5-2.6 4.3-2 1.7 0.7 3.6-0.2 4.2-1.9l4.8-13c0.6-1.7-0.2-3.6-2-4.3l-60.9-22.5-85.1 230.3 65.6 24.2c12.6 4.7 26.7-1.8 31.3-14.4l56.8-153.9c4.7-12.6-1.8-26.7-14.4-31.3z"/>
				</g>
			</g>
			<g id="&lt;Group&gt;">
				<g id="&lt;Group&gt;">
					<g id="&lt;Group&gt;">
						<path id="&lt;Path&gt;" class="s3" d="m791.9 592.4c51.9-15.7 90-57.8 112.8-90.3 24.8-35.4 37.4-67.4 37.5-67.8l2.2 1.1c-0.1 0.3-12.8 32.6-37.7 68.2-23 32.9-61.5 75.4-114.1 91.2z"/>
					</g>
					<g id="&lt;Group&gt;">
						<path id="&lt;Path&gt;" class="s3" d="m940.9 422.4c-5.1 8.4-6.5 18.3-4.5 27 8.2-1.5 16-6.8 21.2-15.3 5.1-8.4 6.4-18.3 4.4-27-8.2 1.5-16 6.8-21.1 15.3z"/>
					</g>
					<g id="&lt;Group&gt;">
						<path id="&lt;Path&gt;" class="s3" d="m944 455.9c-9 3-15.9 9.6-19.5 17.6 7.4 4.4 16.7 5.6 25.7 2.6 9.1-2.9 16-9.5 19.5-17.5-7.3-4.4-16.6-5.6-25.7-2.7z"/>
					</g>
					<g id="&lt;Group&gt;">
						<path id="&lt;Path&gt;" class="s3" d="m937.7 486.1c-9.4-1.8-18.4 0.6-25 5.9 4.7 7.5 12.6 13.1 22 14.9 9.4 1.7 18.5-0.7 25.1-6-4.8-7.4-12.7-13-22.1-14.8z"/>
					</g>
					<g id="&lt;Group&gt;">
						<path id="&lt;Path&gt;" class="s3" d="m918.1 514.2c-9.4-1.8-18.4 0.7-25 5.9 4.8 7.5 12.6 13.1 22 14.9 9.4 1.8 18.5-0.7 25.1-6-4.8-7.4-12.6-13-22.1-14.8z"/>
					</g>
					<g id="&lt;Group&gt;">
						<path id="&lt;Path&gt;" class="s3" d="m922.1 468.9c0-9.2-3.4-17.7-8.7-23.7-5.4 5.2-8.7 13.2-8.7 22.4 0 9.3 3.3 17.8 8.7 23.8 5.3-5.2 8.7-13.3 8.7-22.5z"/>
					</g>
					<g id="&lt;Group&gt;">
						<path id="&lt;Path&gt;" class="s3" d="m901.7 498c0.1-9.2-3.2-17.8-8.4-23.9-5.4 5.1-8.9 13.1-9.1 22.3-0.1 9.2 3.2 17.8 8.4 23.9 5.4-5.1 8.9-13.1 9.1-22.3z"/>
					</g>
					<g id="&lt;Group&gt;">
						<path id="&lt;Path&gt;" class="s3" d="m885.8 542.6c-3.5-2.1-7.5-2.4-10.9-1.1 0.8 3.8 3.1 7.3 6.7 9.4 3.5 2.1 7.4 2.4 10.9 1.1-0.8-3.8-3.2-7.3-6.7-9.4z"/>
					</g>
				</g>
				<path id="&lt;Path&gt;" class="s0" d="m697.1 629.6c0 0-47.8-173.7-33.5-191.5 19.7-24.7 38.1 55.4 39.6 48.5 14.1-64.8 16.5-147.5 66.2-157.2 28.3-5.6-5.2 61.5-2.8 79.4 2.5 17.9 52.4-42.7 82.8-74.6 30.4-31.8 46.8-12.4 28 27.2-18.2 38.4-78.7 81.1-65.9 85.8 12.7 4.6 88.5-46 98.4-25.2 12 25.5-102.5 62.8-91.5 68.3 11 5.6 65.6-14.6 64.5 5.1-1.1 19.7-75.1 20.5-73.7 29.1 2.4 14 50.7-18.7 53.2 0.6 2.6 19.7-64 17.5-62.6 32.9 0.9 8.9 4.9 0.6 7.2 12.8 5.4 27.9-71.7 58.6-71.7 58.6z"/>
				<g id="&lt;Group&gt;">
					<path id="&lt;Path&gt;" class="s2" d="m676.6 628.5c0 0 40.7-65.3 60.7-77.8 21.2-13.4 5.6 25.7 5.6 25.7 0 0 43-53.3 55.4-42.9 12.5 10.4 1.6 22.9 1.6 22.9 0 0 39.3-12.5 46.7 1.9 11.4 22-53.3 41.9-53.3 41.9 0 0 27.9-0.9 23.1 14.2-7.3 22.9-139.8 14.1-139.8 14.1z"/>
					<path id="&lt;Path&gt;" class="s3" d="m846.6 558.3c-7.4-14.4-46.7-1.9-46.7-1.9 0 0 10.9-12.5-1.6-22.9-12.4-10.4-47 22.2-47 22.2 0 0 3.2-26.4-22.9-2.7-18.6 17-51.8 75.5-51.8 75.5z"/>
				</g>
				<g id="&lt;Group&gt;">
					<g id="&lt;Group&gt;">
						<path id="&lt;Path&gt;" class="s3" d="m671.1 572.4c40.3-24.1 63.3-67.4 75.5-99.5 13.3-34.9 17-64.4 17.1-64.7l2 0.4c0 0.3-3.8 30-17.1 65.1-12.4 32.4-35.6 76.2-76.4 100.6z"/>
					</g>
					<g id="&lt;Group&gt;">
						<path id="&lt;Path&gt;" class="s3" d="m760 398.4c-2.5 8.2-1.5 16.8 2 23.6 6.6-3 12-9.1 14.5-17.2 2.5-8.2 1.6-16.7-2-23.6-6.5 3-12 9.1-14.5 17.2z"/>
					</g>
					<g id="&lt;Group&gt;">
						<path id="&lt;Path&gt;" class="s3" d="m769.8 425.9c-7 4.4-11.4 11.4-12.7 18.8 7.1 2.2 15.2 1.2 22.1-3.2 7-4.4 11.4-11.3 12.7-18.8-7.1-2.1-15.2-1.2-22.1 3.2z"/>
					</g>
					<g id="&lt;Group&gt;">
						<path id="&lt;Path&gt;" class="s3" d="m770.9 452.5c-8.3 0.5-15.3 4.5-19.8 10.3 5.6 5.2 13.4 8.3 21.6 7.8 8.3-0.5 15.4-4.5 19.8-10.3-5.6-5.3-13.4-8.3-21.6-7.8z"/>
					</g>
					<g id="&lt;Group&gt;">
						<path id="&lt;Path&gt;" class="s3" d="m760.4 480.2c-8.3 0.5-15.3 4.5-19.7 10.3 5.5 5.2 13.3 8.3 21.6 7.8 8.3-0.5 15.3-4.5 19.7-10.3-5.6-5.2-13.3-8.3-21.6-7.8z"/>
					</g>
					<g id="&lt;Group&gt;">
						<path id="&lt;Path&gt;" class="s3" d="m754.2 441.4c-2-7.7-6.6-14.1-12.4-18-3.4 5.5-4.5 12.9-2.5 20.6 1.9 7.8 6.6 14.2 12.3 18.1 3.4-5.5 4.5-12.9 2.6-20.7z"/>
					</g>
					<g id="&lt;Group&gt;">
						<path id="&lt;Path&gt;" class="s3" d="m743.2 470.1c-1.8-7.7-6.4-14.2-12.1-18.2-3.4 5.4-4.7 12.8-2.9 20.6 1.9 7.7 6.4 14.2 12.1 18.2 3.5-5.4 4.7-12.8 2.9-20.6z"/>
					</g>
					<g id="&lt;Group&gt;">
						<path id="&lt;Path&gt;" class="s3" d="m739.3 510.8c-3.3-1-6.7-0.4-9.3 1.4 1.5 3 4.1 5.5 7.5 6.5 3.4 1 6.8 0.4 9.4-1.4-1.5-3-4.2-5.4-7.6-6.5z"/>
					</g>
				</g>
			</g>
			<path id="&lt;Compound Path&gt;" fill-rule="evenodd" class="s3" d="m586.6 40.2c0.3 4.5 0.5 9 0.9 13.4 0.1 0.9 0.9 2 1.6 2.3 4.8 2.1 9.6 4 14.3 6.1 1.4 0.7 2.3 0.8 3.5-0.2 4.2-3.5 8.5-6.8 12.8-10.2 0.7-0.5 1.5-1 2.7-2 5.5 6 11 11.8 16.7 17.8-4.3 5-8.2 9.7-12.3 14.1-1.4 1.6-1.7 2.7-0.7 4.8 2.1 4.3 3.5 8.9 5.4 13.4 0.3 0.6 1.2 1.4 1.9 1.5 5.5 0.8 11 1.6 16.5 2.1 2.7 0.2 3.5 1.3 3.4 3.8 0 0.9 0.3 1.9 0.4 2.8q-0.1 6.4-0.2 12.7c-0.2 0.5-0.4 0.9-0.5 1.4-0.6 4.9-0.2 4.1-4.8 4.5-5.6 0.4-11.2 0.8-16 1.2-2.9 6.4-5.6 12.3-8.4 18.5 4.2 5.3 8.5 10.8 12.8 16.4-5 6.6-11 11.9-17.7 16.6-4.9-4.3-9.7-8.4-14.5-12.6-0.9-0.8-1.5-1-2.8-0.5-4.9 2.2-9.8 4.2-14.9 6-1.4 0.5-1.8 1.2-2 2.5-0.6 5.6-1.4 11.2-2.1 16.8-0.2 1.4-0.6 2.1-2.2 2.3-7 0.9-14 0.4-20.9-0.8-1.4-0.3-1.6-1.1-1.7-2.3-0.3-5.4-0.8-10.9-1.1-16.3 0-1.6-0.5-2.3-2.1-2.9-5.6-2.1-11.1-4.6-17.1-7.1-4.8 3.8-10.2 8-15.6 12.3-6.8-5.1-12.4-10.9-17-17.8 4.6-5.3 9.2-10.5 13.3-15.3-1.9-5.5-3.9-10.6-5.5-15.7-0.6-2-1.5-2.8-3.5-3-5.3-0.5-10.7-1.2-16-1.9-1.1-0.2-2.5 0-2.4-1.8q0.3-10.6 0.6-21.2c0.1-1.5 0.9-2 2.4-2.1 5.5-0.3 11-0.9 16.6-1.1 2.1-0.1 2.8-1.1 3.5-2.9 1.7-4.3 3.6-8.7 5.8-12.8 0.9-1.8 0.9-2.7-0.4-4.2-3.9-4.8-7.7-9.7-11.4-14.4 2.4-4.4 12.9-14.2 18-16.9 4.7 4.1 9.5 8.3 14.2 12.6 1.2 1 2 1 3.4 0.4 4.5-1.9 9.1-3.4 13.7-5.2 0.7-0.3 1.6-1.3 1.7-2.1 0.7-4.9 1.3-9.8 1.8-14.8 0.3-2.8 0.4-3.9 1.5-4.4l22.5 0.5c1.5 0.8 1.6 2.1 1.9 5.7zm-13.6 38.1c-20.1-0.5-36.9 15.5-37.3 35.7-0.5 20.2 15.5 36.9 35.7 37.4 20.2 0.4 36.9-15.6 37.4-35.8 0.4-20.2-15.6-36.9-35.8-37.3z"/>
			<path id="&lt;Compound Path&gt;" fill-rule="evenodd" class="s7" d="m412.6 86.7c0.4 1.8 0.8 3.7 1.2 5.5 0.1 0.3 0.4 0.7 0.8 0.8 2 0.7 4.2 1.2 6.2 1.8 0.6 0.2 1 0.2 1.4-0.3 1.6-1.7 3.2-3.3 4.8-4.9 0.3-0.3 0.5-0.6 1-1 2.6 2.1 5.2 4.3 7.9 6.4-1.5 2.3-2.9 4.5-4.3 6.5-0.5 0.8-0.6 1.3-0.1 2.1 1.1 1.6 2 3.5 3 5.2 0.2 0.2 0.6 0.5 0.9 0.5 2.3 0 4.6 0.1 6.9 0 1.2-0.1 1.6 0.3 1.7 1.3 0 0.4 0.2 0.8 0.3 1.2q0.3 2.6 0.6 5.3c0 0.2-0.1 0.4-0.1 0.6 0 2 0.1 1.7-1.8 2.1-2.2 0.5-4.5 0.9-6.5 1.4-0.9 2.8-1.6 5.4-2.4 8.1 2 2 4.1 4 6.2 6-1.7 3.1-3.9 5.6-6.4 7.9-2.3-1.5-4.5-2.9-6.8-4.4-0.4-0.3-0.6-0.3-1.1 0q-2.9 1.7-5.9 3.3c-0.5 0.3-0.6 0.6-0.6 1.1 0 2.4 0 4.7 0 7.1 0 0.6-0.1 0.9-0.8 1.1-2.8 0.7-5.7 0.9-8.7 0.8-0.6 0-0.7-0.4-0.8-0.9-0.4-2.2-0.9-4.4-1.3-6.7-0.2-0.6-0.4-0.9-1.1-1-2.4-0.6-4.8-1.3-7.4-2-1.8 1.8-3.8 3.9-5.8 5.9-3.1-1.7-5.8-3.8-8.1-6.4 1.7-2.4 3.3-4.9 4.7-7-1.1-2.2-2.2-4.2-3.1-6.3-0.4-0.7-0.8-1-1.6-1-2.3 0.1-4.5 0.1-6.8 0.1-0.4 0-1 0.1-1.1-0.6q-0.4-4.4-0.9-8.8c-0.1-0.6 0.2-0.9 0.9-1 2.2-0.4 4.5-1 6.8-1.4 0.8-0.1 1.1-0.6 1.3-1.4 0.4-1.9 1-3.8 1.6-5.6 0.3-0.8 0.3-1.2-0.3-1.7-1.9-1.8-3.8-3.6-5.6-5.3 0.8-2 4.6-6.6 6.5-8 2.2 1.4 4.4 2.9 6.6 4.4 0.6 0.4 0.9 0.3 1.4 0 1.8-1 3.6-1.9 5.4-2.9 0.3-0.2 0.6-0.7 0.6-1 0-2.1 0-4.1-0.1-6.2 0-1.2 0-1.6 0.4-1.9l9.4-1.1c0.6 0.3 0.7 0.8 1 2.3zm-16.9 33.4c0.9 8.3 8.5 14.4 16.9 13.4 8.3-0.9 14.4-8.5 13.4-16.9-0.9-8.3-8.5-14.4-16.8-13.4-8.4 0.9-14.5 8.5-13.5 16.9z"/>
			<g id="&lt;Group&gt;">
				<path id="&lt;Path&gt;" class="s14" d="m223.5 205.6c0-44.9 36.3-81.2 81.2-81.2h343.1c44.8 0 81.1 36.3 81.1 81.2v343.1c0 44.8-36.3 81.1-81.1 81.1h-343.1c-44.9 0-81.2-36.3-81.2-81.1z"/>
				<path id="&lt;Path&gt;" class="s15" d="m244.4 226.4c0-44.8 36.3-81.1 81.1-81.1h301.4c44.8 0 81.2 36.3 81.2 81.1v301.4c0 44.8-36.4 81.2-81.2 81.2h-301.4c-44.8 0-81.1-36.4-81.1-81.2z"/>
				<g id="&lt;Group&gt;">
					<path id="&lt;Path&gt;" class="s16" d="m380.2 210.3c0-17.7 14.3-32.1 32.1-32.1h127.8c17.8 0 32.2 14.4 32.2 32.1v10.8c0 17.7-14.4 32.1-32.2 32.1h-127.8c-17.8 0-32.1-14.4-32.1-32.1z"/>
				</g>
				<g id="&lt;Group&gt;">
					<path id="&lt;Compound Path&gt;" fill-rule="evenodd" class="s14" d="m417.7 175.3h117.1c22.3 0 40.4 18.1 40.4 40.4 0 22.3-18.1 40.4-40.4 40.4h-117.1c-22.3 0-40.4-18.1-40.4-40.4 0-22.3 18.1-40.4 40.4-40.4zm-34.6 43.4c0 17.5 14.1 31.6 31.6 31.6h123.1c17.4 0 31.6-14.1 31.6-31.6v-6c0-17.4-14.2-31.6-31.6-31.6h-123.1c-17.5 0-31.6 14.2-31.6 31.6z"/>
				</g>
				<path id="&lt;Path&gt;" class="s17" d="m350.7 311.6c0-21.3-17.3-38.7-38.7-38.7-21.4 0-38.7 17.4-38.7 38.7 0 20.8 16.2 37.7 36.7 38.7v160c-13.6 1-24.3 12.3-24.3 26.2 0 14.5 11.8 26.3 26.3 26.3 14.5 0 26.3-11.8 26.3-26.3 0-13.9-10.7-25.2-24.3-26.2v-160c20.5-1 36.7-17.9 36.7-38.7z"/>
				<path id="&lt;Path&gt;" class="s17" d="m677.5 311.6c0-21.3-17.3-38.7-38.7-38.7-21.4 0-38.7 17.4-38.7 38.7 0 20.8 16.3 37.7 36.7 38.7v160c-13.6 1-24.3 12.3-24.3 26.2 0 14.5 11.8 26.3 26.3 26.3 14.5 0 26.3-11.8 26.3-26.3 0-13.9-10.7-25.2-24.3-26.2v-160c20.5-1 36.7-17.9 36.7-38.7z"/>
				<path id="&lt;Path&gt;" class="s18" d="m430.6 629.8h123l-155.9-505.4h-123z"/>
				<path id="&lt;Path&gt;" class="s18" d="m653.3 629.8h43.2l-155.9-505.4h-43.2z"/>
				<g id="&lt;Group&gt;">
					<path id="&lt;Compound Path&gt;" fill-rule="evenodd" class="s19" d="m221.2 209.7c0-48.4 39.2-87.6 87.6-87.6h334.8c48.4 0 87.7 39.2 87.7 87.6v334.8c0 48.4-39.3 87.7-87.7 87.7h-334.8c-48.4 0-87.6-39.3-87.6-87.7zm4.6 343.2c0 41.2 33.5 74.6 74.7 74.6h351.4c41.3 0 74.7-33.4 74.7-74.6v-351.5c0-41.2-33.4-74.7-74.7-74.7h-351.4c-41.2 0-74.7 33.5-74.7 74.7z"/>
				</g>
			</g>
			<g id="&lt;Group&gt;">
				<g id="&lt;Group&gt;">
					<path id="&lt;Path&gt;" class="s16" d="m599 352.9c0 0-9.2 11.9-14 31.2-4.9 19.2 7.1 45.2 7.1 45.2l-7.9 16.8c0 0-4 39.3-3.4 46.8 0.6 7.5 3.4 102.6 3.4 102.6l16.2 3.6c0 0-4.6-98.9-4.1-100.8 0.5-2 9.9-126.9 9.9-126.9z"/>
				</g>
				<path id="&lt;Path&gt;" class="s20" d="m580.1 679.8c2.4-1.7 4.4-2.9 12-6.6 0.5-0.3 2.4-1.4 3-1.8 1.7-1.1 3.4-2.7 4.8-4.3 1.4-1.5 2-6.4 2.3-10.3-0.7-8.8-13.4-149.2-16.1-164.4-2.8-15.7 1.4-39.6 1.4-39.6l9.8-3.7 18.6 64.4-1.4 49.1c0 0 4.3 14.1 4.9 22.6 0.5 8.4-6.3 77-6.3 77 0 2.4 0.1 4.7 0.3 6 0.5 2.6 3.3 7.9 2.1 10.3-1.3 2.4-2.8 3-2.8 3l-33.4 0.6c-1.8 0-0.6-1.2 0.8-2.3z"/>
				<path id="&lt;Path&gt;" class="s20" d="m630.8 447.7c0 0 11.6 17.5 14.4 32 2.8 14.5-2 59 3.3 78 2.9 10.3 13.8 26.1 15.4 39.4 1.7 13.3 7.4 51.6 7.4 51.6 0.9 4 2.3 9 4.1 11.3 1 1.4 3 3.2 4.3 5.8 2.1 4 0.9 9.9-0.6 13.2-0.7 1.6 0.1 1.6-1.7 2.2-5.1 1.6-10.6-1.1-12.8-6.1-1.3-2.8-2.3-6.5-2.6-11.1-0.2-5-1-8.9-1.8-11.8l-37.1-91-26.8-78.5-6.9-40.4z"/>
				<path id="&lt;Path&gt;" class="s19" d="m663.6 672.5c8 1.5 13.3-3.2 16.1-6.8 2 4 3 10 1.5 13.3-1.3 2.9-5.1 2.8-8.2 2.9-3.2 0.1-5.7-1.7-7.3-4.5-0.7-1.3-1.5-2.9-2.1-4.9z"/>
				<path id="&lt;Path&gt;" class="s19" d="m595.1 671.4c8.9 2.2 15.4 0.7 19-0.8 1 2.7 2.2 6.1 1.6 8-0.8 2.4-2 2.9-3 2.9-8.1 0.2-29.6 0.5-35.7 0.6-0.9 0-1.4-1-0.8-1.7 1.5-1.8 18.3-8.6 18.9-9z"/>
				<path id="&lt;Path&gt;" class="s4" d="m623.3 561.4q-1 0.1-2.1 0.2 0 0-0.1 0-1 0-2.1 0.1 0 0-0.1 0-1 0-2.1 0.1 0 0-0.1 0-1 0-2.1 0.1c-7.9 0.2-17.7 0.1-24-0.9-3.2-32.1-4.4-61.3-5.6-67.8-2.8-15.7 2.5-40.4 2.5-40.4l2.6-0.5-1.6-9.2 43.1 5.5c0 0 12 17.5 14.9 32 2.9 14.4-2.1 59 3.4 77.9 0 0-12.3 2-26.6 2.9z"/>
				<g id="&lt;Group&gt;">
					<path id="&lt;Path&gt;" class="s16" d="m590.3 384.1c-0.6 2.4-6.4 16.8-7.1 19.5-7.7-1.2-30.4-8.1-31.5-8.5l-3.7 9.2q0.9 0.4 2 1c5.5 3.1 39.1 20.9 45.5 17.2 2.1-1.3 7.4-28.4 9.7-36.7-4.6-2.3-10.4 0.8-14.9-1.7z"/>
				</g>
				<path id="&lt;Path&gt;" class="s21" d="m548 404.3l3.7-9.2q0.2 0.1 0.8 0.3-0.6-0.2-0.8-0.3c-1-0.3-6.9-13.8-8.2-12.6-1.3 1.2 3.1 7.6 1.4 8.6-1.7 0.9-18.3-6.1-18.2-4.7 0.1 2.8 10 4.8 9.8 6-0.1 1.3-10.2-3.1-11.2-1.2-0.9 2 9.8 3.2 10.2 4.3 0.3 1-10.2 0.3-9.4 2.5 0.4 1.2 9.3 0.4 9.1 1.8-0.2 1.5-6.8 3.3-6.2 4.6 0.6 1.4 5.3-2.4 8.9-1.6 3.2 0.7 5.8-0.3 10.1 1.5q0 0 0 0z"/>
				<path id="&lt;Path&gt;" class="s19" d="m588.8 324.4c-1.7-7.7-3.3-15.4 1.1-23.9 3.6-6.8 9.9-10.7 17.1-11.6 20.5-2.4 16.1 16.7 44.7 20.8 8.9 1.3 17.1 2.5 24.5 6.9 13.4 8 18.5 20.8 9.6 41.7-21.8 51-73.8 6.6-81.7-2.4-7.9-8.9-14.2-26.6-15.3-31.5z"/>
				<path id="&lt;Path&gt;" class="s4" d="m621 348.7c0 0 10.3 1.1 16.5 7.8 6.2 6.8-10 60.8-11.1 69.3-1.1 8.6 10.8 32.3 10.8 32.3 0 0-40.4 8-50.9 1 0 0-0.9-66.1 0.2-72.2 1.2-6.1 10.5-30.9 12.8-33.4 2.2-2.4 21.7-4.8 21.7-4.8z"/>
				<path id="&lt;Path&gt;" class="s21" d="m615.8 327.8c0 0 0.1 0.5 0.2 1.3 0.7 3.7 3.1 15.8 1.7 22-1.1 4.5-4 14.9-13.3 13.3-2.7-0.5 2.4-12.1 2.1-13.4-0.4-2.3-1.1-5.5-1.7-8.8-0.4-1.9-0.8-3.8-1.1-5.6-1-5-1.8-9.1-1.8-9.1z"/>
				<path id="&lt;Path&gt;" class="s4" d="m616 329.1c-0.1-0.8-0.2-1.3-0.2-1.3l-13.9-0.3c0 0 0.8 4.1 1.8 9.1 0.3 1.8 0.7 3.7 1.1 5.5 2.1-0.3 4.4-1.3 6.6-3.3 2.5-2.2 4.1-4.7 5.1-7.5q-0.3-1.3-0.5-2.2z"/>
				<path id="&lt;Path&gt;" class="s21" d="m607.4 294.6c0 0 5.7 0.8 9.8 6.2 4.2 5.3 8.6 21.8-1.6 30.7-10.3 9-20.4-1.2-21.9-11.9-1.5-10.8-1.2-25.3 13.7-25z"/>
				<path id="&lt;Path&gt;" class="s21" d="m590.7 316.9c0.6 2.6 2.3 4.4 3.8 3.9 1.4-0.4 2.1-2.8 1.4-5.4-0.6-2.6-2.3-4.4-3.7-3.9-1.5 0.4-2.1 2.8-1.5 5.4z"/>
				<path id="&lt;Path&gt;" class="s19" d="m601.1 294.7c0 0 13.4 15.4 19.7 16.1 6.3 0.7 7.1 9 7.1 9 0 0-2.3-19.1-8.5-22.8-6.2-3.7-18.3-2.3-18.3-2.3z"/>
				<path id="&lt;Path&gt;" class="s21" d="m618.7 314.5c-0.5 2.8 0.5 5.3 2.3 5.7 1.8 0.4 3.7-1.6 4.2-4.4 0.5-2.7-0.6-5.3-2.3-5.7-1.8-0.3-3.7 1.6-4.2 4.4z"/>
				<path id="&lt;Path&gt;" class="s11" d="m600.1 324.9h9.7c0 0-0.2 3.6-4.5 3.8-5.2 0.2-5.2-3.8-5.2-3.8z"/>
				<g id="&lt;Group&gt;">
					<path id="&lt;Path&gt;" class="s16" d="m648.1 479.4c-4-18.8-18.5-33.2-19.5-52.5 0.9-8.3 20.8-57.5 14.4-65.4-5.4-6.5-15.1-13.6-21.3-12.8-5.6 7.7-13.9 24.1-15 37.5-1.9 22-3 175.8-0.1 211.6 8.8 0.4 58.8-1.8 58.8-1.8-2.9-23.9-14.4-102.1-17.3-116.6z"/>
				</g>
				<g id="&lt;Group&gt;">
					<path id="&lt;Path&gt;" class="s10" d="m618.9 392.5l-43.2 6.3c-1.3 0.2-2.2 1.4-2 2.7l8.4 57.7c0.2 1.3 1.4 2.2 2.7 2l43.2-6.3c1.3-0.2 2.2-1.4 2-2.7l-8.4-57.7c-0.2-1.3-1.4-2.2-2.7-2z"/>
					<path id="&lt;Path&gt;" class="s19" d="m586.7 395.3c-0.1-0.3 0.1-0.5 0.4-0.5l18-2.7c0.3 0 0.5 0.2 0.5 0.4l0.3 1.9-19 2.8z"/>
					<path id="&lt;Compound Path&gt;" fill-rule="evenodd" class="s19" d="m595.7 391.2c1.6-0.3 3.1 0.8 3.3 2.4 0.2 1.6-0.9 3-2.4 3.2-1.6 0.3-3.1-0.8-3.3-2.4-0.2-1.6 0.9-3 2.4-3.2zm0.7 4.6c1-0.1 1.7-1.1 1.6-2.1-0.2-1-1.1-1.7-2.1-1.5-1 0.1-1.7 1.1-1.6 2.1 0.2 1 1.1 1.7 2.1 1.5z"/>
					<path id="&lt;Path&gt;" class="s4" d="m586.9 394.8c-0.2 0.1-0.3 0.3-0.2 0.5l0.2 1.9 19-2.8c0.2 1.3-0.7 2.5-2 2.7l-14.3 2.1c-1.3 0.2-2.5-0.7-2.7-2l-0.2-1.9c-0.1-0.2 0-0.4 0.2-0.5z"/>
				</g>
				<path id="&lt;Path&gt;" class="s21" d="m599 432.4q-1.9 0.4-3.4 0.7c0 0-5.1-2.9-7.2-3.8-2.1-0.9-7.6-1.9-8.8-2.1-1.3-0.1-0.8 1.2 0.2 1.7 1.1 0.4 3.8 1.7 4.6 3.3 0 0-2.2 0.2-3.4-0.3-1.2-0.5-2.8-1.6-2.8-2.2 0-0.5-0.3-1.9-0.7-1.9-0.1 0.1-0.2 0.5-0.4 1q-0.2 0.7-0.3 1.4c-0.2 0.8-0.4 2-0.5 2.5-0.2 1.2 0.5 4.6 0.6 5.8 0.2 2.2 0.8 3.1 2 3.7 1.8 0.6 3.8 1.1 6.7 1.4 5.4 0.5 10.3-1 12.4-1.3 0.4 0 1.9-0.2 4.2-0.4z"/>
				<g id="&lt;Group&gt;">
					<path id="&lt;Path&gt;" class="s16" d="m646.1 366.5c-4.3-10.1-11.9-13.1-11.9-13.1-1.4-0.9-2.7 2.2-5 5.4-8.7 11.8-8.4 21.4-4.3 40.8l4.6 21.9c0 0-22.7 9.5-34 11.6 0 2.7 0.1 6 0.6 9.5q1-0.2 1.6-0.3c2.1-0.2 36.3-3.6 36.3-3.6 0 0 13.5-1.9 14.4-4.3 0.4-0.9 0.6-5.8 0.6-11.1 0 0 1.3-47.1-2.9-56.8z"/>
				</g>
			</g>
			<g id="&lt;Group&gt;">
				<g id="&lt;Group&gt;">
					<path id="&lt;Path&gt;" class="s21" d="m507.4 384.6c0.4-1.8-8.1-1.7-8.8-3.4-0.8-1.6 10-3.6 10.2-5.1 0.2-2.9-12 1.4-12 0 0.1-1.3 12.4-6.4 10.7-8.4-1.8-1.9-12.3 6.6-12.9 5.2-0.6-1.5 10.5-7.1 9.7-10.4-0.4-1.7-17.8 12.1-20.1 11.5-2.4-0.6 0.8-9.7-1.2-10.6-2-0.9-4.5 16.9-5.6 17.7-1.1 0.8-25.8 16.5-34.6 20.4-1.7-2.9-13.3-18.1-14.8-20.8-4.6 4.6-12.4 2.8-17.2 7 5.5 9.1 21.5 36.1 24.4 36.8 8.8 2.3 42.1-26.3 47.6-31.9 5.6-5.6 9.5-4.7 13.5-6.9 4.1-2.1 10.8 0.7 11.1-1.1z"/>
					<path id="&lt;Path&gt;" class="s19" d="m433.5 385.9c0 0-12.5-33.6-20.3-41.5-7.8-7.8-24.5-7.8-29.6 1-5 8.7 27.3 49.2 27.3 49.2z"/>
					<path id="&lt;Path&gt;" class="s21" d="m389.6 363.5c12.7-0.3 11.3-24.8 11.3-24.8 1.1 0.1 2.1 0.2 2.7 0.3-0.6-0.1-1.6-0.2-2.7-0.3-4.9-0.5-8.8-4.2-9.6-9-0.5-3.5-0.9-7.4-0.5-10 1-6-15.6-2.1-15.6-2.1l-2.2 14.3c-0.6 4.2-3.7 7.5-7.8 8.4 0 0 11.7 23.4 24.4 23.2z"/>
					<path id="&lt;Path&gt;" class="s22" d="m328.8 648.3c0 0-4.6 4.5-4.7 6.1-0.1 1.7-0.4 19.2 1.5 20.9 1.8 1.6 7.3 2.8 5.5 4.6-1.3 1.4-11.5 1.1-18.3 0.8-2-0.2-4.5-16-5.3-18.3-1.1-3.4-3.9-11.1-2.8-13.4 0.5-1.2 2.9-3.5 6.3-5.7 3.6-2.4 7-7.5 7-7.5z"/>
					<path id="&lt;Path&gt;" class="s21" d="m376.1 658.7c0 0-4.1 11.6-4.1 11.6-0.3 1.9-1.5 6.4-1.5 8.1 0 6.2 28.2-5.4 21.9-8.1-0.6-0.3-2.4-2.3-2.6-4.4-0.3-3.3 2.4-7.4 2.4-7.4z"/>
					<g id="&lt;Group&gt;">
						<path id="&lt;Path&gt;" class="s23" d="m420.3 442.9c0 0 5 20.2 5 20.5 0 33.6 3.7 99.9 2.4 106.2-3.1 15.4-36.2 94-36.2 94l-17.9-2.2 12.4-84.3-17.1-58 7.3-64.5z"/>
						<path id="&lt;Path&gt;" class="s10" d="m334.2 457.9l7 76-28.7 107.3c0 0 5 11.5 12.2 13.2l55.8-81.3 34.6-104.1-1.2-23.1z"/>
					</g>
					<path id="&lt;Path&gt;" class="s2" d="m311.2 643.2c0 0 10.5 29.7 14.6 31.1 1.1 0.4 6.4 1.4 7.4 3.7 0.3 0.7 0 3.1 0 3.1h-22c0 0-2.7-13.1-3.8-18.9 0 0-5.8-14.1-5.2-15.4 0.6-1.2 9-3.6 9-3.6z"/>
					<path id="&lt;Path&gt;" class="s2" d="m368.9 680.4l3.2-10.2c0 0 6.8 2.9 10.2 2.4 3.4-0.5 10-2.4 10-2.4 13.5 4.5 24.6 6.6 22.6 10.2z"/>
					<path id="&lt;Path&gt;" class="s6" d="m390.8 319.7c1-6-15.6-2.1-15.6-2.1l-0.3 1.8c0.5 1.2 1.1 2.2 1.8 2.9 3.7 4 9.5 6.4 14.5 6.6-0.5-3.2-0.8-6.7-0.4-9.2z"/>
					<g id="&lt;Group&gt;">
						<path id="&lt;Path&gt;" class="s21" d="m372.5 287.5c-0.5-0.2-4.3 26.8 1.9 33.5 6.3 6.7 20.2 6.9 24.6 1.6 4.8-5.8 3.2-32.6-6.4-39.5-9.7-6.9-20.1 4.4-20.1 4.4z"/>
						<path id="&lt;Path&gt;" class="s24" d="m388.9 270c-7.5 1.5-12.3 6.1-14.1 8.1-3.4 0.4-8 2.3-12.8 10.2-5.9 9.7-1.5 20.5 5.3 25.8 6.8 5.3 6.7 11.4 6.7 11.4l1.1-3.2c0.8-2.4 1.1-4.9 0.9-7.4-0.2-1.5-0.5-3.2-1.1-4.5-1.7-3.5 3.5-5.9 4.9-8.8 1.1-2.3 1.2-7.5 2.9-11.2l2.1-2.9c0 0 4.9-3.7 9.6-2.7 4.8 1.1 4.1-16.8-5.5-14.8z"/>
						<path id="&lt;Path&gt;" class="s21" d="m376.4 311.4c-1.7 0-3.1-2.4-3.1-5.4 0-3 1.4-5.4 3.1-5.4 1.7 0 3.1 2.4 3.1 5.4 0 3-1.4 5.4-3.1 5.4z"/>
					</g>
					<path id="&lt;Path&gt;" class="s11" d="m398.7 315.1l-6.2 1c0 0-0.2-2.4 2.5-2.9 3.3-0.6 3.7 1.9 3.7 1.9z"/>
					<path id="&lt;Path&gt;" class="s1" d="m410.8 349.4c-3.1-6.5-6.6-10.2-6.6-10.2-0.6-0.2-1.8-0.4-3.3-0.5 0 0 1.4 24.5-11.3 24.8-12.7 0.2-24.4-23.2-24.4-23.2-3.2 0.8-6.8 1.6-9 2.2 0 0-11.1 2.1-14.1 18.7-3 16.6-8.6 79-9 91.9-0.4 9.4 14 17.6 33.9 21.2 4.8 1.2 11 2.2 18.5 1.9q2.8 0.1 5.7 0c22.1-0.2 30-6.5 32.7-10.2q0.7-0.3 1.4-0.6c0 0 0-0.6-0.1-1.6q0.1-0.4 0.1-0.4c0 0 16.2-61.1-14.5-114z"/>
					<path id="&lt;Path&gt;" class="s21" d="m359.8 380.2c0 0-27.1 38.2-33.5 47.1-6.4 8.9-24.1 44.6-24.8 46-0.6 1.4 8.9 19 6.4 19.5-2.4 0.5-4.3-9.2-7-8.2-2.7 1.1-11.9 24-13.3 22.7-2.6-2.2 5.1-14.2 3.7-15-1.4-0.8-6.9 13.2-9.7 12.7-2.9-0.5 6.4-12.8 5.7-14-0.7-1.1-10.3 10.4-11.6 7.8-0.8-1.4 8.7-10.1 7.1-11-1.7-0.9-9.9 4.6-10.6 2.9-0.7-1.7 7.5-3.7 10.3-8.1 2.7-4.4 7-6.2 9.3-14.5 2.4-8.3 8-43.4 17.9-58.2 9.9-14.8 30.1-42.5 30.1-42.5z"/>
					<path id="&lt;Path&gt;" class="s19" d="m316 394.2l26.4 17.8c0 0 14.9-22.2 22.9-30.1 10.1-10-3.6-40.4-10.1-38.7-14.4 3.9-39.2 51-39.2 51z"/>
				</g>
				<g id="&lt;Group&gt;">
					<path id="&lt;Path&gt;" class="s19" d="m300.1 687.4c0-1.2 0.9-2.1 2.1-2.1h3.2c1.1 0 2 0.9 2 2.1 0 1.1-0.9 2-2 2h-3.2c-1.2 0-2.1-0.9-2.1-2z"/>
					<path id="&lt;Path&gt;" class="s19" d="m344.6 687.4c0-1.2 0.9-2.1 2-2.1h3.2c1.1 0 2 0.9 2 2.1 0 1.1-0.9 2-2 2h-3.2c-1.1 0-2-0.9-2-2z"/>
					<path id="&lt;Path&gt;" class="s19" d="m421.2 687.4c0-1.2 0.9-2.1 2-2.1h3.2c1.1 0 2 0.9 2 2.1 0 1.1-0.9 2-2 2h-3.2c-1.1 0-2-0.9-2-2z"/>
					<path id="&lt;Path&gt;" class="s4" d="m289.8 683.3c0-1.8 1.5-3.3 3.3-3.3h136.6c1.8 0 3.3 1.5 3.3 3.3 0 1.9-1.5 3.4-3.3 3.4h-136.6c-1.8 0-3.3-1.5-3.3-3.4z"/>
					<path id="&lt;Path&gt;" class="s9" d="m289.8 683.3c0-1.8 1.5-3.3 3.3-3.3h60.6c1.8 0 3.3 1.5 3.3 3.3 0 1.9-1.5 3.4-3.3 3.4h-60.6c-1.8 0-3.3-1.5-3.3-3.4z"/>
				</g>
			</g>
			<g id="&lt;Group&gt;">
				<path id="&lt;Path&gt;" class="s25" d="m261.7 205.5c-39.3 0-71.1-31.7-71.1-71 0-39.3 31.8-71.1 71.1-71.1 39.3 0 71.1 31.8 71.1 71.1 0 39.3-31.8 71-71.1 71z"/>
				<g id="&lt;Group&gt;">
					<path id="&lt;Compound Path&gt;" fill-rule="evenodd" class="s26" d="m261.7 208.2c-19.7 0-38.2-7.7-52.1-21.6-13.9-13.9-21.6-32.4-21.6-52.1 0-19.7 7.7-38.2 21.6-52.1 13.9-14 32.4-21.6 52.1-21.6 19.7 0 38.2 7.6 52.1 21.6 13.9 13.9 21.6 32.4 21.6 52.1 0 19.7-7.7 38.2-21.6 52.1-13.9 13.9-32.4 21.6-52.1 21.6zm68.4-73.7c0-37.9-30.6-68.5-68.4-68.5-37.8 0-68.4 30.6-68.4 68.5 0 37.8 30.6 68.4 68.4 68.4 37.8 0 68.4-30.6 68.4-68.4z"/>
				</g>
				<g id="&lt;Group&gt;">
					<path id="&lt;Path&gt;" class="s27" d="m297.6 110.8c-18.5-12.9-27.3 13.3-27.3 13.3 0 0-8.8-26.2-27.3-13.3-17.6 12.3 1.9 47.8 27.3 60.1 25.4-12.3 44.9-47.8 27.3-60.1z"/>
					<g id="&lt;Group&gt;">
						<path id="&lt;Path&gt;" class="s11" d="m248.3 162.5l-4.1-24.6h-11.1l-1.9 13.6-7.8-28.4-7.3 18.1h-11v-1.8h9.8l8.8-21.7 7 25.3 0.9-6.8h14.1l2.6 16 6.2-35.1 5.2 20.9h27.9v1.8h-29.3l-3.5-14.4z"/>
					</g>
				</g>
			</g>
			<g id="&lt;Group&gt;">
				<path id="&lt;Path&gt;" class="s25" d="m178.7 439.3c-41.7 0-75.3-33.7-75.3-75.3 0-41.7 33.6-75.4 75.3-75.4 41.7 0 75.3 33.7 75.3 75.4 0 41.6-33.6 75.3-75.3 75.3z"/>
				<g id="&lt;Group&gt;">
					<path id="&lt;Compound Path&gt;" fill-rule="evenodd" class="s26" d="m178.7 442.1c-20.9 0-40.5-8.1-55.2-22.9-14.8-14.8-22.9-34.4-22.9-55.2 0-20.9 8.1-40.5 22.9-55.3 14.7-14.7 34.3-22.9 55.2-22.9 20.9 0 40.5 8.2 55.2 22.9 14.8 14.8 22.9 34.4 22.9 55.3 0 20.8-8.1 40.4-22.9 55.2-14.7 14.8-34.3 22.9-55.2 22.9zm72.5-78.1c0-40.2-32.4-72.6-72.5-72.6-40.1 0-72.5 32.4-72.5 72.6 0 40.1 32.4 72.5 72.5 72.5 40.1 0 72.5-32.4 72.5-72.5z"/>
				</g>
				<path id="&lt;Path&gt;" class="s27" d="m147.5 401.3c-6.7-13.7-12.3-26.8-12.1-41.5 0.1-11.1 6.8-18.4 17.7-19.2 24.7-1.7 49.5-0.6 74.2-0.2 4.6 0.1 3.8 3 2.9 5.6-2.8 7.4-8.1 13.2-12.5 19.6-7.4 10.5-18.2 12.3-29.7 13-4.1 0.3-8.2 0-12.3 0.7-10.7 1.9-18.6 7.7-24.6 16.4-1.1 1.6-2.1 3.2-3.6 5.6z"/>
				<path id="&lt;Path&gt;" class="s27" d="m210.2 383.4c-14.2 12.8-30 22-49.3 24.1-3.1 0.3-3.3-0.9-2-3.2 6.1-11.2 15.2-18.2 28.1-19.2 7.7-0.6 15.5-0.5 23.2-1.7z"/>
				<path id="&lt;Path&gt;" class="s11" d="m182 319.4l-10.7 31.5 8.6-1.6-9.8 22.4 25.9-27.9-10.6-1.2 15.3-19.5z"/>
			</g>
			<g id="&lt;Group&gt;">
				<g id="&lt;Group&gt;">
					<path id="&lt;Path&gt;" class="s25" d="m216.7 672.6c-39.3 0-71.1-31.8-71.1-71.1 0-39.3 31.8-71.1 71.1-71.1 39.3 0 71 31.8 71 71.1 0 39.3-31.7 71.1-71 71.1z"/>
					<g id="&lt;Group&gt;">
						<path id="&lt;Compound Path&gt;" fill-rule="evenodd" class="s26" d="m216.7 675.2c-19.7 0-38.2-7.7-52.2-21.6-13.9-13.9-21.5-32.4-21.5-52.1 0-19.7 7.6-38.2 21.5-52.1 14-13.9 32.5-21.6 52.2-21.6 19.6 0 38.2 7.7 52.1 21.6 13.9 13.9 21.6 32.4 21.6 52.1 0 19.7-7.7 38.2-21.6 52.1-13.9 13.9-32.5 21.6-52.1 21.6zm68.4-73.7c0-37.8-30.6-68.4-68.4-68.4-37.9 0-68.5 30.6-68.5 68.4 0 37.8 30.6 68.4 68.5 68.4 37.8 0 68.4-30.6 68.4-68.4z"/>
					</g>
				</g>
				<g id="&lt;Group&gt;">
					<g id="&lt;Group&gt;">
						<path id="&lt;Path&gt;" class="s11" d="m216.6 646.7c-25 0-45.1-20.2-45.1-45.1 0-25 20.1-45.1 45.1-45.1 24.9 0 45.1 20.1 45.1 45.1 0 24.9-20.2 45.1-45.1 45.1z"/>
					</g>
					<path id="&lt;Path&gt;" class="s27" d="m216.6 642.5c-22.6 0-40.9-18.3-40.9-40.9 0-22.6 18.3-40.9 40.9-40.9 22.6 0 40.9 18.3 40.9 40.9 0 22.6-18.3 40.9-40.9 40.9z"/>
					<g id="&lt;Group&gt;">
						<path id="&lt;Path&gt;" class="s11" d="m221 574.3l-8.2-0.1-0.3 23.3h-23.3l0.1 8.3 23.1-0.1-0.2 23.2 8.2 0.1 0.3-23.3 23.2-0.1v-8.2l-23.2 0.1z"/>
					</g>
				</g>
			</g>
		</g>
	</g>
</svg>