<svg version="1.2" xmlns="http://www.w3.org/2000/svg" viewBox="0 0 370 700" width="370" height="700">
	<title>3296433-ai</title>
	<defs>
		<clipPath clipPathUnits="userSpaceOnUse" id="cp1">
			<path d="m131.37 376.83c0 0 97.62 0.18 102.84 2.4 5.23 2.23 28.85 219.54 22.41 228.55-10.22 14.31-46.15 4.73-58.08 1.72 0 0-4.6-25.7-5.48-34.35-2.21-21.55-3.97-86.54-3.97-86.54-0.32-4.07-6.27-4.14-6.68-0.07-4.59 45.27-11.76 116.52-11.9 121.96 0 0-46.17 2.44-56.47-4-10.31-6.45 17.33-229.67 17.33-229.67z"/>
		</clipPath>
	</defs>
	<style>
		.s0 { fill: #dbdbdb } 
		.s1 { fill: #da8259 } 
		.s2 { fill: #ce7552 } 
		.s3 { fill: #fcbe8e } 
		.s4 { fill: #f29f83 } 
		.s5 { fill: #ffffff } 
		.s6 { fill: #393542 } 
		.s7 { fill: #f56947 } 
		.s8 { fill: #c6422c } 
		.s9 { fill: #b1a6a4 } 
		.s10 { fill: none;stroke: #f3bd53;stroke-linecap: round;stroke-miterlimit:10;stroke-width: 1.7 } 
		.s11 { fill: none;stroke: #000000;stroke-linecap: round;stroke-linejoin: round;stroke-width: 1.1 } 
		.s12 { fill: #56372f } 
		.s13 { fill: #6c4820 } 
		.s14 { fill: none;stroke: #000000;stroke-linecap: round;stroke-linejoin: round;stroke-width: 1.3 } 
		.s15 { fill: #ff504c } 
		.s16 { fill: none;stroke: #ffffff;stroke-miterlimit:10;stroke-width: 6 } 
		.s17 { fill: none;stroke: #c6422c;stroke-linecap: round;stroke-linejoin: round } 
	</style>
	<path id="&lt;Path&gt;" class="s0" d="m184.7 693.2c-53.2 0-96.1-4.3-96.1-9.5 0-5.3 42.9-9.6 96.1-9.6 53.1 0 96 4.3 96 9.6 0 5.2-42.9 9.5-96 9.5z"/>
	<g id="feminino">
		<g id="&lt;Group&gt;">
			<path id="&lt;Path&gt;" class="s1" d="m251.6 242.9c20.4-1.2 24.2-7.1 24.2-7.1-7.4-11.7-8.8-21.1-1.7-48 7-26.9-12.6-35.5-19.1-45.9-6.5-10.4-8.6-40.4-8.6-40.4 0 0-15.1-2-36.3-4.1 5.6 20.8 19.3 40.4 32.3 59.1 14.7 20.3 3.2 46.4 2.2 71.2l0.6-3.8z"/>
			<path id="&lt;Path&gt;" class="s2" d="m242.4 156.5c-13-18.7-26.7-38.3-32.3-59.1-33.6-3.5-82.5-7.5-110.4-5.1-4.2 28.4 4 58.6 7 87.1 2.2 17.3 2 34.9-0.7 52.2l-0.3 16.6c38.5 13.2 136.4-4.9 136.4-4.9l2.5-15.6c1-24.8 12.5-50.9-2.2-71.2z"/>
			<path id="&lt;Path&gt;" class="s1" d="m106.7 179.4c-3-28.5-11.2-58.7-7-87.1-12.9 1.1-23.9 14.2-23.9 18.7 0 33.3-9.9 40.1-13 61.5-3.2 21.4 9.4 37.3 12.1 47.1 2.7 9.7-5.4 17.7-5.4 17.7 21.5 10.4 27.7 9.2 27.7 9.2l9-25.3-0.2 10.4c2.7-17.3 2.9-34.9 0.7-52.2z"/>
			<g id="&lt;Group&gt;">
				<path id="&lt;Path&gt;" class="s3" d="m197.6 548.4c-5-44.5-15.3-135.6-15.3-135.6l58.7-0.8c0 0-0.6 70.6-1.2 138-13.3 3.7-27.1 5.9-41.3 6.6q-0.4-4.2-0.9-8.2z"/>
				<path id="&lt;Path&gt;" class="s4" d="m239.8 550c-13.3 3.7-27.1 5.9-41.3 6.6 2.5 21.9 5.4 47.7 7.7 68.2 11-0.7 22-1.6 32.9-2.8 0.3-20.7 0.5-46.1 0.7-72z"/>
				<path id="&lt;Path&gt;" class="s3" d="m238.8 652.8c0.1-8.2 0.2-18.7 0.3-30.8-10.9 1.2-21.9 2.1-32.9 2.8 2.4 20.8 4.1 36.1 4.1 36.1-6.1 28.3 24.9 19.2 24.9 19.2 0 0 55.3 4 54.3-4.6-0.9-8.5-50.7-22.7-50.7-22.7z"/>
			</g>
			<g id="&lt;Group&gt;">
				<path id="&lt;Path&gt;" class="s4" d="m170.5 550c-14.4 2.5-29.1 3.9-42.9 1.2 0.1 24.2 0.5 49.9 1.7 75.8 11.5-0.1 23.1-0.2 34.6-0.4z"/>
				<path id="&lt;Path&gt;" class="s3" d="m163.9 626.6c-11.5 0.2-23.1 0.3-34.6 0.4q0.6 13.6 1.4 27.2c0 0-46.4 15.4-45.4 24 0.9 8.5 55.1 3.1 55.1 3.1 0 0 33 8.3 20.5-19.7z"/>
				<path id="&lt;Path&gt;" class="s4" d="m170.5 550l11.8-137.2-50.9-1.7c0 0-4 62.3-3.8 140.1 13.8 2.7 28.5 1.3 42.9-1.2z"/>
				<path id="&lt;Path&gt;" class="s4" d="m197.6 548.4c-5-44.5-15.3-135.6-15.3-135.6l58.7-0.8c0 0-0.6 70.6-1.2 138-13.3 3.7-27.1 5.9-41.3 6.6q-0.4-4.2-0.9-8.2z"/>
			</g>
			<path id="&lt;Path&gt;" class="s3" d="m122.9 279.8c-2.7-33.3 4.9-43.9 15.7-46.3l3-1.4c5.1-2.1 10.9-4.4 10.9-4.4l1.2-22.4 42.8-2.2-0.4 24.6 8.3 2.4c0 0 7.8 2.3 10.3 2.9 17.8 4.6 14.5 41.4 14.9 42.3 1 10.7 1.7 74.5 1.7 74.5l7 71c-76.1 18.3-106.9-9.7-106.9-9.7l-0.2-56z"/>
			<path id="&lt;Path&gt;" class="s5" d="m134.4 233.9c0 0 42.5 13.9 78.5 2l13.7 158.8-79.5-3.2z"/>
			<path id="&lt;Path&gt;" class="s6" d="m131.4 376.8c0 0 97.6 0.2 102.8 2.4 5.2 2.3 28.9 219.6 22.4 228.6-10.2 14.3-46.1 4.7-58.1 1.7 0 0-4.6-25.7-5.4-34.4-2.2-21.5-4-86.5-4-86.5-0.3-4.1-6.3-4.1-6.7-0.1-4.6 45.3-11.7 116.6-11.9 122 0 0-46.2 2.4-56.5-4-10.3-6.4 17.4-229.7 17.4-229.7z"/>
			<g id="&lt;Clip Group&gt;" clip-path="url(#cp1)">
				<g id="&lt;Group&gt;">
					<path id="&lt;Path&gt;" class="s5" d="m248 624.6c-0.2 0-0.4-0.2-0.5-0.5-12.2-89.9-20.2-181.5-23.8-272.2 0-0.3 0.3-0.5 0.5-0.5 0.3 0 0.5 0.2 0.5 0.5 3.6 90.6 11.6 182.2 23.8 272.1 0.1 0.3-0.1 0.5-0.4 0.6q0 0-0.1 0z"/>
				</g>
				<g id="&lt;Group&gt;">
					<path id="&lt;Path&gt;" class="s5" d="m253.9 617.1c-0.3 0-0.5-0.2-0.5-0.4-9.6-84.5-15.4-170.3-17.2-255.3 0-0.3 0.2-0.5 0.5-0.5q0 0 0 0c0.3 0 0.5 0.2 0.5 0.5 1.8 84.9 7.6 170.8 17.2 255.2 0 0.3-0.2 0.5-0.5 0.5q0 0 0 0z"/>
				</g>
				<g id="&lt;Group&gt;">
					<path id="&lt;Path&gt;" class="s5" d="m235.8 623.9c-0.2 0-0.4-0.2-0.5-0.4-13-92.4-17.9-186.6-14.7-279.8 0-0.3 0.2-0.5 0.5-0.5 0.2 0 0.5 0.2 0.5 0.5-3.2 93.2 1.7 187.3 14.7 279.6 0 0.3-0.1 0.5-0.4 0.6q0 0-0.1 0z"/>
				</g>
				<g id="&lt;Group&gt;">
					<path id="&lt;Path&gt;" class="s5" d="m224.4 626.5c-0.2 0-0.5-0.2-0.5-0.5-8.7-91.6-12.6-184.7-11.8-276.6 0-0.3 0.2-0.5 0.5-0.5q0 0 0 0c0.3 0 0.5 0.2 0.5 0.5-0.8 91.9 3.1 185 11.8 276.5 0 0.3-0.2 0.5-0.4 0.5q-0.1 0.1-0.1 0.1z"/>
				</g>
				<g id="&lt;Group&gt;">
					<path id="&lt;Path&gt;" class="s5" d="m211.3 620.8c-0.2 0-0.5-0.2-0.5-0.5-3.1-90.9-5.4-183.1-6.7-274 0-0.3 0.2-0.5 0.5-0.5 0.2 0 0.5 0.2 0.5 0.4 1.3 91 3.6 183.2 6.7 274.1 0 0.3-0.2 0.5-0.4 0.5q-0.1 0-0.1 0z"/>
				</g>
				<g id="&lt;Group&gt;">
					<path id="&lt;Path&gt;" class="s5" d="m207.2 623.2c-0.2 0-0.4-0.2-0.4-0.5-9.4-83.9-10.2-169.5-11-252.4q-0.1-11.9-0.2-23.9c0-0.3 0.2-0.5 0.5-0.5q0 0 0 0c0.3 0 0.5 0.2 0.5 0.5q0.1 11.9 0.2 23.9c0.8 82.8 1.6 168.5 10.9 252.3 0.1 0.3-0.1 0.5-0.4 0.5q0 0-0.1 0.1z"/>
				</g>
				<g id="&lt;Group&gt;">
					<path id="&lt;Path&gt;" class="s5" d="m186.4 523.6q0 0 0 0c-0.3 0-0.5-0.3-0.5-0.5l3.5-191.4c0-0.3 0.3-0.5 0.5-0.5 0.3 0 0.5 0.2 0.5 0.5l-3.5 191.4c0 0.3-0.2 0.5-0.5 0.5z"/>
				</g>
				<g id="&lt;Group&gt;">
					<path id="&lt;Path&gt;" class="s5" d="m170 621.4q-0.1 0-0.1 0c-0.2 0-0.5-0.2-0.4-0.5l7.2-270.3c0-0.2 0.2-0.4 0.5-0.4q0 0 0 0c0.3 0 0.5 0.2 0.5 0.5l-7.2 270.2c-0.1 0.3-0.3 0.5-0.5 0.5z"/>
				</g>
				<g id="&lt;Group&gt;">
					<path id="&lt;Path&gt;" class="s5" d="m160.8 623.4c-0.2 0-0.4-0.2-0.5-0.5-1.8-93 0.6-187.1 7.2-279.9 0.1-0.2 0.3-0.5 0.6-0.4 0.2 0 0.5 0.2 0.4 0.5-6.6 92.7-9 186.8-7.2 279.8 0.1 0.2-0.2 0.5-0.4 0.5q0 0-0.1 0z"/>
				</g>
				<g id="&lt;Group&gt;">
					<path id="&lt;Path&gt;" class="s5" d="m150.3 619.6q0 0 0 0c-0.3 0-0.5-0.2-0.5-0.5 2.3-88.4 2.9-178.1 1.8-266.5 0-0.3 0.3-0.5 0.5-0.6q0 0 0 0c0.3 0 0.5 0.3 0.5 0.5 1.1 88.5 0.5 178.2-1.8 266.6 0 0.3-0.3 0.5-0.5 0.5z"/>
				</g>
				<g id="&lt;Group&gt;">
					<path id="&lt;Path&gt;" class="s5" d="m140.8 624.6c-0.2 0-0.5-0.2-0.5-0.5 0.2-79.7 2.1-160.4 5.9-240 0-0.3 0.3-0.5 0.5-0.5 0.3 0 0.5 0.3 0.5 0.6-3.8 79.5-5.7 160.2-5.9 239.9 0 0.3-0.2 0.5-0.5 0.5z"/>
				</g>
				<g id="&lt;Group&gt;">
					<path id="&lt;Path&gt;" class="s5" d="m129.8 627.8c-0.3 0-0.5-0.2-0.5-0.5 0-15 0.1-30.6 0.3-45.9 1-83.6 5.6-168.2 13.6-251.4 0-0.3 0.2-0.5 0.5-0.4 0.3 0 0.5 0.2 0.5 0.5-8 83.2-12.6 167.8-13.6 251.3-0.2 15.3-0.3 30.9-0.3 45.9 0 0.3-0.3 0.5-0.5 0.5z"/>
				</g>
				<g id="&lt;Group&gt;">
					<path id="&lt;Path&gt;" class="s5" d="m116.9 621.4q0 0 0 0c-0.3 0-0.5-0.2-0.5-0.5l10.6-277.3c0-0.2 0.2-0.5 0.5-0.5q0 0 0 0c0.3 0.1 0.5 0.3 0.5 0.6l-10.6 277.2c0 0.3-0.2 0.5-0.5 0.5z"/>
				</g>
			</g>
			<path id="&lt;Path&gt;" class="s7" d="m196.1 227.7c0 0 8.1 58 11.1 77.4 3 19.5-8.2 104.5 0 128.7 8.2 24.1 1.4 34.4 13.5 37.6 12.1 3.3 27.8 7.1 33.8 0 6-7.1 0.5-38.3-6.9-68.3-7.3-29.9-9.1-67-12.6-95.7-3.5-28.6-4.2-66.7-4.2-66.7 0 0-7.6-13.2-34.7-13z"/>
			<path id="&lt;Path&gt;" class="s8" d="m274 391.5c0 0-11.4 3.6-23.4 0-12-3.6-19-8.5-16.4-12.3 2.7-3.8 31.2-3.1 39.8 12.3z"/>
			<path id="&lt;Path&gt;" class="s7" d="m152.5 227.7c0 0-2.3 68.6 0.4 90.8 2.6 22.2 15.9 73.6 10.2 92.6-5.7 19.1-12.2 53.9-14.7 57.8-2.6 3.8-32.8 11.5-43.1 6.4-10.4-5.2 2.1-62.9 2.9-80.6 0.8-17.7 12.6-62 11.2-88.3-1.3-26.3-7.2-62.1-7.2-62.1 0 0 8.9-19.4 40.3-16.6z"/>
			<path id="&lt;Path&gt;" class="s9" d="m93 391.5c0 0 39.9 7.9 52 3.2 12-4.7 6 88.1 0 93.7-6.1 5.6-55.9 6.4-60.6-4.1-4.7-10.5-3-87.9 8.6-92.8z"/>
			<path id="&lt;Path&gt;" class="s3" d=""/>
			<g id="&lt;Group&gt;">
				<path id="&lt;Path&gt;" class="s4" d="m152.9 219.9l0.4-16.8 42.8 2.2v18.5c-11.2 0.3-27.6 0.9-43.2-3.9z"/>
			</g>
			<g id="&lt;Group&gt;">
				<path id="&lt;Path&gt;" class="s3" d="m225.3 168.2l-2-27c0 0 19.4-16.3 29 6.2 9.6 22.6-14.2 32.6-27 20.8z"/>
				<path id="&lt;Path&gt;" class="s10" d="m220.7 188.6c2.1 6.8 8.7 11.6 16.2 10.9 8.5-0.7 14.7-8.2 14-16.7-0.5-6.1-4.5-11.1-9.9-13.1"/>
				<path id="&lt;Path&gt;" class="s3" d="m119.4 181.3l-9.1-25.4c0 0-24.4-7.1-24 17.4 0.4 24.5 26.1 24 33.1 8z"/>
				<path id="&lt;Path&gt;" class="s10" d="m103 185.5c-4.4 5.7-4.4 13.8 0.5 19.5 5.5 6.5 15.3 7.3 21.7 1.7 4.7-4 6.4-10.1 5-15.6"/>
				<g id="&lt;Group&gt;">
					<path id="&lt;Path&gt;" class="s3" d="m228.6 90.1c0 0 3.2 28.8 5.5 62.9 1.8 27.7-18.5 56.2-52.1 60.6-31.6 4.2-65.4-6.4-78.2-50.3-12.9-43.8-8.3-80.7 31.4-93.3 39.8-12.5 80.2-13.5 93.4 20.1z"/>
				</g>
				<path id="&lt;Path&gt;" class="s11" d="m182.8 172.8c0 0-9.4 4.4-14.5-5"/>
				<g id="&lt;Group&gt;">
					<path id="&lt;Path&gt;" class="s12" d="m181.1 83.8q-0.3-0.4-0.3-0.4 0 0 0.3 0.4z"/>
				</g>
				<path id="&lt;Path&gt;" class="s1" d="m125.4 138.8c0 0-5.8-5.8 5.1-14.3 11-8.4 15.1-7 17.2-3.3 1.9 3.4-0.3 8.9-6.6 13.5-7.4 5.5-12.5 7.5-15.7 4.1z"/>
				<path id="&lt;Path&gt;" class="s1" d="m219 125.3c0 0 3.6-7.4-9.4-11.9-13.1-4.6-16.6-1.9-17.4 2.3-0.7 3.9 3.2 8.3 10.6 10.7 8.8 2.8 14.3 3.1 16.2-1.1z"/>
				<g id="&lt;Group&gt;">
					<path id="&lt;Path&gt;" class="s13" d="m111.1 182.6q-0.1 0-0.2 0c-0.2-0.1-0.4-0.4-0.3-0.7 0.1-0.1 4.5-12.2-4-17.1-3-1.7-5.9-2.2-8.6-1.4-4.6 1.3-7.2 6-7.2 6-0.1 0.3-0.4 0.3-0.7 0.2-0.2-0.1-0.3-0.4-0.2-0.6 0.2-0.3 2.8-5.1 7.8-6.6 3-0.8 6.1-0.3 9.4 1.5 9.2 5.4 4.5 18.2 4.5 18.4-0.1 0.2-0.3 0.3-0.5 0.3z"/>
				</g>
				<g id="&lt;Group&gt;">
					<path id="&lt;Path&gt;" class="s13" d="m98.4 173.8q-0.2 0-0.4-0.2c-0.1-0.2-0.1-0.5 0.1-0.7 0.1 0 7.9-6.6 14.4-0.9 0.2 0.2 0.2 0.5 0 0.7-0.2 0.2-0.5 0.3-0.7 0.1-5.8-5.2-13 0.8-13.1 0.9q-0.1 0.1-0.3 0.1z"/>
				</g>
				<g id="&lt;Group&gt;">
					<path id="&lt;Path&gt;" class="s13" d="m180.5 162c-0.2 0-0.4-0.1-0.4-0.3-0.2-0.2-0.1-0.5 0.2-0.6 0 0 3.8-2.1 5.3-5.7 1.2-2.9 0.5-7-1.5-8.6-1.1-1-2.6-1-4.3 0q-0.1 0-0.2 0.1c-5.8 3.9-8.7 2.5-10 0.7-2.5-3.4-2.4-31.6-2.4-34.8 0-0.3 0.3-0.5 0.5-0.5 0.3 0 0.5 0.3 0.5 0.5 0 8.6 0.3 31.6 2.2 34.2 1.6 2.2 4.5 1.9 8.6-0.9q0.2-0.1 0.3-0.2c2-1.2 4-1.2 5.5 0.1 2.2 2 3 6.5 1.7 9.7-1.6 4-5.6 6.2-5.8 6.2q-0.1 0.1-0.2 0.1z"/>
				</g>
				<g id="&lt;Group&gt;">
					<path id="&lt;Path&gt;" class="s13" d="m233.6 166.7q0.1-0.1 0.2-0.1c0.2-0.2 0.2-0.5 0-0.7-0.1-0.1-9.1-9.4-3.2-17.3 2-2.8 4.5-4.4 7.2-4.8 4.8-0.7 9 2.6 9.1 2.6 0.2 0.2 0.5 0.1 0.6-0.1 0.2-0.2 0.2-0.5 0-0.7-0.2-0.1-4.6-3.5-9.8-2.8-3 0.4-5.7 2.2-7.9 5.2-6.3 8.6 3.2 18.5 3.3 18.6 0.1 0.1 0.3 0.1 0.5 0.1z"/>
				</g>
				<g id="&lt;Group&gt;">
					<path id="&lt;Path&gt;" class="s13" d="m241.7 153.5q0.2-0.1 0.3-0.3c0-0.3-0.1-0.5-0.4-0.6-0.1 0-9.9-2.9-13.5 5-0.1 0.2 0 0.5 0.2 0.6 0.3 0.1 0.6 0 0.7-0.2 3.3-7.1 12.3-4.5 12.3-4.5q0.2 0.1 0.4 0z"/>
				</g>
				<path id="&lt;Path&gt;" class="s4" d="m154.9 177.1c-0.6 4.7-8.3 7.6-17.1 6.5-8.8-1.2-15.5-5.9-14.9-10.6 0.6-4.7 8.3-7.6 17.1-6.5 8.8 1.2 15.5 5.9 14.9 10.6z"/>
				<path id="&lt;Path&gt;" class="s4" d="m194.8 173.6c1.4 4.5 9.5 6 17.9 3.3 8.5-2.6 14.2-8.5 12.8-13-1.4-4.5-9.5-6-17.9-3.4-8.5 2.7-14.2 8.6-12.8 13.1z"/>
				<g id="&lt;Group&gt;">
					<path id="&lt;Path&gt;" class="s11" d="m138 158.5c0 0-0.1-9.9 7.8-11.1 7.9-1.3 10.4 8.3 10.4 8.3"/>
					<path id="&lt;Path&gt;" class="s11" d="m138.1 157.2l-5.2-1.6"/>
					<path id="&lt;Path&gt;" class="s14" d="m138 154.8l-3.6-1.3"/>
				</g>
				<g id="&lt;Group&gt;">
					<path id="&lt;Path&gt;" class="s11" d="m211.9 151.2c0 0-2.9-9.4-10.8-8.2-7.9 1.2-7.4 11.1-7.4 11.1"/>
					<path id="&lt;Path&gt;" class="s11" d="m211.4 150.1l4.5-3.2"/>
					<path id="&lt;Path&gt;" class="s14" d="m210.8 147.7l3-2.4"/>
				</g>
			</g>
			<path id="&lt;Path&gt;" class="s15" d=""/>
			<path id="&lt;Path&gt;" class="s1" d="m125.9 56.5c0 0-45.8 9.7-49.6 37.2-3.7 27.4 15.6 59.3 15.6 59.3 0 0 27.5-12.4 40.4-64.9 0 0 107.7 52.7 115 48.2 7.4-4.6 0.9-55.3-14.9-71.5-15.7-16.2-65.9-28.5-106.5-8.3z"/>
			<path id="&lt;Path&gt;" class="s1" d="m117.3 66.6c0 0-15.2-13.6-9.3-16.2 5.8-2.5 11.9 11 11.9 11 0 0-5.7-24.9 2.8-22 8.6 2.9 8 21.7 1.8 25.9"/>
			<g id="&lt;Group&gt;">
				<path id="&lt;Path&gt;" class="s1" d="m274.6 233.1l0.7-0.4c-4.3-7.6-1.9-17.3 0.6-25l0.5-1.6c2.7-7.9 5.4-16.1 3.2-24.1-2-7.3-7.7-12.6-13.3-17.7-4-3.6-8.2-7.4-11-12-5.8-9.5-5.3-21.2-4.8-32.6q0-1.7 0.1-3.3c0.4-11.2 0.1-25.7-5.8-38.2-5.6-11.9-16-21.7-29.1-27.6-11.6-5.2-25.4-7.4-40-6.5-14.4 0.9-28.8 4.9-41.7 11.4l0.4 0.8c12.8-6.5 27.1-10.4 41.4-11.3 14.4-0.9 28.1 1.3 39.5 6.4 13 5.9 23.1 15.5 28.6 27.1 5.9 12.4 6.2 26.8 5.8 37.9q-0.1 1.6-0.1 3.3c-0.5 11.5-1 23.4 5 33.1 2.8 4.7 7 8.5 11.1 12.2 5.7 5.2 11.1 10.2 13.1 17.3 2.1 7.7-0.6 15.7-3.2 23.5l-0.6 1.6c-2.6 7.9-5 17.8-0.4 25.7z"/>
			</g>
			<g id="&lt;Group&gt;">
				<path id="&lt;Path&gt;" class="s1" d="m74.7 240.7c7.2-1.8 11.2-9.6 11.1-16.2 0-5.8-2.4-12.1-7.4-19.1-1.5-2-3-4-4.5-5.9-2.7-3.4-5.5-6.9-7.6-10.7-6.2-10.8-7.5-24.2-3.6-36 1.3-4 3.2-7.8 5.1-11.4 2.5-5 5-10.1 6.2-15.6 0.9-4.4 1-8.9 1.1-13.3 0-2.9 0-5.9 0.3-8.9 2.4-22.3 22.5-41.7 44.8-43.3l-0.1-0.9c-22.7 1.6-43.2 21.4-45.6 44.1-0.3 3-0.3 6.1-0.3 9-0.1 4.4-0.2 8.8-1.1 13.1-1.1 5.4-3.7 10.5-6.1 15.4-1.9 3.7-3.8 7.5-5.1 11.5-4.1 12-2.7 25.8 3.6 36.8 2.2 3.8 5 7.4 7.7 10.8 1.5 1.9 3 3.8 4.4 5.8 4.9 6.9 7.3 13 7.3 18.7 0 6.1-3.6 13.6-10.5 15.2z"/>
			</g>
			<path id="&lt;Path&gt;" class="s6" d="m289.5 674.6q-0.1 0-0.2 0c-0.9-3.3-6.6-14.3-41.7-19.5-7.7-1.1-9.5 13.6-9.9 21-3.2-5.8-11.6-18-27.7-20.2 0 0-4.2 6.8 1 24.2 0 0 11.5 3.6 41.8 3.2 33.8-0.4 37.6-4.7 37.6-4.7 0 0 0.1-1.7-0.9-4z"/>
			<path id="&lt;Path&gt;" class="s6" d="m86.1 677.2q0.1 0 0.2 0c0.2-3.3 3.4-14.4 37.2-20.5 7.4-1.3 12.6 13.3 14.7 20.7 1.8-5.9 7.4-18.3 22.9-20.8 0 0 5.8 6.6 4.6 24.1 0 0-10.7 3.9-41 4.3-33.8 0.4-38.6-3.8-38.6-3.8 0 0-0.4-1.6 0-4z"/>
			<path id="&lt;Path&gt;" class="s3" d="m202.8 235c-0.9-1.2 9.2-1.3 14.6-0.7 10.7 1.2 32.8 14.8 42.8 73.3 6.9 40 10.6 93 10.6 93 2.1 10.8 5.2 34 1.5 35-3.6 1-7.2-14.8-7.2-14.8 0 0 2.9 19.4-0.7 20.2-3.5 0.7-5.7-19.6-5.7-19.6 0 0 0.7 20.4-2.6 21.3-5.7 1.3-4-22.6-4-22.6 0 0-3.6 19-7.9 18.8-4.3-0.3 1-24.8 1-24.8 0 0-5.6 9.8-8.2 5.3-2.6-4.5 7.7-21 7.7-21 0 0-13.2-123.3-41.9-163.4z"/>
			<g id="&lt;Group&gt;">
				<path id="&lt;Path&gt;" class="s6" d="m97.3 407.9c-1.7 0-3-1.4-3-3 0-1.2-0.3-30.2 0-40.2 0-1.7 1.3-3 3.1-2.9 1.6 0 2.9 1.4 2.9 3-0.3 10 0 39.7 0 40 0 1.7-1.3 3-3 3.1q0 0 0 0z"/>
			</g>
			<path id="&lt;Path&gt;" class="s8" d="m97.4 382.2c0 0 6.5 12.1 22.8 3.4 16.3-8.8 21.5-36.7 14.2-41.1-7.3-4.5-39.1 3.3-37 37.7z"/>
			<g id="&lt;Group&gt;">
				<path id="&lt;Path&gt;" class="s6" d="m136.5 408.1c-1.7 0-3-1.4-3-3v-22.6c0-1.7 1.3-3 3-3 1.7 0 3 1.3 3 3v22.6c0 1.6-1.3 3-3 3z"/>
			</g>
			<path id="&lt;Path&gt;" class="s3" d="m126.5 345c0 0-1-32.3 8.5-54.3 0.1-0.1 3.9-50 3.9-50.1 0-5.7-18.7-9.6-26.7 3.7-13 21.4-36.8 115.1-14.3 127.9 19.3 11 55.8 12.1 76.2 11.8-3.5-8.1-6.5-16.3-7.4-25z"/>
			<path id="&lt;Path&gt;" class="s3" d="m212.9 378.1c-0.6 3.2-18.4-1.7-18.4-1.7 0 0 17.4 6.1 17.1 9.3-0.8 5.2-20.4-4.1-20.4-4.1 0 0 14.8 9.3 13.2 12.8-1.6 3.5-15.4-6.7-20.5-8.9-4.3-1.9-13.2-1.5-13.2-1.5l-12.5-0.5c0.9-8.7 3.9-16.9 7.4-25 8.8 0.2 14.7 0.6 14.7 0.6 7.7 0.6 31 7.1 30.7 10.5-0.4 3.4-14.9 1.2-14.9 1.2 0 0 17.3 4 16.8 7.3z"/>
			<path id="&lt;Path&gt;" class="s7" d="m141.6 227.6c0 0-35.4 3.5-44.2 41.6-8.9 38-15.4 73.1-12.2 89.7 3.3 16.5 10.1 21.6 13.5 25.1 3.3 3.5-2.3-20.5 9.5-25.1 11.8-4.7 26.4-14.5 30.7-14.4 4.3 0 3.7-109.4 2.7-116.9z"/>
			<g id="&lt;Group&gt;">
				<path id="&lt;Path&gt;" class="s6" d="m133.5 347.5c0-0.4-0.1-40.7 0-75.7 0.1-32.7-5.1-40-5.2-40.1-1.1-1.2-5.5 1.4-5.5 1.4-0.5-1.4 2.3-6.2 10.1-5.3 1.6 0.2 6.7 9.2 6.6 44-0.1 35 0.9 78.1 0.5 77.9-1-0.5-6.5-2.2-6.5-2.2z"/>
			</g>
			<path id="&lt;Path&gt;" class="s7" d="m199.3 227.8c0 0 42.5 7.1 50.5 25.5 8.1 18.4 24.6 89.1 26 105 1.4 15.9 0.8 35-1.8 33.2-2.6-1.8-34.5-18.4-39.8-12.3-5.3 6.1-6.1-36.6-6.1-36.6z"/>
			<path id="&lt;Path&gt;" class="s16" d=""/>
			<path id="&lt;Path&gt;" class="s17" d="m231.2 376.8c0 0-1.2-10.2-2.9-27.1-1.1-11.4-0.4-39.3-5.2-55.9"/>
			<g id="&lt;Group&gt;">
				<path id="&lt;Path&gt;" class="s9" d="m167.4 336.1c-0.2 0-0.3-0.1-0.4-0.3-0.1-0.2 0-0.5 0.2-0.6 11.2-4.8 21.6-11.2 30.7-19.2 0.2-0.2 0.5-0.2 0.7 0 0.2 0.3 0.2 0.6 0 0.8-9.3 8-19.7 14.5-31 19.3q-0.1 0-0.2 0z"/>
			</g>
			<g id="&lt;Group&gt;">
				<path id="&lt;Path&gt;" class="s9" d="m183.1 345.5q-0.2 0-0.4-0.2c-0.2-0.1-0.2-0.5 0-0.7 6.9-6.9 13.2-14.4 18.9-22.3 0.1-0.2 0.4-0.2 0.7-0.1 0.2 0.2 0.2 0.5 0.1 0.7-5.7 8-12.1 15.5-19 22.4q-0.1 0.2-0.3 0.2z"/>
			</g>
		</g>
	</g>
</svg>