<svg version="1.2" xmlns="http://www.w3.org/2000/svg" viewBox="0 0 370 700" width="370" height="700">
	<title>3296433-ai</title>
	<style>
		.s0 { fill: #dbdbdb } 
		.s1 { fill: #fcbe8e } 
		.s2 { fill: #f29f83 } 
		.s3 { fill: #ed98ab } 
		.s4 { fill: #fcabba } 
		.s5 { fill: #f56947 } 
		.s6 { fill: none;stroke: #6c4820;stroke-linecap: round;stroke-miterlimit:10;stroke-width: .9 } 
		.s7 { fill: #393542 } 
		.s8 { fill: #b1a6a4 } 
		.s9 { fill: #eed9ce } 
		.s10 { fill: none;stroke: #000000;stroke-linecap: round;stroke-linejoin: round;stroke-width: 1.1 } 
		.s11 { fill: #56372f } 
		.s12 { fill: #6c4820 } 
		.s13 { fill: #000000 } 
		.s14 { fill: #45324b } 
		.s15 { fill: #f3bd53 } 
	</style>
	<path id="&lt;Path&gt;" class="s0" d="m184.7 693.2c-53.2 0-96.1-4.3-96.1-9.5 0-5.3 42.9-9.6 96.1-9.6 53.1 0 96 4.3 96 9.6 0 5.2-42.9 9.5-96 9.5z"/>
	<g id="feminino">
		<g id="&lt;Group&gt;">
			<g id="&lt;Group&gt;">
				<path id="&lt;Path&gt;" class="s1" d="m256.4 357.2l-6.5-27.7c1.1 6 2.8 14.2 6.5 27.7z"/>
				<path id="&lt;Path&gt;" class="s2" d="m204.1 213.2l-40.1 2.1-0.8 14.4c13.6-0.9 27.7-1.2 40.7-3.9z"/>
				<path id="&lt;Path&gt;" class="s1" d="m287.8 324.5c-13.1-48.8-26.5-64.3-33.6-71.4-10.5-10.7-33.1-15.4-33.1-15.4l-17.4-1.5 0.2-10.4c-13 2.7-27.1 3-40.7 3.9l-0.3 6.5c0 0-10.3 2-15 3.2 0.1 21.7-8.9 103.8-6.4 125.6l64.3 6.1 50.6-13.9c-3.7-13.5-5.4-21.7-6.5-27.7l-2.8-11.9c1.2 3.5 1.9 6.9 2.8 11.9l6.5 27.7c11.9-2 13.9 33.8 25.5 31.3 8.4-9.9 10.1-52.5 5.9-64z"/>
				<path id="&lt;Path&gt;" class="s1" d="m25.4 291.3c1.9-3.2 15.3 6.1 15.3 6.1 0 0-15.3-12.4-13.1-15.4 2.1-2.9 17.4 10.6 17.4 10.6 0 0-14.3-14.5-12.4-17.4 3.3-4.8 18.1 13.9 18.1 13.9 0 0-10.1-16.4-6.8-19.1 3.3-2.7 15.9 18.8 15.9 18.8 0 0-2.5-10.9 2.5-9.4 4.9 1.6 8.5 27.7 8.5 27.7l41.6 22.4c0 0 3.4-20.8 4.7-47.3 6.1-39.6 34.7-43.9 34.7-43.9 0-0.1 10 2.8 11.4 2.4 0.2 21.7-2.4 39.8 0 61.7l-9.9-1.4c1.3 16.4 4.2 77.9-26.2 79.8-35 2.1-76.5-64.1-76.5-64.1-7.4-4.4-27.2-22.2-25.2-25.4z"/>
				<path id="&lt;Path&gt;" class="s3" d="m73.1 308.3c0 0-13 7.6-16.7 16.9 0 0 1.2 3.3 3.8 8.3 5.2-8.7 11.4-16.4 18.3-23.5q-2.7-0.9-5.4-1.7z"/>
				<path id="&lt;Path&gt;" class="s4" d="m116 278.5q1-0.7 2-1.5-1 0.8-2 1.5c-3.5 12.7-5.2 29.3-3.6 51 0 0-15.2-12.7-33.9-19.5-6.9 7.1-13.1 14.8-18.3 23.5 6.2 12.2 20.5 34.7 44.3 44.4 33.4 13.5 36.3 9.4 40.4-9.2 4.1-18.6 6.9-130.4 6.9-130.4 0 0-25.5 2.8-35.8 40.2z"/>
				<g id="&lt;Group&gt;">
					<g id="&lt;Group&gt;">
						<path id="&lt;Path&gt;" class="s1" d="m150.5 649.5c0 0-50.1 18.8-49.8 28.2 0.3 9.5 58.1 1.7 58.1 1.7 0 0 35.5 8.4 24.2-22.3l1.5-37c-12.5 0.5-24.9 1-37.3 2.2 1 10.3 2.1 19.5 3.3 27.2z"/>
						<path id="&lt;Path&gt;" class="s2" d="m139.6 416.9c0 0 0.5 130.3 7.6 205.4 12.4-1.2 24.8-1.7 37.3-2.2l7.2-188.1z"/>
					</g>
					<g id="&lt;Group&gt;">
						<path id="&lt;Path&gt;" class="s2" d="m269.4 611.4c1.7-44.5 3.9-113.3 4.6-187.5 0.2-19-70-1.2-70-1.2 0 0 14.3 118.7 25 194.8q2.5-0.2 5-0.5c12.2-0.8 24-2.7 35.4-5.6z"/>
						<path id="&lt;Path&gt;" class="s1" d="m234 617q-2.5 0.3-5 0.5c2 14.5 3.9 27.5 5.6 37.8 0 0-48.5 18.3-48.2 27.7 0.3 9.5 56.5 2.1 56.5 2.1 0 0 35.4 8.5 24.2-22.3 0 0 1-19.4 2.3-51.4-11.4 2.9-23.2 4.8-35.4 5.6z"/>
					</g>
					<path id="&lt;Path&gt;" class="s5" d="m256.4 356.1c2.5 4 51.7 24.7 33.6 228.5-63.8 34-174 8.5-174 8.5-11.9-176.2 23.4-222.8 25.5-229.2 37.3 2.1 77.7 2.6 114.9-7.8z"/>
				</g>
			</g>
			<path id="&lt;Path&gt;" class="s6" d="m57.1 288.7c0 0-14 4.5-13.5 15.4"/>
			<g id="&lt;Group&gt;">
				<path id="&lt;Path&gt;" class="s3" d="m110.3 363.1c-0.2 0-0.4-0.2-0.4-0.5 0-13.1 2-32.9 2-33.1 0-0.3 0.2-0.4 0.5-0.4 0.2 0 0.4 0.2 0.4 0.5 0 0.2-2 20-2 33 0 0.3-0.2 0.5-0.5 0.5z"/>
			</g>
			<g id="&lt;Group&gt;">
				<g id="&lt;Group&gt;">
					<path id="&lt;Path&gt;" class="s7" d="m268.3 678.3q-0.2 3.1-0.7 6.6c0 0-11.4 4.1-42.2 4.1-34.5 0-38.9-4.7-38.9-4.7 0 0-0.3-1.8 0.5-4.4 36.5 7.5 65.8 2.6 81.3-1.6z"/>
				</g>
				<path id="&lt;Path&gt;" class="s7" d="m240.5 685.4c0 0-5.5-19.9-13.1-27.3 0 0-40.4 10.3-40.4 21.8-0.1 6.4 12.1 7.8 42.2 5.9z"/>
			</g>
			<g id="&lt;Group&gt;">
				<g id="&lt;Group&gt;">
					<path id="&lt;Path&gt;" class="s7" d="m184.9 672.1q-0.2 3.1-0.8 6.5c0 0-13.6 5.1-44.5 5.1-34.4 0-38.9-4.7-38.9-4.7 0 0-0.2-1.8 0.5-4.4 36.6 7.5 68.2 1.6 83.7-2.5z"/>
				</g>
				<path id="&lt;Path&gt;" class="s7" d="m154.8 680.1c0 0-5.5-19.9-13.1-27.4 0 0-40.5 10.4-40.5 21.9 0 6.3 12.1 7.7 42.2 5.9z"/>
			</g>
			<g id="&lt;Group&gt;">
				<path id="&lt;Path&gt;" class="s8" d="m225.4 695c-3.2 0-5.8-2.4-6-5.6l-15.1-218.8q0-0.4 0-0.8c0-0.1 0.8-17.5-8.3-26.6-4.1-4.1-9.5-5.9-16.8-5.5-6.3 0.3-10.9 2.3-14.1 6.3-7.8 9.8-4.7 27.6-4.7 27.8 0.6 3.3-1.5 6.4-4.8 7-3.3 0.6-6.4-1.6-7-4.9-0.1-0.9-4-23.3 7.1-37.3 5.4-6.8 13.1-10.5 22.9-10.9 10.7-0.5 19.4 2.5 26 9.1 12 12.1 11.8 32.1 11.7 35.3l15.1 218.5c0.2 3.3-2.3 6.2-5.6 6.4q-0.2 0-0.4 0z"/>
			</g>
			<path id="&lt;Path&gt;" class="s1" d="m199.7 416.5c0 0-19.3 1.8-21.3 6.5-2.1 4.8 9.1 3.3 9.1 3.3 0 0-14.1 7.1-11.7 10.6 2.4 3.5 7.3 1.4 7.3 1.4 0 0-5.8 2.8-1.3 6.5 2.8 2.1 4.6-0.6 4.6-0.6 0 0-2.7 3 0 5.4 2.8 2.4 5.3-1.1 5.3-1.1 0 0-1.5 1.9 1.5 4.2 3 2.3 13.2-6 20.5-14.2 0 0 39-28.5 68.2-50 6.7-27.1-9.3-38.2-25.5-32.4-26.1 22.9-56.7 60.4-56.7 60.4z"/>
			<path id="&lt;Path&gt;" class="s9" d="m212.5 198.5c0 0-10.2 17.2 6 24.6 16.2 7.4 40-1.1 43.4-15.3 3.4-14.2-0.6-31.2-9.5-30-8.8 1.3-40.7 14.2-39.9 20.7z"/>
			<path id="&lt;Path&gt;" class="s9" d="m117.8 98.5c0 0-8.2 24-12.9 40.7-4.7 16.8 20.3 52.8 29 59.6 12.8 9.8 125.2 58.2 142.3-42.1 3-17.4 5.5-26.9 0.2-46.4-5.6-20.8-124-31.2-158.6-11.8z"/>
			<path id="&lt;Path&gt;" class="s1" d="m232.7 189.6l9.1-25.5c0 0 24.4-7.1 24 17.4-0.4 24.5-26.1 24-33.1 8.1z"/>
			<g id="&lt;Group&gt;">
				<path id="&lt;Path&gt;" class="s1" d="m123.6 98.4c0 0-3.3 28.7-5.5 62.9-1.9 27.6 10.8 55.6 52 60.6 42.3 5 65.5-6.5 78.3-50.3 12.8-43.9 8.2-80.8-31.5-93.3-39.7-12.6-80.1-13.5-93.3 20.1z"/>
			</g>
			<path id="&lt;Path&gt;" class="s10" d="m169.3 181c0 0 9.4 4.4 14.6-5"/>
			<g id="&lt;Group&gt;">
				<path id="&lt;Path&gt;" class="s11" d="m171 92q0.3-0.3 0.3-0.3 0 0-0.3 0.3z"/>
			</g>
			<path id="&lt;Path&gt;" class="s9" d="m226.7 147.1c0 0 5.8-5.9-5.1-14.3-10.9-8.5-15.1-7.1-17.2-3.3-1.9 3.4 0.4 8.8 6.6 13.4 7.4 5.6 12.5 7.5 15.7 4.2z"/>
			<path id="&lt;Path&gt;" class="s9" d="m133.1 133.5c0 0-3.6-7.4 9.5-11.9 13-4.5 16.5-1.8 17.3 2.4 0.7 3.8-3.2 8.3-10.6 10.6-8.8 2.9-14.2 3.1-16.2-1.1z"/>
			<g id="&lt;Group&gt;">
				<path id="&lt;Path&gt;" class="s12" d="m241 190.8q0.1 0 0.2 0c0.3-0.1 0.4-0.4 0.3-0.6 0-0.2-4.5-12.3 4.1-17.2 3-1.7 5.8-2.2 8.5-1.4 4.7 1.3 7.2 6 7.2 6 0.2 0.3 0.4 0.4 0.7 0.2 0.2-0.1 0.3-0.4 0.2-0.6-0.1-0.2-2.8-5.1-7.8-6.6-2.9-0.8-6.1-0.3-9.3 1.6-9.3 5.3-4.6 18.2-4.5 18.3 0 0.2 0.2 0.3 0.4 0.3z"/>
			</g>
			<g id="&lt;Group&gt;">
				<path id="&lt;Path&gt;" class="s12" d="m253.7 182q0.2 0.1 0.4-0.1c0.2-0.2 0.1-0.5-0.1-0.7 0-0.1-7.9-6.6-14.3-0.9-0.2 0.2-0.3 0.5-0.1 0.7 0.2 0.2 0.5 0.2 0.7 0 5.9-5.1 13 0.9 13.1 0.9q0.1 0.1 0.3 0.1z"/>
			</g>
			<g id="&lt;Group&gt;">
				<path id="&lt;Path&gt;" class="s12" d="m171.6 170.2c0.2 0 0.4-0.1 0.5-0.2 0.1-0.3 0-0.6-0.2-0.7-0.1 0-3.9-2.1-5.4-5.7-1.1-2.8-0.4-6.9 1.5-8.6 1.2-1 2.7-1 4.3 0q0.1 0.1 0.3 0.2c5.8 3.9 8.6 2.5 9.9 0.6 2.5-3.4 2.4-31.5 2.4-34.8 0-0.2-0.2-0.4-0.5-0.4-0.3 0-0.5 0.2-0.5 0.5 0.1 8.6-0.2 31.5-2.2 34.1-1.5 2.2-4.4 1.9-8.6-0.8q-0.2-0.2-0.3-0.2c-2-1.3-3.9-1.2-5.4 0-2.3 2-3.1 6.5-1.8 9.8 1.7 3.9 5.6 6.1 5.8 6.2q0.1 0 0.2 0z"/>
			</g>
			<path id="&lt;Path&gt;" class="s2" d="m197.3 185.4c0.6 4.7 8.2 7.6 17 6.4 8.9-1.1 15.5-5.9 14.9-10.6-0.6-4.7-8.3-7.6-17.1-6.4-8.8 1.1-15.5 5.9-14.8 10.6z"/>
			<path id="&lt;Path&gt;" class="s2" d="m157.3 181.8c-1.4 4.6-9.4 6.1-17.9 3.4-8.5-2.7-14.2-8.5-12.8-13.1 1.5-4.5 9.5-6 18-3.3 8.5 2.7 14.2 8.5 12.7 13z"/>
			<path id="&lt;Path&gt;" class="s9" d="m225.3 71.4q0.9 0.5 1.8 0.7c6.5 1.5 45.2 11.8 48.7 37 2.4 17.8-4.8 37.5-10.2 49.1-2.8 5.9-10.4 7.5-15.2 3.1-8.1-7.4-19.5-21.6-27.5-47-1.8-5.6-8.1-8.4-13.4-5.8-27.1 13-91.6 50.3-97.6 46.6-7.3-4.6-1.2-55.5 14.5-71.7 15.6-16 58.5-31.5 98.9-12z"/>
			<path id="&lt;Path&gt;" class="s9" d="m234.8 82c0 0 15.2-13.6 9.4-16.2-5.9-2.5-12 11.1-12 11.1 0 0 5.7-24.9-2.8-22-8.5 2.9-7.9 21.6-1.8 25.8"/>
			<path id="&lt;Path&gt;" class="s13" d="m149.1 159.7c-0.1 3-2.1 5.3-4.5 5.2-2.5-0.1-4.3-2.5-4.2-5.5 0.1-2.9 2.1-5.3 4.5-5.2 2.5 0.1 4.3 2.6 4.2 5.5z"/>
			<path id="&lt;Path&gt;" class="s13" d="m206.8 165.7c-0.1 3-2.2 5.3-4.6 5.2-2.4-0.1-4.3-2.5-4.2-5.5 0.1-2.9 2.2-5.2 4.6-5.2 2.4 0.1 4.3 2.6 4.2 5.5z"/>
			<g id="&lt;Group&gt;">
				<g id="&lt;Group&gt;">
					<path id="&lt;Compound Path&gt;" fill-rule="evenodd" class="s14" d="m181.6 160.9c1.2-14.3 13.8-25 28.1-23.8 14.4 1.1 25.1 13.8 23.9 28.1-1.2 14.3-13.8 25-28.2 23.8-14.3-1.2-25-13.8-23.8-28.1zm1.4 0.1c-1.1 13.6 9 25.5 22.5 26.6 13.6 1.2 25.6-9 26.7-22.5 1.1-13.6-9-25.5-22.6-26.7-13.5-1.1-25.5 9-26.6 22.6z"/>
				</g>
				<g id="&lt;Group&gt;">
					<path id="&lt;Compound Path&gt;" fill-rule="evenodd" class="s14" d="m110.6 155c1.1-14.3 13.8-25 28.1-23.8 14.3 1.2 25 13.8 23.8 28.1-1.2 14.3-13.8 25-28.1 23.8-14.3-1.1-25-13.8-23.8-28.1zm1.3 0.1c-1.1 13.6 9 25.5 22.6 26.7 13.6 1.1 25.5-9 26.6-22.6 1.2-13.6-9-25.5-22.5-26.6-13.6-1.2-25.5 9-26.7 22.5z"/>
				</g>
				<g id="&lt;Group&gt;">
					<path id="&lt;Path&gt;" class="s14" d="m162.1 156.3q0.2 0 0.3 0c10.4-5 20 1.5 20.1 1.6 0.3 0.2 0.7 0.2 0.9-0.2 0.2-0.3 0.2-0.7-0.2-0.9-0.1-0.1-10.3-7.1-21.4-1.8-0.3 0.2-0.5 0.6-0.3 0.9 0.1 0.3 0.3 0.4 0.6 0.4z"/>
				</g>
				<g id="&lt;Group&gt;">
					<path id="&lt;Path&gt;" class="s14" d="m270.5 177.3q0 0 0.1 0c0.3 0.1 0.7-0.2 0.7-0.6 0.3-6.2-6-9.3-6.3-9.4q-0.1-0.1-0.3-0.1l-31.8-2.8c-0.3 0-0.7 0.3-0.7 0.7 0 0.4 0.2 0.7 0.6 0.7l31.7 2.8c0.8 0.4 5.6 3.2 5.4 8 0 0.4 0.3 0.7 0.6 0.7z"/>
				</g>
			</g>
			<path id="&lt;Path&gt;" class="s15" d="m249.3 199.3c0 3.8-2.3 6.9-5 6.9-2.8 0-5-3.1-5-6.9 0-3.7 2.2-6.8 5-6.8 2.7 0 5 3.1 5 6.8z"/>
			<path id="&lt;Path&gt;" class="s3" d="m174 257c21.3 3.5 35.6-6.2 46.6-20.1-6.8-0.9-11.3-0.2-11.3-0.2 0 0-14.2 13.3-31 12.9-16.7-0.3-18-12.9-18-12.9-3.5-0.1-6.5 0.3-8.8 0.9 4.2 9.9 12 18.1 22.5 19.4z"/>
			<path id="&lt;Path&gt;" class="s3" d="m204.5 408.9c-3.1 4.7-4.8 7.6-4.8 7.6l18.7 18.6c0 0 3.7-0.9 8.6-3-6.6-8.4-14.5-16.1-22.5-23.2z"/>
			<path id="&lt;Path&gt;" class="s4" d="m268.5 272.8c-14.6-27.3-35.3-34.3-47.9-35.9-11 13.9-25.3 23.6-46.6 20.1-10.5-1.3-18.3-9.5-22.5-19.4-5.2 1.2-7.7 3.4-7.7 3.4-7 15.1-19 51.5-18.7 84 0.3 32.4 16.4 40 16.4 40 0 0-1.2 2.7 38.4 3.7 39.6 1 72.2-8.7 72.2-8.7-23.1 15.4-39.8 37.4-47.6 48.9 8 7.1 15.9 14.8 22.5 23.2 2.5-1.1 5.4-2.5 8.2-4.3 8.2-5.4 56.2-32.9 58.7-52.8 2.6-19.9-2.8-60.3-25.4-102.2z"/>
			<g id="&lt;Group&gt;">
				<path id="&lt;Path&gt;" class="s3" d="m141.5 365.5q-0.1 0-0.1-0.1c-0.6-0.2-14.5-5.7-16.7-37.6-2.2-31.6 6.5-51.2 6.6-51.3 0.1-0.3 0.4-0.4 0.6-0.3 0.2 0.1 0.3 0.4 0.2 0.6-0.1 0.2-8.7 19.6-6.5 51 2.1 31.2 15.9 36.7 16.1 36.8 0.2 0.1 0.3 0.3 0.2 0.6 0 0.1-0.2 0.3-0.4 0.3z"/>
			</g>
			<g id="&lt;Group&gt;">
				<path id="&lt;Path&gt;" class="s3" d="m252.1 360.4q-0.2 0-0.4-0.2c-0.1-0.1-10.2-12.9-18.4-42.1-8.1-29.1-5.8-41.1-5.7-41.6 0.1-0.2 0.3-0.4 0.6-0.3 0.2 0.1 0.4 0.3 0.3 0.5 0 0.1-2.4 12.3 5.7 41.2 8.1 28.9 18.1 41.7 18.2 41.8 0.2 0.2 0.2 0.5 0 0.6q-0.2 0.1-0.3 0.1z"/>
			</g>
		</g>
	</g>
</svg>