<svg version="1.2" xmlns="http://www.w3.org/2000/svg" viewBox="0 0 370 700" width="370" height="700">
	<title>3296433-ai</title>
	<style>
		.s0 { fill: #dbdbdb } 
		.s1 { fill: #da8259 } 
		.s2 { fill: #ce7552 } 
		.s3 { fill: #b1a6a4 } 
		.s4 { fill: none;stroke: #151723;stroke-linecap: round;stroke-linejoin: round;stroke-width: .9 } 
		.s5 { fill: #f29f83 } 
		.s6 { fill: #fcbe8e } 
		.s7 { fill: #f6dfd4 } 
		.s8 { fill: #fcabba } 
		.s9 { fill: none;stroke: #4e6880;stroke-linecap: round;stroke-linejoin: round;stroke-width: .7 } 
		.s10 { fill: #393542 } 
		.s11 { fill: #db2a2a } 
		.s12 { fill: #ff504c } 
		.s13 { fill: #ffffff } 
		.s14 { fill: #f56947 } 
		.s15 { fill: #c6422c } 
		.s16 { fill: #f6a100 } 
		.s17 { fill: #000000 } 
		.s18 { fill: #6c4820 } 
		.s19 { fill: none;stroke: #6c4820;stroke-linecap: round;stroke-linejoin: round;stroke-width: .9 } 
		.s20 { fill: none;stroke: #f29f83;stroke-linecap: round;stroke-linejoin: round } 
	</style>
	<path id="&lt;Path&gt;" class="s0" d="m184.7 693.2c-53.2 0-96.1-4.3-96.1-9.5 0-5.3 42.9-9.6 96.1-9.6 53.1 0 96 4.3 96 9.6 0 5.2-42.9 9.5-96 9.5z"/>
	<g id="feminino">
		<g id="&lt;Group&gt;">
			<g id="&lt;Group&gt;">
				<path id="&lt;Path&gt;" class="s1" d="m260.7 344.9c-8.3-11.7-10.8-16.8-5.6-37 3.4-13.4 9.7-36.1-6.3-63.2-11.5-19.6-15.9-41.1-15.9-41.1l-123.7 5.8c0 0 1.2 11.6-2.9 24.4-4.4 13.6-27.7 36.8-23 60.1 3.8 19.1-1.5 27.7-7.3 38.3-5.9 10.7-12.3 21.7-6.4 46.9 0 0 8.3 8.8 23 12.7-2.4-8.5-2.4-17.1 1.4-23.7 14.4-27 25.1-54.2 18.5-85.3-4.6-23.2 14.1-39.7 33-42.2 26.5-3.2 46.5 13.5 68.2 25.2 7.3 3.1 17.1 6.3 20.2 14.2 6.5 14.5-8.3 30-3.2 45.6 3 10.4 12.3 20 15.3 31.7 3.4 11.7 2.7 23.7-0.9 35.3l0.3 0.8c0 0 11.6 3.9 21.8-5 2.4-2.1 2.7-30.4-6.5-43.5z"/>
				<path id="&lt;Path&gt;" class="s2" d="m246 357.3c-3-11.7-12.3-21.3-15.3-31.7-5.1-15.6 9.7-31.1 3.2-45.6-3.1-7.9-12.9-11.1-20.2-14.2-21.7-11.7-41.7-28.4-68.2-25.2-18.9 2.5-37.6 19-33 42.2 6.6 31.1-4.1 58.3-18.5 85.3-3.8 6.6-3.8 15.2-1.4 23.7 3.8 1 8 1.7 12.6 1.8l5.2-22.4 4 23.1c0 0 12.3 8.3 58.9 2 46.7-6.3 54.1 1.9 58.3-5.7 4.2-7.5-2-36.8-2-36.8l15.5 38.8c3.6-11.6 4.3-23.6 0.9-35.3z"/>
				<path id="&lt;Path&gt;" class="s3" d="m141.8 338.5c0 0-26.9-0.5-31.7 22.8-4.7 23.3-12 96.9 0 109.2 12.1 12.2 43 9.5 53.9-3 10.9-12.6-22.2-129-22.2-129z"/>
				<path id="&lt;Path&gt;" class="s4" d="m154.4 347.4c0 0-26.8-0.5-31.6 20.4-4.7 20.9-12.1 87.1 0 98 12.1 11 43 8.6 53.9-2.7 10.9-11.2-22.3-115.7-22.3-115.7z"/>
				<path id="&lt;Path&gt;" class="s5" d="m197.1 330l0.2-13.2-32.6 1.6-0.7 13c11.1 0.8 22.3 0.4 33.1-1.4z"/>
				<path id="&lt;Path&gt;" class="s5" d="m231.6 361.7c-6.6-17.5-17.4-24.2-28-23.1-0.1 0.4 7.1 44.6 7 45 2.6 8.9 5.2 18.3 6.8 24.7 7.7-0.4 15.2-0.4 22.8-0.7-1.9-14-4.6-29.5-8.6-45.9z"/>
				<path id="&lt;Path&gt;" class="s6" d="m240.2 407.6c-7.6 0.3-15.1 0.3-22.8 0.7 0.5 2.3 1 4.3 1.2 5.7 2 11.1 4.2 57.6 4.2 57.6 0 0-8.4 13.4-6.3 17 2.1 3.7 6.6-4.3 6.6-4.3 0 0-4.3 19.9-0.8 20.1 3.4 0.2 6.4-15.2 6.4-15.2 0 0-1.4 19.4 3.2 18.3 2.7-0.7 2.2-17.3 2.2-17.3 0 0 1.7 16.6 4.6 16 2.9-0.6 0.6-16.4 0.6-16.4 0 0 2.9 12.9 5.8 12 3-0.8 0.5-19.6-1.2-28.4 0 0 1.4-27.1-3.7-65.8z"/>
				<path id="&lt;Path&gt;" class="s6" d="m221.7 407.4c-2.9-12.3-2.7-25.2-2.7-37.8q0-12.3-1.1-24.5c-0.3-0.7-0.4-1.5-0.3-2.3q-0.1-0.8-0.1-1.6c-3.8-1.1-6.4-1.7-6.4-1.7l-14.1-4 0.1-5.5c-10.8 1.8-22 2.2-33.1 1.4l-0.2 4.1c0 0-4.4 1.7-8.3 3.3l-2.3 1.1c-1.1 16.9-3 33.8-10.3 49l13.3 34-12.4 54.1c0 0 27.4 19.3 85.3 5.3l-11-50.4z"/>
				<g id="&lt;Group&gt;">
					<path id="&lt;Path&gt;" class="s5" d="m226.6 477h-44.2l15.5 152q14.3 0 28.7 0c2.3-58.6 0-152 0-152z"/>
					<path id="&lt;Path&gt;" class="s6" d="m224.3 661.3c1.1-8.1 1.8-19.4 2.3-32.3q-14.4 0-28.7 0l3.9 38.3c-7.1 21.7 17.4 15 17.4 15 0 0 40.5 4.2 40.5-2.4 0-6.6-35.4-18.6-35.4-18.6z"/>
				</g>
				<g id="&lt;Group&gt;">
					<g id="&lt;Group&gt;">
						<path id="&lt;Path&gt;" class="s7" d="m247.1 668.9c10.8 5 14.2 9.7 14.2 9.7 0 0-0.6 1.5-15.6 3.2-1-4.5-0.5-9.1 1.4-12.9z"/>
						<path id="&lt;Path&gt;" class="s8" d="m201.6 665.1c14.1 7.6 31-1.3 31-1.3 5.9 1.6 10.7 3.4 14.5 5.1-1.9 3.8-2.4 8.4-1.4 12.9-3.9 0.4-8.8 0.8-14.8 1.3-29.6 2-30.8-5.6-30.8-5.6-0.3-7.5 1.6-12 1.5-12.4z"/>
					</g>
					<g id="&lt;Group&gt;">
						<path id="&lt;Path&gt;" class="s7" d="m200.1 677.5q0.1 2.1 0.6 4.6c0 0 8.5 2.9 31.7 2.9 25.9 0 29.3-3.3 29.3-3.3 0 0 0.1-1.3-0.4-3.1-27.5 5.3-49.6 1.8-61.2-1.1z"/>
					</g>
					<path id="&lt;Path&gt;" class="s9" d="m240.9 666.4c0 0-4.6 2.8-4 8.9"/>
					<path id="&lt;Path&gt;" class="s9" d="m235.7 664.7c0 0-3.9 2.4-3.9 8.9"/>
					<path id="&lt;Path&gt;" class="s9" d="m233.7 666.7c0 0 3.3-7.5 0-7.6-3.2-0.1 0 7.6 0 7.6z"/>
					<path id="&lt;Path&gt;" class="s9" d="m233.7 666.8c0 0-5.2-6.3-6.8-3.4-1.5 2.8 6.8 3.4 6.8 3.4z"/>
				</g>
				<g id="&lt;Group&gt;">
					<path id="&lt;Path&gt;" class="s5" d="m186.2 477h-44.2c0 0-2.3 93.4 0 152q14.3 0 28.7 0z"/>
					<path id="&lt;Path&gt;" class="s6" d="m170.7 629q-14.4 0-28.7 0c0.5 12.9 1.2 24.2 2.3 32.3 0 0-35.4 12-35.4 18.6 0 6.6 40.5 2.4 40.5 2.4 0 0 24.5 6.7 17.4-15z"/>
				</g>
				<path id="&lt;Path&gt;" class="s10" d="m144.3 443.1c0 0 73.1 0.1 77 1.8 3.9 1.7 21.6 164.5 16.8 171.2-7.7 10.7-34.6 3.6-43.5 1.3 0 0-3.5-19.2-4.1-25.7-1.7-16.2-3-64.8-3-64.8-0.2-3.1-4.7-3.2-5-0.1-3.4 33.9-8.8 87.3-8.9 91.4 0 0-34.6 1.8-42.3-3-7.7-4.9 13-172.1 13-172.1z"/>
				<g id="&lt;Group&gt;">
					<g id="&lt;Group&gt;">
						<path id="&lt;Path&gt;" class="s7" d="m121.5 668.9c-10.9 5-14.2 9.7-14.2 9.7 0 0 0.5 1.5 15.6 3.2 1-4.5 0.5-9.1-1.4-12.9z"/>
						<path id="&lt;Path&gt;" class="s8" d="m167 665.1c-14.2 7.6-31-1.3-31-1.3-5.9 1.6-10.7 3.4-14.5 5.1 1.9 3.8 2.4 8.4 1.4 12.9 3.9 0.4 8.7 0.8 14.8 1.3 29.6 2 30.8-5.6 30.8-5.6 0.2-7.5-1.6-12-1.5-12.4z"/>
					</g>
					<g id="&lt;Group&gt;">
						<path id="&lt;Path&gt;" class="s7" d="m168.5 677.5q-0.1 2.1-0.6 4.6c0 0-8.5 2.9-31.7 2.9-26 0-29.3-3.3-29.3-3.3 0 0-0.1-1.3 0.4-3.1 27.5 5.3 49.5 1.8 61.2-1.1z"/>
					</g>
					<path id="&lt;Path&gt;" class="s9" d="m127.7 666.4c0 0 4.6 2.8 4 8.9"/>
					<path id="&lt;Path&gt;" class="s9" d="m132.9 664.7c0 0 3.9 2.4 3.9 8.9"/>
					<path id="&lt;Path&gt;" class="s9" d="m134.9 666.7c0 0-3.3-7.5 0-7.6 3.2-0.1 0 7.6 0 7.6z"/>
					<path id="&lt;Path&gt;" class="s9" d="m134.9 666.8c0 0 5.2-6.3 6.7-3.4 1.6 2.8-6.7 3.4-6.7 3.4z"/>
				</g>
				<g id="&lt;Group&gt;">
					<path id="&lt;Path&gt;" class="s11" d="m225 392.7l-0.1 0.6 0.1-0.6-0.1 0.6-0.2 0.6q0-0.8-0.1-1.4 0.4 0.2 0.4 0.2z"/>
				</g>
				<path id="&lt;Path&gt;" class="s12" d=""/>
				<path id="&lt;Path&gt;" class="s5" d="m148.8 414.3c-0.8-6.6-1.7-16.2-2.5-25.4-6.3-9 21.7-53.7 14-51.9-1.2 0.3-21.6 1.1-28.1 11.7-20.6 33.8-20.7 79.5-14.5 86.6 8.9-2.8 23.6-15.4 31.1-21z"/>
				<path id="&lt;Path&gt;" class="s13" d="m238.4 382.3q-0.6-4.6-1.4-8.6c-35.2 15.2-82 8.6-119.1-3.9-1.2 2.6-2.2 5.2-3.1 7.8 39.3 9 84.9 16.3 123.6 4.7z"/>
				<path id="&lt;Path&gt;" class="s14" d="m114.8 377.6c-1.6 4.8-2.7 9.4-3.1 13.1 40 11 85.3 7.1 127.3-2.1-0.1-2.2-0.4-4.3-0.6-6.3-38.7 11.6-84.3 4.3-123.6-4.7z"/>
				<path id="&lt;Path&gt;" class="s14" d="m237 373.7q-0.9-4.6-2.1-8.5c-33.2 14.4-77.4 9.3-111.4-6-2.1 3.4-4 7-5.6 10.6 37.1 12.5 83.9 19.1 119.1 3.9z"/>
				<path id="&lt;Path&gt;" class="s13" d="m234.9 365.2q-1.6-5.3-3.5-9.3c-31.7 15.2-71.5 14.8-100.2-6.7-2.8 3-5.4 6.4-7.7 10 34 15.3 78.2 20.4 111.4 6z"/>
				<path id="&lt;Path&gt;" class="s14" d="m231.4 355.9c-3.7-7.9-8.1-12.3-11.8-14.6-21.1 20.2-57.5 19.1-77.9-0.2-3.8 1.9-7.3 4.7-10.5 8.1 28.7 21.5 68.5 21.9 100.2 6.7z"/>
				<path id="&lt;Path&gt;" class="s15" d="m111.7 390.7c-0.6 5.1 0.1 8.6 2.2 9.3 8.9 2.9 30.2 1.5 30.2 1.5 0 0 45.5 2.9 64.2 0.3 18.7-2.5 31.3-3.9 31.3-3.9q-0.2-4.9-0.6-9.3c-42 9.2-87.3 13.1-127.3 2.1z"/>
				<path id="&lt;Path&gt;" class="s15" d="m219.6 341.3c-4.2-2.7-7.5-2.8-7.5-2.8 0 0-10.3 13.3-32 11.2-18.7-1.7-29.8-11.2-29.8-11.2-3 0.3-5.9 1.2-8.6 2.6 20.4 19.3 56.8 20.4 77.9 0.2z"/>
				<g id="&lt;Group&gt;">
					<g id="&lt;Group&gt;">
						<g id="&lt;Group&gt;">
							<g id="&lt;Group&gt;">
								<path id="&lt;Path&gt;" class="s6" d="m233.9 223c0 0 0.2 23.9-0.8 52.1-0.8 22.8-19.9 44.5-47.8 45.3-26.3 0.7-53.1-10.8-59.9-47.8-6.9-37.1 0-66.9 33.6-73.9 33.7-7 66.9-4.3 74.9 24.3z"/>
								<g id="&lt;Group&gt;">
									<path id="&lt;Path&gt;" class="s16" d="m195.5 213.8q-0.2-0.3-0.2-0.3 0 0 0.2 0.3z"/>
								</g>
								<path id="&lt;Path&gt;" class="s6" d="m136.7 288l-5.3-21.6c0 0-19.4-7.9-21.1 12.3-1.8 20.1 19.3 21.9 26.4 9.3z"/>
								<path id="&lt;Path&gt;" class="s2" d="m145.2 254.3c0 0-4.3-5.3 5.4-11.3 9.7-6 12.9-4.5 14.4-1.3 1.2 3-1.1 7.3-6.6 10.5-6.5 3.9-10.9 5.1-13.2 2.1z"/>
								<path id="&lt;Path&gt;" class="s2" d="m223.1 251c0 0 3.6-5.7-6.8-10.5-10.3-4.8-13.4-2.9-14.4 0.5-0.9 3.1 1.9 7 7.8 9.6 7 3.1 11.4 3.7 13.4 0.4z"/>
								<path id="&lt;Path&gt;" class="s17" d="m162.7 267c-0.1 2.8-2 4.9-4.3 4.9-2.2-0.1-4-2.4-3.9-5.2 0.1-2.7 2-4.9 4.3-4.8 2.2 0.1 4 2.4 3.9 5.1z"/>
								<path id="&lt;Path&gt;" class="s17" d="m212.4 267.5c-0.1 2.7-2 4.9-4.2 4.8-2.3-0.1-4.1-2.3-4-5.1 0.1-2.7 2.1-4.9 4.3-4.8 2.3 0.1 4 2.4 3.9 5.1z"/>
								<g id="&lt;Group&gt;">
									<path id="&lt;Path&gt;" class="s18" d="m129.8 289q-0.1 0-0.2-0.1c-0.2-0.1-0.2-0.3-0.1-0.5 0-0.1 4.7-9.6-1.9-14.4q-3.5-2.5-6.9-1.9c-4 0.7-6.4 4.3-6.4 4.4-0.2 0.1-0.4 0.2-0.6 0.1-0.2-0.2-0.2-0.4-0.1-0.6 0.1-0.2 2.7-3.9 6.9-4.7 2.5-0.4 5 0.2 7.5 2 7.2 5.2 2.2 15.3 2.2 15.4-0.1 0.2-0.2 0.3-0.4 0.3z"/>
								</g>
								<g id="&lt;Group&gt;">
									<path id="&lt;Path&gt;" class="s18" d="m120.1 280.7q-0.2 0-0.3-0.2c-0.1-0.2-0.1-0.4 0.1-0.5 0.1-0.1 7.1-4.8 11.9 0.4 0.2 0.2 0.1 0.5 0 0.6-0.2 0.2-0.4 0.1-0.6 0-4.4-4.7-10.8-0.4-10.8-0.4q-0.1 0.1-0.3 0.1z"/>
								</g>
								<g id="&lt;Group&gt;">
									<path id="&lt;Path&gt;" class="s18" d="m188.4 277.9c-0.1 0-0.3-0.1-0.3-0.2-0.1-0.2 0-0.5 0.2-0.6 0 0 3.3-1.4 4.8-4.2 1.3-2.2 1-5.6-0.4-7.2-0.9-0.9-2.1-1-3.6-0.3q0 0-0.2 0.1c-5.1 2.7-7.3 1.3-8.2-0.3-1.8-3 0.7-26.1 1-28.7 0-0.2 0.2-0.4 0.4-0.4 0.2 0 0.4 0.2 0.4 0.5-0.8 7-2.5 25.8-1.1 28.2 1.1 1.9 3.5 1.9 7.1 0q0.2-0.1 0.3-0.2c1.7-0.8 3.3-0.6 4.5 0.6 1.7 1.7 1.9 5.5 0.6 8.1-1.7 3.1-5.2 4.5-5.3 4.6q-0.1 0-0.2 0z"/>
								</g>
								<path id="&lt;Path&gt;" class="s6" d="m224.6 286.8l0.7-22.3c0 0 17.3-11.8 23.2 7.5 6 19.3-14.3 25.5-23.9 14.8z"/>
								<g id="&lt;Group&gt;">
									<path id="&lt;Path&gt;" class="s18" d="m231.6 286.2q0 0 0.1-0.1c0.2-0.1 0.2-0.4 0.1-0.5-0.1-0.1-6.7-8.5-1.2-14.5q2.9-3.2 6.3-3.3c4-0.1 7.2 2.9 7.2 2.9 0.2 0.2 0.4 0.2 0.6 0 0.2-0.2 0.2-0.4 0-0.6-0.1-0.1-3.5-3.3-7.8-3.1-2.5 0.1-4.8 1.3-6.9 3.6-5.9 6.5 1.1 15.4 1.2 15.5 0.1 0.1 0.2 0.1 0.4 0.1z"/>
								</g>
								<g id="&lt;Group&gt;">
									<path id="&lt;Path&gt;" class="s18" d="m239.3 276.1q0.2-0.1 0.2-0.2c0.1-0.2 0-0.5-0.2-0.6-0.1 0-7.8-3.1-11.5 3-0.1 0.2 0 0.4 0.2 0.5 0.2 0.2 0.4 0.1 0.5-0.1 3.3-5.5 10.4-2.6 10.5-2.6q0.1 0 0.3 0z"/>
								</g>
								<path id="&lt;Path&gt;" class="s5" d="m166.1 288.2c-0.9 3.8-7.4 5.5-14.5 3.8-7.2-1.7-12.2-6.1-11.3-9.9 0.9-3.8 7.4-5.6 14.5-3.9 7.2 1.7 12.2 6.2 11.3 10z"/>
								<path id="&lt;Path&gt;" class="s5" d="m199.2 288.6c0.8 3.9 7.2 5.8 14.4 4.3 7.2-1.5 12.4-5.8 11.6-9.7-0.8-3.8-7.3-5.7-14.5-4.2-7.2 1.5-12.3 5.8-11.5 9.6z"/>
							</g>
						</g>
					</g>
				</g>
				<path id="&lt;Path&gt;" class="s1" d="m150.1 186.4c0 0-39.5 4.8-44.8 27.8-5.2 23 4.7 50.1 18.3 51.5 22.2 2.3 69.9-55.4 69.9-55.4 15 25 47.1 56.1 53.7 52.7 6.6-3.3 5.1-51.4-7.1-66.3-12.1-14.9-54.1-24.4-90-10.3z"/>
				<path id="&lt;Path&gt;" class="s1" d="m147.7 186.5c0 0-10.4-13.8-5.1-15 5.3-1.2 8.1 11.2 8.1 11.2 0 0-0.6-21.8 6-17.9 6.6 3.8 3.1 19.3-2.8 21.8"/>
				<path id="&lt;Path&gt;" class="s19" d="m176.7 285.9c0 0 2.1 9.5 12.3 6.1"/>
				<g id="&lt;Group&gt;">
					<path id="&lt;Compound Path&gt;" fill-rule="evenodd" class="s8" d="m122.3 262.9c-7.8 1.3-8.7-16.3-8.7-16.3-0.2-2.9 1.1-8.1 5.9-2.1 2.8 3.6 9.9 17.1 2.8 18.4zm-2.8-15.1c-2.9-3.6-3.6-0.5-3.5 1.2 0 0 0.5 10.4 5.2 9.6 4.2-0.7 0-8.7-1.7-10.8z"/>
				</g>
				<g id="&lt;Group&gt;">
					<path id="&lt;Compound Path&gt;" fill-rule="evenodd" class="s8" d="m137 253.2c-7.1 3.5-12.9-13.2-12.9-13.2-1-2.7-1.2-8 5.1-3.6 3.7 2.6 14.3 13.7 7.8 16.8zm-6.9-13.7c-3.8-2.6-3.6 0.5-3.1 2.1 0 0 3.5 9.9 7.7 7.9 3.9-1.9-2.4-8.5-4.6-10z"/>
				</g>
				<path id="&lt;Path&gt;" class="s10" d="m144.3 443.1c0 0 0.9-27.1 0-37.9-0.9-10.8 3.2-66 3.2-66l8.9-1.7 1.4 33.2c0 0 45.1 0.3 49.2-0.1l-4.8-33.6 9.9 1.5c0 0 6.9 37.8 9.6 68.9 1.4 16.8-1.2 31.6-0.4 37.5 2.4 16.9-77-1.8-77-1.8z"/>
				<path id="&lt;Path&gt;" class="s4" d="m163.1 382.1l43.6-1.6c0 0 6.7 31.4-19 34-25.7 2.6-24.6-32.4-24.6-32.4z"/>
				<path id="&lt;Path&gt;" class="s8" d="m141.8 338.5c0 0 9.1 38.1 7.8 67.6-1.3 29.6-30.6 52.7-30.6 52.7l3.8 7c0 0 35.6-13.8 33.6-75.4-1.1-33.2-6.1-51.9-6.1-51.9 0 0-5-2.3-8.5 0z"/>
				<path id="&lt;Path&gt;" class="s6" d="m147.9 381.3c0 0-0.1-9.2-3.7-7-3.6 2.2-2.8 18-2.8 18 0 0-19.9 19.1-27.1 27.9-0.9 1.1 0.9 30.6 20.3 21.5 6.8-3.2 23.7-41 23.7-41 1.8-2.1 5.1-2.9 5-8.8 0-3-1.6-3.1-1.6-3.1 0 0 3.1-4 1.4-6.7-1.6-2.5-3.4 1.4-3.4 1.4 0 0 3.3-5.9 1.3-7.9-3.6-3.2-4.4 1.3-4.4 1.3 0 0 1.3-6.4-1.8-7.9-3.1-1.5-6.9 12.3-6.9 12.3z"/>
			</g>
			<path id="&lt;Path&gt;" class="s20" d="m118.2 415.7c0 0 12.5-12.9 23.2-23.4"/>
			<path id="&lt;Path&gt;" class="s4" d="m147.6 446.5c0 0 50.3-3.3 69.9-2.1"/>
			<path id="&lt;Path&gt;" class="s4" d="m182.4 450.2l2.9 49.3"/>
			<path id="&lt;Path&gt;" class="s4" d="m185.3 496.1c0 0 9.1-1.6 8.3-23.1-0.8-21.6 0.1-26.5 0.1-26.5"/>
			<path id="&lt;Path&gt;" class="s4" d="m207.5 446.5c0 0 4.4 15.5 17.1 21.8"/>
			<path id="&lt;Path&gt;" class="s4" d="m143.8 477c0 0 10.8-5.8 12.6-26.8"/>
			<path id="&lt;Path&gt;" class="s4" d="m165 531q-0.6 0.3-1.2 0.6c2.9 0.4 5.8-0.7 8.5-1.8q14.5-5.7 28.9-11.5"/>
		</g>
	</g>
</svg>