<svg version="1.2" xmlns="http://www.w3.org/2000/svg" viewBox="0 0 370 700" width="370" height="700">
	<title>3296433-ai</title>
	<style>
		.s0 { fill: #dbdbdb } 
		.s1 { fill: #da8259 } 
		.s2 { fill: #ce7552 } 
		.s3 { fill: #f29f83 } 
		.s4 { fill: #fcbe8e } 
		.s5 { fill: #f6dfd4 } 
		.s6 { fill: #151723 } 
		.s7 { fill: none;stroke: #4e6880;stroke-linecap: round;stroke-linejoin: round;stroke-width: .9 } 
		.s8 { fill: #b1a6a4 } 
		.s9 { fill: #f9bba0 } 
		.s10 { fill: none;stroke: #151723;stroke-linecap: round;stroke-linejoin: round;stroke-width: .9 } 
		.s11 { fill: #db2a2a } 
		.s12 { fill: #ff504c } 
		.s13 { fill: #fcabba } 
		.s14 { fill: #ed98ab } 
		.s15 { fill: #f6a100 } 
		.s16 { fill: #000000 } 
		.s17 { fill: #6c4820 } 
		.s18 { fill: #b34865 } 
		.s19 { fill: none;stroke: #f3bd53;stroke-linecap: round;stroke-miterlimit:10;stroke-width: 1.3 } 
	</style>
	<path id="&lt;Path&gt;" class="s0" d="m184.7 693.2c-53.2 0-96.1-4.3-96.1-9.5 0-5.3 42.9-9.6 96.1-9.6 53.1 0 96 4.3 96 9.6 0 5.2-42.9 9.5-96 9.5z"/>
	<g id="feminino">
		<g id="&lt;Group&gt;">
			<g id="&lt;Group&gt;">
				<path id="&lt;Path&gt;" class="s1" d="m303.1 352.1c0.2 0 0.4-0.1 0.4-0.3 1.4-15.3 1.9-31.1-7.1-42.4-3-3.8-7.1-6.9-10.9-9.8-4.3-3.3-8.7-6.7-11.8-11.1-5.9-8.4-6.8-20.3-2.7-35.1 1-3.6 2.2-7.2 3.4-10.6 2.6-8.1 5.4-16.4 5.9-24.9 0.7-12.3-3.5-24.8-11.6-34.2-1.4-1.7-3.1-3.4-4.6-5.1-4.4-4.5-8.9-9.1-10.4-15.1-1-4.4-0.3-9 0.4-13.4 0.4-2.6 0.9-5.3 0.9-8 0.5-16.3-12.6-30-25.7-36.3-14.4-7-31.2-8.3-46.1-9.4-0.2 0-0.4 0.1-0.4 0.3 0 0.3 0.1 0.4 0.4 0.5 14.7 1.1 31.5 2.4 45.7 9.3 12.9 6.2 25.7 19.7 25.3 35.6-0.1 2.6-0.5 5.3-0.9 7.9-0.7 4.5-1.4 9.2-0.4 13.7 1.5 6.2 6.1 10.9 10.6 15.5 1.5 1.6 3.2 3.3 4.6 5 7.9 9.3 12 21.6 11.4 33.6-0.5 8.5-3.3 16.7-5.9 24.7-1.2 3.5-2.4 7.1-3.4 10.7-4.2 15.1-3.2 27.1 2.8 35.8 3.2 4.5 7.6 7.9 12 11.2 3.8 2.9 7.8 6 10.8 9.7 8.8 11.1 8.2 26.7 6.9 41.8 0 0.2 0.2 0.4 0.4 0.4q0 0 0 0z"/>
			</g>
			<g id="&lt;Group&gt;">
				<path id="&lt;Path&gt;" class="s1" d="m26 340.1q0.1 0 0.2-0.1c0.2-0.1 0.3-0.3 0.2-0.5-4.6-9.7-0.6-21.2 3.6-29.1 1.4-2.6 2.9-5.2 4.4-7.8 3.8-6.3 7.6-12.8 9.3-19.9 2.5-10.1 0.6-20.6-1.3-30.8-1.8-9.7-3.7-19.7-1.7-29.4 2-9.5 7.8-18.2 15.9-23.9 1.5-1.1 3.2-2.1 4.9-3.1 3.3-2 6.8-4.1 9.4-7 6.2-6.8 6.8-16.2 7.4-25.3q0.2-2.7 0.5-5.4c1.4-15.9 7.6-29.5 17.3-38 11.6-10.2 28.7-12.7 40.7-5.9 0.2 0.1 0.4 0.1 0.5-0.1 0.2-0.2 0.1-0.4-0.1-0.5-12.3-7-29.8-4.5-41.7 5.9-9.8 8.7-16.1 22.4-17.6 38.6q-0.2 2.6-0.4 5.3c-0.6 9-1.2 18.3-7.2 24.9-2.6 2.8-6 4.8-9.2 6.8-1.7 1-3.4 2.1-5 3.2-8.3 5.8-14.2 14.7-16.2 24.4-2 9.7-0.1 19.9 1.7 29.6 1.8 10.1 3.8 20.5 1.3 30.5-1.7 7-5.5 13.5-9.2 19.7-1.5 2.6-3 5.2-4.4 7.8-4.3 8.1-8.4 19.8-3.7 29.8 0.1 0.2 0.2 0.3 0.4 0.3z"/>
			</g>
			<path id="&lt;Path&gt;" class="s1" d="m281 300.2c-11.6-14.7-15.2-21.1-9.6-47.5 3.7-17.4 10.6-47-12-81.1-16.3-24.6-23.3-52.2-23.3-52.2l-139.8 5.3c0 0-9.4 37.5-20.5 50.6-11.2 13.2-38.7 39.3-31.2 69.1 6.2 24.4-0.2 35.8-7.3 49.9-7 14.1-14.8 28.6-5.6 60.9 0 0 11.5 10.9 31 15-3.7-10.8-4.2-21.9 0.4-30.6 17.4-35.7 29.8-71.4 19.4-111.1-7.4-29.7 16.1-52.1 40.9-56.4 34.6-5.6 61.9 14.8 91.1 28.7 9.8 3.5 22.8 7.2 27.5 17.1 9.3 18.3-9.3 39.2-1.6 59.1 4.6 13.2 17.4 25.1 21.9 39.9 5.3 15 5.1 30.5 1 45.7l0.4 1c0 0 15.5 4.4 28.4-7.7 3-2.8 1.7-39.4-11.1-55.7z"/>
			<path id="&lt;Path&gt;" class="s2" d="m262.3 316.9c-4.5-14.8-17.3-26.7-21.9-39.9-7.7-19.9 10.9-40.8 1.6-59.1-4.7-9.9-17.7-13.6-27.5-17.1-29.2-13.9-56.5-34.3-91.1-28.7-24.8 4.3-48.3 26.7-40.9 56.4 10.4 39.7-2 75.4-19.4 111.1-4.6 8.7-4.1 19.8-0.4 30.6 5 1.1 10.6 1.8 16.7 1.7l5.4-29.3 6.7 29.7c0 0 16.7 9.9 77.7-0.9 60.9-10.8 71.1-0.6 76.2-10.6 5.1-10-4.8-47.4-4.8-47.4l22.7 49.2c4.1-15.2 4.3-30.7-1-45.7z"/>
			<g id="&lt;Group&gt;">
				<path id="&lt;Path&gt;" class="s3" d="m190.6 253.1l0.4-16-39.4 1.5-1 15.8c13.4 1 26.9 0.7 40-1.3z"/>
				<path id="&lt;Path&gt;" class="s4" d="m219.2 347c-3.4-14.9-2.9-30.4-2.7-45.6q0.2-14.9-1-29.7c-0.3-0.9-0.4-1.8-0.3-2.8q-0.1-1-0.1-1.9c-4.5-1.5-7.7-2.2-7.7-2.2l-17-5 0.2-6.7c-13.1 2-26.6 2.3-40 1.3l-0.4 4.8c0 0-5.3 2-10 3.9l-2.8 1.3c-1.5 20.4-4.2 40.9-13.2 59.1l10.4 35.8-15.9 65.2c0 0 38.1 29.2 108.2 13.2l-12.4-61.1z"/>
				<g id="&lt;Group&gt;">
					<g id="&lt;Group&gt;">
						<path id="&lt;Path&gt;" class="s4" d="m193.2 660.9l-10.8-216 43.7-13.6c0 0 1.9 168.4-5.6 222.7 0 0 42.5 15 42.4 22.9-0.1 8-48.9 2.4-48.9 2.4 0 0-29.8 7.7-20.8-18.4z"/>
					</g>
					<g id="&lt;Group&gt;">
						<path id="&lt;Path&gt;" class="s4" d="m122.4 667.2c0 0-6.4-120.2-9.5-227.7-0.5-16.1 59-2.2 59-2.2 0 0-14.6 168.7-22.2 223 0 0 41.2 14.6 41.1 22.6-0.1 8-47.6 2.7-47.6 2.7 0 0-29.7 7.7-20.8-18.4z"/>
					</g>
					<g id="&lt;Group&gt;">
						<g id="&lt;Group&gt;">
							<path id="&lt;Path&gt;" class="s5" d="m176.6 669.8c13 6.1 17 11.9 17 11.9 0 0-0.7 1.8-18.9 3.6-1.1-5.4-0.4-10.9 1.9-15.5z"/>
							<path id="&lt;Path&gt;" class="s6" d="m121.7 664.5c16.9 9.4 37.4-1.1 37.4-1.1 7.1 2 12.9 4.2 17.5 6.4-2.3 4.6-3 10.1-1.9 15.5-4.7 0.5-10.6 0.9-17.9 1.3-35.8 2.1-37.2-7.2-37.2-7.2-0.2-9.1 2.2-14.4 2.1-14.9z"/>
						</g>
						<g id="&lt;Group&gt;">
							<path id="&lt;Path&gt;" class="s5" d="m119.6 679.4q0.2 2.6 0.7 5.6c0 0 10.2 3.6 38.3 4 31.3 0.4 35.4-3.6 35.4-3.6 0 0 0.2-1.5-0.4-3.7-33.3 5.9-59.9 1.4-74-2.3z"/>
						</g>
						<path id="&lt;Path&gt;" class="s7" d="m169.2 666.7c0 0-5.6 3.2-5 10.7"/>
						<path id="&lt;Path&gt;" class="s7" d="m162.9 664.5c0 0-4.8 2.8-4.9 10.7"/>
						<path id="&lt;Path&gt;" class="s7" d="m160.5 666.9c0 0 4-9 0.1-9.2-3.9-0.2-0.1 9.2-0.1 9.2z"/>
						<path id="&lt;Path&gt;" class="s7" d="m160.5 667c0 0-6.3-7.6-8.2-4.2-1.9 3.4 8.2 4.2 8.2 4.2z"/>
					</g>
					<g id="&lt;Group&gt;">
						<path id="&lt;Path&gt;" class="s8" d="m215.6 372.9c0 0 16 31.9 15.4 72.9-0.2 12.9-7.5 200.3-7.5 200.3 0 0-11.2 3.5-35.7-0.4l-8-198.3-25.7 203.4c0 0-24.1 4.5-34.1-2.1 0 0-8.2-119.8-7.1-209.2 0.4-28.9 11.8-56.6 20.1-66.2z"/>
						<path id="&lt;Path&gt;" class="s9" d="m156.7 544.1c0 0-27 6.2-27.7-4.2-0.8-10.4 41.7-5 27.7 4.2z"/>
						<path id="&lt;Path&gt;" class="s9" d="m221.2 520.5c0 0-18.6 4.9-19.1-3.3-0.5-8.1 28.7-3.9 19.1 3.3z"/>
						<path id="&lt;Path&gt;" class="s9" d="m223.1 507.3c0 0-10.9 2.8-11.2-1.9-0.3-4.8 16.9-2.3 11.2 1.9z"/>
						<path id="&lt;Path&gt;" class="s10" d="m201.6 448.7c0 0-29.1 1-49.2-1.8"/>
						<path id="&lt;Path&gt;" class="s10" d="m122.3 647.3c0 0-0.3 19.6-4.7-196.4 0 0-3.6-40.9 21.8-76.2"/>
						<path id="&lt;Path&gt;" class="s10" d="m191.3 643.8l-8.9-195"/>
						<path id="&lt;Path&gt;" class="s10" d="m181.5 433.1l0.8-57.9"/>
						<path id="&lt;Path&gt;" class="s10" d="m123 414.4c8.2-4.7 20.9-19.6 21.4-39.6"/>
						<path id="&lt;Path&gt;" class="s10" d="m224.5 410.5c-7.4-1.1-14.3-22.3-12.1-36.2"/>
						<path id="&lt;Path&gt;" class="s10" d="m181.6 426.6c0 0-5.5-0.1-6.7-11.2-1.2-11.2-1.1-40.3-1.1-40.3"/>
						<path id="&lt;Path&gt;" class="s10" d="m216.9 379c0 0-35 4.2-85.1-1.1"/>
						<path id="&lt;Path&gt;" class="s6" d="m175.3 377.8c0 1.5 1.2 2.7 2.7 2.7 1.4 0 2.6-1.1 2.7-2.6 0-1.5-1.2-2.7-2.7-2.7-1.5 0-2.7 1.1-2.7 2.6z"/>
					</g>
					<g id="&lt;Group&gt;">
						<g id="&lt;Group&gt;">
							<path id="&lt;Path&gt;" class="s5" d="m247.9 663.5c13 6.2 17 11.9 17 11.9 0 0-0.7 1.8-18.9 3.6-1.1-5.4-0.4-10.9 1.9-15.5z"/>
							<path id="&lt;Path&gt;" class="s6" d="m193 658.2c16.9 9.4 37.4-1.1 37.4-1.1 7.1 2.1 12.9 4.3 17.5 6.4-2.3 4.6-3 10.1-1.9 15.5-4.8 0.5-10.6 0.9-17.9 1.4-35.8 2-37.2-7.3-37.2-7.3-0.2-9 2.2-14.4 2.1-14.9z"/>
						</g>
						<g id="&lt;Group&gt;">
							<path id="&lt;Path&gt;" class="s5" d="m190.9 673.1q0.2 2.7 0.7 5.6c0 0 10.2 3.7 38.3 4 31.3 0.4 35.4-3.5 35.4-3.5 0 0 0.2-1.5-0.4-3.8-33.4 6-59.9 1.4-74-2.3z"/>
						</g>
						<path id="&lt;Path&gt;" class="s7" d="m240.5 660.4c0 0-5.6 3.3-5.1 10.7"/>
						<path id="&lt;Path&gt;" class="s7" d="m234.2 658.3c0 0-4.8 2.8-4.9 10.7"/>
						<path id="&lt;Path&gt;" class="s7" d="m231.8 660.6c0 0 4-9 0.1-9.1-3.9-0.2-0.1 9.1-0.1 9.1z"/>
						<path id="&lt;Path&gt;" class="s7" d="m231.8 660.7c0 0-6.3-7.6-8.2-4.2-1.9 3.4 8.2 4.2 8.2 4.2z"/>
					</g>
				</g>
				<g id="&lt;Group&gt;">
					<path id="&lt;Path&gt;" class="s11" d="m223.4 329.3l-0.2 0.8 0.2-0.8-0.2 0.8-0.2 0.6q0-0.9 0-1.6 0.4 0.2 0.4 0.2z"/>
				</g>
				<path id="&lt;Path&gt;" class="s12" d=""/>
				<path id="&lt;Path&gt;" class="s4" d="m207.5 358.7c0.5-6.5 0-22.7-0.7-37.9 0.3-0.5 4.4-54.4 4.6-54.9 12.8 1.7 27.9 15.8 29.9 28.2 1.3 12 1.7 28 0.2 49.6-2.9 39.8-21.2 92-21.2 92-0.5 10.8-3 33.6-6.7 33.8-3.7 0.1-3.4-15.9-3.4-15.9 0 0-1.8 19.3-5.4 19.1-3.6-0.1-0.8-20-0.8-20 0 0-4.1 19.6-7.5 19.7-5.8-0.1 1.4-22.5 1.4-22.5 0 0-7.9 17.3-11.9 16.1-4-1.3 6.8-23.4 6.8-23.4 0 0-7.6 8.1-9.1 3.2-1.4-4.9 12.3-18.2 12.3-18.2 0 0 10.7-55.2 11.5-68.9z"/>
				<path id="&lt;Path&gt;" class="s4" d="m133.2 328.4c-9.4-9.3 14.3-68.5 5.6-64.6-1.4 0.6-27.1 8.3-31.3 11.5-8.3 6.5-21.9 31.4-0.4 85.4 14.7 37.1 47.9 81.4 47.9 81.4 3.8 10.1 13 31.1 16.6 30.1 3.5-1-1.6-16.1-1.6-16.1 0 0 7.5 17.8 10.9 16.6 3.4-1.2-5.2-19.4-5.2-19.4 0 0 9.8 17.5 13.1 16.5 5.4-1.8-8.2-20.9-8.2-20.9 0 0 12.7 14 16.2 11.7 3.4-2.4-13.5-20.3-13.5-20.3 0 0 9.7 5.4 9.6 0.3-0.2-5.1-17.2-13.6-17.2-13.6 0 0-26.8-49.4-31.7-62.2-2.4-6.1-6.8-21.7-10.8-36.4z"/>
				<path id="&lt;Path&gt;" class="s3" d="m241.9 301.2q-16.8 4.5-33.9 7c-0.6 7.2-1.1 12.4-1.2 12.6 0.3 6.2 0.5 12.6 0.7 18.4 11.7-0.9 23.2-2.6 34.5-5.2 0.7-13.1 0.5-23.9-0.1-32.8z"/>
				<path id="&lt;Path&gt;" class="s3" d="m133.2 328.4c-2.7-2.7-2.7-9.5-1.4-17.7-12.1-0.8-24.2-2.2-36.2-4.2-0.2 7.4 0.5 16.2 2.8 26.5 12.3 1.9 24.8 3.6 37.4 4.9-0.9-3.2-1.8-6.3-2.6-9.5z"/>
				<path id="&lt;Path&gt;" class="s13" d="m237.3 284.3c0 0-92.7 15.7-137.9 2.8 0 0-8.3 19.8-2.9 31.8 0 0 19.4 4.5 31.5 3.5 0 0 14.4 52.3 22.5 53.1 8.1 0.8 46.2 2.2 55-1 8.8-3.2 11.1-48.4 11.1-48.4 0 0 24.4-1.8 25.9-8.6 4.8-21.6-5.2-33.2-5.2-33.2z"/>
				<g id="&lt;Group&gt;">
					<path id="&lt;Path&gt;" class="s14" d="m171.1 376.5q-9.6-0.1-19.1-0.7c-0.3 0-0.5-0.2-0.5-0.5 0-0.2 0.2-0.4 0.5-0.4 17.6 1.1 35.4 1 53-0.4 0.3 0 0.5 0.2 0.5 0.5 0.1 0.2-0.1 0.5-0.4 0.5-11.3 0.8-22.6 1.2-34 1z"/>
				</g>
				<g id="&lt;Group&gt;">
					<path id="&lt;Path&gt;" class="s14" d="m164.9 365.1q-0.2 0-0.3-0.2c-0.2-0.3-0.1-0.5 0.1-0.7 9-5.7 17.6-12.3 25.6-19.5 0.2-0.2 0.5-0.2 0.6 0 0.2 0.2 0.2 0.5 0 0.7-8 7.2-16.6 13.8-25.7 19.6q-0.1 0.1-0.3 0.1z"/>
				</g>
				<g id="&lt;Group&gt;">
					<path id="&lt;Path&gt;" class="s14" d="m189.9 366.8q-0.2 0-0.3-0.1c-0.2-0.2-0.2-0.5 0-0.7 7.1-7.3 12.7-16.3 16.1-25.9 0.1-0.3 0.4-0.4 0.6-0.3 0.3 0.1 0.4 0.3 0.3 0.6-3.5 9.8-9.1 18.9-16.4 26.3q-0.1 0.1-0.3 0.1z"/>
				</g>
				<g id="&lt;Group&gt;">
					<path id="&lt;Path&gt;" class="s14" d="m130.1 331c-0.2 0-0.4-0.1-0.4-0.3-3.1-8.2-4.7-16.7-4.9-25.4 0-0.3 0.2-0.5 0.5-0.5 0.2 0 0.4 0.2 0.4 0.4 0.2 8.6 1.9 17.1 4.8 25.2 0.1 0.2 0 0.5-0.2 0.6q-0.1 0-0.2 0z"/>
				</g>
				<g id="&lt;Group&gt;">
					<path id="&lt;Path&gt;" class="s14" d="m215.9 331.3q0 0-0.1 0c-0.2 0-0.4-0.2-0.4-0.5 0.7-6.8 0.7-13.6-0.2-20.3 0-0.3 0.2-0.5 0.4-0.6 0.3 0 0.5 0.2 0.6 0.5 0.8 6.8 0.9 13.7 0.2 20.5-0.1 0.2-0.3 0.4-0.5 0.4z"/>
				</g>
			</g>
			<g id="&lt;Group&gt;">
				<g id="&lt;Group&gt;">
					<g id="&lt;Group&gt;">
						<g id="&lt;Group&gt;">
							<path id="&lt;Path&gt;" class="s4" d="m228.7 143.5c0 0-0.1 25.6-1.5 55.9-1.2 24.5-22 47.6-52 48.1-28.2 0.4-56.9-12.3-63.7-52.2-6.9-39.9 0.9-71.9 37.1-78.9 36.2-7 71.9-3.8 80.1 27.1z"/>
							<g id="&lt;Group&gt;">
								<path id="&lt;Path&gt;" class="s15" d="m187.6 133.1q-0.2-0.3-0.3-0.3 0 0 0.3 0.3z"/>
							</g>
							<path id="&lt;Path&gt;" class="s4" d="m123.5 212.1l-5.5-23.4c0 0-20.7-8.7-22.9 12.9-2.1 21.6 20.6 23.8 28.4 10.5z"/>
							<path id="&lt;Path&gt;" class="s2" d="m133 175.9c0 0-4.5-5.7 6-12 10.4-6.4 13.9-4.7 15.4-1.2 1.3 3.2-1.2 7.8-7.1 11.2-7.2 4.1-11.8 5.3-14.3 2z"/>
							<path id="&lt;Path&gt;" class="s2" d="m216.7 173.5c0 0 4-6.2-7.1-11.5-11-5.3-14.3-3.2-15.5 0.4-1 3.3 2 7.6 8.2 10.4 7.5 3.4 12.3 4.2 14.4 0.7z"/>
							<path id="&lt;Path&gt;" class="s16" d="m151.6 189.9c-0.1 2.9-2.2 5.2-4.6 5.1-2.5-0.1-4.3-2.6-4.2-5.6 0.2-2.9 2.3-5.2 4.7-5.1 2.4 0.1 4.3 2.6 4.1 5.6z"/>
							<path id="&lt;Path&gt;" class="s16" d="m205 191c-0.1 3-2.2 5.3-4.6 5.2-2.4-0.2-4.3-2.7-4.1-5.6 0.1-3 2.2-5.2 4.6-5.1 2.4 0.1 4.3 2.6 4.1 5.5z"/>
							<g id="&lt;Group&gt;">
								<path id="&lt;Path&gt;" class="s17" d="m116 213q-0.1 0-0.2-0.1c-0.2-0.1-0.3-0.3-0.2-0.6 0.1-0.1 5.2-10.2-1.8-15.4-2.5-1.9-5-2.6-7.4-2.2-4.2 0.7-6.9 4.6-6.9 4.6-0.2 0.2-0.5 0.3-0.7 0.1-0.2-0.1-0.2-0.4-0.1-0.6 0.2-0.1 3-4.2 7.5-4.9 2.7-0.5 5.4 0.3 8.1 2.3 7.6 5.6 2.2 16.4 2.1 16.5-0.1 0.2-0.2 0.3-0.4 0.3z"/>
							</g>
							<g id="&lt;Group&gt;">
								<path id="&lt;Path&gt;" class="s17" d="m105.7 204q-0.2 0-0.3-0.2c-0.2-0.2-0.1-0.5 0.1-0.6 0.1-0.1 7.6-5 12.7 0.6 0.2 0.2 0.2 0.5 0 0.7-0.2 0.1-0.4 0.1-0.6-0.1-4.6-5.1-11.5-0.6-11.6-0.5q-0.1 0.1-0.3 0.1z"/>
							</g>
							<g id="&lt;Group&gt;">
								<path id="&lt;Path&gt;" class="s17" d="m179.1 201.9c-0.1 0-0.3-0.1-0.4-0.3 0-0.2 0.1-0.5 0.3-0.5 0-0.1 3.6-1.5 5.3-4.5 1.3-2.4 1.1-6.1-0.4-7.7-1-1-2.3-1.2-3.9-0.5q0 0.1-0.2 0.2c-5.5 2.8-7.8 1.3-8.8-0.5-1.8-3.2 1.1-28 1.4-30.8 0.1-0.3 0.3-0.4 0.5-0.4 0.2 0 0.4 0.2 0.4 0.5-0.9 7.6-3 27.8-1.6 30.3 1.2 2.1 3.8 2.1 7.7 0.1q0.2-0.1 0.3-0.2c1.9-0.8 3.6-0.6 4.8 0.7 1.8 1.9 2 6 0.5 8.7-1.8 3.3-5.5 4.8-5.7 4.9q-0.1 0-0.2 0z"/>
							</g>
							<g id="&lt;Group&gt;">
								<path id="&lt;Path&gt;" class="s16" d="m183.3 217.5c1.1-2 1.3-4 1.3-4-9.2-4-20.2-4.5-20.2-4.5 0 0-0.3 2.1 0 4.7 4.6 0 11.6 0.7 18.9 3.8z"/>
								<path id="&lt;Path&gt;" class="s18" d="m164.4 213.7c0.5 3.4 2.2 7.7 7.6 8.7 6.6 1.3 9.8-1.9 11.3-4.9-7.3-3.1-14.3-3.8-18.9-3.8z"/>
							</g>
							<path id="&lt;Path&gt;" class="s4" d="m217.9 211.9l1-23.9c0 0 18.7-12.4 24.9 8.4 6.1 20.8-15.8 27.2-25.9 15.5z"/>
							<g id="&lt;Group&gt;">
								<path id="&lt;Path&gt;" class="s17" d="m225.4 211.4q0.1 0 0.1-0.1c0.2-0.1 0.3-0.4 0.1-0.6-0.1-0.1-7-9.1-1.1-15.5 2.1-2.3 4.4-3.5 6.9-3.5 4.3-0.1 7.6 3.2 7.7 3.2 0.1 0.2 0.4 0.2 0.6 0 0.2-0.2 0.2-0.4 0-0.6-0.2-0.2-3.7-3.6-8.3-3.5-2.7 0.1-5.3 1.3-7.5 3.8-6.4 6.9 0.9 16.5 1 16.6 0.1 0.2 0.3 0.2 0.5 0.2z"/>
							</g>
							<g id="&lt;Group&gt;">
								<path id="&lt;Path&gt;" class="s17" d="m233.8 200.6q0.2 0 0.3-0.2c0.1-0.2 0-0.5-0.3-0.6 0 0-8.4-3.5-12.4 3-0.1 0.2 0 0.5 0.2 0.6 0.2 0.2 0.5 0.1 0.6-0.1 3.6-5.9 11.2-2.7 11.3-2.7q0.1 0.1 0.3 0z"/>
							</g>
							<path id="&lt;Path&gt;" class="s3" d="m155 212.6c-1 4.1-8 5.9-15.6 4-7.7-2-13.1-6.8-12-10.9 1-4.1 8-5.8 15.6-3.9 7.7 1.9 13.1 6.7 12 10.8z"/>
							<path id="&lt;Path&gt;" class="s3" d="m190.5 213.5c0.8 4.2 7.7 6.3 15.5 4.8 7.7-1.5 13.3-6.1 12.5-10.2-0.8-4.1-7.7-6.2-15.4-4.7-7.8 1.5-13.4 6-12.6 10.1z"/>
						</g>
					</g>
				</g>
				<path id="&lt;Path&gt;" class="s19" d="m216 229c2 5 7.3 8.1 12.8 7.1 6.3-1.2 10.4-7.2 9.3-13.5-0.9-4.5-4.2-7.9-8.3-9.1"/>
				<path id="&lt;Path&gt;" class="s19" d="m104.3 212.4c-4.4 3.1-6.2 8.9-3.9 14 2.5 5.9 9.4 8.6 15.2 6 4.2-1.9 6.7-5.9 6.9-10.2"/>
			</g>
			<path id="&lt;Path&gt;" class="s1" d="m139.8 102.6c0 0-42.6 4.1-48.9 28.6-6.3 24.5 3.6 53.9 18.1 55.8 23.7 3.2 76.6-57.5 76.6-57.5 15.5 27.3 49 61.7 56.2 58.3 7.2-3.4 7-55.1-5.6-71.4-12.7-16.4-57.4-27.9-96.4-13.8z"/>
			<path id="&lt;Path&gt;" class="s1" d="m136.6 103.2c0 0-11-15.1-5.3-16.3 5.7-1.2 8.6 12.1 8.6 12.1 0 0-0.4-23.3 6.7-19.1 7.1 4.2 3 20.9-3.3 23.5"/>
			<g id="&lt;Group&gt;">
				<path id="&lt;Path&gt;" class="s16" d="m167.4 264.5c-6.3 0-12.5-1-18.4-3-0.8-0.2-2.1-1.3-2-2.5q0-1.6 2.8-2.3c0.4-0.1 0.7 0.1 0.8 0.5 0.1 0.3-0.2 0.7-0.5 0.7-1.2 0.3-1.9 0.7-1.9 1.1 0 0.5 0.8 1.2 1.1 1.3 13.2 4.3 28 3.9 41.8-1.1 0.2-0.2 0.4-0.5 0.4-0.7 0-0.1-0.2-0.5-1.3-0.9-0.3-0.1-0.5-0.5-0.4-0.8 0.1-0.3 0.5-0.5 0.8-0.4q1.9 0.7 2.1 1.9c0.2 1.1-0.8 1.9-0.9 1.9l-0.2 0.1c-7.9 2.9-16.1 4.4-24.2 4.2z"/>
			</g>
		</g>
	</g>
</svg>