<svg version="1.2" xmlns="http://www.w3.org/2000/svg" viewBox="0 0 370 700" width="370" height="700">
	<title>3296433-ai</title>
	<style>
		.s0 { fill: #dbdbdb } 
		.s1 { fill: #f29f83 } 
		.s2 { fill: #fcbe8e } 
		.s3 { fill: #efe8df } 
		.s4 { fill: #393542 } 
		.s5 { fill: #e55239 } 
		.s6 { fill: #da8259 } 
		.s7 { fill: #fcabba } 
		.s8 { fill: #f56947 } 
		.s9 { fill: #f6a100 } 
		.s10 { fill: #6c4820 } 
		.s11 { fill: #000000 } 
		.s12 { fill: none;stroke: #000000;stroke-linecap: round;stroke-linejoin: round;stroke-width: .9 } 
		.s13 { fill: none;stroke: #000000;stroke-linecap: round;stroke-linejoin: round;stroke-width: 1.1 } 
		.s14 { fill: none;stroke: #6c4820;stroke-linecap: round;stroke-linejoin: round;stroke-width: .9 } 
		.s15 { fill: none;stroke: #f56947;stroke-linecap: round;stroke-linejoin: round } 
	</style>
	<path id="&lt;Path&gt;" class="s0" d="m184.7 693.2c-53.2 0-96.1-4.3-96.1-9.5 0-5.3 42.9-9.6 96.1-9.6 53.1 0 96 4.3 96 9.6 0 5.2-42.9 9.5-96 9.5z"/>
	<g id="feminino">
		<g id="&lt;Group&gt;">
			<path id="&lt;Path&gt;" class="s1" d="m170.3 461.3l-31.4 3.6c-2.9 12.4-7.2 23.9-9.9 30.6 8 5.6 16.2 11 24.9 15.2 6.7-12.6 10.7-31.1 16.4-49.4z"/>
			<path id="&lt;Path&gt;" class="s2" d="m129 495.5c-1.5 3.9-2.6 6.2-2.6 6.2l-16.8-18.1c0 0-3.6-15.6-7.1-16.8-3.5-1.3-2 6.6-2 6.6 0 0-8.4-15.8-10.8-13.9-2.5 1.8 4.3 13.8 4.3 13.8 0 0-10.1-13.8-12.6-10.5-1.4 2.1 8.4 12.8 8.4 12.8 0 0-10.5-10.1-12.1-8-1.6 2 8.8 11.3 8.8 11.3 0 0-9.2-7-10.7-4.8-1.5 2.2 12.1 15.5 17.2 18.9 0 0 18 36.8 42.7 33.1 8.1-1.2 13.8-6.9 18.2-15.4-8.7-4.2-16.9-9.6-24.9-15.2z"/>
			<g id="&lt;Group&gt;">
				<g id="&lt;Group&gt;">
					<g id="&lt;Group&gt;">
						<path id="&lt;Path&gt;" class="s2" d="m235.2 669.6c0.7-4.8 4.2-25.8 7.5-47-11.2 1.8-22.7 2.5-34.1 2.1 1 26 1.9 48.5 1.9 48.5-6.7 18.9 15.3 13.4 15.3 13.4 0 0 31 3.6 31.1-2.2 0.1-5.7-21.7-14.8-21.7-14.8z"/>
						<path id="&lt;Path&gt;" class="s1" d="m242.7 622.6c3.1-18.9 6-38 6.8-45.3-7.5 0.1-35.9-30.6-43.4-31-0.4 0 1.2 42.6 2.5 78.4 11.4 0.4 22.9-0.3 34.1-2.1z"/>
					</g>
					<g id="&lt;Group&gt;">
						<g id="&lt;Group&gt;">
							<path id="&lt;Path&gt;" class="s3" d="m247.8 675.2c9 4.4 11.7 8.6 11.7 8.6 0 0-0.5 1.3-13.1 2.6-0.7-3.9-0.2-7.9 1.4-11.2z"/>
							<path id="&lt;Path&gt;" class="s4" d="m209.5 670c11.7 6.8 25.9-1.8 25.9-1.8 4.9 1.5 8.9 4.1 12.1 5.7-1.7 3.3-2.2 7.3-1.4 11.2-3.3 0.3-7.3 0.6-12.4 0.9-24.7 1.5-25.7-5.2-25.7-5.2-0.1-6.6 1.6-10.4 1.5-10.8z"/>
						</g>
						<g id="&lt;Group&gt;">
							<path id="&lt;Path&gt;" class="s3" d="m208.4 682q0.1 2 0.4 4.1c0 0 7.1 2.6 26.5 2.9 21.7 0.3 24.5-2.5 24.5-2.5 0 0 0.1-1.1-0.3-2.7-23 4.2-41.4 0.9-51.1-1.8z"/>
						</g>
						<g id="&lt;Group&gt;">
							<path id="&lt;Path&gt;" class="s5" d="m239.2 681q0 0 0 0c0.2-0.1 0.3-0.2 0.3-0.4-0.4-5.1 3.2-7.3 3.3-7.4 0.1-0.1 0.2-0.3 0.1-0.4-0.1-0.2-0.2-0.2-0.4-0.2 0 0.1-4 2.5-3.6 8.1 0 0.1 0.1 0.3 0.3 0.3z"/>
						</g>
						<g id="&lt;Group&gt;">
							<path id="&lt;Path&gt;" class="s5" d="m234.9 679.4q0 0 0 0c0.2 0 0.3-0.1 0.3-0.3 0.1-5.5 3.2-7.5 3.3-7.5 0.1-0.1 0.1-0.3 0.1-0.4-0.1-0.1-0.3-0.2-0.4-0.1-0.2 0.1-3.5 2.2-3.6 8 0 0.1 0.2 0.3 0.3 0.3z"/>
						</g>
						<g id="&lt;Group&gt;">
							<path id="&lt;Compound Path&gt;" fill-rule="evenodd" class="s5" d="m236.6 673.4q-0.2 0-0.2-0.2c-0.2-0.5-1.9-5-0.8-6.5 0.2-0.3 0.5-0.6 1.2-0.6q0.7 0.1 1.1 0.7c1 1.7-0.8 5.9-1 6.4q-0.1 0.2-0.3 0.2 0 0 0 0zm-0.5-6.4c-0.7 1 0 3.6 0.6 5.2 0.5-1.5 1.3-4.1 0.7-5.1q-0.2-0.3-0.7-0.3 0-0.1 0-0.1c-0.4 0-0.6 0.2-0.6 0.3z"/>
						</g>
						<g id="&lt;Group&gt;">
							<path id="&lt;Compound Path&gt;" fill-rule="evenodd" class="s5" d="m236.6 673.4c-0.5 0-5.1-0.4-5.9-2.1-0.2-0.3-0.3-0.8 0-1.4q0.4-0.7 1.2-0.7c1.8-0.2 4.7 3.3 5 3.7q0.1 0.2 0 0.4-0.1 0.1-0.3 0.1 0 0 0 0zm-4.7-3.6q-0.4 0-0.6 0.4c-0.2 0.4-0.2 0.7-0.1 0.8 0.5 1 3.1 1.5 4.7 1.7-1-1.1-2.8-2.9-3.9-2.9q0 0-0.1 0z"/>
						</g>
					</g>
				</g>
			</g>
			<g id="&lt;Group&gt;">
				<g id="&lt;Group&gt;">
					<g id="&lt;Group&gt;">
						<path id="&lt;Path&gt;" class="s1" d="m194 542.9c-7.5 0.3-35.9 31-43.4 30.9 0.7 6.8 3.3 23.4 6.1 40.9 11.2 4 22.9 6.9 34.7 8.5 1.4-36.2 3-80.4 2.6-80.3z"/>
						<path id="&lt;Path&gt;" class="s2" d="m156.7 614.6c3.5 22.6 7.4 46.4 8.2 51.5 0 0-21.8 9.1-21.7 14.8 0.1 5.8 31.1 2.2 31.1 2.2 0 0 22 5.5 15.3-13.3 0 0 0.9-21.4 1.8-46.6-11.8-1.6-23.5-4.5-34.7-8.6z"/>
					</g>
					<g id="&lt;Group&gt;">
						<g id="&lt;Group&gt;">
							<path id="&lt;Path&gt;" class="s3" d="m152.3 671.7c-9 4.4-11.7 8.6-11.7 8.6 0 0 0.5 1.3 13.1 2.6 0.7-3.9 0.2-7.9-1.4-11.2z"/>
							<path id="&lt;Path&gt;" class="s4" d="m190.3 667.8c-11.7 6.8-25.9-1.8-25.9-1.8-4.9 1.5-8.9 4.1-12.1 5.7 1.6 3.3 2.1 7.3 1.4 11.2 3.2 0.3 7.3 0.6 12.3 0.9 24.8 1.5 25.7-5.2 25.7-5.2 0.1-6.6-1.5-10.4-1.4-10.8z"/>
						</g>
						<g id="&lt;Group&gt;">
							<path id="&lt;Path&gt;" class="s3" d="m191.7 678.6q-0.1 1.9-0.4 4c0 0-7.1 2.6-26.5 2.9-21.7 0.3-24.5-2.5-24.5-2.5 0 0-0.1-1.1 0.3-2.7 23 4.2 41.4 0.9 51.1-1.7z"/>
						</g>
						<g id="&lt;Group&gt;">
							<path id="&lt;Path&gt;" class="s5" d="m160.9 677.5q0 0 0 0c-0.2 0-0.3-0.2-0.3-0.4 0.4-5.1-3.2-7.3-3.3-7.4-0.1-0.1-0.2-0.3-0.1-0.4 0.1-0.2 0.2-0.2 0.4-0.1 0 0 4 2.5 3.6 8 0 0.1-0.1 0.3-0.3 0.3z"/>
						</g>
						<g id="&lt;Group&gt;">
							<path id="&lt;Path&gt;" class="s5" d="m165.2 675.9q0 0 0 0c-0.2 0-0.3-0.1-0.3-0.3-0.1-5.5-3.2-7.4-3.3-7.5-0.1-0.1-0.1-0.2-0.1-0.4 0.1-0.1 0.3-0.2 0.4-0.1 0.2 0.1 3.5 2.2 3.6 8 0 0.2-0.1 0.3-0.3 0.3z"/>
						</g>
						<g id="&lt;Group&gt;">
							<path id="&lt;Compound Path&gt;" fill-rule="evenodd" class="s5" d="m163.5 669.9q-0.2 0-0.3-0.2c-0.2-0.5-2-4.7-1-6.4q0.4-0.6 1.1-0.7c0.7 0 1.1 0.3 1.2 0.6 1.1 1.5-0.6 6-0.8 6.5q0 0.2-0.2 0.2 0 0 0 0zm-0.1-6.6q0 0 0 0-0.5 0-0.7 0.4c-0.6 0.9 0.2 3.5 0.7 5 0.6-1.5 1.3-4.2 0.7-5.1-0.1-0.2-0.3-0.3-0.7-0.3z"/>
						</g>
						<g id="&lt;Group&gt;">
							<path id="&lt;Compound Path&gt;" fill-rule="evenodd" class="s5" d="m163.5 670q-0.2 0-0.3-0.2-0.1-0.2 0-0.3c0.3-0.5 3.2-4 5-3.8q0.8 0 1.2 0.8c0.3 0.5 0.2 1 0 1.3-0.8 1.7-5.4 2.1-5.9 2.2q0 0 0 0zm4.6-3.7c-1.1 0-2.9 1.8-3.9 3 1.6-0.3 4.2-0.8 4.7-1.8 0.1-0.1 0.1-0.4-0.1-0.7q-0.2-0.5-0.6-0.5-0.1 0-0.1 0z"/>
						</g>
					</g>
				</g>
			</g>
			<path id="&lt;Path&gt;" class="s6" d="m131.5 396.2c0 0-18.5 6.7-41 41.6 0 0 2.9 6.2 15.9 12.9 4.6 1.6 10.6-9.3 10.6-9.3 0 0-3.2 12.5 1.9 15.7 5 3.1 14.9 10.3 30.4 7.1 15.6-3.2 9.5-55.5 9.5-55.5z"/>
			<path id="&lt;Path&gt;" class="s3" d="m116.2 401.9c0 0-6.4 7.1 9.5 21.4 15.9 14.2 33.9 10.2 34.6 4.1 0.7-6.2-44.1-25.5-44.1-25.5z"/>
			<path id="&lt;Path&gt;" class="s6" d="m225.6 404.5c0 0-4.1 19.2 13.5 56.8 0 0 6.8 0.8 19.4-6.7 3.8-3-2.3-13.9-2.3-13.9 0 0 9 9.3 14.3 6.8 5.3-2.6 16.7-7.2 22.2-22.1 5.5-14.9-42.1-37.5-42.1-37.5z"/>
			<path id="&lt;Path&gt;" class="s3" d="m222.3 420.5c0 0 2.6 9.2 23.1 3.3 20.6-6 26.6-23.4 21.8-27.2-4.8-3.8-44.9 23.9-44.9 23.9z"/>
			<path id="&lt;Path&gt;" class="s6" d="m123.4 320.6c0 0-16.2 13.8-12.4 33.4 3.9 19.7-9 39.3 6.5 56.4 15.6 17 30.5 20.3 60.3 11.8 29.8-8.6 29.8 7.2 54.5 1.3 24.6-5.9 38.2-21.3 35-46.2-3.3-25.3 3.9-10.8-2.6-35.1-6.5-24.2-9.1-26.2-24-36-14.9-9.8-117.3 14.4-117.3 14.4z"/>
			<path id="&lt;Path&gt;" class="s2" d="m254.4 461.8c-14.3-22.4-33.8-26.9-39.6-25.1-6.5 2.1-36.7 2.7-36.7 2.7 0 0-21.1-1.4-31 10.3-1.2 1.4-2.7 3.3-4.4 5.7 37.9 1.6 74.2 9.9 111.7 6.4z"/>
			<path id="&lt;Path&gt;" class="s2" d="m250.9 517.4c-0.1-2.3-0.1-3.6-0.1-3.6 0 0-0.6 1.6 0.1 3.6z"/>
			<path id="&lt;Path&gt;" class="s1" d="m256.3 472c-20-42-34.8-8.1-34.5-7 3.4 12.3 14.7 33.1 24.7 50.4 7.1-6 13.6-12.8 20.6-18.8-3.4-8.3-7.1-16.8-10.8-24.6z"/>
			<path id="&lt;Path&gt;" class="s2" d="m284 540.1c0 0-7.5-21-16.9-43.5-7 6-13.5 12.8-20.6 18.8 9.2 15.8 17.4 28.6 17.4 28.6 0 0-4.3 14.7-1.4 17.5 2.9 2.9 5-5.7 5-5.7 0 0 1.3 19.6 4.6 18.9 3.2-0.7 1.9-15.9 1.9-15.9 0 0 3.8 18.4 7.9 16.2 2.3-1.4-2.6-16.6-2.6-16.6 0 0 6 14.9 8.5 13.6 2.6-1.3-3.8-15.4-3.8-15.4 0 0 6.1 11.2 8.6 9.7 2.6-1.6-4.7-18.5-8.6-26.2z"/>
			<g id="&lt;Group&gt;">
				<path id="&lt;Path&gt;" class="s7" d="m264.3 471.6c-1.8-3.4-5.1-9-11.1-18.4-8.5-13-20.8-16.5-29.4-17.3-4.5 9.8-11.2 17.9-24.8 19.1-12.1 0-24.2-6-29.9-16.7-4.7 0.8-11.1 2.9-18.4 8-11.1 7.9-21.4 20.8-26.1 27.2 4.3 6 14.2 16 33.1 19.4l-1.9 6q0.6 0.1 0.9 0.2c-0.4 1.5-0.7 2.8-0.8 3.9 0 0 1.2 1.9-1 12.6-0.3 1.5-15.5 29.5-15.5 81.3 0 16.1 119.8 15.8 119.8 1.7 0-51.7-15.2-81.2-15.2-81.2v-18.4q0 0 0.1-0.1l-1.9-6c10.1-6.7 17.7-15.4 22.1-21.3z"/>
				<path id="&lt;Path&gt;" class="s8" d="m124.6 473.5c-1.8 2.4-2.8 3.9-2.8 3.9 7.4 15.2 28.9 20.5 34 21.5l1.9-6c-18.9-3.4-28.8-13.4-33.1-19.4z"/>
				<path id="&lt;Path&gt;" class="s8" d="m266.5 476.6c0 0 0.2-0.5-2.2-5-4.4 5.9-12 14.6-22.1 21.3l1.9 6c11.7-5 23.7-22.3 22.4-22.3z"/>
			</g>
			<path id="&lt;Path&gt;" class="s8" d="m199 455c13.6-1.2 20.3-9.3 24.8-19.1-5.6-0.5-9.5 0.3-9.5 0.3 0 0-2.7 11.5-18.9 11.5-16.3 0-18-9.5-18-9.5 0 0-3.1-0.7-8.3 0.1 5.7 10.7 17.8 16.7 29.9 16.7z"/>
			<path id="&lt;Path&gt;" class="s1" d="m178.1 439.4v-23.6l38.6 0.8-1.9 20.1c-12.5 4.4-24.8 4.9-36.7 2.7z"/>
			<g id="&lt;Group&gt;">
				<g id="&lt;Group&gt;">
					<g id="&lt;Group&gt;">
						<g id="&lt;Group&gt;">
							<path id="&lt;Path&gt;" class="s2" d="m248.2 336.8c0 0 0.2 23.5-0.7 51.3-0.8 22.5-19.6 43.9-47.2 44.7-25.8 0.7-52.3-10.7-59-47.2-6.8-36.5 0-65.9 33.1-72.8 33.2-6.9 66-4.3 73.8 24z"/>
							<g id="&lt;Group&gt;">
								<path id="&lt;Path&gt;" class="s9" d="m210.4 327.7q-0.2-0.3-0.2-0.3 0 0 0.2 0.3z"/>
							</g>
							<path id="&lt;Path&gt;" class="s2" d="m152.5 400.9l-5.3-21.4c0 0-19.1-7.7-20.8 12.1-1.8 19.9 19.1 21.6 26.1 9.3z"/>
							<path id="&lt;Path&gt;" class="s6" d="m160.8 367.6c0 0-4.2-5.2 5.3-11.1 9.6-6 12.8-4.5 14.2-1.3 1.3 2.9-1 7.2-6.4 10.4-6.5 3.8-10.8 5-13.1 2z"/>
							<path id="&lt;Path&gt;" class="s6" d="m237.6 364.4c0 0 3.5-5.7-6.7-10.4-10.2-4.7-13.2-2.9-14.2 0.5-0.9 3 1.9 6.9 7.7 9.5 6.9 3 11.3 3.6 13.2 0.4z"/>
							<g id="&lt;Group&gt;">
								<path id="&lt;Path&gt;" class="s10" d="m145.6 401.8q-0.1 0-0.1 0c-0.2-0.1-0.3-0.4-0.2-0.6 0-0.1 4.6-9.5-1.9-14.2q-3.4-2.4-6.8-1.8c-3.8 0.7-6.3 4.2-6.3 4.3-0.1 0.1-0.4 0.2-0.6 0.1-0.1-0.1-0.2-0.4-0.1-0.6 0.1-0.1 2.7-3.9 6.9-4.6 2.4-0.5 4.9 0.2 7.4 2 7 5.1 2.2 15.1 2.1 15.2-0.1 0.1-0.2 0.2-0.4 0.2z"/>
							</g>
							<g id="&lt;Group&gt;">
								<path id="&lt;Path&gt;" class="s10" d="m136.1 393.7q-0.2-0.1-0.3-0.2c-0.1-0.2-0.1-0.5 0.1-0.6 0.1 0 6.9-4.7 11.7 0.5 0.1 0.1 0.1 0.4 0 0.6-0.2 0.1-0.4 0.1-0.6-0.1-4.3-4.6-10.6-0.4-10.7-0.3q-0.1 0.1-0.2 0.1z"/>
							</g>
							<g id="&lt;Group&gt;">
								<path id="&lt;Path&gt;" class="s11" d="m207.4 405.2c1-1.9 1.2-3.7 1.2-3.7-8.5-3.6-18.6-3.9-18.6-3.9 0 0-0.3 1.9 0.1 4.3 4.2 0 10.6 0.5 17.3 3.3z"/>
								<path id="&lt;Path&gt;" class="s8" d="m190.1 401.9c0.5 3.1 2.1 7 7 7.9 6.1 1.1 9-1.9 10.3-4.6-6.7-2.8-13.1-3.3-17.3-3.3z"/>
							</g>
							<path id="&lt;Path&gt;" class="s2" d="m239.1 399.6l0.6-21.9c0 0 17.1-11.6 23 7.4 5.8 19-14.2 25.1-23.6 14.5z"/>
							<g id="&lt;Group&gt;">
								<path id="&lt;Path&gt;" class="s10" d="m246 399.1q0 0 0.1-0.1c0.2-0.1 0.2-0.4 0.1-0.6-0.1 0-6.6-8.3-1.2-14.2q2.9-3.1 6.3-3.3c3.9-0.1 7 2.9 7.1 2.9 0.1 0.1 0.4 0.1 0.5 0 0.2-0.2 0.2-0.4 0-0.6-0.1-0.1-3.4-3.2-7.7-3.1-2.4 0.1-4.7 1.3-6.8 3.6-5.8 6.4 1.1 15.2 1.2 15.2 0.1 0.2 0.2 0.2 0.4 0.2z"/>
							</g>
							<g id="&lt;Group&gt;">
								<path id="&lt;Path&gt;" class="s10" d="m253.6 389.1q0.1 0 0.2-0.2c0.1-0.2 0-0.5-0.2-0.5-0.1-0.1-7.7-3.2-11.3 2.9-0.1 0.2-0.1 0.4 0.1 0.5 0.2 0.1 0.4 0.1 0.6-0.1 3.2-5.5 10.2-2.6 10.3-2.6q0.1 0 0.3 0z"/>
							</g>
							<path id="&lt;Path&gt;" class="s1" d="m181.4 401c-0.8 3.8-7.3 5.5-14.3 3.8-7-1.7-12-6-11.1-9.8 0.9-3.8 7.3-5.5 14.3-3.8 7.1 1.7 12 6.1 11.1 9.8z"/>
							<path id="&lt;Path&gt;" class="s1" d="m214 401.5c0.8 3.7 7.2 5.6 14.2 4.2 7.1-1.5 12.2-5.8 11.4-9.5-0.7-3.8-7.1-5.7-14.2-4.2-7.1 1.4-12.2 5.7-11.4 9.5z"/>
						</g>
					</g>
				</g>
				<g id="&lt;Group&gt;">
					<path id="&lt;Path&gt;" class="s12" d="m165.7 383.9c0 0 0.8-8.5 7.8-8.7 6.9-0.2 8 8.2 8 8.2"/>
					<path id="&lt;Path&gt;" class="s12" d="m165.9 382.9l-4.4-2"/>
					<path id="&lt;Path&gt;" class="s13" d="m166 380.7l-2.9-1.5"/>
				</g>
				<g id="&lt;Group&gt;">
					<path id="&lt;Path&gt;" class="s12" d="m229.7 385.4c0 0-1.4-8.4-8.3-8.1-7 0.2-7.5 8.7-7.5 8.7"/>
					<path id="&lt;Path&gt;" class="s12" d="m229.5 384.4l4.1-2.3"/>
					<path id="&lt;Path&gt;" class="s13" d="m229.2 382.3l2.8-1.7"/>
				</g>
				<path id="&lt;Path&gt;" class="s14" d="m203.8 391c0 0 4-4.5-0.9-6.5-5.7-2.4-8.6 2-8.6 2"/>
			</g>
			<path id="&lt;Path&gt;" class="s6" d="m166.2 300.3c0 0-39.1 4.2-44.6 26.8-5.5 22.5 3.9 49.3 17.3 51 21.8 2.6 69.7-53.7 69.7-53.7 14.5 24.9 45.6 56 52.2 52.8 6.5-3.2 16.5-33.6-13.4-66.1-12.8-14-45.6-24.2-81.2-10.8z"/>
			<path id="&lt;Path&gt;" class="s6" d="m154.2 304.9c0 0-10.3-13.7-5-14.8 5.2-1.2 8 11 8 11 0 0-0.6-21.4 5.9-17.7 6.6 3.8 3 19.1-2.7 21.6"/>
			<path id="&lt;Path&gt;" class="s15" d="m153.9 521c0 0 51.6 15.4 88.3-3.6"/>
			<path id="&lt;Path&gt;" class="s15" d="m168.2 525q-0.9 4.4-1.7 8.8"/>
			<path id="&lt;Path&gt;" class="s15" d="m196 527.5q0 2.3 0 4.6"/>
			<path id="&lt;Path&gt;" class="s15" d="m222.8 525.4q2.7 7.6 5.5 15.2"/>
			<path id="&lt;Path&gt;" class="s15" d="m230.9 522.5q1 2.7 2.1 5.4"/>
			<path id="&lt;Path&gt;" class="s15" d="m202.6 527.1q0.1 4.4 0.3 8.8"/>
			<path id="&lt;Path&gt;" class="s15" d="m176.9 526.8q-0.5 6-0.9 12"/>
			<path id="&lt;Path&gt;" class="s15" d="m189.7 509.9c10.8-5.1 20.2-12.9 27.3-22.5"/>
			<path id="&lt;Path&gt;" class="s15" d="m214.1 511.8c6.9-5.6 12.7-12.6 16.9-20.5"/>
		</g>
	</g>
</svg>