<svg version="1.2" xmlns="http://www.w3.org/2000/svg" viewBox="0 0 370 700" width="370" height="700">
	<title>3296433-ai</title>
	<style>
		.s0 { fill: #dbdbdb } 
		.s1 { fill: #f76847 } 
		.s2 { fill: #efe8df } 
		.s3 { fill: #fcabba } 
		.s4 { fill: #da8259 } 
		.s5 { fill: #fcbe8e } 
		.s6 { fill: #f29f83 } 
		.s7 { fill: #f6a100 } 
		.s8 { fill: #6c4820 } 
		.s9 { fill: none;stroke: #6c4820;stroke-linecap: round;stroke-linejoin: round;stroke-width: .7 } 
		.s10 { fill: #ed7350 } 
		.s11 { fill: none;stroke: #000000;stroke-linecap: round;stroke-linejoin: round;stroke-width: .7 } 
		.s12 { fill: #000000 } 
		.s13 { fill: #ed98ab } 
		.s14 { fill: none;stroke: #ed98ab;stroke-linecap: round;stroke-linejoin: round } 
		.s15 { fill: none;stroke: #f76847;stroke-linecap: round;stroke-linejoin: round;stroke-width: 2 } 
	</style>
	<path id="&lt;Path&gt;" class="s0" d="m184.7 693.2c-53.2 0-96.1-4.3-96.1-9.5 0-5.3 42.9-9.6 96.1-9.6 53.1 0 96 4.3 96 9.6 0 5.2-42.9 9.5-96 9.5z"/>
	<g id="&lt;Group&gt;">
		<path id="&lt;Path&gt;" class="s1" d="m169.2 624.3c0 0-16.9 13.1-15.1 34 1.8 20.8-0.1 23.4-0.1 23.4 0 0 40.8 5.6 56.7 2 15.9-3.7 21.6-20.6 12.6-37.1-4.9-9-54.1-22.3-54.1-22.3z"/>
		<path id="&lt;Path&gt;" class="s2" d="m109.4 685.9c-3.4-0.7-5.4-9.1 4.3-13.3 9.7-4.1 18.7-2.2 18.7-2.2 0 0-0.2 20.9-23 15.5z"/>
		<path id="&lt;Path&gt;" class="s1" d="m147.5 621.8c0 0-23.6 14.7-13.3 41.9 0.6 1.7-11.4 1.2-12.3 6.3-1.6 9.3 2.6 14.9 2.6 14.9 0 0 33.3 4.1 49.6 4.2 16.3 0.2 25.8-15 20.9-33.1-2.7-9.9-47.5-34.2-47.5-34.2z"/>
		<path id="&lt;Path&gt;" class="s3" d="m199.4 571.9c0 0-22.3-2.2-45.4 28.3-16.4 21.5-17.1 32.5-17.1 32.5 0 0 54 39.4 77.7 27.2 10.4-5.3 25-44 25-44z"/>
		<g id="&lt;Group&gt;">
			<path id="&lt;Path&gt;" class="s4" d="m278.3 506.1l-64.8-5.3-45.5-16.4c0 0-0.6 0.8-1.4 2.2-1.2 2.2-3.2 5.8-5 10 0 0-17.2 24.5-12.4 31 1.7 2.3 4.4 1.6 7.3-0.3-1 10-4.6 17.1 0 19.6 5.8 3.2 11 3.3 11 3.3 0 0 0.3 9.4 3.4 10.4 3 0.9 12-4.1 13.7-7.9 1.7-3.8-5.2 15.3 5.5 15.1 10.8-0.2 30.7 11.3 41.6 6.5 10.9-4.8 8.6-11.4 8.6-11.4 0 0 4.4 10.2 10.6 9.7 6.1-0.6 2.6-17.1 2.6-17.1 0 0 12.1 7.8 20 5.4 5.6-1.7 5.9-15 5.3-25.7 2.5 0.2 5 0.3 7.6 0.2 5.8-0.1-5.8-21.4-8.1-29.3z"/>
			<path id="&lt;Path&gt;" class="s5" d="m198.6 573.1l-0.7 5c11.8 11.6 22.4 11.6 29.6 2.1l0.4-1.7c-9.7 1.5-20.5-1.4-29.3-5.4z"/>
			<path id="&lt;Path&gt;" class="s6" d="m200.7 559.2l-2.1 13.9c8.8 4 19.6 6.9 29.3 5.4l3.5-14.1z"/>
			<g id="&lt;Group&gt;">
				<g id="&lt;Group&gt;">
					<g id="&lt;Group&gt;">
						<g id="&lt;Group&gt;">
							<path id="&lt;Path&gt;" class="s5" d="m265.9 504.4c0 0-2.6 18.7-6.6 40.8-3.3 17.9-20.8 32.7-42.8 30.1-20.8-2.4-40.5-14.6-41.6-44.5-1.1-29.9 7.7-52.6 34.9-54.2 27.3-1.6 53.1 4.3 56.1 27.8z"/>
							<g id="&lt;Group&gt;">
								<path id="&lt;Path&gt;" class="s7" d="m236.8 492.7q-0.2-0.3-0.2-0.3 0 0 0.2 0.3z"/>
							</g>
							<path id="&lt;Path&gt;" class="s5" d="m182 544.3l-1.7-17.6c0 0-14.3-8.5-18 7.2-3.7 15.6 12.7 19.4 19.7 10.4z"/>
							<path id="&lt;Path&gt;" class="s4" d="m192.6 518.7c0 0-2.8-4.6 5.5-8.2 8.3-3.7 10.7-2.1 11.4 0.6 0.7 2.5-1.6 5.6-6.3 7.5-5.6 2.3-9.2 2.8-10.6 0.1z"/>
							<path id="&lt;Path&gt;" class="s4" d="m254.2 525.2c0 0 3.5-4.2-4.1-9.1-7.6-5-10.2-3.8-11.4-1.3-1.1 2.3 0.7 5.8 5 8.5 5.2 3.2 8.6 4.2 10.5 1.9z"/>
							<g id="&lt;Group&gt;">
								<path id="&lt;Path&gt;" class="s8" d="m176.4 544.2q0 0-0.1 0c-0.1-0.1-0.2-0.3-0.1-0.5 0.1 0 4.9-7 0.2-11.5q-2.4-2.4-5.2-2.3c-3.2 0.1-5.5 2.7-5.5 2.7-0.2 0.1-0.4 0.1-0.5 0-0.1-0.1-0.1-0.3 0-0.4 0.1-0.1 2.5-2.8 6-2.9q3-0.1 5.7 2.4c5 4.9-0.1 12.3-0.1 12.4q-0.2 0.2-0.4 0.1z"/>
							</g>
							<g id="&lt;Group&gt;">
								<path id="&lt;Path&gt;" class="s8" d="m169.8 536.6q-0.2 0-0.2-0.2c-0.1-0.1 0-0.3 0.1-0.4 0.1 0 6.1-2.9 9.3 1.8 0.1 0.1 0.1 0.3-0.1 0.4-0.1 0.1-0.3 0.1-0.4-0.1-2.9-4.2-8.4-1.5-8.5-1.5q-0.1 0-0.2 0z"/>
							</g>
							<path id="&lt;Path&gt;" class="s5" d="m251.3 553.4l3.1-17.4c0 0 14.9-7.3 17.4 8.6 2.4 15.9-14.2 18.4-20.5 8.8z"/>
							<g id="&lt;Group&gt;">
								<path id="&lt;Path&gt;" class="s8" d="m256.8 553.8q0.1 0 0.1 0c0.2-0.1 0.2-0.3 0.2-0.5-0.1 0-4.3-7.4 0.7-11.5q2.6-2.2 5.4-1.9c3.1 0.4 5.3 3.1 5.3 3.2 0.1 0.1 0.3 0.1 0.4 0 0.2-0.1 0.2-0.3 0.1-0.4-0.1-0.2-2.3-3-5.8-3.4q-3-0.3-5.8 2c-5.4 4.5-0.9 12.3-0.9 12.4q0.1 0.1 0.3 0.1z"/>
							</g>
							<g id="&lt;Group&gt;">
								<path id="&lt;Path&gt;" class="s8" d="m264 546.7q0.2 0 0.3-0.1c0.1-0.2 0-0.4-0.1-0.5-0.1 0-5.9-3.3-9.4 1-0.1 0.2-0.1 0.4 0 0.5 0.2 0.1 0.4 0.1 0.5 0 3.2-4 8.5-0.9 8.5-0.9q0.1 0.1 0.2 0z"/>
							</g>
							<path id="&lt;Path&gt;" class="s6" d="m205.1 547.8c-1.1 2.9-6.5 3.5-11.9 1.3-5.4-2.1-8.9-6.2-7.7-9.1 1.1-2.9 6.5-3.5 11.9-1.3 5.4 2.1 8.9 6.2 7.7 9.1z"/>
							<path id="&lt;Path&gt;" class="s6" d="m231 552c0.2 3.1 5.1 5.3 10.9 5 5.8-0.4 10.4-3.2 10.2-6.3-0.2-3.1-5-5.3-10.9-5-5.8 0.4-10.3 3.2-10.2 6.3z"/>
						</g>
					</g>
				</g>
				<path id="&lt;Path&gt;" class="s9" d="m224.1 542.4c0 0 3.8-3.1 0.1-5.3-4.3-2.5-7.1 0.6-7.1 0.6"/>
			</g>
			<path id="&lt;Path&gt;" class="s4" d="m204.7 465.6c0 0-30.9 3.7-37.9 21.1-7 17.4-3.4 35 7.1 37.8 1.8 0.5 6.5-6.6 10.8-7.8 3-0.8 6 4.4 6.8 4 2.5-1.2 10.1-9.1 12.7-10.6 17.8-10.3 31.5-20.2 31.5-20.2 8.7 21.5 29.9 50 35.5 48.2 5.6-1.8 17.1-24.9-2.9-54.4-8.6-12.6-33.6-24.6-63.6-18.1z"/>
			<path id="&lt;Path&gt;" class="s4" d="m194.6 467.9c0 0-6.6-12.1-2.2-12.4 4.3-0.3 5.1 9.7 5.1 9.7 0 0 2-17.1 6.8-13.3 4.7 3.7 0.1 15.5-4.7 16.8"/>
			<g id="&lt;Group&gt;">
				<path id="&lt;Compound Path&gt;" fill-rule="evenodd" class="s10" d="m186.5 525.7c-6.9 1.1-7.7-14.4-7.7-14.4-0.2-2.4 1-7 5.2-1.7 2.5 3.1 8.7 15 2.5 16.1zm-2.5-13.3c-2.5-3.1-3.2-0.4-3.1 1.1 0 0 0.5 9.2 4.6 8.5 3.7-0.7 0-7.8-1.5-9.6z"/>
			</g>
			<g id="&lt;Group&gt;">
				<path id="&lt;Compound Path&gt;" fill-rule="evenodd" class="s10" d="m199.4 517.2c-6.3 3-11.4-11.6-11.4-11.6-0.8-2.4-1-7.1 4.5-3.2 3.3 2.3 12.6 12 6.9 14.8zm-6.1-12.1c-3.3-2.3-3.2 0.5-2.7 1.9 0 0 3 8.7 6.8 6.9 3.3-1.6-2.2-7.4-4.1-8.8z"/>
			</g>
			<path id="&lt;Path&gt;" class="s11" d="m213.5 547.5c0 0 1.9 6.7 9 5.2"/>
			<path id="&lt;Path&gt;" class="s12" d="m205.8 532c-0.3 2.1-2.1 3.5-3.8 3.2-1.7-0.3-2.8-2.3-2.4-4.4 0.3-2.1 2.1-3.6 3.8-3.2 1.7 0.3 2.8 2.3 2.4 4.4z"/>
			<path id="&lt;Path&gt;" class="s12" d="m240.5 537.2c-0.4 2.1-2.1 3.5-3.9 3.2-1.7-0.3-2.8-2.3-2.4-4.4 0.4-2.1 2.1-3.6 3.8-3.2 1.8 0.3 2.9 2.3 2.5 4.4z"/>
		</g>
		<path id="&lt;Path&gt;" class="s5" d="m186 662c0.1 7 0.1 11.5 0.1 11.5 0.2 5.8 1.2 18 3.2 18.1 2 0.1 2-8.4 2-8.4 0 0 0.7 10.3 2.7 10.3 1.9-0.1 0.6-10.8 0.6-10.8 0 0 2 10.6 3.8 10.7 3.1 0-0.5-12.1-0.5-12.1 0 0 4 9.4 6.2 8.8 2.1-0.7-3.3-12.6-3.3-12.6 0 0 3.9 4.4 4.7 1.8 0.9-2.6-6.3-9.9-6.3-9.9 0 0 0.9-4.4 1.9-10.8-5 0.8-10.1 2-15.1 3.4z"/>
		<path id="&lt;Path&gt;" class="s5" d="m254.6 658.3c1.6 6.8 2.7 11.2 2.7 11.2 1.2 5.6 3.1 17.7 1.2 18.3-1.8 0.6-3.9-7.7-3.9-7.7 0 0 1.7 10.2-0.1 10.6-1.9 0.5-3.3-10.2-3.3-10.2 0 0 0.6 10.7-1.1 11.2-3 0.8-2.4-11.8-2.4-11.8 0 0-1.6 10-3.9 10-2.2-0.1 0.2-13 0.2-13 0 0-2.8 5.2-4.2 2.8-1.4-2.3 3.8-11.1 3.8-11.1 0 0-1.9-4-4.5-10 5.1-0.5 10.3-0.5 15.5-0.3z"/>
		<path id="&lt;Path&gt;" class="s3" d="m206.5 617.8c0 0 8.6-4.5 10.5 2 0.2 0.6 0.4 1.5 0.7 2.8 4.1-12.5 11.6-23.9 17.7-35.7q-0.9-1.1-1.8-2c-2.5 2.1-5.3 3.9-8.6 5.1-13.9 3.5-26.3-3.6-33.3-16.1-16.1 10.1-14.6 41.9-13.9 60.6 0.5 14.1 1.8 23.1 3 28.8 7.8 1.4 15.3 3.2 23 3.3 5.9-14 2.7-48.8 2.7-48.8z"/>
		<path id="&lt;Path&gt;" class="s13" d="m183.3 671.4c3.5 1.8 15.2 2.3 18.2-1.1 0.9-0.9 1.6-2.2 2.3-3.7-7.7-0.1-15.2-1.9-23-3.3 1.3 6.1 2.5 8.1 2.5 8.1z"/>
		<path id="&lt;Path&gt;" class="s13" d="m241.9 669.3c4.2 2.6 18-3.2 18-3.2 0 0 0.6-2.2-0.3-8.7-6.9 2-14.1 3.4-20.8 5.5 1.9 3.9 3.1 6.4 3.1 6.4z"/>
		<path id="&lt;Path&gt;" class="s3" d="m232.3 583.5c-3 13-10.3 29.4-11.3 42.5 3.9 7.6 13.1 26.8 17.8 36.9 6.7-2.1 13.9-3.5 20.8-5.5-1.3-8.8-5.4-25.6-17.6-55.9-2.3-5.7-4.9-14.4-9.7-18z"/>
		<path id="&lt;Path&gt;" class="s14" d="m228 639.2c0 0 0 0-2.2-13.4"/>
		<g id="&lt;Group&gt;">
			<path id="&lt;Path&gt;" class="s13" d="m205.6 660.8q0 0-0.1 0c-0.3-0.1-0.4-0.3-0.4-0.6 0.1-0.3 0.1-1.5 0.2-3.2 0.1-4.3 0.4-12.4 1.5-23.8 0-0.3 0.3-0.5 0.6-0.5 0.2 0.1 0.4 0.3 0.4 0.6-1.1 11.4-1.4 19.5-1.5 23.8-0.1 2-0.1 2.9-0.2 3.3 0 0.2-0.3 0.4-0.5 0.4z"/>
		</g>
		<g id="&lt;Group&gt;">
			<path id="&lt;Path&gt;" class="s13" d="m179.6 656.4c-0.3 0-0.5-0.2-0.5-0.4-0.1-0.2-1.4-18.4-2.2-38.9 0-0.3 0.2-0.5 0.5-0.6 0.3 0.1 0.5 0.3 0.5 0.5 0.8 20.5 2.1 38.7 2.2 38.9 0 0.3-0.2 0.5-0.5 0.5q0 0 0 0z"/>
		</g>
		<path id="&lt;Path&gt;" class="s13" d="m227.7 579.5c0 0-0.8 4.8-12.7 5.1-20.5 0.5-16.4-12.9-16.4-12.9-3.5-0.6-7.9 0.5-9.4 1.4 3.6 16.1 21.9 20.4 35.8 16.9 3.3-1.2 6.1-3 8.6-5.1-3-3.3-5.9-5.4-5.9-5.4z"/>
		<path id="&lt;Path&gt;" class="s1" d="m198.6 576.9c0 0-12.2 31.3 4.1 43.8 16.3 12.5 32.2 3.9 34.6-11.8 2.5-15.7-9.6-29.4-9.6-29.4 0 0-11.8 12.6-29.1-2.6z"/>
		<path id="&lt;Path&gt;" class="s2" d="m199.8 580.1c0 0-8.7 27.1 3.8 38.9 12.8 12 30 3.5 32.2-10.5 2.3-13.9-8.9-26-8.9-26 0 0-11 11.1-27.1-2.4z"/>
		<path id="&lt;Path&gt;" class="s1" d="m198.6 571.7c0.4-1.6-3-0.8-3.3-0.1 0 0-0.1 8.7 2.4 9.7l1.4-3.1c0 0-1.2-3.4-0.5-6.5z"/>
		<path id="&lt;Path&gt;" class="s15" d="m197.9 571.5c0 0-12.6-7.6-14.8-3.2-2.2 4.5 6.4 6 14.8 3.2z"/>
		<path id="&lt;Path&gt;" class="s15" d="m197.2 571.1c0 0-13.8 0.5-14.4 7.8-0.6 7.2 14.4-7.8 14.4-7.8z"/>
	</g>
	<g id="feminino">
	</g>
</svg>