<svg version="1.2" xmlns="http://www.w3.org/2000/svg" viewBox="0 0 370 700" width="370" height="700">
	<title>3296433-ai</title>
	<style>
		.s0 { fill: #dbdbdb } 
		.s1 { fill: #fccb9a } 
		.s2 { fill: #292a49 } 
		.s3 { fill: #f97071 } 
		.s4 { fill: #e2565d } 
		.s5 { fill: #f9914b } 
		.s6 { fill: #ffffff } 
		.s7 { fill: #cc4c59 } 
		.s8 { fill: #eaa15e } 
	</style>
	<path id="&lt;Path&gt;" class="s0" d="m184.7 693.2c-53.2 0-96.1-4.3-96.1-9.5 0-5.3 42.9-9.6 96.1-9.6 53.1 0 96 4.3 96 9.6 0 5.2-42.9 9.5-96 9.5z"/>
	<g id="OBJECTS">
		<g id="&lt;Group&gt;">
			<g id="&lt;Group&gt;">
				<path id="&lt;Path&gt;" class="s1" d="m91.1 228.6c0 0 4.2-19.9 4-27-0.2-7.1 0-12.9-1.3-15.6-1.3-2.7-2.9-2.7-3.6 0.9-3.9-18.2-9.2-24.5-13.8-18.7-4.6 5.7-2.5 30.6-2.5 30.6 0 0-6.1 24.7 2.5 27.3 2.9 2.3 3.3 4.8 3.3 4.8l8.6 2.3"/>
				<path id="&lt;Path&gt;" class="s2" d="m151.8 380.2l-2.5 276.6 12.4 7.8 25.3-266 14.3 269.9 12.4-6.9 8.5-281.4"/>
				<path id="&lt;Path&gt;" class="s1" d="m239.5 453.4c-1.6-0.7-12.1 16.4-14.5 25.1-2.4 8.6 4.9 6.7 13.3-6.3-2.7 23.6-1.4 26.6-1.4 26.6 0 0-5.9 22.5-3.8 28 2.2 5.4 15-11.2 19-26.9 4.1-15.8-1.1-44.2-1.1-44.2"/>
				<path id="&lt;Path&gt;" class="s3" d="m199.4 175.5c0.6 0.4 49.3 33.4 59 43.1 11.8 31.2 16.1 129.1 15.1 142.5-1 13.4-21.4 97.3-21.4 97.3l-14.2-5.7 9-93.1c0 0-8.5-7.1 0.3-6.8-8.1-45.7-14.2-83.6-14.2-83.6l-8.5 104.9c0 0 14.2 11.2 1.4 13.8-12.9 2.5-66.4 2-79.6-5.4-13.2-7.3 3.4-11.8 3.4-11.8 0 0-10.5-39.6-12.2-49.1 0 0-18.3 36.7-34.3 42.8-16.9-37-27.7-136.2-27.7-136.2l17.2-2.8 18.3 78.3c0 0 24.4-88.3 27.8-93.6 3.4-5.3 44.6-34.6 44.6-34.6"/>
				<path id="&lt;Path&gt;" class="s1" d="m152.4 40.4c0 0-17.9 43.6-18.6 65.4-0.8 21.8 16.6 48.7 16.6 48.7l42.2-18.6-10.6 45.5 19.3-1.2 14.2-103.2v-27.3l-20.8-9.3z"/>
				<path id="&lt;Path&gt;" class="s4" d="m183.4 175.5c0 0 7.8 3.4 15.2 1 2.7 3.7 5.1 8.5 5.1 8.5 0 0-15.5 3.5-25.7-2.2z"/>
				<path id="&lt;Path&gt;" class="s5" d="m208.6 52.3l-3.8 36.7 9 10.2c0 0 11.1-42 10.9-48.1-20-19.9-41.5-27.3-52.2-28.8-10.7-1.6-15.5-0.3 2.3 8.9-24-8.2-36.2-7.4-23-2.7-20-0.4-15.5 3.4 2.3 6.9-25.8-0.9-24.4 5.3-6.4 6.8 18 1.6 60.9 10.1 60.9 10.1z"/>
				<path id="&lt;Path&gt;" class="s1" d="m208.2 94.6c0 0 18.4-9.3 22.6-2.1 4.1 7.3-10.1 34.3-26 21"/>
				<path id="&lt;Path&gt;" class="s6" d="m199.7 199.4c0 0-8-24.2-7.7-25.3 0.3-1 14.9-7.9 14.9-7.9l8.6 16.6z"/>
				<path id="&lt;Path&gt;" class="s6" d="m179 194.1l9.5-22.1-6.9-5.8c-2.4 0.8-14.9 15.6-14.1 16.6 0.8 0.9 11.5 11.3 11.5 11.3z"/>
				<g id="&lt;Group&gt;">
					<g id="&lt;Group&gt;">
						<path id="&lt;Path&gt;" class="s7" d="m142.3 214.4c-1.1 4.3-2.2 8.7-3.2 13.2-1 4.4-1.9 8.8-2.7 13.2-1.6 8.9-3 17.9-3.1 26.8-0.3 9 0.4 18.1 1.2 27q0.5 6.8 1.3 13.5c0.5 4.5 1.1 9 1.7 13.5-2-8.8-3.4-17.8-4.4-26.8-0.6-4.5-1-9-1.3-13.6-0.3-4.5-0.5-9-0.4-13.6 0.1-4.6 0.6-9.1 1.2-13.6q0.9-6.8 2.4-13.5c2-8.8 4.3-17.6 7.3-26.1z"/>
					</g>
					<g id="&lt;Group&gt;">
						<path id="&lt;Path&gt;" class="s7" d="m224.7 233.2c2.1 5.9 3.6 11.8 5 17.8 1.4 6 2.6 12.1 3.3 18.2-2.1-5.8-3.7-11.8-5.1-17.8-1.3-6-2.5-12-3.2-18.2z"/>
					</g>
				</g>
				<g id="&lt;Group&gt;">
					<path id="&lt;Path&gt;" class="s7" d="m111 303.7c0.8 0 1.5 0.3 2.2 0.7 0.6 0.4 1.1 0.9 1.6 1.5 0.9 1.2 1.5 2.8 1 4.3-0.5-0.6-0.9-1.1-1.3-1.6-0.4-0.6-0.7-1.1-1.2-1.6-0.7-1-1.5-2-2.3-3.3z"/>
				</g>
				<path id="&lt;Path&gt;" class="s5" d="m154.1 112.4c-12.2-5.3-17.8-3.5-20.2-1.7 1.6 20.7 16.5 43.8 16.5 43.8l42.2-18.6c0 0 0 0 11.1-5.9-2.6-23.9-28.4-25-49.6-17.6z"/>
				<path id="&lt;Path&gt;" class="s2" d="m149.3 656.8c0 0-60.3 18.5-60.3 23.4 0 4.9 73.7-5.3 73.7-5.3l-1-10.3"/>
				<path id="&lt;Path&gt;" class="s2" d="m213.7 661.6c0 0 42.3 17.5 52.8 24.9 10.5 7.3-27.4 3.7-67.3-6l2.1-12"/>
				<g id="&lt;Group&gt;">
					<g id="&lt;Group&gt;">
						<path id="&lt;Path&gt;" class="s8" d="m159.9 85.1c-0.3 1.7-0.6 3.4-0.9 5.1-0.3 1.7-0.8 3.3-1.1 5-0.4 1.7-0.8 3.3-1.3 5-0.5 1.7-0.8 3.3-1.7 5l-0.4 0.8-0.9-0.4c-2.1-1.3-4.2-2.4-6.4-3.4-1.1-0.4-2.3-0.8-3.3-0.9-0.2 0-0.4 0-0.5 0-0.1 0.1-0.1 0-0.1 0.1 0 0.2 0.2 0.8 0.4 1.3 1.1 2 2.8 3.9 4.5 5.6 1.7 1.6 3.6 3.4 5.9 4.1-1.2-0.1-2.4-0.6-3.5-1.3-1.1-0.6-2.1-1.3-3.1-2.1-1.9-1.6-3.8-3.3-5.2-5.6-0.3-0.6-0.7-1.2-0.6-2.2 0-0.6 0.5-1.2 1-1.4 0.4-0.2 0.9-0.2 1.2-0.2 1.5 0 2.7 0.5 3.9 1 2.4 0.9 4.6 2.1 6.8 3.4l-1.3 0.3c0.7-1.3 1.3-3 1.8-4.6l1.6-4.8c0.5-1.6 1-3.3 1.5-4.9 0.6-1.6 1.1-3.3 1.7-4.9z"/>
					</g>
					<g id="&lt;Group&gt;">
						<path id="&lt;Path&gt;" class="s8" d="m227.8 97.2c-1.7-0.7-3.5-0.9-5.2-0.8-1.8 0.2-3.4 0.8-5 1.6-1.5 0.8-2.8 2-4.2 3.2-0.6 0.6-1.2 1.3-1.8 1.9l-1.7 2.1-0.7-1.2c0.8 0 1.7 0 2.6 0.2 0.4 0.1 0.9 0.3 1.3 0.9 0.4 0.7 0.1 1.3-0.1 1.7-0.4 0.8-1.1 1.3-1.7 1.8q-1 0.7-2 1.3 0.8-0.9 1.6-1.7c0.5-0.6 1-1.3 1.2-1.9 0.1-0.3 0.1-0.5 0-0.5 0-0.1-0.3-0.2-0.6-0.3-0.7-0.1-1.4 0-2.2 0.1l-1.7 0.1 1-1.4 1.7-2.3c0.6-0.7 1.2-1.4 1.9-2.1 1.4-1.3 2.9-2.6 4.7-3.4 1.7-0.8 3.7-1.3 5.6-1.2 2 0.1 3.9 0.8 5.3 1.9z"/>
					</g>
				</g>
				<path id="&lt;Path&gt;" class="s2" d="m169.4 91.2c-1.5 0-2.6-1.6-2.6-3.5 0-2 1.1-3.5 2.6-3.5 1.4 0 2.6 1.5 2.6 3.5 0 1.9-1.2 3.5-2.6 3.5z"/>
				<path id="&lt;Path&gt;" class="s2" d="m152.5 88.6c-1.4 0-2.6-1.5-2.6-3.5 0-1.9 1.2-3.5 2.6-3.5 1.5 0 2.7 1.6 2.7 3.5 0 2-1.2 3.5-2.7 3.5z"/>
				<path id="&lt;Path&gt;" class="s5" d="m166.8 72.4c0 0 11.5-14.9 17.5 3.2"/>
				<path id="&lt;Path&gt;" class="s5" d="m159.9 71.6c0 0-4.5-14.4-13.1 0"/>
				<g id="&lt;Group&gt;">
					<path id="&lt;Path&gt;" class="s1" d="m172 114.9c0.6 1.6 0.2 3.6-1.1 5-1.2 1.4-2.9 2.1-4.6 2.6-3.4 0.7-6.8 0.4-10-0.6 1.6-0.2 3.3-0.3 4.9-0.5q2.4-0.2 4.7-0.7c1.5-0.4 2.9-0.9 4-1.8 1.2-0.9 2-2.3 2.1-4z"/>
				</g>
			</g>
		</g>
	</g>
</svg>