<svg version="1.2" xmlns="http://www.w3.org/2000/svg" viewBox="0 0 370 700" width="370" height="700">
	<title>3296433-ai</title>
	<style>
		.s0 { fill: #dbdbdb } 
		.s1 { fill: #774cbe } 
		.s2 { fill: #fccb9a } 
		.s3 { fill: #f9914b } 
		.s4 { fill: #292a49 } 
		.s5 { fill: #6aaa98 } 
		.s6 { fill: #379175 } 
		.s7 { fill: #eaa15e } 
	</style>
	<path id="&lt;Path&gt;" class="s0" d="m184.7 693.2c-53.2 0-96.1-4.3-96.1-9.5 0-5.3 42.9-9.6 96.1-9.6 53.1 0 96 4.3 96 9.6 0 5.2-42.9 9.5-96 9.5z"/>
	<g id="OBJECTS">
		<g id="&lt;Group&gt;">
			<path id="&lt;Path&gt;" class="s1" d="m218.6 670.9c0 0 18.7 7.1 25.7 11.5 6.9 4.4-7 5.5-22.3 3.6-15.3-2-28.1-3.6-28.1-3.6l10.2-12.2"/>
			<path id="&lt;Path&gt;" class="s1" d="m146.9 665.6c0 0-25.6 8.4-28.4 14.5-2.7 6.1 44.6 0 44.6 0v-5.9"/>
			<path id="&lt;Path&gt;" class="s2" d="m181.7 291.3c0 0-15.7 9.5-18.2 34 0 0-11.2 34.9 9.1 47.4 11.8 7.3 24.1 9.2 32.3 9.4l-5.8 20c0 0 11.8 3.9 19-2.5 4.4-23.6 11.1-45.2 11.8-45.2 0.7 0 9.4-7.1 12-16.4 2.5-9.2 13.2-32.6-6.9-40-20.2-7.4-53.3-6.7-53.3-6.7z"/>
			<path id="&lt;Path&gt;" class="s3" d="m229.9 306.4c0-0.7-11.5 2-18.3 0-6.7-2-7.1-3.7 0.5-5-25.3 1.3-35.2-4-41.2-10.1-5.9-6.2-3-12.6 11.9-5.6-9.7-7.6-10-8.8-11.2-13.5-1.2-4.8 7.5 3 15.6 6.4 8.1 3.3 13.6 5.4 13.6 5.4 0 0-12.1-6.8 2.9-3.1 15 3.7 41.7 12.7 49.2 26.4 7.5 13.6 1.3 11.6 1.3 11.6 0 0 9.6-0.2-8.6 23.3-18.3 23.5-20.3 26.3-20.3 26.3l3.9-13.1 7.1-14.4c0 0-4.6-9.1-3.9-19.4 0 0-3 10.6-2.5-15.2z"/>
			<path id="&lt;Path&gt;" class="s2" d="m232.4 343.1c0 0 14.4-9 19.7 1.6 5.3 10.7-16.7 29.9-25.7 10.7"/>
			<path id="&lt;Path&gt;" class="s4" d="m247 533.4l10.3 13.5-36.4 108.4c0 0 12.7 1.9 0 10 4.1-0.9 8.6 1.8-5.7 7-14.3 5.2-21.3 10.1-21.3 10.1 0 0-9.3-9.1-1.6-18.6 7.8-9.6 13.9-19.6 13.9-19.6l13.1-102.8-7.4 2.1c0 0-28.6 56.8-31.8 78.2-3.3 21.5-0.4 43.9-12.7 49.2 4.1 3.3 2.4 4.9-2 2.1 0.4 6.1 2.4 9.9-18-4.4-9-3.4-11.9-7.7 0-7.6 4.9-17.8 23.3-117.5 23.3-117.5l13.4-11.6 31.9-6.5"/>
			<path id="&lt;Path&gt;" class="s2" d="m257.3 454.6l17.5 48.4-17.5 43.9-9.8-9.1 9.2-39.7-19-33.3"/>
			<path id="&lt;Path&gt;" class="s2" d="m153.5 460.6l-8.6 40.1 25.4 44.7c0 0 10.5-3.2 11-5.5 0.4-2.3-18.2-41.8-18.2-41.8l12.1-33.3"/>
			<path id="&lt;Path&gt;" class="s5" d="m218.1 399.6c0 0-6.4 2.2-17.6-2.4-15.1 7.5-30.2 13.6-36.1 20.9-5.8 7.3-21.5 39.5-21.5 39.5 0 0 22.4 13.6 33.7 15.1-3.2 10.7-6.7 59.2-6.7 59.2 0 0 36.4 19.6 55.6 15.8 19.3-3.8 32.5-19.1 32.5-19.1 0 0-7.6-46.7-13.2-61.1 15.9-6.3 20.5-15.5 20.5-15.5 0 0-14-23.6-20.7-32.4-6.7-8.8-26.5-20-26.5-20z"/>
			<g id="&lt;Group&gt;">
				<g id="&lt;Group&gt;">
					<path id="&lt;Path&gt;" class="s6" d="m179.5 528.4l10.8 3.5c3.6 1.2 7.2 2.3 10.8 3.3 3.6 1 7.3 1.9 10.9 2.5 3.7 0.7 7.4 1.2 11.3 1.1-3.8 0.9-7.7 0.8-11.5 0.4-3.8-0.4-7.5-1.3-11.2-2.3q-5.5-1.5-10.8-3.6c-3.5-1.4-7-3-10.3-4.9z"/>
				</g>
				<g id="&lt;Group&gt;">
					<path id="&lt;Path&gt;" class="s6" d="m253 523.3c-0.8 1.8-1.7 3.6-2.7 5.3q-1.6 2.6-3.7 4.8c-1.4 1.4-2.9 2.8-4.7 3.8-1.8 1.1-3.7 1.8-5.8 1.9 1.9-0.9 3.5-1.9 5-3 1.5-1.2 2.9-2.6 4.2-4 1.3-1.3 2.5-2.8 3.8-4.3 1.3-1.5 2.4-3.1 3.9-4.5z"/>
				</g>
			</g>
			<path id="&lt;Path&gt;" class="s2" d="m274.8 503l-17.5 43.9-9.8-9.1 9.2-39.7"/>
			<path id="&lt;Path&gt;" class="s2" d="m144.9 500.7l25.4 44.7c0 0 10.5-3.2 11-5.5 0.4-2.3-18.2-41.8-18.2-41.8"/>
			<g id="&lt;Group&gt;">
				<g id="&lt;Group&gt;">
					<path id="&lt;Path&gt;" class="s7" d="m182.3 331.6c-0.2 1.4-0.4 2.8-0.6 4.1q-0.4 2-0.8 4l-0.2 1.1-1-0.7c-1.4-1-2.9-2-4.4-2.8q-0.6-0.3-1.1-0.6c-0.2 0-0.4-0.1-0.5-0.2-0.2 0-0.4 0-0.2 0 0.2-0.1 0.4-0.4 0.4-0.4 0-0.1 0-0.1 0 0 0 0.1 0 0.3 0.1 0.4q0.2 0.6 0.5 1.2c0.7 1.5 1.7 3 2.7 4.4 1.1 1.3 2.2 2.8 3.9 3.4-0.9 0.1-1.8-0.4-2.6-0.9-0.8-0.5-1.5-1.1-2.2-1.7q-1.9-2-3.4-4.5-0.3-0.6-0.6-1.3c-0.1-0.2-0.2-0.5-0.2-0.8 0-0.2 0-0.4 0-0.7 0.1-0.3 0.4-0.8 0.9-0.9 0.5-0.1 0.8 0 1.1 0.1 0.3 0 0.5 0.1 0.8 0.2q0.7 0.3 1.3 0.7c1.6 1 3 2.1 4.4 3.2l-1.2 0.4q0.7-1.9 1.3-3.8c0.5-1.3 1-2.6 1.6-3.9z"/>
				</g>
				<g id="&lt;Group&gt;">
					<path id="&lt;Path&gt;" class="s7" d="m201.7 348.2c-1.1 2.3-2.8 4.4-4.8 6.1-2 1.7-4.6 2.9-7.4 3.1-2.7 0.2-5.5-0.5-7.7-2-1.2-0.6-2.1-1.5-3.1-2.3-0.9-1-1.8-2-2.6-3 1.1 0.7 2.1 1.6 3.1 2.3l1.6 0.9c0.6 0.3 1.1 0.7 1.7 0.9q0.8 0.3 1.6 0.7c0.6 0.2 1.2 0.3 1.8 0.4 0.5 0.2 1.1 0.2 1.7 0.3h0.9c0.3 0 0.6 0 0.9 0 2.3-0.2 4.6-1.2 6.6-2.5 2.1-1.3 4-3 5.7-4.9z"/>
				</g>
				<g id="&lt;Group&gt;">
					<path id="&lt;Path&gt;" class="s7" d="m245.8 347.3c-1-1.4-2.5-2.2-4-2.2-1.5-0.1-3 0.5-4.4 1.2-1.3 0.7-2.7 1.6-3.9 2.7-1.3 0.9-2.5 2.1-3.7 3.1l-0.3-1.3c0.8 0.3 1.6 0.6 2.3 1q0.6 0.3 1.2 0.8c0.2 0.2 0.4 0.3 0.6 0.8 0 0.2 0.1 0.5-0.1 0.7-0.1 0.2-0.2 0.4-0.3 0.5-1.1 0.5-1.9 0.4-2.7 0.5q-1.3 0-2.6-0.1c0.8-0.2 1.7-0.3 2.5-0.5 0.7-0.2 1.7-0.5 2.1-0.8 0-0.1-0.1 0-0.1 0.1 0 0-0.1-0.1-0.2-0.2q-0.4-0.3-1-0.5-1.1-0.4-2.3-0.8l-1.2-0.4 0.9-0.9c2.3-2.5 4.9-4.8 8.1-6.2 1.6-0.7 3.4-1.2 5.2-0.8 1.9 0.3 3.4 1.7 3.9 3.3z"/>
				</g>
			</g>
			<path id="&lt;Path&gt;" class="s4" d="m192.8 333.5c-0.3 1.8-1.5 3.1-2.5 2.9-1.1-0.2-1.7-1.9-1.3-3.7 0.3-1.8 1.5-3.1 2.5-2.9 1.1 0.2 1.7 1.8 1.3 3.7z"/>
			<path id="&lt;Path&gt;" class="s4" d="m181.6 328.7c-0.4 1.8-1.5 3.1-2.6 2.9-1.1-0.2-1.6-1.8-1.3-3.7 0.4-1.8 1.5-3.1 2.6-2.9 1.1 0.2 1.6 1.8 1.3 3.7z"/>
			<path id="&lt;Path&gt;" class="s3" d="m192.5 323.4c0 0 10.8-9.7 10.5 6.6"/>
			<path id="&lt;Path&gt;" class="s3" d="m186 320.5c0 0-2.6-13.6-9.4-2.9"/>
			<path id="&lt;Path&gt;" class="s3" d="m218.1 399.6c0 0-6.4 2.2-17.6-2.4q-2.7 1.3-5.4 2.6c14.1 9.3 23.8 4.7 27.3 2.3-2.6-1.6-4.3-2.5-4.3-2.5z"/>
			<path id="&lt;Path&gt;" class="s3" d="m178.3 466.3c-10.1-2.2-25.9-11-32.4-14.8-1.8 3.7-3 6.1-3 6.1 0 0 22.4 13.6 33.7 15.1-0.4 1.4-0.8 3.4-1.3 5.8 0.1-0.2 1.1-5.2 3-12.2z"/>
			<path id="&lt;Path&gt;" class="s3" d="m245.9 470.8q-0.6-1.9-1.1-3.3c15.9-6.3 20.5-15.5 20.5-15.5 0 0-1.1-1.8-2.8-4.7-4.3 4.9-12.9 13.5-19.6 15.1 2.6 7.3 3 8.2 3 8.4z"/>
			<g id="&lt;Group&gt;">
				<path id="&lt;Path&gt;" class="s6" d="m178.3 466.3c-0.1-4.2 0.3-8.2 0.9-12.3 0.7-4 1.5-8.1 2.8-12 0.1 4.2-0.4 8.2-1 12.3-0.6 4-1.4 8.1-2.7 12z"/>
			</g>
			<g id="&lt;Group&gt;">
				<path id="&lt;Path&gt;" class="s6" d="m242.9 462.4c-2.1-5-3.8-10-5.3-15.1l-2.3-7.6c-0.8-2.5-1.4-5.1-2.4-7.5 1.7 2.1 2.7 4.6 3.8 7.1 1 2.4 1.8 5 2.6 7.5 1.5 5.1 2.9 10.3 3.6 15.6z"/>
			</g>
		</g>
	</g>
</svg>