<svg version="1.2" xmlns="http://www.w3.org/2000/svg" viewBox="0 0 370 700" width="370" height="700">
	<title>3296433-ai</title>
	<style>
		.s0 { fill: #dbdbdb } 
		.s1 { fill: #f97071 } 
		.s2 { fill: #6aaa98 } 
		.s3 { fill: #fccb9a } 
		.s4 { fill: #5c30b2 } 
		.s5 { fill: #774cbe } 
		.s6 { fill: #f9914b } 
		.s7 { fill: #292a49 } 
		.s8 { fill: #ffffff } 
		.s9 { fill: #eaa15e } 
		.s10 { fill: #d84e55 } 
		.s11 { fill: #ffa1a6 } 
	</style>
	<path id="&lt;Path&gt;" class="s0" d="m184.7 693.2c-53.2 0-96.1-4.3-96.1-9.5 0-5.3 42.9-9.6 96.1-9.6 53.1 0 96 4.3 96 9.6 0 5.2-42.9 9.5-96 9.5z"/>
	<g id="OBJECTS">
		<g id="&lt;Group&gt;">
			<g id="&lt;Group&gt;">
				<path id="&lt;Path&gt;" class="s1" d="m145.7 671c0 0-7.7 3.9-13.3 7.7-5.6 3.8 14.9 8.1 35.8 0-11.6-6.3-11.6-10.2-11.6-10.2z"/>
				<path id="&lt;Path&gt;" class="s2" d="m230.6 590l-20.5 79.9c0 0 10-1.7-1.9 3.2-11.9 4.9-20 6.6-20 6.6l5.6-61.4-25.6 60.4c0 0 1.8 3.3-4.6 0-6.5-3.4-17.9-7.7-17.9-7.7 0 0-8.9-6.2 0-4.3-2.2-3.8-1.9-7.1 2.2-5.2 2.4-11.1 17.8-73.8 17.8-73.8l17.3-4.1 40.6 4.1"/>
				<path id="&lt;Path&gt;" class="s3" d="m259.4 507.1c0 0-2.8-10.7-3.5-15.6-0.7-5 3.3-4.4 5.3 3.2 3.6-13.8 9.5-18.5 11.7-15 2.1 3.5 4.2 16.6 1.1 23.6-3.1 7.1-9.9 10.2-9.9 10.2"/>
				<path id="&lt;Path&gt;" class="s4" d="m254.6 510.3c0.5-0.4 2.3-6.7 2.3-6.7l12.3 9.9-2.2 7.8"/>
				<path id="&lt;Path&gt;" class="s5" d="m211.5 504.9l28.2 24.9c0 0 0.9-4.1 3-1.5-0.1-13.5 11.5-23.4 11.5-23.4l16.8 16.1c0 0-1.5 65.9-43 41.5-41.5-24.4-21.5-34.5-21.5-34.5"/>
				<path id="&lt;Path&gt;" class="s3" d="m161.6 591.1c0 0 7.3 13.1 5.3 18.6-2 5.4-6.9 9.3-12.5 8.4-5.6-0.8-10.7-8.1-3.9-7.4 2.5 1 3 1.6 3 1.6 0 0-5.5-8.6-1.3-17.1"/>
				<path id="&lt;Path&gt;" class="s4" d="m232.2 588.8l-2.8 9.5c0 0-39 13.3-62.2-4.1-2.7 9-16.6 7.2-16.6 7.2l-2.6-8.6 16.3-16.1 26.7 2.9"/>
				<path id="&lt;Path&gt;" class="s5" d="m177.8 503.6c0 0-33.6 33.1-36.5 54.6-2.9 21.5 3.3 34.4 5.8 37.4 11.7 4.8 20.1-6.5 20.1-6.5 0 0 43 17.5 65-0.3 4.9-12.4-3.5-67.1-27.1-91.8-14.6-4.1-27.3 6.6-27.3 6.6z"/>
				<path id="&lt;Path&gt;" class="s4" d="m205.2 499.3c0 0-3.9 20.4-27.4 1.7 18.2-6.3 27.4-1.7 27.4-1.7z"/>
				<g id="&lt;Group&gt;">
					<path id="&lt;Path&gt;" class="s4" d="m232.2 588.8c1-3.2 1-6.5 0.9-9.8q0-2.5-0.2-4.9c-0.1-1.7-0.3-3.3-0.5-4.9q-1.2-9.8-3.5-19.4-2.1-9.7-5.3-19c-0.5-1.6-1.1-3.1-1.7-4.7-0.5-1.5-1.1-3.1-1.8-4.6-0.6-1.5-1.2-3-1.9-4.5q-1-2.3-2-4.5c3.5 5.6 6.3 11.6 8.7 17.8 2.5 6.2 4.3 12.6 5.8 19.1 1.5 6.4 2.6 13 3.1 19.6 0.1 1.7 0.2 3.3 0.2 5q0.1 2.5 0 5c-0.2 3.3-0.4 6.7-1.8 9.8z"/>
				</g>
				<path id="&lt;Path&gt;" class="s6" d="m163.1 415.3c0 0 20.3-22 49.7-16.2 12.6 3 22.2 27.7 21.1 44.7-1.1 17-31.6 29.9-31.6 29.9l-59.5 13.7c0 0-12.3-19.7-10-41.4 2.4-21.7 30.3-30.7 30.3-30.7z"/>
				<path id="&lt;Path&gt;" class="s3" d="m228 448.4c0 0 2.5-10.3 10.6-7.8 8 2.6 5.4 31.9-9.2 22.7"/>
				<path id="&lt;Path&gt;" class="s3" d="m223.7 422.3c0 0 10.3 28.7 8.3 46.7-2 18.1-14.9 30.5-43.9 33.9-29 3.4-48.2-5.5-51.9-36.7-3.8-31.3 51-54.8 51-54.8z"/>
				<path id="&lt;Path&gt;" class="s6" d="m174.4 420.5c0 0 3.8 22.4-1.7 37 0.6-17.3-1.9-29.3-1.9-29.3 0 0-1.1 26.6-6 32 0.3-8.5 0.3-8.5 0.3-8.5 0 0-3.3 8-5 9.9-8.8 3.6-23 1.1-23 1.1l-1.8-5.2c0 0 7.3-23.9 29.2-38.7 21.9-14.8 45.8-10.7 52.1-6 6.3 4.7 12.6 13.2 13.2 19.2 0.5 6 0.8 18.6 0.8 18.6l-7.7 0.9c0 0-9.6-16.2-14.8-20.3 8.2 13.7 10.7 21.5 10.7 21.5h-3.3c0 0-10.1-18.8-15.9-22.3 8.2 13.7 10.4 21.1 10.4 21.1 0 0-14.5-23.9-35.6-31z"/>
				<path id="&lt;Path&gt;" class="s3" d="m141.1 463.3c0 0-8.1-12.5-17-5.8-8.9 6.7 10.4 29 18.1 19.3"/>
				<path id="&lt;Path&gt;" class="s1" d="m208.2 673.1c0 0 9 2.2 14 9.6 5 7.3-34-3-34-3z"/>
				<path id="&lt;Path&gt;" class="s7" d="m203.2 479.2l-36.8-3.6c0 0 5.2 19.6 18 20.7 12.7 1 19.7-11.6 18.8-17.1z"/>
				<g id="&lt;Group&gt;">
					<g id="&lt;Group&gt;">
						<path id="&lt;Path&gt;" class="s8" d="m193.4 478.2l-12-1.1-0.5 6.8h11.2c0 0 0.7-3.4 1.3-5.7z"/>
					</g>
					<g id="&lt;Group&gt;">
						<path id="&lt;Path&gt;" class="s8" d="m177.8 476.7l-11.4-1.1c0 0 1 3.9 3.3 8.3h7.3z"/>
					</g>
				</g>
				<path id="&lt;Path&gt;" class="s1" d="m174.9 491.3c1.9 2 4.2 3.7 6.9 4.5q0.4 0.1 0.9 0.2 0.1 0 0.2 0 0.2 0.1 0.4 0.1 0.5 0.1 1.1 0.2c2.7 0.2 5.2-0.2 7.4-1.1-7-13.9-14.7-6.5-16.9-3.9z"/>
				<g id="&lt;Group&gt;">
					<g id="&lt;Group&gt;">
						<path id="&lt;Path&gt;" class="s9" d="m237.9 444.4c-0.4-0.4-0.8-0.3-1.1 0-0.3 0.3-0.6 0.7-0.8 1-0.5 0.8-0.8 1.6-1.2 2.4q-0.5 1.3-1 2.5l-1 2.6-0.4-0.9c0.8 0.3 1.6 0.6 2.2 1.4 0.5 0.9 0.5 1.8 0.2 2.6-0.2 0.8-0.6 1.4-1 2-0.5 0.6-1 1.2-1.6 1.7 0.8-1.3 1.5-2.6 1.7-3.9 0.1-0.7 0-1.3-0.3-1.7-0.3-0.4-0.9-0.6-1.5-0.8l-0.7-0.2 0.2-0.7c0.7-1.7 1.4-3.4 2.3-5 0.4-0.9 0.9-1.7 1.5-2.4 0.4-0.3 0.7-0.7 1.2-0.9 0.2-0.1 0.5-0.2 0.7-0.1 0.3 0 0.5 0.2 0.6 0.4z"/>
					</g>
					<g id="&lt;Group&gt;">
						<path id="&lt;Path&gt;" class="s9" d="m195 462.1c0.4 1.1 1 2.1 1.4 3.1q0.8 1.6 1.5 3.2l-0.8-0.3q1.6-1.1 3.5-1.9 0.9-0.4 1.9-0.7c0.4 0 0.7-0.1 1.2 0 0.2 0 0.5 0.1 0.8 0.3 0.2 0.3 0.3 0.6 0.3 0.9 0 0.9-0.4 1.5-0.7 2.1q-0.6 0.8-1.2 1.6c-0.8 1-1.7 2-2.7 2.9l2.1-3.3c0.3-0.6 0.6-1.1 0.9-1.7 0.2-0.5 0.5-1.2 0.4-1.5 0-0.2 0.1 0-0.1-0.1-0.1 0-0.4 0-0.7 0.1-0.6 0.1-1.1 0.3-1.7 0.6-1.2 0.5-2.3 1.1-3.4 1.7l-0.6 0.3-0.2-0.6q-0.6-1.6-1.1-3.3-0.3-0.8-0.5-1.7c-0.1-0.5-0.3-1.1-0.3-1.7z"/>
					</g>
					<g id="&lt;Group&gt;">
						<path id="&lt;Path&gt;" class="s9" d="m127.1 462.1c0.4-0.6 1-1.1 1.7-1.4 0.7-0.3 1.5-0.2 2.3 0 1.4 0.4 2.7 1.3 3.7 2.3q0.8 0.8 1.5 1.6 0.7 0.8 1.4 1.7c0.9 1.2 1.5 2.4 2.3 3.7l0.6 1-1.2-0.1q-1.3-0.2-2.7-0.3c-0.5 0-0.9 0-1.3 0q-0.4 0.1-0.6 0.1 0 0 0 0c0 0 0 0 0-0.1 0-0.1 0-0.1 0 0 0.5 0.5 1.4 1 2.2 1.4 0.8 0.5 1.6 0.9 2.5 1.3q-1.4-0.3-2.7-0.8c-0.9-0.4-1.7-0.6-2.6-1.4-0.1-0.1-0.3-0.3-0.2-0.7 0-0.1 0.1-0.2 0.2-0.3q0.1-0.1 0.3-0.2c0.2-0.1 0.5-0.2 0.8-0.2q0.7-0.2 1.4-0.1 1.4 0 2.8 0.1l-0.5 0.9c-0.8-1.2-1.6-2.4-2.4-3.5q-0.5-0.9-1.2-1.7-0.6-0.9-1.4-1.6c-0.9-1-1.9-2-3.2-2.5-0.6-0.2-1.2-0.3-1.9-0.2-0.7 0.1-1.3 0.5-1.8 1z"/>
					</g>
				</g>
				<path id="&lt;Path&gt;" class="s7" d="m187 460.2c0.3 1.6-0.3 3.1-1.3 3.3-1.1 0.2-2.1-1-2.4-2.7-0.3-1.6 0.3-3.1 1.3-3.3 1.1-0.1 2.1 1 2.4 2.7z"/>
				<path id="&lt;Path&gt;" class="s7" d="m202.1 454.6c0.3 1.6-0.3 3.1-1.3 3.3-1.1 0.1-2.1-1.1-2.4-2.7-0.3-1.6 0.3-3.1 1.3-3.3 1.1-0.2 2.1 1 2.4 2.7z"/>
				<g id="&lt;Group&gt;">
					<g id="&lt;Group&gt;">
						<path id="&lt;Path&gt;" class="s6" d="m187.1 448.9c0 0-9.8-8.6-12.2 8.1"/>
						<path id="&lt;Path&gt;" class="s6" d="m195 447.6c0 0 4.1-12 12.4 0"/>
					</g>
				</g>
				<g id="&lt;Group&gt;">
					<path id="&lt;Path&gt;" class="s4" d="m166.3 589.9c0.1-5.7 0.4-11.4 0.9-17.1 0.4-5.7 0.9-11.3 1.7-17 0.7-5.6 1.6-11.3 2.8-16.9 1.2-5.5 2.6-11.1 4.6-16.4-1.9 5.4-3.1 10.9-4.2 16.5-1 5.6-1.7 11.3-2.3 16.9-0.6 5.7-1 11.3-1.3 17-0.2 5.7-0.4 11.4-0.4 17z"/>
				</g>
				<g id="&lt;Group&gt;">
					<path id="&lt;Path&gt;" class="s4" d="m242.7 528.3c1 0.8 1.6 1.8 2.2 2.9 0.5 1.1 0.8 2.3 0.8 3.6-0.4-0.5-0.6-1.1-0.9-1.6-0.3-0.5-0.5-1-0.8-1.6-0.5-1.1-0.9-2.1-1.3-3.3z"/>
				</g>
				<g id="&lt;Group&gt;">
					<path id="&lt;Path&gt;" class="s4" d="m239.7 529.8c0.4 1.1 0.6 2.2 0.6 3.3 0 1.1-0.1 2.3-0.6 3.3-0.1-0.6-0.2-1.1-0.2-1.6-0.1-0.6-0.1-1.1-0.1-1.7 0-1 0-2.1 0.3-3.3z"/>
				</g>
				<path id="&lt;Path&gt;" class="s1" d="m219.5 549.9c-0.3 8.7-7.8 15.6-16.7 15.3-8.9-0.3-15.8-7.7-15.5-16.4 0.3-8.8 7.7-15.6 16.6-15.3 8.9 0.3 15.9 7.6 15.6 16.4z"/>
				<g id="&lt;Group&gt;">
					<path id="&lt;Path&gt;" class="s10" d="m216.7 549.8c0.1 3.4-1.4 7-4 9.5-2.5 2.5-6.2 3.8-9.8 3.7-3.6-0.1-7.1-1.7-9.5-4.4-2.5-2.6-3.7-6.3-3.4-9.7 0.1 3.4 1.6 6.8 4 9.1 2.3 2.4 5.6 3.8 8.9 3.9 3.4 0.2 6.7-1.1 9.3-3.3 2.5-2.1 4.2-5.4 4.5-8.8z"/>
				</g>
				<path id="&lt;Path&gt;" class="s1" d="m193.4 540.5c0 0-5.5-13.4-8.2-14.3-2.8-0.9-5.7 18.7 4.9 20.2"/>
				<path id="&lt;Path&gt;" class="s1" d="m208.7 538.4c0 0-4.9-14.6-5.4-15.9-0.5-1.3 15.2 7.1 10.6 16.9"/>
				<path id="&lt;Path&gt;" class="s11" d="m213.7 547.2c0.5 2.3-3.3 5.2-8.5 6.3-5.3 1.2-9.9 0.3-10.4-2-0.5-2.3 3.3-5.2 8.5-6.3 5.2-1.2 9.9-0.3 10.4 2z"/>
				<path id="&lt;Path&gt;" class="s1" d="m200.2 551.8c-0.9 0-1.5-0.6-1.5-1.5 0-0.8 0.6-1.5 1.5-1.5 0.8 0 1.5 0.7 1.5 1.5 0 0.9-0.7 1.5-1.5 1.5z"/>
				<path id="&lt;Path&gt;" class="s7" d="m199.7 544.3c-0.6 0-1-0.5-1-1 0-0.6 0.4-1.1 1-1.1 0.6 0 1 0.5 1 1.1 0 0.5-0.4 1-1 1z"/>
				<path id="&lt;Path&gt;" class="s7" d="m206.4 542.8c-0.6 0-1.1-0.4-1.1-1 0-0.6 0.5-1.1 1.1-1.1 0.6 0 1 0.5 1 1.1 0 0.6-0.4 1-1 1z"/>
				<path id="&lt;Path&gt;" class="s1" d="m208.9 549.8c-0.8 0-1.5-0.7-1.5-1.5 0-0.8 0.7-1.5 1.5-1.5 0.9 0 1.5 0.7 1.5 1.5 0 0.8-0.6 1.5-1.5 1.5z"/>
			</g>
		</g>
	</g>
</svg>