<svg version="1.2" xmlns="http://www.w3.org/2000/svg" viewBox="0 0 370 700" width="370" height="700">
	<title>3296433-ai</title>
	<style>
		.s0 { fill: #dbdbdb } 
		.s1 { fill: #292a49 } 
		.s2 { fill: #fccb9a } 
		.s3 { fill: #6aaa98 } 
		.s4 { fill: #449179 } 
		.s5 { fill: #ffffff } 
		.s6 { fill: #eaa15e } 
		.s7 { fill: #367a64 } 
	</style>
	<path id="&lt;Path&gt;" class="s0" d="m184.7 693.2c-53.2 0-96.1-4.3-96.1-9.5 0-5.3 42.9-9.6 96.1-9.6 53.1 0 96 4.3 96 9.6 0 5.2-42.9 9.5-96 9.5z"/>
	<g id="OBJECTS">
		<g id="&lt;Group&gt;">
			<g id="&lt;Group&gt;">
				<path id="&lt;Path&gt;" class="s1" d="m198.2 394.8l25.4 134.9-15.8 131.2-9.6 7.5v-135.7l-35.1-131.1-22.4-6.8 22.4 130.8-40.2 135.3-13 5 21.2-134.3c0 0-11.2-9 0-8-7.6-32.5-29-156.5-29-156.5l53.4-9.2"/>
				<path id="&lt;Path&gt;" class="s2" d="m318 314.4c0 0 5.6-24.1 9.5-31.8 3.8-7.6 6.7-14.2 9.5-16.5 2.9-2.3 4.6-1.5 3.5 2.9 13.6-18 22.7-22.2 24.8-13.5 2.1 8.7-13 34.9-13 34.9 0 0-6 30.4-16.8 28.8-4.3 1-6.1 3.6-6.1 3.6l-10.6-1.9"/>
				<path id="&lt;Path&gt;" class="s2" d="m108.7 378c0 0 2.7 24.6-3.5 39.6-6.3 15-10.2 17.8-16.4 20.8-6.3 3-15.1 4.1-9.1 0-10.9-0.8-17.2-2.7-6.2-7.9-14.5-1.1-18.4-8.2-9.6-8.5 8.7-0.3 17.2-0.6 17.2-0.6 0 0-10.3-24.8 5.9-33.3 0.1-11.5 0.1-11.5 0.1-11.5"/>
				<path id="&lt;Path&gt;" class="s3" d="m188.2 161.4c0 0-78.3 33.2-114.9 104.6-36.7 71.4 6.8 117.8 6.8 117.8 0 0 18.6 5.5 32-5.8 0 0 61.8 23.7 94.1 19.6 32.3-4.1 3.4-9.6 3.4-9.6 0 0 28.9-10.3 36.8-38.2 22.7 17.9 64.9 0.3 76.3-17.5 3.7-3.8-2.5-37.1-2.5-37.1l-37.4 12c0 0 6.1-9.9-6-2.4-9.5-38.8-46.5-131.2-46.5-131.2"/>
				<path id="&lt;Path&gt;" class="s4" d="m230.7 186.4c0 0-14.1 4.3-25.2-3.6-11.1-7.9-3-16.6-3-16.6l19.6 2.3z"/>
				<path id="&lt;Path&gt;" class="s5" d="m223 178.5c0 0.5 6.1 20.1 6.1 20.1l8.4-13.9-4.1-7.6z"/>
				<path id="&lt;Path&gt;" class="s2" d="m262.4 73.4c0 0 17.7 34.9 13.8 71.9-3.8 36.9-20.5 40.5-43.1 35.9 0 0-18.8 3.6-44.9-19.8 1.8-23.8 2.8-45.4 2.8-45.4l17.4-46.8z"/>
				<path id="&lt;Path&gt;" class="s5" d="m212.5 72.7c0 0-2.3 33.9-4.6 38.8-8 7.5-18.6 10.7-18.6 10.7 0 0 0.6-42.8 5-53 24.5-15.9 34.5-15.6 43.3-17.9 8.9-2.3 11.2 0.2 0 4.2 27.5-2.5 34.3 2.1 11.5 5 32.5 0.5 35.4 4.7 35.4 6.4 0 1.8-27.2 0-27.2 0 0 0 16.9 2.5 16.3 7.3-0.5 4.8-61.1-1.5-61.1-1.5z"/>
				<path id="&lt;Path&gt;" class="s2" d="m194.3 122.2c0 0-11.5-20.1-21.3-5.2-9.7 14.9 11.6 25.5 17.7 21.1"/>
				<g id="&lt;Group&gt;">
					<g id="&lt;Group&gt;">
						<path id="&lt;Path&gt;" class="s6" d="m256 111.5q-0.1 5.8-0.4 11.6l-0.3 5.8c-0.1 1.8-0.2 3.9-0.1 5.6l-1.2-0.8c3.2-0.9 6.3-1.7 9.7-1.6 0.9 0 1.8 0.1 2.8 0.7 0.2 0.2 0.5 0.5 0.7 0.8 0.1 0.3 0.2 0.7 0.2 1-0.1 0.7-0.4 1.1-0.6 1.5-1.2 1.5-2.5 2.5-3.8 3.4-2.8 1.8-5.8 3.1-8.8 4.2q-2.3 0.8-4.7 1.2c-1.6 0.3-3.2 0.4-4.8 0.2 3.2-0.1 6.2-1.2 9.1-2.4 2.9-1.2 5.7-2.7 8.2-4.5 1.3-0.9 2.5-2 3.3-3 0.1-0.3 0.3-0.6 0.3-0.7 0-0.1-0.1-0.1 0-0.1-0.1 0 0-0.1-0.1-0.1-0.4-0.3-1.2-0.4-1.9-0.4-2.9-0.1-6.1 0.7-9.1 1.5l-1.1 0.3v-1c0-2.2 0.2-4 0.4-5.9l0.6-5.8q0.6-5.8 1.6-11.5z"/>
					</g>
					<g id="&lt;Group&gt;">
						<path id="&lt;Path&gt;" class="s6" d="m250 147.9c-1.4 2.5-3 4.9-4.7 7.3l-0.2 0.3h-0.4c-3.6 0.3-7.2-0.1-10.6-1.1-1.8-0.5-3.4-1.2-5-2.1-1.6-0.9-3-2.1-4.2-3.3 1.6 0.9 3.1 1.7 4.7 2.3 1.6 0.6 3.2 1.1 4.9 1.5q2.5 0.6 5 0.8c1.7 0.2 3.5 0.4 5.1 0.3l-0.5 0.3c1.9-2.2 3.8-4.3 5.9-6.3z"/>
					</g>
					<g id="&lt;Group&gt;">
						<path id="&lt;Path&gt;" class="s6" d="m249.1 162.1c3 1.9 5.6 4.6 6.9 8.1 0.6 1.8 0.9 3.7 0.6 5.6-0.1 0.9-0.4 1.9-0.8 2.8q-0.4 0.7-0.9 1.3-0.6 0.5-1.2 1c-1.8 1.1-3.8 1.2-5.6 1.1q-2.8-0.2-5.3-1.1c-3.4-1.2-6.7-2.9-9.4-5.1q2.4 1.2 4.8 2.1 2.5 1 5 1.6c1.6 0.4 3.3 0.7 5 0.8 1.6 0 3.3-0.2 4.6-1 1.3-0.7 1.9-2.1 2.1-3.8 0.3-1.6 0.2-3.2-0.3-4.8-0.9-3.2-2.9-6.2-5.5-8.6z"/>
					</g>
					<g id="&lt;Group&gt;">
						<path id="&lt;Path&gt;" class="s6" d="m178.7 122.2c0.4-0.8 0.9-1.6 1.5-2.2 0.7-0.6 1.7-1 2.7-0.9 2 0.2 3.4 1.7 4.5 3 0.6 0.7 1.1 1.4 1.6 2.2 0.5 0.7 0.8 1.5 1.2 2.2 0.9 1.6 1.5 3.2 2.1 4.8l1 2.4-2.3-1.3c-1-0.6-2.1-1.3-3.1-1.8-0.5-0.3-1.1-0.6-1.6-0.8-0.2-0.1-0.5-0.2-0.6-0.2-0.1 0 0.1 0 0.2-0.4 0.1-0.1 0 0 0.1 0 0.4 1 1.3 2 2 2.9 0.8 1 1.6 1.9 2.4 2.9-1-0.8-2-1.6-3-2.4-0.9-0.8-1.8-1.6-2.6-2.8-0.1-0.2-0.2-0.4-0.2-0.9 0.1-0.3 0.3-0.5 0.6-0.6 0.2-0.1 0.3-0.1 0.5-0.1 0.5 0 0.8 0.1 1.1 0.2 0.7 0.2 1.2 0.5 1.8 0.7q1.7 0.8 3.3 1.8l-1.2 1c-0.7-1.5-1.3-3.1-2.1-4.6q-0.5-1.1-1.1-2.2c-0.4-0.7-0.8-1.4-1.3-2.1-0.9-1.3-2-2.6-3.5-2.9-1.4-0.4-2.9 0.7-4 2.1z"/>
					</g>
					<g id="&lt;Group&gt;">
						<path id="&lt;Path&gt;" class="s6" d="m246.7 123.6c0 1.1-0.3 2.1-0.8 3-0.6 0.9-1.3 1.7-2.3 2.3-1 0.6-2.2 0.8-3.2 0.7-1.1-0.1-2.1-0.6-2.9-1.3 1 0 2 0 2.8-0.1 0.9-0.2 1.7-0.4 2.4-0.9 1.4-0.8 2.6-2.1 4-3.7z"/>
					</g>
					<g id="&lt;Group&gt;">
						<path id="&lt;Path&gt;" class="s6" d="m258.6 126.3l2.1 1.3c0.7 0.4 1.3 0.8 1.9 0.9 0.6 0.2 1.2 0.2 1.8 0.1 0.7-0.2 1.4-0.6 2.2-1-0.2 0.9-0.7 1.7-1.6 2.3-0.8 0.6-2 0.7-2.9 0.4-1-0.3-1.8-0.9-2.3-1.6-0.6-0.7-1-1.5-1.2-2.4z"/>
					</g>
				</g>
				<path id="&lt;Path&gt;" class="s1" d="m240.5 123.6c-1.7 0-3-1.9-3-4.3 0-2.4 1.3-4.3 3-4.3 1.6 0 2.9 1.9 2.9 4.3 0 2.4-1.3 4.3-2.9 4.3z"/>
				<path id="&lt;Path&gt;" class="s1" d="m263.5 125.3c-1.6 0-3-1.9-3-4.3 0-2.4 1.4-4.3 3-4.3 1.7 0 3 1.9 3 4.3 0 2.4-1.3 4.3-3 4.3z"/>
				<path id="&lt;Path&gt;" class="s5" d="m248.7 106.5c0 0-8.7-17.8-18 1.4"/>
				<path id="&lt;Path&gt;" class="s5" d="m258.6 107.9c0 0 8.6-14.6 14.3 4.2"/>
				<path id="&lt;Path&gt;" class="s5" d="m188.2 161.4l-8 1.8 22.1 30.7 16.4-17.3z"/>
				<g id="&lt;Group&gt;">
					<path id="&lt;Path&gt;" class="s7" d="m165.1 201.1q-6.7 9.7-12.7 20-6 10.1-11.3 20.7c-3.5 7-6.9 14.1-9.9 21.3q-4.6 10.9-8.3 22.1c-5.1 14.8-8.7 30.2-10.7 45.8-2 15.5-2 31.3-0.1 47-0.6-3.9-1.5-7.8-1.8-11.7-0.2-2-0.5-3.9-0.6-5.9l-0.4-5.9c-0.2-7.9 0-15.9 0.8-23.8 0.8-7.9 2.1-15.7 3.9-23.5 1.7-7.7 3.8-15.4 6.3-22.9 5.1-15 11.4-29.6 19-43.5 7.5-13.9 15.9-27.4 25.8-39.7z"/>
				</g>
				<g id="&lt;Group&gt;">
					<path id="&lt;Path&gt;" class="s7" d="m244.7 216.6c1.3 5.4 2.2 11 3.2 16.5q0.7 4.1 1.3 8.3 0.6 4.1 1.2 8.3c1.4 11.1 2.4 22.3 2.8 33.5 0.3 11.2 0.4 22.4-0.7 33.6-0.1 2.8-0.6 5.6-0.9 8.4l-0.5 4.2c-0.2 1.4-0.5 2.7-0.7 4.1l-0.8 4.1c-0.3 1.4-0.5 2.8-1 4.1q-1 4.1-2.2 8.1 0.7-4.1 1.5-8.2c0.3-1.4 0.5-2.8 0.6-4.1l0.5-4.2c0.2-1.4 0.4-2.7 0.6-4.1l0.3-4.2c0.2-2.8 0.5-5.5 0.5-8.3q0.1-4.2 0.3-8.4l0.1-8.3c0-2.8-0.1-5.6-0.1-8.4-0.1-2.8-0.1-5.5-0.3-8.3-0.3-11.2-1.2-22.3-2.1-33.4-0.5-5.6-1.1-11.1-1.7-16.7-0.5-5.5-1.3-11.1-1.9-16.6z"/>
				</g>
				<path id="&lt;Path&gt;" class="s1" d="m207.8 660.9c0 0 48.3 14.6 64 21.2 15.8 6.6-29.4 4.1-78.2-2l4.6-11.7"/>
				<path id="&lt;Path&gt;" class="s1" d="m122.9 660.9c0 0 48.2 20.5 56.4 29.6 8.1 9.2-75.3-7.9-75.3-7.9l5.9-16.7"/>
			</g>
		</g>
	</g>
</svg>