<svg version="1.2" xmlns="http://www.w3.org/2000/svg" viewBox="0 0 370 700" width="370" height="700">
	<title>3296433-ai</title>
	<style>
		.s0 { fill: #dbdbdb } 
		.s1 { fill: #f2b986 } 
		.s2 { fill: #ce8951 } 
		.s3 { fill: #fccb9a } 
		.s4 { fill: #292a49 } 
		.s5 { fill: #ffffff } 
		.s6 { fill: #eaa15e } 
		.s7 { fill: #f97071 } 
		.s8 { fill: #eba560 } 
	</style>
	<path id="&lt;Path&gt;" class="s0" d="m184.7 693.2c-53.2 0-96.1-4.3-96.1-9.5 0-5.3 42.9-9.6 96.1-9.6 53.1 0 96 4.3 96 9.6 0 5.2-42.9 9.5-96 9.5z"/>
	<g id="OBJECTS">
		<g id="&lt;Group&gt;">
			<path id="&lt;Path&gt;" class="s1" d="m172.7 608.1c0 0-16.3 20.2-21.1 22-10-3.6-22.3-1.4-19.8 10.1-3.7 2.6 3.8 8.2 3.8 8.2l17.6-1.4c0 0 10.9-4 17.3-11.5"/>
			<g id="&lt;Group&gt;">
				<path id="&lt;Path&gt;" class="s2" d="m138.2 635.4c0.7 0.5 1.3 1.1 1.9 1.7 0.6 0.7 1.1 1.4 1.4 2.3 0.1 0.5 0.2 1 0.2 1.4 0 0.5 0 1.2-0.8 1.7-0.7 0.3-1.2 0.1-1.7 0q-0.6-0.2-1.2-0.5l0.7-1c0.3 0.3 0.5 0.6 0.8 1 0.2 0.3 0.4 0.7 0.6 1.1 0.1 0.2 0.2 0.5 0.2 0.9 0 0.3-0.4 0.7-0.7 0.8-0.6 0.3-1 0.1-1.5 0.1l0.6-0.7q0.6 1.9 1 3.9-1-1.7-1.9-3.5c-0.1-0.2 0-0.5 0.2-0.6q0.2-0.1 0.3 0h0.1c0.2 0 0.7 0 0.8-0.1 0-0.1-0.1 0-0.1 0 0-0.1 0-0.2-0.1-0.3-0.1-0.3-0.3-0.6-0.5-0.9-0.2-0.3-0.5-0.6-0.7-0.8-0.3-0.3-0.2-0.7 0-0.9 0.2-0.2 0.5-0.2 0.7-0.1q0.6 0.2 1.1 0.4c0.3 0.1 0.7 0.1 0.7 0.1 0.1 0 0.2-0.2 0.2-0.6q0.1-0.5 0-1.1c-0.2-0.7-0.5-1.5-0.9-2.2-0.4-0.7-0.9-1.4-1.4-2.1z"/>
			</g>
			<path id="&lt;Path&gt;" class="s3" d="m164.9 650.2c0 0-22.1-19.7-49.5 13.4-12.4-2-20.9-2.6-16.5 3 4.5 5.7 23.9 14.4 26.2 14 6.4-0.9 19.7-13.3 19.7-13.3l24.7 2z"/>
			<path id="&lt;Path&gt;" class="s3" d="m206.5 578.4c0 0 29.4-11.7 30.4-45.4 1-33.6-33.7-50.8-63.5-39.2-29.8 11.7-23.9 45.4-19.7 54.8 0 0-6 9.5-4.9 17.4 1 7.8 15.3 17.6 24.4 17.6 0 0-2 14.9-4.1 25-2.1 10.2-7.9 36.5-7 46.8 22.5 5.8 60.2 5 67.7-3.5 7.4-8.5 10.9-15.3 10.9-15.3 0 0-10.8-31.1-34.2-58.2z"/>
			<path id="&lt;Path&gt;" class="s4" d="m164.4 546.4c-1.2 0-2.2-1.2-2.2-2.8 0-1.5 1-2.8 2.2-2.8 1.2 0 2.2 1.3 2.2 2.8 0 1.6-1 2.8-2.2 2.8z"/>
			<path id="&lt;Path&gt;" class="s5" d="m160.2 650.3c0 0 20.2 9.4 45.5 4.7 25.4-4.7 34.4-20.1 34.4-20.1l-1.1-2.9c0 0 1.7-1 5.1 5.2 3.3 6.2 13.8 38.5-12.9 41.4-26.7 2.9-62.5-0.8-66.7-3.9-4.1-3.1-8.2-18.2-4.3-24.4z"/>
			<path id="&lt;Path&gt;" class="s3" d="m237.7 671.7c0 0-13.8-14.8-46.7-10.5-12.3 2.2-14.2 3.2-14.2 3.2 0 0-22.5 0.2-32 2.9-5.7 4.6-13.2 11.2-17 12.4 5.4 0.9 15.2 2.2 18.8 1.8 0 0 11.4 5.2 27.6 5.8 16.2 0.6 50.1 3.5 63.5-15.6z"/>
			<g id="&lt;Group&gt;">
				<path id="&lt;Path&gt;" class="s6" d="m176.8 664.4c-5.3 0.4-10.7 0.7-16 1.2q-4 0.3-8 0.9c-2.6 0.3-5.3 0.7-7.9 1.3l0.3-0.1c-2.8 2.2-5.5 4.5-8.3 6.6-1.4 1.1-2.9 2.1-4.4 3.1-1.5 0.9-3 1.8-4.7 2.3 1.6-0.7 3-1.7 4.4-2.8q2.1-1.6 4.2-3.3l8-6.8 0.1-0.1h0.1c2.7-0.8 5.4-1.2 8-1.5q4.1-0.4 8.1-0.7c5.4-0.2 10.8-0.3 16.1-0.1z"/>
			</g>
			<path id="&lt;Path&gt;" class="s3" d="m201.2 596.6c0 0-3.8 0.8-7.4 8.4-3.5 7.5-9.5 15.3-9.5 15.3l-17.4-17.5c0 0 3.4-9-1.8-9.8-5.1-0.8-8.5 1.2-10.7 2.8-2.2 1.6 0 2.6 2.8 2.6-6 2-4.6 3.2-1.6 3.4-5.4 2.8-1.8 3.4 1.4 2.6-2.8 5.5-0.2 8.9 3.5 7.7-0.2 14.4 12.4 34.9 28.6 33.5 16.1-1.4 29.3-32.9 29.3-32.9"/>
			<g id="&lt;Group&gt;">
				<path id="&lt;Path&gt;" class="s6" d="m160.5 612.1c0.2 4 1.1 7.8 2.5 11.5 1.3 3.6 3.2 7.1 5.6 10.2 2.3 3 5 5.9 8.3 7.9 3.2 2.1 6.9 3.4 10.7 3.3 3.8 0.2 7.4-1.6 10.5-3.9 3.1-2.3 5.7-5.3 8.1-8.3 2.4-3.1 4.6-6.3 6.6-9.7q3-5 5.6-10.4c-3 7.3-6.7 14.3-11.4 20.7-2.4 3.2-5 6.2-8.2 8.6-3.1 2.4-7 4.4-11.2 4.3-4 0-8-1.4-11.4-3.6-3.3-2.2-6.2-5.1-8.4-8.4-4.6-6.4-7.5-14.3-7.3-22.2z"/>
			</g>
			<g id="&lt;Group&gt;">
				<path id="&lt;Path&gt;" class="s6" d="m201.2 596.6c-2.3 1-3.8 3-5.1 5-1.3 2.1-2.1 4.4-3.3 6.6-2.4 4.4-5 8.6-8 12.5l-0.5 0.5-0.5-0.5c-2.5-2.6-5.1-5.2-7.6-7.9q-3.8-4-7.4-8.2 4.1 3.7 8 7.6c2.7 2.5 5.3 5.1 7.9 7.7h-0.9q2.1-2.9 4.2-6 2-3 3.8-6.2c1.3-2.1 2.3-4.4 3.7-6.5q1.1-1.5 2.5-2.8c0.9-0.8 2-1.5 3.2-1.8z"/>
			</g>
			<g id="&lt;Group&gt;">
				<path id="&lt;Path&gt;" class="s6" d="m168.8 669.2q-1.4 1.5-2.7 3.1c-0.8 1.1-1.6 2.2-2.1 3.3q-0.9 1.8-1.1 3.7c-0.1 1.3 0.1 2.5 0.6 3.9-0.9-1.1-1.6-2.4-1.6-3.9-0.1-1.5 0.3-3 0.9-4.3 1.3-2.5 3.5-4.5 6-5.8z"/>
			</g>
			<g id="&lt;Group&gt;">
				<path id="&lt;Path&gt;" class="s6" d="m143.9 667.2l5.6-5-4.7 5.9z"/>
			</g>
			<g id="&lt;Group&gt;">
				<path id="&lt;Path&gt;" class="s6" d="m188.6 580.4c-1.1 1.4-2.6 2.3-4.2 2.8-1.7 0.5-3.5 0.6-5.1-0.1 1.7-0.4 3.2-0.6 4.7-1.1 1.5-0.5 2.9-1 4.6-1.6z"/>
			</g>
			<g id="&lt;Group&gt;">
				<path id="&lt;Path&gt;" class="s6" d="m209.6 543.3c0.6-2.2 1.6-4.3 3.1-6.2 1.4-1.8 3.3-3.4 5.7-4.1 2.3-0.6 4.9-0.5 7.1 0.5 2.3 1.2 3.6 3.6 4 6 0.4 2.4 0.1 4.8-0.6 7.1-0.7 2.2-1.7 4.4-3.6 6.1-0.4 0.4-1 0.7-1.5 1-0.5 0.3-1.2 0.5-1.7 0.6q-1.8 0.2-3.5 0.1c-2.4-0.1-4.7-0.8-6.5-2.4 1.9 1.3 4.2 1.8 6.5 1.8q1.7 0 3.3-0.3c0.6-0.2 1-0.3 1.5-0.6 0.4-0.3 0.9-0.5 1.3-1 1.5-1.5 2.5-3.5 3.1-5.7 0.6-2.1 0.8-4.4 0.5-6.5-0.4-2.1-1.5-4.1-3.3-5.1-1.9-1-4.2-1.1-6.3-0.6-2.2 0.4-4.1 1.8-5.5 3.5-1.6 1.7-2.7 3.7-3.6 5.8z"/>
			</g>
			<g id="&lt;Group&gt;">
				<path id="&lt;Path&gt;" class="s6" d="m223.3 539.5c-2.3 0.1-4.5 0.7-6.3 1.8-0.9 0.6-1.8 1.3-2.4 2.1-0.7 0.8-1.3 1.7-1.8 2.7l-0.6-0.9c0.7 0 1.4 0 2.2 0.1 0.7 0.2 1.5 0.3 2.2 0.9 0.3 0.4 0.4 0.9 0.3 1.4q-0.2 0.6-0.6 1c-0.5 0.5-1.2 0.9-1.9 1 0.7-0.3 1.2-0.8 1.5-1.3 0.2-0.3 0.3-0.6 0.3-0.9q0-0.3-0.2-0.6c-0.4-0.3-1.1-0.3-1.7-0.4-0.7 0-1.4 0-2 0l-1.1 0.1 0.5-0.9c0.5-1.1 1.1-2.2 1.9-3 0.8-1 1.8-1.7 2.8-2.3 1.1-0.5 2.3-0.9 3.4-1 1.2-0.1 2.4-0.1 3.5 0.2z"/>
			</g>
			<path id="&lt;Path&gt;" class="s3" d="m171.4 546.2c0 0-4.5-2.9-5.9-1.7-1.5 1.2 2.7 5.6 4.7 6.8"/>
			<g id="&lt;Group&gt;">
				<path id="&lt;Path&gt;" class="s6" d="m171.4 546.2c-1.2-0.5-2.4-0.9-3.6-1.2-0.5-0.1-1.1-0.2-1.6-0.1-0.4 0.1-0.4 0.1-0.3 0.6 0.2 1 1.1 2 1.8 3 0.8 0.9 1.6 1.9 2.5 2.8-1.2-0.5-2.3-1.3-3.2-2.1-1-1-1.9-1.9-2.4-3.4-0.1-0.4-0.1-0.9 0.2-1.4 0.3-0.5 0.8-0.7 1.2-0.7 0.9-0.1 1.5 0.1 2.2 0.4 1.2 0.5 2.3 1.2 3.2 2.1z"/>
			</g>
			<path id="&lt;Path&gt;" class="s4" d="m177.1 546.8c-1.2 0-2.2-1.3-2.2-2.8 0-1.6 1-2.8 2.2-2.8 1.2 0 2.2 1.2 2.2 2.8 0 1.5-1 2.8-2.2 2.8z"/>
			<path id="&lt;Path&gt;" class="s7" d="m170.3 571.8c-3.3 0-5.9-3.7-5.9-8.3 0-4.6 2.6-8.3 5.9-8.3 3.2 0 5.8 3.7 5.8 8.3 0 4.6-2.6 8.3-5.8 8.3z"/>
			<path id="&lt;Path&gt;" class="s5" d="m168.8 562.6c0 0-5.5-5.7-8.2-4.7-2.6 0.9-4.6 5.4-1.2 6.7 3.5 1.3 8.9 0.5 8.9 0.5 0 0 1.4-1.7 0.5-2.5z"/>
			<g id="&lt;Group&gt;">
				<path id="&lt;Path&gt;" class="s8" d="m188.6 502q-2.8 1.7-5.3 3.7c-1.6 1.4-3.1 2.8-4.4 4.5-0.7 0.8-1.1 1.7-1.9 2.6-0.4 0.5-0.8 1-1.6 1.3-0.4 0.2-1 0.2-1.5-0.1-0.5-0.2-0.7-0.6-0.9-0.9-0.6-1.4-0.5-2.6-0.3-3.8 0.2-1.2 0.7-2.4 1.6-3.3l1.2 1.2c-0.8 0.7-1.6 1.3-2.5 1.7-0.9 0.5-2 0.9-3.2 0.8-1.1 0-2.4-0.9-2.6-2.1-0.3-1.1 0-2.3 0.8-3.1l0.5 0.6c-0.6 0.3-1.2 0.7-1.9 1-0.4 0.1-0.8 0.2-1.2 0.1-0.4-0.3-0.3-0.8-0.2-1.1-0.1 0.3 0 0.8 0.3 0.8 0.3 0.1 0.6-0.1 0.9-0.2 0.6-0.3 1.1-0.8 1.7-1.3l2.4-2-1.9 2.6c-0.5 0.6-0.6 1.6-0.3 2.3 0.2 0.7 0.9 1 1.6 1 0.8 0 1.6-0.3 2.3-0.8 0.8-0.4 1.5-1 2.2-1.6l1.2 1.3c-1.2 1.2-1.6 3.6-1 5 0 0.1 0.1 0.2 0.1 0.2 0 0 0 0 0.1 0 0.2-0.1 0.6-0.4 0.9-0.7 0.6-0.7 1.2-1.7 2-2.5 1.4-1.7 3.2-3.1 5-4.3 1.9-1.2 3.8-2.2 5.9-2.9z"/>
			</g>
			<path id="&lt;Path&gt;" class="s8" d="m174.9 532.5c0 0 6-9 10.9 1.9"/>
			<path id="&lt;Path&gt;" class="s8" d="m169.1 532.7c0 0-4.8-9.6-8.5 0.4"/>
			<g id="&lt;Group&gt;">
				<path id="&lt;Path&gt;" class="s2" d="m150.8 635.4q-0.1 2-0.9 3.8c-0.5 1.2-1.1 2.5-2.4 3.4q-0.3 0.1-0.6 0.2-0.3 0.1-0.7 0.1c-0.5 0-1.1-0.4-1.2-0.8-0.5-0.7-0.5-1.4-0.5-2.1 0-1.4 0.3-2.7 1-3.8-0.2 1.2-0.2 2.5 0 3.7 0.1 0.6 0.2 1.2 0.5 1.5 0.1 0.2 0.2 0.2 0.3 0.2 0.1 0.1 0.3 0 0.5-0.2 0.9-0.5 1.6-1.6 2.2-2.6q1-1.7 1.8-3.4z"/>
			</g>
		</g>
	</g>
</svg>