<svg version="1.2" xmlns="http://www.w3.org/2000/svg" viewBox="0 0 370 700" width="370" height="700">
	<title>3296433-ai</title>
	<style>
		.s0 { fill: #dbdbdb } 
		.s1 { fill: #292a49 } 
		.s2 { fill: #6aaa98 } 
		.s3 { fill: #ffffff } 
		.s4 { fill: #774cbe } 
		.s5 { fill: #fccb9a } 
		.s6 { fill: #f9914b } 
		.s7 { fill: #13152b } 
		.s8 { fill: #eaa15e } 
	</style>
	<path id="&lt;Path&gt;" class="s0" d="m184.7 693.2c-53.2 0-96.1-4.3-96.1-9.5 0-5.3 42.9-9.6 96.1-9.6 53.1 0 96 4.3 96 9.6 0 5.2-42.9 9.5-96 9.5z"/>
	<g id="OBJECTS">
		<g id="&lt;Group&gt;">
			<path id="&lt;Path&gt;" class="s1" d="m217.9 667.4c0 0 48.7 12.9 54.5 19.1 5.8 6.1-76.6-4.3-76.6-4.3l3.5-7.8"/>
			<path id="&lt;Path&gt;" class="s1" d="m141.4 660.9c-0.9 0.1-41.5 11.7-47.4 16.4-6 4.7 61.9 4.9 61.9 4.9l1.6-10.6"/>
			<path id="&lt;Path&gt;" class="s2" d="m160.4 466.1c-0.5 0.9-14.7 177.2-14.7 177.2 0 0-12.1 0.5-4.3 9.9-2.6 4.4-6.3 6.9 0 12.3 6.2 5.4 15.6 14 15.6 14 0 0 6.4-9.9 3.4-18.6 9.9 5.6 6-2.3 0.8-9.7 6.6-18.7 6.1-47.2 10.6-73.3 4.4-26.2 16.7-87.6 16.7-87.6l29.4-10.5c0 0-8.7 88.2-9.7 107.9-1 19.7-7.6 77.8-7.6 77.8 0 0-10.1 13.8-5.7 14-0.5 5.7 23-9.4 23-9.4 0 0 12.1-6.2 0-7.4 2.1-8 28.2-183 30.7-193.6 2.5-10.5-19.4-24.9-19.4-24.9"/>
			<path id="&lt;Path&gt;" class="s3" d="m227.9 242.5l-44 2.8-42.5 192 2.6 29.3c0 0 74.8 7.8 95.8-3.9 21-11.6 23.1-81.9 23.1-81.9z"/>
			<path id="&lt;Path&gt;" class="s4" d="m127.5 469.8l1.4 10c0 0 38.7 12.2 73.8 6.6l2-9.4-31.9-15.4z"/>
			<path id="&lt;Path&gt;" class="s4" d="m224.8 475.1v9.9c0 0 30.5-3.2 44.8-7.7 2.9-11.5 2.8-19.6 2.8-19.6z"/>
			<path id="&lt;Path&gt;" class="s1" d="m201.1 223c0 0-40.4 10.8-82 72.9-41.6 62-42.8 100.8-34.4 122 8.4 21.2 42 38 42 38 0 0-0.8 7.5 0.8 13.9 0 0 60 16.3 77.2 7.2 0 0 19.9-68.2 10.8-146.1-9.2-77.8-17.2-97.5-17.2-97.5"/>
			<path id="&lt;Path&gt;" class="s1" d="m210.7 227c0 0 66.5 33.7 84.9 110.1 18.4 76.4 9.2 110.6-18.8 124.5-3.2 5.5-13.9 8.7-13.9 8.7 0 0-22.9 8.8-38.1 4.8 8.4-33.2 12.4-162.1-5.8-226.3"/>
			<path id="&lt;Path&gt;" class="s5" d="m243.9 99.1c0 0 23.4 30.3 18.3 63.3-5.1 33-27.7 45.7-27.7 45.7l-24.9-11.1 9.4 51.8c0 0 0.8 14.7-19.3 0l-11.7-85.4-8.6-35.3 14.4-25.4z"/>
			<path id="&lt;Path&gt;" class="s6" d="m183.3 148.4l13.9-6.2 1.6-36.8c0 0 47-3.9 57.6-6.3 10.7-2.3 14.1-5.1-12.9-3.9 17.1-6.3 22-8.1 6.7-9.3-15.3-1.1-25.5 4.9-30.5 6.7 12-8.5 25.9-13.8 13.4-12.4-12.5 1.3-28 11.8-28.5 11.1-0.5-0.7 17.1-11.1-3.5-4-20.6 7.2-30.3 21.5-30.3 21.5l8.6 37.8"/>
			<path id="&lt;Path&gt;" class="s5" d="m187.5 147.4c0 0-9.9-10.9-16-1-6.1 9.9 4.6 26.7 18.3 19.8"/>
			<path id="&lt;Path&gt;" class="s4" d="m194.3 209.4c0 0-14.6 8-13.4 23.3 1.1 15.3 12.9 33.9 26.9 42.9-3-23.4-11.1-48.6-11.1-48.6z"/>
			<path id="&lt;Path&gt;" class="s4" d="m219 249.4c0 0 4.8 15.8 5.5 24.4 6.4-8.4 10.3-32.4 2.8-45.4-7.5-12.9-15.5-19-15.5-19z"/>
			<g id="&lt;Group&gt;">
				<path id="&lt;Compound Path&gt;" class="s4" d="m190.2 308.8l-1.1 0.5v9.3q0 1.9 1.6 1.9 1.6 0 1.6-1.9v-9.3l-1.1-0.5v-4.9h9.4v4.9l-1.8 0.5v8.5q0 4.1-2.1 6-2 2-5.7 2h-0.6q-3.6 0-5.7-2-2.1-1.9-2.1-6v-8.5l-1.8-0.5v-4.9h9.4z"/>
			</g>
			<g id="&lt;Group&gt;">
				<path id="&lt;Path&gt;" class="s7" d="m254.2 291.3c7 13 12.6 26.6 17.6 40.5 2.5 7 4.6 14 6.5 21.2q2.9 10.6 5 21.5c1.3 7.3 2.4 14.6 2.9 22 0.6 7.4 1 14.8 0.5 22.2-0.4 7.4-1.2 14.7-2.8 22-1.7 7.2-4 14.2-7.1 20.9 5.2-13.8 7.6-28.4 7.9-43 0.3-14.6-1.1-29.2-3.9-43.6-2.5-14.4-6.5-28.6-10.9-42.6q-3.3-10.4-7.3-20.7-3.9-10.3-8.4-20.4z"/>
			</g>
			<path id="&lt;Path&gt;" class="s4" d="m157.4 422.1l6.2 5.4c0 0-3.7 22.4-22.2 30.2l-8.3-5.9c0 0 21.8-15.2 24.3-29.7z"/>
			<g id="&lt;Group&gt;">
				<path id="&lt;Path&gt;" class="s7" d="m166.1 296.8c-5.1 13.4-10.3 26.7-15.5 40.1-5.2 13.3-10.7 26.6-16 39.9l-0.7-1.2c1.3 0.1 2.6 0.2 4 0.5 0.6 0.2 1.3 0.4 2 0.7 0.4 0.2 0.7 0.4 1.1 0.8 0.4 0.4 0.6 1.3 0.3 1.8-0.4 1-1.1 1.4-1.7 1.8-0.6 0.4-1.2 0.7-1.8 1-1.2 0.6-2.4 1.1-3.7 1.5l0.4-1.4c5.1 6 10.7 11.5 16 17.4 2.6 3 5.1 6.2 6.8 9.9 0.5 0.9 0.7 1.9 1 2.9 0.3 1 0.4 2 0.6 3-0.1 1.1 0 2.1-0.1 3.1-0.2 1-0.3 2-0.6 3-1 3.9-2.9 7.5-5.1 10.8-2.2 3.4-4.8 6.4-7.5 9.3-5.7 5.5-12 10.4-18.9 14.2 6.7-4.2 12.9-9.2 18.2-14.9 2.7-2.8 5.2-5.9 7.2-9.2 2.1-3.2 3.9-6.8 4.8-10.5 0.3-0.9 0.3-1.9 0.4-2.8 0.2-1 0-1.9 0.1-2.9-0.2-0.9-0.3-1.8-0.6-2.7-0.3-0.9-0.5-1.8-0.9-2.7-1.6-3.4-4.1-6.5-6.7-9.4-5.2-5.8-10.9-11.3-16.1-17.3l-0.8-1 1.2-0.5q1.8-0.6 3.5-1.4c0.6-0.3 1.1-0.6 1.6-0.9 0.5-0.3 1-0.8 1-0.9 0-0.1 0.1 0 0-0.1-0.1 0-0.3-0.2-0.5-0.3-0.5-0.2-1-0.4-1.6-0.5-1.2-0.3-2.5-0.5-3.7-0.6l-1.3-0.1 0.5-1.1c5.4-13.2 10.8-26.5 16.4-39.7 5.5-13.2 11.1-26.4 16.7-39.6z"/>
			</g>
			<g id="&lt;Group&gt;">
				<path id="&lt;Path&gt;" class="s7" d="m180.8 417.2c-2.6-1.4-5.1-2.9-7.6-4.3l0.6-0.2c-1.6 4.6-3.4 9.1-5.3 13.6q-2.9 6.8-6.3 13.3c-2.3 4.3-4.7 8.5-7.6 12.5-1.4 2-3 4-4.8 5.7-1.7 1.7-3.7 3.4-6.1 4.2v-0.8c3.2 1.6 6.4 3.2 9.6 4.9-3.4-1.3-6.7-2.7-10-4.1l-1-0.4 1.1-0.5c2.1-0.8 3.9-2.5 5.5-4.2 1.6-1.8 3-3.7 4.4-5.7 2.6-4 5-8.2 7.3-12.5 2.3-4.3 4.4-8.6 6.4-13q3.2-6.6 6-13.3l0.2-0.5 0.4 0.3c2.4 1.7 4.8 3.3 7.2 5z"/>
			</g>
			<g id="&lt;Group&gt;">
				<path id="&lt;Path&gt;" class="s7" d="m262.9 418q1.7-1.5 3.4-3 1.7-1.5 3.4-2.9l0.6-0.4 0.2 0.7c1.1 2.9 2.1 5.8 2.9 8.7 0.9 3 1.7 5.9 2.5 8.9 0.7 3 1.4 6 2 9 0.6 3 1 6.1 1.4 9.2v0.2l-0.1 0.1q-1.1 1.8-2.4 3.4-0.6 0.9-1.4 1.6-0.4 0.4-0.8 0.7c-0.3 0.1-0.7 0.4-1 0.2 0.3 0.1 0.6-0.2 0.9-0.4 0.2-0.2 0.5-0.5 0.7-0.7q0.6-0.8 1.1-1.7c0.8-1.2 1.4-2.4 2-3.6v0.3c-0.6-3-1.3-6-2-8.9q-1-4.5-2.2-8.9l-4.6-17.8 0.9 0.3q-1.9 1.3-3.7 2.5-1.9 1.3-3.8 2.5z"/>
			</g>
			<path id="&lt;Path&gt;" class="s4" d="m233.7 308.5c-1.2 0-2.3-1-2.3-2.3 0-1.2 1.1-2.3 2.3-2.3 1.3 0 2.3 1.1 2.3 2.3 0 1.3-1 2.3-2.3 2.3z"/>
			<path id="&lt;Path&gt;" class="s4" d="m238.4 346.4c-1.3 0-2.3-1-2.3-2.3 0-1.3 1-2.3 2.3-2.3 1.2 0 2.3 1 2.3 2.3 0 1.3-1.1 2.3-2.3 2.3z"/>
			<path id="&lt;Path&gt;" class="s4" d="m238.4 387.4c-1.3 0-2.3-1-2.3-2.3 0-1.2 1-2.3 2.3-2.3 1.2 0 2.3 1.1 2.3 2.3 0 1.3-1.1 2.3-2.3 2.3z"/>
			<path id="&lt;Path&gt;" class="s4" d="m236.1 430.5c-1.3 0-2.3-1.1-2.3-2.3 0-1.3 1-2.3 2.3-2.3 1.2 0 2.3 1 2.3 2.3 0 1.2-1.1 2.3-2.3 2.3z"/>
			<path id="&lt;Path&gt;" class="s1" d="m285.8 382.8l-11.9 27.2v8.8l6 20.5-1.1 17.3c0 0 9.2-1.2 14.1-14 5-12.8 5-50.1 5-50.1"/>
			<g id="&lt;Group&gt;">
				<path id="&lt;Path&gt;" class="s7" d="m285.8 382.8c-0.5 2.5-1.2 4.9-2 7.2-0.8 2.4-1.8 4.7-2.8 6.9-1 2.3-2 4.5-3.2 6.7-1.2 2.2-2.4 4.3-3.9 6.4 0.5-2.5 1.2-4.9 2-7.2 0.9-2.4 1.8-4.6 2.8-6.9 1-2.3 2-4.5 3.2-6.7 1.2-2.2 2.5-4.3 3.9-6.4z"/>
			</g>
			<g id="&lt;Group&gt;">
				<g id="&lt;Group&gt;">
					<path id="&lt;Path&gt;" class="s8" d="m244.4 140.2c0.3 3.6 0.5 7.1 0.6 10.6 0.2 3.6 0.3 7.1 0.3 10.6l-1.1-0.8c2.2-0.4 4.4-0.6 6.7-0.5q0.8 0.1 1.7 0.3 0.3 0.1 0.5 0.2h0.2q0.2 0.1 0.3 0.2c0.3 0.2 0.5 0.5 0.6 0.9 0.1 0.3 0 0.6-0.1 0.8-0.3 0.8-0.7 1.2-1.2 1.6q-0.6 0.6-1.3 1.1c-1.8 1.2-3.8 2.2-5.8 3.1-2 0.8-4.1 1.5-6.2 1.8 2-0.7 3.9-1.6 5.8-2.7 1.9-1 3.7-2.1 5.3-3.4q0.6-0.5 1.1-1c0.4-0.4 0.7-0.8 0.8-1 0-0.1-0.1 0 0 0 0 0.1 0 0.2 0.1 0.2l-0.5-0.1q-0.7-0.1-1.5-0.2c-2-0.1-4.1 0.1-6.2 0.4l-1 0.2v-1.1c0-3.5 0.1-7 0.2-10.6 0.2-3.5 0.3-7 0.7-10.6z"/>
				</g>
				<g id="&lt;Group&gt;">
					<path id="&lt;Path&gt;" class="s8" d="m237.7 179.5c-2-0.1-4-0.5-5.9-1q-2.9-0.7-5.7-1.8c-1.8-0.8-3.6-1.6-5.3-2.7-1.7-1.1-3.4-2.3-4.6-3.9 3.5 2 7 3.4 10.6 4.9 3.6 1.5 7.2 2.8 10.9 4.5z"/>
				</g>
				<g id="&lt;Group&gt;">
					<path id="&lt;Path&gt;" class="s8" d="m173.4 148.4c1.4-0.6 2.9-0.7 4.4-0.5 1.5 0.2 3 0.8 4.3 1.5 1.3 0.8 2.4 1.8 3.5 2.9 0.5 0.6 0.9 1.2 1.4 1.8q0.6 0.9 1.2 1.9l0.6 1.1-1.3 0.1c-0.6 0.1-1.3 0.2-2 0.4-0.2 0.1-0.6 0.2-0.7 0.3-0.2 0.1-0.2 0.1-0.2 0.4 0.1 0.4 0.6 1 1.1 1.5q0.8 0.7 1.7 1.4-1-0.4-2.1-0.9c-0.6-0.4-1.3-0.8-1.8-1.7 0-0.2-0.1-0.6 0-0.9 0-0.3 0.2-0.6 0.4-0.7 0.4-0.5 0.7-0.6 1.1-0.8 0.8-0.3 1.6-0.5 2.3-0.6l-0.6 1.2q-0.6-0.8-1.2-1.7c-0.4-0.5-0.8-1.1-1.3-1.6q-1.3-1.5-3-2.7c-2.2-1.5-4.9-2.5-7.8-2.4z"/>
				</g>
			</g>
			<path id="&lt;Path&gt;" class="s1" d="m237.2 146.7c-1.2 0-2.3-1.4-2.3-3.2 0-1.8 1.1-3.3 2.3-3.3 1.3 0 2.4 1.5 2.4 3.3 0 1.8-1.1 3.2-2.4 3.2z"/>
			<path id="&lt;Path&gt;" class="s1" d="m251.1 146.7c-1.3 0-2.3-1.4-2.3-3.2 0-1.8 1-3.3 2.3-3.3 1.3 0 2.3 1.5 2.3 3.3 0 1.8-1 3.2-2.3 3.2z"/>
			<path id="&lt;Path&gt;" class="s6" d="m241.2 132.3c0 0-7.1-13.7-15.9 0.8"/>
			<path id="&lt;Path&gt;" class="s6" d="m247.5 133.1c0 0 6-11.7 11.1 1.2"/>
		</g>
	</g>
</svg>