<svg version="1.2" xmlns="http://www.w3.org/2000/svg" viewBox="0 0 320 700" width="320" height="700">
	<title>8440513-ai</title>
	<style>
		.s0 { fill: #e06a43 } 
		.s1 { fill: #e79e73 } 
		.s2 { fill: #2b3448 } 
		.s3 { fill: #df895d } 
	</style>
	<g id="masculino">
		<g id="&lt;Group&gt;">
			<g id="&lt;Group&gt;">
				<path id="&lt;Path&gt;" class="s0" d="m216.4 334.3c-39.4-0.9-55.5 29-55.5 29-3.2 1.3-6.5 0-6.5 0 0 0-14.8-28.9-55.6-28.8 0.3-12.9 0.9-22.9 1.4-27 0 0 13.5 6.9 55.4 6.9 41.9 0 59.5-6.9 59.5-6.9 0.5 4.1 1.1 14 1.3 26.8z"/>
			</g>
			<g id="&lt;Group&gt;">
				<path id="&lt;Path&gt;" class="s0" d="m176.5 96.9l0.7 6.2h-0.1c-13.6 18.5-40.4 14.4-40.4 14.4l1.9-19.2c4.1 4.7 9.2 9.1 10.9 10.2 2.7 1.6 7.4 1.8 7.4 1.8 0 0 4.8-0.2 7.5-1.8 1.8-1.2 7.9-6.5 12.1-11.6z"/>
			</g>
			<g id="&lt;Group&gt;">
				<path id="&lt;Path&gt;" class="s1" d="m230.7 663.9c0 0 10 4.3 4.6 10.2 0 0-2.4 3.6-7.4 4-3.9 0.4-13.4 0.9-17.3 1.1-1.1 0.1-2.3-0.2-3.2-0.8l-10.7-6.4c0 0-9.9-2.9-11.6-5.4-1.8-2.6 3-26 3-26 0 0-1.3-4.3 0.2-12.5l-20-136.4c0 0-1.7-12.3-1.8-18.5-0.1-6.1-5.6-109.9-5.6-109.9 0 0 16.1-29.9 55.5-29 0.5 21.1 0 50.2-3.4 73.9-5.4 38.2-6.2 88.6-6.2 88.6 0 0 7.4 36.2 6.4 49.4-1 13.2-2 92.2-2.3 96.3 0 0 8.5 14.4 19.8 21.4z"/>
			</g>
			<g id="&lt;Group&gt;">
				<path id="&lt;Path&gt;" class="s1" d="m154.4 363.3c0 0-5.5 103.8-5.6 109.9-0.2 6.2-1.8 18.5-1.8 18.5l-20.1 136.4c1.6 8.2 0.2 12.5 0.2 12.5 0 0 4.8 23.4 3.1 26-1.7 2.5-11.7 5.4-11.7 5.4l-10.6 6.4c-1 0.6-2.1 0.9-3.2 0.8-3.9-0.2-13.4-0.7-17.4-1.1-5-0.4-7.3-4-7.3-4-5.5-5.9 4.5-10.2 4.5-10.2 11.4-7 19.9-21.4 19.9-21.4-0.3-4.1-1.4-83.1-2.3-96.3-1-13.2 6.3-49.4 6.3-49.4 0 0-0.7-50.4-6.1-88.6-3.4-23.7-3.9-52.6-3.5-73.7 40.8-0.1 55.6 28.8 55.6 28.8z"/>
			</g>
			<g id="&lt;Group&gt;">
				<path id="&lt;Path&gt;" class="s1" d="m264.1 351.5c0 0 3.7 32.3 2.7 35.2-1 2.8-3.1 5-3.1 5 0 0-0.1 3.8-0.3 5-0.3 1.1-3.8 4.3-3.8 4.3 0 0-1.7 2.5-4.5 3.8-2.7 1.2-9 3.6-9 3.6l-6.5 5c0 0-4-1.1-1.8-5.2 2.2-4 5.9-9.6 5.9-9.6l1.7-19.1c0 0-2.6 0-2.6 2.7 0 2.6-0.8 11.9-1.9 13.5-1.2 1.5-5 3.7-6.7 3.2-1.7-0.6 1.9-12.4 0.5-17.1-1.4-4.7-0.1-9.3 0.5-11.1 0.6-1.7 9.1-20.8 9.1-20.8 0 0-15.9-70.1-17.2-74.2-1.3-4.1-0.7-14.4-0.7-14.4l-13.4-50.5-4.8 37.9c0 0 5.5 48 6.9 58.8 0 0-17.6 6.9-59.5 6.9-41.9 0-55.4-6.9-55.4-6.9 1.4-10.8 6.8-58.8 6.8-58.8l-4.7-37.9-13.4 50.5c0 0 0.5 10.3-0.8 14.4-1.2 4.1-17.2 74.2-17.2 74.2 0 0 8.6 19.1 9.2 20.8 0.5 1.8 1.9 6.4 0.5 11.1-1.4 4.7 2.2 16.5 0.5 17.1-1.8 0.5-5.6-1.7-6.7-3.2-1.2-1.6-1.9-10.9-1.9-13.5 0-2.7-2.6-2.7-2.6-2.7l1.7 19.1c0 0 3.6 5.6 5.9 9.6 2.2 4.1-1.8 5.2-1.8 5.2l-6.6-5c0 0-6.2-2.4-9-3.6-2.7-1.3-4.5-3.8-4.5-3.8 0 0-3.4-3.2-3.7-4.3-0.2-1.2-0.4-5-0.4-5 0 0-2-2.2-3-5-1.1-2.9 2.7-35.2 2.7-35.2 0 0 5.7-68.2 7.7-77.9 1.9-9.6 5.9-24.9 5.9-24.9 0 0 8.4-77.8 13.6-96.6 5.1-18.7 27.7-20.5 27.7-20.5l30.6-14.1c0 0 26.8 4.1 40.4-14.4h0.1l1.4 14.4 30.5 14.1c0 0 22.7 1.8 27.8 20.5 5.1 18.8 13.6 96.6 13.6 96.6 0 0 4 15.3 5.9 24.9 1.9 9.7 7.7 77.9 7.7 77.9z"/>
			</g>
			<g id="&lt;Group&gt;">
				<path id="&lt;Path&gt;" class="s1" d="m181.6 82.1c0.4-4.8 0.8-10.2 0.9-13.6 0 0 1.2-2.4 2.6-3.5 0.3-0.2 0.7-0.4 1-0.5 1.9-0.3 3.2 1.3 3.1 6.6-0.1 5.4-3.3 9.7-4.6 10.7-1.4 1-3 0.3-3 0.3z"/>
			</g>
			<g id="&lt;Group&gt;">
				<path id="&lt;Path&gt;" class="s1" d="m131.3 68.4c-0.1-2.2-0.2-3.6-0.2-3.6 0 0 0.1-6.6 2.4-14.7 2.3-8.2 7.1-10.3 9.8-10 2.6 0.4 5.6 2 13.6 2 8 0 11-1.6 13.7-2 2.6-0.3 7.4 1.8 9.7 10 2.4 8.1 2.4 14.7 2.4 14.7 0 0 0 1.4-0.2 3.7-0.1 3.4-0.5 8.8-0.9 13.6-0.4 3.3-0.8 6.4-1.3 8.2-0.5 1.9-2 4.2-3.8 6.6-4.2 5.1-10.3 10.4-12.1 11.6-2.7 1.6-7.5 1.8-7.5 1.8 0 0-4.7-0.2-7.4-1.8-1.7-1.1-6.8-5.5-10.9-10.2-2.5-2.8-4.5-5.7-5.1-8-0.5-1.8-0.9-4.9-1.2-8.2-0.5-4.8-0.8-10.2-1-13.7z"/>
			</g>
			<g id="&lt;Group&gt;">
				<path id="&lt;Path&gt;" class="s1" d="m131.3 68.4c0.2 3.5 0.5 8.9 1 13.7 0 0-1.7 0.7-3-0.3-1.4-1-4.6-5.3-4.7-10.7-0.1-5.3 1.2-6.9 3.1-6.6q0.5 0.1 1 0.5c1.3 1 2.4 3.1 2.6 3.4z"/>
			</g>
			<g id="&lt;Group&gt;">
				<path id="&lt;Path&gt;" class="s2" d="m170.8 26.1c2.1 0.7 4.4 1.6 6.6 2.8 6.3 3.7 11 11.6 9.8 18.8-0.9 5.9-1.8 14.3-2.1 17.3-1.4 1.1-2.6 3.5-2.6 3.5 0.2-2.3 0.2-3.7 0.2-3.7 0 0 0-6.6-2.4-14.7-2.3-8.2-7.1-10.3-9.7-10-2.7 0.4-5.7 2-13.7 2-8 0-11-1.6-13.6-2-2.7-0.3-7.5 1.8-9.8 10-2.3 8.1-2.4 14.7-2.4 14.7 0 0 0.1 1.4 0.2 3.6-0.2-0.3-1.3-2.4-2.6-3.4-0.3-3-1.2-11.4-2.1-17.3-1.1-7.2 3.6-15.1 9.9-18.8q0.3-0.2 0.7-0.4c0.6-1.9 1.5-3.8 2.8-5.4 1.8-2.4 4.4-4.3 7.3-5.1 3.3-0.9 6.8-0.4 10 0.8 3.2 1.1 6.1 2.9 9 4.6q2.3 1.4 4.5 2.7z"/>
			</g>
			<g id="&lt;Group&gt;">
				<path id="&lt;Path&gt;" class="s0" d="m107 249.7c-0.5 0-0.9-0.3-1-0.8-1.9-12.6-7.8-68.3-7.8-68.9-0.1-0.5 0.3-1 0.9-1.1 0.5 0 1 0.4 1.1 0.9 0 0.6 5.9 56.2 7.8 68.8 0.1 0.5-0.3 1-0.8 1.1q-0.1 0-0.2 0z"/>
			</g>
			<g id="&lt;Group&gt;">
				<path id="&lt;Path&gt;" class="s0" d="m101.8 205.8c-0.3 0-0.6-0.2-0.8-0.5l-9.4-16c-0.3-0.5-0.1-1.1 0.3-1.4 0.5-0.2 1.1-0.1 1.4 0.4l9.4 16c0.3 0.4 0.1 1.1-0.4 1.3q-0.2 0.2-0.5 0.2z"/>
			</g>
			<g id="&lt;Group&gt;">
				<path id="&lt;Path&gt;" class="s0" d="m195.1 217q-0.1 0-0.2-0.1c-28.2-5.6-77.9 0-78.4 0.1-0.5 0-1-0.4-1.1-0.9-0.1-0.6 0.3-1.1 0.9-1.1 0.5-0.1 50.5-5.8 79 0 0.6 0.1 0.9 0.6 0.8 1.2-0.1 0.4-0.5 0.8-1 0.8z"/>
			</g>
			<g id="&lt;Group&gt;">
				<path id="&lt;Path&gt;" class="s0" d="m158.3 276.2q-0.1 0-0.1 0c-2-0.3-3.8-1.3-5.2-2.6-0.4-0.4-0.4-1.1 0-1.4 0.4-0.4 1-0.4 1.4 0 1.1 1 2.6 1.8 4.1 2 0.5 0.1 0.9 0.7 0.8 1.2-0.1 0.5-0.5 0.8-1 0.8z"/>
			</g>
			<g id="&lt;Group&gt;">
				<path id="&lt;Path&gt;" class="s0" d="m69.1 409.4c-0.3 0-0.6-0.2-0.8-0.5-0.9-1.3-5.7-8-5.8-10.7-0.1-1.9-1.8-11.4-2.7-16.1-0.1-0.6 0.3-1.1 0.8-1.2 0.5-0.1 1.1 0.3 1.2 0.8 0.1 0.6 2.6 13.9 2.7 16.4 0 1.5 3.2 6.6 5.4 9.7 0.4 0.4 0.3 1.1-0.2 1.4q-0.3 0.2-0.6 0.2z"/>
			</g>
			<g id="&lt;Group&gt;">
				<path id="&lt;Path&gt;" class="s0" d="m56.7 403.3c-0.3 0-0.6-0.1-0.8-0.4-2.7-3.7-2-16.7-2-18.2 0.1-0.6 0.5-1 1.1-1 0.5 0.1 1 0.5 0.9 1.1-0.2 3.8-0.3 14.3 1.6 16.9 0.4 0.5 0.3 1.1-0.2 1.4q-0.2 0.2-0.6 0.2z"/>
			</g>
			<g id="&lt;Group&gt;">
				<path id="&lt;Path&gt;" class="s0" d="m51.5 392.7c-0.5 0-0.9-0.4-1-1l-0.6-7.9c0-0.5 0.4-1 0.9-1 0.6-0.1 1 0.3 1.1 0.9l0.6 7.9c0.1 0.5-0.3 1-0.9 1.1q0 0-0.1 0z"/>
			</g>
			<g id="&lt;Group&gt;">
				<path id="&lt;Path&gt;" class="s0" d="m132.1 498.6c-6.8 0-11.1-5.7-11.2-5.8-0.3-0.4-0.2-1 0.2-1.4 0.5-0.3 1.1-0.2 1.4 0.2 0.3 0.4 6 7.9 14.6 3.8 0.5-0.3 1.1-0.1 1.3 0.4 0.3 0.5 0.1 1.1-0.4 1.4-2.2 1-4.1 1.4-5.9 1.4z"/>
			</g>
			<g id="&lt;Group&gt;">
				<path id="&lt;Path&gt;" class="s0" d="m123.3 641.2q-0.4 0-0.7-0.3c-1.7-1.5-2.7-3.8-2.8-6.1 0-0.5 0.4-1 0.9-1 0.6 0 1.1 0.4 1.1 1 0 1.7 0.8 3.5 2.1 4.6 0.5 0.4 0.5 1 0.1 1.4-0.2 0.3-0.4 0.4-0.7 0.4z"/>
			</g>
			<g id="&lt;Group&gt;">
				<path id="&lt;Path&gt;" class="s0" d="m207.9 249.9q-0.1 0-0.2 0c-0.5-0.1-0.9-0.6-0.8-1.1 1.9-12.6 7.7-68.2 7.8-68.8 0.1-0.5 0.5-0.9 1.1-0.9 0.6 0.1 1 0.6 0.9 1.1-0.1 0.6-5.9 56.3-7.9 68.9 0 0.5-0.5 0.8-0.9 0.8z"/>
			</g>
			<g id="&lt;Group&gt;">
				<path id="&lt;Path&gt;" class="s0" d="m213 206q-0.2 0-0.5-0.2c-0.4-0.2-0.6-0.9-0.3-1.3l9.4-16c0.3-0.5 0.9-0.6 1.3-0.4 0.5 0.3 0.7 0.9 0.4 1.4l-9.4 16c-0.2 0.3-0.5 0.5-0.9 0.5z"/>
			</g>
			<g id="&lt;Group&gt;">
				<path id="&lt;Path&gt;" class="s0" d="m245.8 409.6q-0.4 0-0.6-0.2c-0.5-0.3-0.6-1-0.3-1.4 2.3-3.1 5.4-8.2 5.5-9.7 0.1-2.5 2.6-15.8 2.7-16.4 0.1-0.5 0.6-0.9 1.2-0.8 0.5 0.1 0.9 0.6 0.8 1.2-0.9 4.7-2.6 14.2-2.7 16.1-0.1 2.7-4.9 9.4-5.8 10.7-0.2 0.3-0.5 0.5-0.8 0.5z"/>
			</g>
			<g id="&lt;Group&gt;">
				<path id="&lt;Path&gt;" class="s0" d="m258.1 403.5q-0.3 0-0.6-0.2c-0.4-0.3-0.5-0.9-0.2-1.4 2-2.6 1.9-13.1 1.6-16.9 0-0.6 0.4-1 1-1.1 0.5 0 1 0.4 1 1 0.1 1.5 0.8 14.5-2 18.2-0.2 0.3-0.5 0.4-0.8 0.4z"/>
			</g>
			<g id="&lt;Group&gt;">
				<path id="&lt;Path&gt;" class="s0" d="m263.4 392.9q-0.1 0-0.1 0c-0.6-0.1-1-0.6-0.9-1.1l0.6-7.9c0-0.6 0.5-1 1.1-0.9 0.5 0 0.9 0.5 0.9 1l-0.6 7.9c-0.1 0.6-0.5 1-1 1z"/>
			</g>
			<g id="&lt;Group&gt;">
				<path id="&lt;Path&gt;" class="s0" d="m182.8 498.8c-1.8 0-3.8-0.4-5.9-1.4-0.5-0.3-0.7-0.9-0.4-1.4 0.2-0.5 0.8-0.7 1.3-0.4 8.6 4.1 14.3-3.4 14.6-3.8 0.3-0.4 0.9-0.5 1.4-0.2 0.4 0.4 0.5 1 0.2 1.4-0.1 0.1-4.4 5.8-11.2 5.8z"/>
			</g>
			<g id="&lt;Group&gt;">
				<path id="&lt;Path&gt;" class="s0" d="m191.6 641.4c-0.3 0-0.5-0.1-0.7-0.4-0.4-0.4-0.4-1 0-1.4 1.3-1.1 2.2-2.9 2.2-4.6 0-0.6 0.6-1 1-1 0.6 0 1 0.5 1 1-0.1 2.3-1.1 4.6-2.8 6.1q-0.3 0.3-0.7 0.3z"/>
			</g>
			<g id="&lt;Group&gt;">
				<path id="&lt;Path&gt;" class="s0" d="m122.7 197.7c0 1.8-2 3.2-4.6 3.2-2.6 0-4.7-1.4-4.7-3.2 0-1.8 2.1-3.2 4.7-3.2 2.6 0 4.6 1.4 4.6 3.2z"/>
			</g>
			<g id="&lt;Group&gt;">
				<path id="&lt;Path&gt;" class="s0" d="m196.3 197.7c0 1.8-2.1 3.2-4.7 3.2-2.6 0-4.7-1.4-4.7-3.2 0-1.8 2.1-3.2 4.7-3.2 2.6 0 4.7 1.4 4.7 3.2z"/>
			</g>
			<g id="&lt;Group&gt;">
				<path id="&lt;Path&gt;" class="s0" d="m100.7 680q-0.4 0-0.6-0.2c-1.9-1.6-3-4-2.9-6.4 0.1-2.5 1.3-4.8 3.2-6.2 0.5-0.4 1.1-0.3 1.4 0.2 0.4 0.4 0.3 1-0.2 1.4-1.4 1-2.4 2.8-2.4 4.6-0.1 1.8 0.8 3.7 2.1 4.8 0.5 0.4 0.5 1 0.2 1.5-0.2 0.2-0.5 0.3-0.8 0.3z"/>
			</g>
			<g id="&lt;Group&gt;">
				<path id="&lt;Path&gt;" class="s0" d="m93 679.2c-0.3 0-0.6-0.1-0.8-0.4-1.1-1.3-1.6-3.1-1.4-4.8 0.2-1.7 1.1-3.3 2.5-4.4 0.4-0.3 1.1-0.2 1.4 0.2 0.3 0.5 0.2 1.1-0.2 1.4-0.9 0.7-1.6 1.9-1.7 3-0.2 1.2 0.2 2.4 0.9 3.4 0.4 0.4 0.3 1-0.1 1.4q-0.3 0.2-0.6 0.2z"/>
			</g>
			<g id="&lt;Group&gt;">
				<path id="&lt;Path&gt;" class="s0" d="m88.6 678.8q-0.2 0-0.5-0.2c-1.2-0.7-2-2.1-2.2-3.7-0.1-1.5 0.2-3 0.5-4 0.1-0.2 0.2-0.6 0.5-0.9 0.4-0.5 1-0.7 1.5-0.6 0.6 0.1 0.9 0.6 0.9 1.1-0.1 0.5-0.5 0.8-0.9 0.9q0 0.1 0 0.1c-0.4 1.3-0.6 2.3-0.5 3.1 0.1 1 0.6 1.9 1.3 2.3 0.4 0.3 0.6 0.9 0.3 1.4-0.2 0.3-0.5 0.5-0.9 0.5z"/>
			</g>
			<g id="&lt;Group&gt;">
				<path id="&lt;Path&gt;" class="s0" d="m82 677.2c-0.4 0-0.8-0.2-0.9-0.6-0.7-1.9-0.7-4.1 0-6 0.5-1.2 1.3-1.5 1.7-1.6 0.6 0 1.1 0.4 1.1 0.9 0.1 0.6-0.3 1-0.8 1.1q0 0.1-0.1 0.4c-0.6 1.4-0.6 3.1-0.1 4.5 0.2 0.5 0 1.1-0.5 1.3q-0.2 0-0.4 0z"/>
			</g>
			<g id="&lt;Group&gt;">
				<path id="&lt;Path&gt;" class="s0" d="m215.7 679.1q-0.3 0-0.5-0.2c-0.5-0.2-0.7-0.8-0.4-1.3 0.7-1.3 0.9-2.8 0.4-4.2-0.4-1.4-1.5-2.5-2.8-3.1-0.5-0.2-0.7-0.8-0.5-1.3 0.2-0.5 0.8-0.8 1.3-0.5 1.8 0.8 3.3 2.4 3.9 4.3 0.7 1.9 0.4 4-0.5 5.8-0.2 0.3-0.6 0.5-0.9 0.5z"/>
			</g>
			<g id="&lt;Group&gt;">
				<path id="&lt;Path&gt;" class="s0" d="m220.6 679q-0.3 0-0.6-0.2c-0.4-0.3-0.5-0.9-0.1-1.4 0.7-0.9 1-2.1 0.9-3.3-0.1-1.2-0.7-2.3-1.6-3-0.5-0.4-0.5-1-0.1-1.4 0.3-0.5 0.9-0.5 1.4-0.2 1.2 1.1 2.1 2.7 2.3 4.4 0.2 1.7-0.3 3.4-1.4 4.7-0.2 0.3-0.5 0.4-0.8 0.4z"/>
			</g>
			<g id="&lt;Group&gt;">
				<path id="&lt;Path&gt;" class="s0" d="m225.5 678.4q-0.3 0-0.6-0.2c-0.4-0.3-0.5-0.9-0.2-1.4 0.6-0.7 0.8-1.7 0.7-2.6-0.1-0.9-0.5-1.8-1.2-2.4-0.5-0.3-0.5-1-0.1-1.4 0.3-0.4 1-0.4 1.4-0.1 1 1 1.7 2.3 1.9 3.7 0.2 1.4-0.2 2.9-1.1 4-0.2 0.3-0.5 0.4-0.8 0.4z"/>
			</g>
			<g id="&lt;Group&gt;">
				<path id="&lt;Path&gt;" class="s0" d="m232.7 676.4q-0.1 0-0.2-0.1c-0.6-0.1-0.9-0.6-0.8-1.1 0.3-1.7-0.7-3.5-2.3-4.1-0.5-0.2-0.7-0.8-0.5-1.3 0.2-0.5 0.8-0.8 1.3-0.6 2.4 1 3.9 3.8 3.4 6.4-0.1 0.4-0.5 0.8-0.9 0.8z"/>
			</g>
			<g id="&lt;Group&gt;">
				<path id="&lt;Path&gt;" class="s0" d="m159.2 82.8c0 0.3-0.3 0.5-0.6 0.4-1.7-0.1-6.5-0.8-6.9-2.6-0.4-1.7 3.6-9.1 5.4-12.4 0.2-0.4 1-0.3 1 0.1z"/>
			</g>
			<g id="&lt;Group&gt;">
				<path id="&lt;Path&gt;" class="s2" d="m151 68.3c-0.4 0-0.8-0.2-0.9-0.6-0.1-0.1-0.9-2.2-4.8-2.2q0 0 0 0c-4.1 0-5.4 1.7-5.4 1.8-0.3 0.4-1 0.5-1.4 0.2-0.4-0.3-0.6-0.9-0.3-1.4 0.1-0.1 1.9-2.6 7.1-2.6q0 0 0 0c5.4 0 6.6 3.4 6.7 3.5 0.1 0.5-0.1 1.1-0.7 1.3q-0.1 0-0.3 0z"/>
			</g>
			<g id="&lt;Group&gt;">
				<path id="&lt;Path&gt;" class="s2" d="m138.1 63.4c-0.3 0-0.6-0.2-0.8-0.4-0.3-0.4-0.3-1.1 0.1-1.4 1.9-1.5 4.1-2.4 6.4-2.7 2.4-0.3 4.8 0.1 6.9 1.1 0.5 0.3 0.7 0.9 0.5 1.4-0.3 0.5-0.9 0.7-1.4 0.4-1.7-0.8-3.8-1.1-5.7-0.9-2 0.2-3.9 1-5.4 2.2q-0.3 0.3-0.6 0.3z"/>
			</g>
			<g id="&lt;Group&gt;">
				<path id="&lt;Path&gt;" class="s2" d="m147 64.6c0.4 0.1 0.3 0.7 0.3 1.2 0 1.2-1 2.2-2.3 2.2-1.2 0.1-2.2-1-2.2-2.2q0-0.6 0.3-1.1c0 0 2.2-0.6 3.9-0.1z"/>
			</g>
			<g id="&lt;Group&gt;">
				<path id="&lt;Path&gt;" class="s2" d="m163.4 68.3q-0.2 0-0.4-0.1c-0.5-0.2-0.8-0.7-0.6-1.2 0.1-0.2 1.3-3.6 6.7-3.6q0 0 0 0c5.2 0 6.9 2.5 7 2.6 0.3 0.4 0.2 1.1-0.2 1.4-0.5 0.3-1.1 0.2-1.4-0.3-0.1-0.1-1.4-1.7-5.4-1.7q0 0 0 0c-3.9 0-4.8 2.1-4.8 2.2-0.2 0.4-0.5 0.7-0.9 0.7z"/>
			</g>
			<g id="&lt;Group&gt;">
				<path id="&lt;Path&gt;" class="s2" d="m176.3 63.2q-0.4 0-0.7-0.2c-1.5-1.2-3.4-2-5.3-2.2-2-0.2-4 0.1-5.8 1-0.5 0.2-1.1 0-1.3-0.5-0.3-0.5-0.1-1.1 0.4-1.3 2.1-1 4.6-1.5 6.9-1.2 2.3 0.3 4.6 1.2 6.4 2.6 0.4 0.4 0.5 1 0.1 1.4-0.2 0.3-0.4 0.4-0.7 0.4z"/>
			</g>
			<g id="&lt;Group&gt;">
				<path id="&lt;Path&gt;" class="s2" d="m171.3 64.6c0.3 0.2 0.3 0.7 0.3 1.1 0 1.2-1 2.3-2.3 2.3-1.2 0-2.2-1-2.2-2.3q0-0.6 0.3-1.2c0 0 2.9-0.6 3.9 0.1z"/>
			</g>
			<g id="&lt;Group&gt;">
				<path id="&lt;Path&gt;" class="s3" d="m148 79.1c0.2 2.1-2.4 4-5.7 4.2-3.3 0.3-6.1-1.3-6.3-3.5-0.1-2.1 2.5-4 5.8-4.2 3.3-0.3 6.1 1.3 6.2 3.5z"/>
			</g>
			<g id="&lt;Group&gt;">
				<path id="&lt;Path&gt;" class="s3" d="m177.6 77.7c0.2 2.1-2.4 4-5.7 4.2-3.3 0.3-6.1-1.3-6.2-3.5-0.2-2.1 2.4-4 5.7-4.3 3.3-0.2 6.1 1.4 6.2 3.6z"/>
			</g>
			<g id="&lt;Group&gt;">
				<path id="&lt;Path&gt;" class="s0" d="m130.9 79.4c-0.4 0-0.8-0.3-1-0.7-0.8-3-2-5.8-3.6-8.4-0.3-0.5-0.1-1.1 0.3-1.4 0.5-0.3 1.1-0.1 1.4 0.3 1.7 2.8 3 5.8 3.9 8.9 0.1 0.6-0.2 1.1-0.7 1.3q-0.2 0-0.3 0z"/>
			</g>
			<g id="&lt;Group&gt;">
				<path id="&lt;Path&gt;" class="s0" d="m183.7 79q-0.1 0-0.2 0c-0.6-0.2-0.9-0.7-0.8-1.3 0.8-3.2 2.1-6.3 3.8-9.1 0.3-0.5 0.9-0.6 1.4-0.3 0.5 0.3 0.6 0.9 0.3 1.3-1.6 2.7-2.8 5.6-3.5 8.6-0.1 0.5-0.5 0.8-1 0.8z"/>
			</g>
			<g id="&lt;Group&gt;">
				<path id="&lt;Path&gt;" class="s2" d="m157.2 91.6c-1.7 0-3-0.3-3.1-0.3-0.6-0.1-0.9-0.6-0.8-1.2 0.2-0.5 0.7-0.9 1.2-0.7 0.1 0 6.9 1.4 10.6-3.1 0.4-0.4 1-0.4 1.4-0.1 0.5 0.4 0.5 1 0.2 1.4-2.8 3.3-6.8 4-9.5 4z"/>
			</g>
		</g>
	</g>
	<g id="feminino">
	</g>
</svg>