<svg version="1.2" xmlns="http://www.w3.org/2000/svg" viewBox="0 0 320 700" width="320" height="700">
	<title>8440513-ai</title>
	<style>
		.s0 { fill: #e06a43 } 
		.s1 { fill: #2b3448 } 
		.s2 { fill: #e79e73 } 
		.s3 { fill: #df895d } 
	</style>
	<g id="masculino">
		<g id="&lt;Group&gt;">
			<g id="&lt;Group&gt;">
				<path id="&lt;Path&gt;" class="s0" d="m176.2 96.6c-5.9 5.6-12.8 8.8-19.6 10.4-15.8 3.8-31.1-0.5-31.1-0.5l2.4-17.8c4.6 5.7 12.3 12 14.5 13.3 3 1.7 8.3 1.8 8.3 1.8 0 0 2.5 0 5-0.6 1.1-0.3 2.3-0.7 3.2-1.2 2.5-1.4 11.8-9.1 16-15.2z"/>
			</g>
			<g id="&lt;Group&gt;">
				<path id="&lt;Path&gt;" class="s1" d="m120.1 27c-0.6-1.8-1-3.7-0.9-5.6 0.2-2.4 1.4-4.9 3.4-6.3 2.1-1.4 4.6-1.7 7.1-2 7.5-0.9 14.9-2.9 22.5-3.8 5.5-0.6 11.3-0.5 16.3 1.9 4.3 2.1 7.6 6 9.2 10.5 2.5 0.4 4.7 2.5 5.8 4.9 1.3 2.7 1.4 5.8 1.4 8.8 0 7.1-0.9 14.2-1.8 21.2q0 0 0 0c-2.1 0.4-4 4.1-4 4.1 0.1-2.3 0.2-3.8 0.2-3.8 0 0 0-6.7-2.6-15.2-2.6-8.4-7.9-10.6-10.9-10.2-3 0.3-6.3 2-15.1 2-8.9 0-12.2-1.7-15.2-2-2.9-0.4-8.2 1.8-10.8 10.2-2.6 8.5-2.7 15.2-2.7 15.2 0 0 0.1 1.5 0.2 3.8 0 0-1.9-3.7-3.9-4.1q-0.9-0.1-1.6 0.3c-0.9-7.2-1.6-14.4-1-21.5 0.2-1.8 0.4-3.7 1.2-5.3 0.7-1.4 1.8-2.6 3.2-3.1z"/>
			</g>
			<path id="&lt;Path&gt;" class="s2" d="m151.1 103.8q-0.2 0-0.4 0-0.5 0.1-0.9 0c-33.1-0.7-27.6-43.1-27.6-43.1-0.1-2.3-0.2-3.8-0.2-3.8 0 0 0.1-6.7 2.7-15.2 2.6-8.4 7.9-10.6 10.8-10.2 3 0.3 6.3 2 15.2 2 8.8 0 12.1-1.7 15.1-2 3-0.4 8.3 1.8 10.9 10.2 2.6 8.5 2.6 15.2 2.6 15.2 0 0-0.1 1.5-0.2 3.8 0 0 5.6 42.8-28 43.1z"/>
			<g id="&lt;Group&gt;">
				<path id="&lt;Path&gt;" class="s0" d="m152.9 375.1h-2.8c0 0-8-2.8-19.1-12.4-11-9.7-66-28.4-66-28.4 3-18.8 5.9-40.5 5.9-40.5 0 0 14 37.8 79.8 38.7 67.3-0.4 81.4-38.7 81.4-38.7 0 0 2.9 21.6 5.9 40.5 0 0-54.9 18.7-66 28.4-11.1 9.6-19.1 12.4-19.1 12.4z"/>
			</g>
			<g id="&lt;Group&gt;">
				<path id="&lt;Path&gt;" class="s2" d="m179.1 60.7c0 0 1.9-3.7 4-4.1q0 0 0 0c2.1-0.3 3.5 1.4 3.4 6.9-0.1 5.6-3.7 9.9-5.1 11-1.5 1-3.4 0.2-3.4 0.2 0.5-4.8 0.9-10.4 1.1-14z"/>
			</g>
			<g id="&lt;Group&gt;">
				<path id="&lt;Path&gt;" class="s2" d="m123.3 74.7c0 0-1.8 0.8-3.3-0.2-1.5-1.1-5.1-5.4-5.2-11-0.1-4 0.7-6 1.9-6.6q0.7-0.4 1.6-0.3c2 0.4 3.9 4.1 3.9 4.1 0.2 3.6 0.6 9.2 1.1 14z"/>
			</g>
			<g id="&lt;Group&gt;">
				<path id="&lt;Path&gt;" class="s2" d="m68.3 278.9c-4.2 19.6-15.8 54.8-15.8 54.8 0 0 8 11.2 10.5 17.4 0.4 1.1 0.7 2 0.8 2.7 0.2 4.6 5.2 22.3 5.2 22.3 0 0-0.2 5.2-5.2 2.2-4.9-3-10.8-17-10.8-17l-2.9 17.6c0 0 7.8 13 8.1 17.6 0.2 4.6-4.9 4.2-4.9 4.2-0.3 1.6-2.3 2.5-3.8 0.9-1.5-1.6-12-11-13.1-14.2-1.1-3.2-1.5-4.6-1.5-4.6 0 0-3.9-5.6-5-8.7-1.2-3 0.6-37.8 0.6-37.8 0 0 0.8-32 0-49.3-0.7-17.4 8.4-42.8 8.4-42.8 0 0 5-42.8 4.1-69.1-0.9-26.3 10-39.3 28-45.7 18-6.4 54.5-22.9 54.5-22.9 0 0 15.3 4.3 31.1 0.5 6.8-1.6 13.7-4.8 19.6-10.4l1.3 9.9c0 0 36.6 16.4 54.5 22.9 18 6.4 28.9 19.3 28 45.7-0.9 26.3 4.1 69.1 4.1 69.1 0 0 9.2 25.4 8.4 42.7-0.8 17.4 0.1 49.4 0.1 49.4 0 0 1.7 34.7 0.6 37.8-1.1 3.1-5 8.7-5 8.7 0 0-0.5 1.4-1.6 4.6-1 3.2-11.6 12.6-13.1 14.2-1.5 1.6-3.5 0.6-3.8-0.9 0 0-5.1 0.3-4.8-4.2 0.2-4.6 8.1-17.7 8.1-17.7l-2.9-17.5c0 0-6 13.9-10.9 17-4.9 3-5.2-2.3-5.2-2.3 0 0 5-17.6 5.3-22.2 0-0.7 0.3-1.6 0.7-2.7 2.6-6.2 10.5-17.4 10.5-17.4 0 0-11.6-35.2-15.8-54.8-1.6 9.7-2.6 14.9-2.6 14.9 0 0-14.1 46.3-81.4 46.7-65.8-0.9-79.8-46.7-79.8-46.7 0 0-1-5.2-2.6-14.9z"/>
			</g>
			<g id="&lt;Group&gt;">
				<path id="&lt;Path&gt;" class="s2" d="m151.5 379c-2.2 22.2-10.1 100.8-10.1 104.7 0 4.4-3.8 13.4-3.8 13.4-0.3 5.4-14.7 134.1-14.7 134.1 1.6 4 0.1 11.3 0.1 11.3 0 0 6.6 13.3 5.7 18.7-1 5.4-10.6 6.1-22.4 8.5-11.8 2.4-15.6 9.5-20.7 9.5-5.1 0-26.6-3.3-27.2-7.7-0.6-4.4 5.2-5.6 6.7-7.2 1.4-1.6 22.6-21.5 23.5-25.3 0.9-3.9-1.1-24.9-1.6-33.4-0.5-8.5-8.5-82.4-8.5-94.3 0-11.8 4.1-28.5 4.1-28.5 0 0-7.1-35.5-13-55.2-6-19.7-6.6-76.5-6.6-76.5 0.3-4.7 1-10.6 2-16.8 0 0 55 18.7 66 28.4 9.3 8.1 17.9 10 20.4 10.4q-0.5 0-0.5 0c0 0 0.2 2.2 0.6 5.9z"/>
			</g>
			<g id="&lt;Group&gt;">
				<path id="&lt;Path&gt;" class="s2" d="m244.6 671.5c-0.5 4.3-22.1 7.7-27.2 7.7-5.1 0-12.9-7.1-24.7-9.5-11.8-2.5-17.4-3.1-18.3-8.5-1-5.4 5.6-18.8 5.6-18.8 0 0-1.5-7.2 0.1-11.2 0 0-14.4-128.7-14.7-134.1 0 0-3.8-9-3.8-13.5 0-3.8-7.9-82.4-10.1-104.6 0.4-3.7 0.6-5.9 0.6-5.9q0 0-0.7 0c2.1-0.3 10.9-2.1 20.6-10.5 11.1-9.6 66-28.3 66-28.3 1 6.2 1.7 12.1 2 16.8 0 0-0.6 56.8-6.5 76.5-6 19.6-13.1 55.2-13.1 55.2 0 0 4.1 16.7 4.1 28.5 0 11.8-8 85.8-8.5 94.3-0.5 8.5-2.5 29.5-1.6 33.4 1 3.8 22.1 23.7 23.6 25.3 1.4 1.6 7.2 2.8 6.6 7.2z"/>
			</g>
			<g id="&lt;Group&gt;">
				<path id="&lt;Path&gt;" class="s0" d="m82.5 221.3c-0.3 0-0.6-0.1-0.8-0.4-7-10.4-8-45.3-8.1-46.8 0-0.6 0.5-1 1-1q0 0 0 0c0.6 0 1 0.4 1 0.9 0 0.4 1.1 35.9 7.8 45.7 0.3 0.5 0.2 1.1-0.3 1.4q-0.3 0.2-0.6 0.2z"/>
			</g>
			<g id="&lt;Group&gt;">
				<path id="&lt;Path&gt;" class="s0" d="m75.7 191.7c-0.3 0-0.6-0.2-0.8-0.5l-6.3-10.1c-0.3-0.4-0.2-1 0.3-1.3 0.5-0.3 1.1-0.2 1.4 0.3l6.3 10.1c0.3 0.4 0.1 1-0.4 1.3q-0.2 0.2-0.5 0.2z"/>
			</g>
			<g id="&lt;Group&gt;">
				<path id="&lt;Path&gt;" class="s0" d="m68.3 279.9c-0.5 0-0.9-0.4-1-0.9-2.6-32.7 11.6-64.6 11.7-64.9 0.2-0.5 0.8-0.7 1.3-0.5 0.5 0.2 0.8 0.8 0.5 1.3-0.1 0.3-14 31.7-11.5 63.9 0.1 0.6-0.3 1-0.9 1.1q0 0-0.1 0z"/>
			</g>
			<g id="&lt;Group&gt;">
				<path id="&lt;Path&gt;" class="s0" d="m189 215.5q-0.1 0-0.3 0c-39.6-12.1-72.5-0.2-72.9-0.1-0.5 0.2-1 0-1.2-0.5-0.2-0.6 0-1.1 0.5-1.3 0.4-0.2 33.9-12.4 74.2-0.1 0.5 0.2 0.8 0.8 0.7 1.3-0.1 0.4-0.5 0.7-1 0.7z"/>
			</g>
			<g id="&lt;Group&gt;">
				<path id="&lt;Path&gt;" class="s0" d="m154.1 298q-0.2 0-0.5-0.1c-1.9-1.1-3.7-2.6-5-4.3-0.4-0.5-0.3-1.1 0.1-1.4 0.4-0.4 1.1-0.3 1.4 0.1 1.2 1.6 2.8 2.9 4.5 3.9 0.5 0.2 0.7 0.9 0.4 1.3-0.2 0.4-0.5 0.5-0.9 0.5z"/>
			</g>
			<g id="&lt;Group&gt;">
				<path id="&lt;Path&gt;" class="s0" d="m100.9 200.4c0 1.8-2.1 3.2-4.7 3.2-2.6 0-4.7-1.4-4.7-3.2 0-1.8 2.1-3.2 4.7-3.2 2.6 0 4.7 1.4 4.7 3.2z"/>
			</g>
			<g id="&lt;Group&gt;">
				<path id="&lt;Path&gt;" class="s0" d="m209.1 200.4c0 1.8-2.1 3.2-4.7 3.2-2.6 0-4.7-1.4-4.7-3.2 0-1.8 2.1-3.2 4.7-3.2 2.6 0 4.7 1.4 4.7 3.2z"/>
			</g>
			<g id="&lt;Group&gt;">
				<path id="&lt;Path&gt;" class="s0" d="m66.4 380.2q-0.2 0-0.4 0c-2.1-0.2-4-1.5-5.4-3.5-0.3-0.5-0.1-1.1 0.3-1.4 0.5-0.3 1.1-0.2 1.4 0.2 1 1.6 2.4 2.5 3.8 2.7 1.4 0.1 3-0.7 3.3-2.1 0.2-1.2-0.5-2.4-1.3-3.6l-0.3-0.6c-2.2-3.9-3-8.3-3.8-12.6q-0.3-1.4-0.5-2.7c-0.9-4.5-2.5-10-6.4-13.3-0.4-0.4-0.5-1-0.1-1.4 0.3-0.4 0.9-0.5 1.4-0.1 4.4 3.7 6.1 9.6 7 14.4q0.3 1.4 0.6 2.8c0.7 4.1 1.5 8.3 3.6 11.9l0.3 0.6c0.8 1.4 1.8 3.1 1.4 4.9-0.4 2.2-2.5 3.8-4.9 3.8z"/>
			</g>
			<g id="&lt;Group&gt;">
				<path id="&lt;Path&gt;" class="s0" d="m52.6 362.7q-0.3 0-0.6-0.3l-5.4-5.1c-0.4-0.4-0.4-1.1-0.1-1.5 0.4-0.4 1.1-0.4 1.5 0l5.3 5.2c0.4 0.3 0.4 1 0.1 1.4q-0.3 0.3-0.8 0.3z"/>
			</g>
			<g id="&lt;Group&gt;">
				<path id="&lt;Path&gt;" class="s0" d="m53.7 401.6q-0.3 0-0.7-0.3c-3.2-3.2-6.7-6.5-9.5-10.2-3.1-4.1-8-12.4-6.4-21.7 0.1-0.5 0.6-0.9 1.1-0.8 0.6 0.1 0.9 0.6 0.8 1.2-1.4 8.5 3.2 16.2 6.1 20.1 2.8 3.6 6.1 6.9 9.3 10 0.4 0.4 0.4 1 0.1 1.4q-0.4 0.3-0.8 0.3z"/>
			</g>
			<g id="&lt;Group&gt;">
				<path id="&lt;Path&gt;" class="s0" d="m41.6 394.7q-0.4 0-0.6-0.2c-3.9-3.2-5.7-7.8-6.5-11.1-1-4.2-1.1-8.5-1.2-12.6 0-0.6 0.4-1 1-1q0 0 0 0c0.5 0 1 0.4 1 0.9 0.1 4.1 0.2 8.3 1.1 12.2 0.8 3 2.4 7.2 5.8 10 0.4 0.4 0.5 1 0.2 1.4-0.2 0.3-0.5 0.4-0.8 0.4z"/>
			</g>
			<g id="&lt;Group&gt;">
				<path id="&lt;Path&gt;" class="s0" d="m118.4 500.9c-6.3 0-16.7-2.4-21.4-6.7-0.4-0.4-0.4-1 0-1.4 0.4-0.4 1-0.4 1.4-0.1 5.6 5.3 18 7.5 25.5 5.6 0.5-0.2 1.1 0.2 1.2 0.7 0.1 0.5-0.2 1.1-0.7 1.2q-2.9 0.7-6 0.7z"/>
			</g>
			<g id="&lt;Group&gt;">
				<path id="&lt;Path&gt;" class="s0" d="m115.7 649.4c-0.3 0-0.6-0.1-0.8-0.4-0.3-0.4-0.3-1 0.1-1.4 2-1.8 3.9-3.9 5.4-6.2 0.4-0.4 1-0.5 1.4-0.2 0.5 0.3 0.6 0.9 0.3 1.4-1.7 2.3-3.6 4.6-5.7 6.5q-0.3 0.3-0.7 0.3z"/>
			</g>
			<g id="&lt;Group&gt;">
				<path id="&lt;Path&gt;" class="s0" d="m83 679.6q-0.3 0-0.6-0.1c-1.3-1-1.5-2.8-0.9-4 0.4-1.1 1.2-1.9 2.4-2.8q0.5-0.2 0.9-0.5c0.6-0.4 1.2-0.7 1.6-1.1 0.5-0.3 1.1-0.3 1.4 0.1 0.4 0.5 0.3 1.1-0.1 1.4-0.6 0.5-1.2 0.9-1.8 1.3q-0.5 0.2-0.9 0.5c-0.9 0.6-1.4 1.2-1.7 1.8-0.2 0.6-0.1 1.3 0.3 1.6 0.5 0.4 0.6 1 0.2 1.4-0.2 0.3-0.5 0.4-0.8 0.4z"/>
			</g>
			<g id="&lt;Group&gt;">
				<path id="&lt;Path&gt;" class="s0" d="m77.3 679.2c-0.3 0-0.6-0.1-0.8-0.4-1-1.3-1.5-3-1.2-4.7 0.2-1.6 1.2-3.2 2.5-4.1q0.5-0.3 1.1-0.6c0.6-0.4 1.1-0.6 1.4-1.1 0.3-0.4 1-0.6 1.4-0.3 0.5 0.3 0.6 1 0.3 1.4-0.6 0.9-1.4 1.3-2.2 1.7q-0.4 0.3-0.8 0.5c-0.9 0.7-1.6 1.7-1.8 2.8-0.1 1.1 0.2 2.3 0.9 3.2 0.3 0.4 0.2 1.1-0.2 1.4q-0.3 0.2-0.6 0.2z"/>
			</g>
			<g id="&lt;Group&gt;">
				<path id="&lt;Path&gt;" class="s0" d="m70 677.4q-0.4 0-0.7-0.3c-0.9-1-1.4-2.3-1.4-3.7 0.1-1.4 0.7-2.7 1.7-3.6 0.7-0.6 1.6-1 2.5-1.4 0.8-0.4 1.5-0.7 2-1.2 0.4-0.4 1.1-0.4 1.5 0 0.3 0.4 0.3 1.1-0.1 1.5-0.8 0.7-1.7 1.1-2.6 1.5-0.8 0.3-1.5 0.7-2 1.1-0.6 0.6-1 1.4-1 2.2 0 0.8 0.3 1.6 0.9 2.2 0.3 0.4 0.3 1-0.1 1.4q-0.3 0.3-0.7 0.3z"/>
			</g>
			<g id="&lt;Group&gt;">
				<path id="&lt;Path&gt;" class="s0" d="m63.8 675.7q-0.1 0-0.2 0l-0.2-0.1c-0.3 0-0.6-0.2-0.8-0.5-0.7-1.2-0.9-2.6-0.6-4 0.3-1.4 1.2-2.6 2.3-3.4 0.5-0.3 1-0.5 1.5-0.8 0.6-0.3 1.2-0.5 1.6-0.9 0.4-0.4 1-0.4 1.4 0 0.4 0.4 0.4 1 0 1.4-0.6 0.6-1.4 1-2.1 1.3-0.5 0.2-0.9 0.4-1.2 0.7-0.8 0.5-1.3 1.3-1.5 2.1-0.2 0.8-0.1 1.6 0.2 2.3 0.4 0.2 0.6 0.6 0.5 1 0 0.5-0.5 0.9-0.9 0.9z"/>
			</g>
			<g id="&lt;Group&gt;">
				<path id="&lt;Path&gt;" class="s0" d="m221.4 221.8q-0.3 0-0.6-0.1c-0.5-0.3-0.6-1-0.3-1.4 6.7-9.9 7.8-45.4 7.8-45.7 0-0.6 0.4-1 1-1q0 0 0 0c0.5 0 1 0.5 1 1-0.1 1.5-1.1 36.5-8.1 46.8-0.2 0.3-0.5 0.4-0.8 0.4z"/>
			</g>
			<g id="&lt;Group&gt;">
				<path id="&lt;Path&gt;" class="s0" d="m228.2 192.2q-0.3 0-0.5-0.1c-0.5-0.3-0.7-0.9-0.4-1.4l6.3-10.1c0.3-0.4 0.9-0.6 1.4-0.3 0.5 0.3 0.6 0.9 0.3 1.4l-6.3 10c-0.2 0.3-0.5 0.5-0.8 0.5z"/>
			</g>
			<g id="&lt;Group&gt;">
				<path id="&lt;Path&gt;" class="s0" d="m235.6 280.4q-0.1 0-0.1 0c-0.6 0-1-0.5-0.9-1.1 2.5-32.1-11.4-63.5-11.5-63.9-0.2-0.5 0-1.1 0.5-1.3 0.5-0.2 1.1 0 1.3 0.5 0.1 0.3 14.3 32.2 11.7 64.9-0.1 0.5-0.5 0.9-1 0.9z"/>
			</g>
			<g id="&lt;Group&gt;">
				<path id="&lt;Path&gt;" class="s0" d="m203 200.9c0 1.8 2.1 3.3 4.7 3.3 2.6 0 4.7-1.5 4.7-3.3 0-1.7-2.1-3.2-4.7-3.2-2.6 0-4.7 1.5-4.7 3.2z"/>
			</g>
			<g id="&lt;Group&gt;">
				<path id="&lt;Path&gt;" class="s0" d="m236.8 378.7c-2.3 0-4.4-1.6-4.8-3.7-0.4-1.9 0.6-3.5 1.4-5l0.3-0.5c2.1-3.6 2.9-7.9 3.6-12q0.3-1.4 0.6-2.8c0.9-4.7 2.6-10.7 7-14.4 0.5-0.3 1.1-0.3 1.4 0.1 0.4 0.4 0.3 1.1-0.1 1.4-3.9 3.4-5.5 8.9-6.4 13.3q-0.2 1.4-0.5 2.8c-0.8 4.2-1.6 8.7-3.8 12.6l-0.3 0.5c-0.8 1.3-1.5 2.5-1.3 3.6 0.3 1.4 1.9 2.3 3.3 2.1 1.4-0.1 2.8-1.1 3.8-2.6 0.3-0.5 0.9-0.6 1.4-0.3 0.4 0.3 0.6 0.9 0.3 1.4-1.4 2-3.3 3.3-5.3 3.5q-0.3 0-0.6 0z"/>
			</g>
			<g id="&lt;Group&gt;">
				<path id="&lt;Path&gt;" class="s0" d="m250.7 361.2q-0.5 0-0.8-0.3c-0.3-0.4-0.3-1 0.1-1.4l5.3-5.2c0.4-0.3 1.1-0.3 1.5 0.1 0.3 0.4 0.3 1-0.1 1.4l-5.4 5.1q-0.3 0.3-0.6 0.3z"/>
			</g>
			<g id="&lt;Group&gt;">
				<path id="&lt;Path&gt;" class="s0" d="m249.6 400.2q-0.4 0-0.8-0.3c-0.3-0.4-0.3-1.1 0.1-1.5 3.2-3.1 6.6-6.4 9.3-10 2.9-3.8 7.5-11.6 6.1-20.1-0.1-0.6 0.2-1.1 0.8-1.2 0.5-0.1 1 0.3 1.1 0.9 1.6 9.2-3.3 17.5-6.4 21.6-2.8 3.8-6.2 7.1-9.5 10.3q-0.3 0.3-0.7 0.3z"/>
			</g>
			<g id="&lt;Group&gt;">
				<path id="&lt;Path&gt;" class="s0" d="m261.7 393.2c-0.3 0-0.6-0.1-0.8-0.3-0.3-0.5-0.2-1.1 0.2-1.4 3.5-2.9 5-7.1 5.8-10.1 0.9-3.9 1-8.1 1.1-12.1 0-0.6 0.5-1 1-1q0 0 0 0c0.6 0 1 0.5 1 1-0.1 4.2-0.2 8.4-1.2 12.6-0.8 3.3-2.6 7.9-6.5 11.1q-0.2 0.2-0.6 0.2z"/>
			</g>
			<g id="&lt;Group&gt;">
				<path id="&lt;Path&gt;" class="s0" d="m185.5 501.5q-3 0-6-0.8c-0.5-0.1-0.8-0.6-0.7-1.2 0.1-0.5 0.7-0.8 1.2-0.7 7.5 1.9 19.9-0.3 25.5-5.5 0.4-0.4 1-0.4 1.4 0 0.4 0.4 0.4 1 0 1.4-4.7 4.4-15.1 6.8-21.4 6.8z"/>
			</g>
			<g id="&lt;Group&gt;">
				<path id="&lt;Path&gt;" class="s0" d="m188.2 649.9q-0.4 0-0.7-0.3c-2.1-1.9-4-4.1-5.7-6.5-0.3-0.5-0.2-1.1 0.3-1.4 0.4-0.3 1-0.2 1.4 0.3 1.5 2.2 3.4 4.3 5.4 6.2 0.4 0.3 0.4 1 0.1 1.4-0.2 0.2-0.5 0.3-0.8 0.3z"/>
			</g>
			<g id="&lt;Group&gt;">
				<path id="&lt;Path&gt;" class="s0" d="m220.9 680.2c-0.3 0-0.6-0.2-0.8-0.4-0.4-0.5-0.3-1.1 0.2-1.4 0.4-0.3 0.5-1.1 0.3-1.7-0.3-0.6-0.8-1.1-1.7-1.7q-0.4-0.3-0.9-0.6c-0.6-0.3-1.2-0.7-1.8-1.2-0.4-0.4-0.5-1-0.1-1.4 0.3-0.5 0.9-0.5 1.4-0.2 0.4 0.4 1 0.8 1.6 1.1q0.4 0.3 0.9 0.6c1.2 0.8 2 1.7 2.4 2.7 0.6 1.3 0.4 3-0.9 4q-0.3 0.2-0.6 0.2z"/>
			</g>
			<g id="&lt;Group&gt;">
				<path id="&lt;Path&gt;" class="s0" d="m226.6 679.7q-0.3 0-0.6-0.2c-0.4-0.3-0.5-0.9-0.2-1.4 0.7-0.9 1-2 0.9-3.1-0.2-1.2-0.9-2.2-1.8-2.8q-0.4-0.3-0.8-0.5c-0.8-0.4-1.6-0.9-2.2-1.7-0.3-0.5-0.2-1.1 0.3-1.4 0.4-0.3 1.1-0.2 1.4 0.2 0.3 0.5 0.8 0.8 1.4 1.1q0.6 0.3 1.1 0.6c1.3 1 2.3 2.5 2.5 4.1 0.3 1.7-0.1 3.4-1.2 4.7-0.2 0.3-0.5 0.4-0.8 0.4z"/>
			</g>
			<g id="&lt;Group&gt;">
				<path id="&lt;Path&gt;" class="s0" d="m233.9 677.9q-0.4 0-0.7-0.3c-0.4-0.4-0.4-1-0.1-1.4 0.6-0.6 0.9-1.4 0.9-2.2 0-0.8-0.4-1.6-1-2.1-0.5-0.5-1.2-0.8-2-1.1-0.9-0.4-1.8-0.9-2.6-1.6-0.4-0.4-0.4-1-0.1-1.4 0.4-0.4 1.1-0.4 1.5-0.1 0.5 0.6 1.2 0.9 2 1.2 0.9 0.4 1.8 0.8 2.5 1.5 1 0.9 1.6 2.2 1.7 3.5 0 1.4-0.5 2.7-1.4 3.7q-0.3 0.3-0.7 0.3z"/>
			</g>
			<g id="&lt;Group&gt;">
				<path id="&lt;Compound Path&gt;" fill-rule="evenodd" class="s0" d="m240.1 676.2c-0.4 0-0.9-0.3-0.9-0.8-0.1-0.5 0.1-0.9 0.5-1.1 0.3-0.7 0.4-1.5 0.2-2.2-0.2-0.9-0.7-1.7-1.5-2.2-0.3-0.3-0.8-0.4-1.2-0.6-0.7-0.4-1.5-0.7-2.1-1.4-0.4-0.4-0.4-1 0-1.4 0.4-0.4 1-0.4 1.4 0 0.4 0.4 1 0.7 1.6 0.9 0.5 0.3 1 0.5 1.5 0.8 1.1 0.8 2 2.1 2.3 3.4 0.3 1.4 0.1 2.9-0.6 4.1-0.2 0.3-0.5 0.4-0.8 0.5h-0.2q-0.1 0-0.2 0zm0.3-1z"/>
			</g>
			<g id="&lt;Group&gt;">
				<path id="&lt;Path&gt;" class="s0" d="m152.8 77.2c0 0.2-0.3 0.4-0.6 0.4-1.9-0.2-7.2-0.9-7.6-2.9-0.5-1.9 3.9-10 5.9-13.6 0.2-0.4 1.1-0.3 1.1 0.1z"/>
			</g>
			<g id="&lt;Group&gt;">
				<path id="&lt;Path&gt;" class="s1" d="m143.8 61.2c-0.4 0-0.8-0.3-0.9-0.7-0.1-0.1-1-2.5-5.3-2.5q0 0-0.1 0c-4.5 0-5.9 2-6 2-0.3 0.5-0.9 0.6-1.3 0.3-0.5-0.3-0.6-0.9-0.3-1.4 0.1-0.1 2-2.9 7.6-2.9q0.1 0 0.1 0c5.8 0 7.1 3.7 7.2 3.8 0.1 0.5-0.1 1.1-0.7 1.3q-0.1 0.1-0.3 0.1z"/>
			</g>
			<g id="&lt;Group&gt;">
				<path id="&lt;Path&gt;" class="s1" d="m129.6 55.7c-0.3 0-0.6-0.1-0.8-0.4-0.3-0.4-0.2-1 0.2-1.4 2-1.6 4.4-2.6 7-2.9 2.5-0.3 5.1 0.1 7.4 1.2 0.5 0.3 0.7 0.9 0.5 1.4-0.3 0.5-0.8 0.7-1.3 0.4-2-0.9-4.3-1.3-6.4-1-2.1 0.2-4.3 1.1-5.9 2.5q-0.3 0.2-0.7 0.2z"/>
			</g>
			<g id="&lt;Group&gt;">
				<path id="&lt;Path&gt;" class="s1" d="m139.4 57.2c0.4 0.1 0.3 0.8 0.3 1.2 0.1 1.4-1.1 2.5-2.4 2.5-1.4 0-2.5-1.1-2.5-2.4q0-0.7 0.3-1.3c0 0 2.4-0.6 4.3 0z"/>
			</g>
			<g id="&lt;Group&gt;">
				<path id="&lt;Path&gt;" class="s1" d="m157.4 61.1q-0.2 0-0.4-0.1c-0.5-0.1-0.8-0.7-0.6-1.2 0.1-0.2 1.4-3.8 7.2-3.9q0 0 0.1 0c5.6 0 7.5 2.7 7.6 2.8 0.3 0.5 0.2 1.1-0.3 1.4-0.4 0.3-1.1 0.2-1.4-0.2 0-0.1-1.5-2-5.9-2q-0.1 0-0.1 0c-4.3 0-5.3 2.4-5.3 2.5-0.2 0.4-0.5 0.7-0.9 0.7z"/>
			</g>
			<g id="&lt;Group&gt;">
				<path id="&lt;Path&gt;" class="s1" d="m171.5 55.6q-0.3 0-0.6-0.3c-1.7-1.3-3.8-2.2-6-2.4-2.1-0.2-4.4 0.1-6.3 1.1-0.5 0.2-1.1 0-1.4-0.5-0.2-0.5 0-1.1 0.5-1.3 2.3-1.1 4.9-1.6 7.4-1.3 2.6 0.3 5 1.3 7 2.9 0.5 0.3 0.5 0.9 0.2 1.4-0.2 0.2-0.5 0.4-0.8 0.4z"/>
			</g>
			<g id="&lt;Group&gt;">
				<path id="&lt;Path&gt;" class="s1" d="m166 57.1c0.4 0.3 0.4 0.8 0.4 1.3 0 1.3-1.1 2.4-2.5 2.4-1.4 0-2.5-1.1-2.5-2.4q0-0.7 0.4-1.3c0 0 3.2-0.7 4.2 0z"/>
			</g>
			<g id="&lt;Group&gt;">
				<path id="&lt;Path&gt;" class="s3" d="m140.5 73c0.2 2.4-2.6 4.5-6.3 4.7-3.6 0.3-6.7-1.5-6.8-3.8-0.2-2.4 2.6-4.5 6.3-4.7 3.6-0.3 6.7 1.5 6.8 3.8z"/>
			</g>
			<g id="&lt;Group&gt;">
				<path id="&lt;Path&gt;" class="s3" d="m173 71.5c0.2 2.3-2.6 4.4-6.3 4.7-3.6 0.2-6.7-1.5-6.8-3.9-0.2-2.3 2.6-4.4 6.3-4.7 3.6-0.2 6.7 1.5 6.8 3.9z"/>
			</g>
			<g id="&lt;Group&gt;">
				<path id="&lt;Path&gt;" class="s0" d="m121.8 73.3c-0.5 0-0.9-0.3-1-0.7-0.9-3.3-2.3-6.4-4-9.2-0.3-0.5-0.1-1.1 0.3-1.4 0.5-0.3 1.1-0.2 1.4 0.3 1.8 3 3.3 6.3 4.2 9.7 0.2 0.5-0.1 1.1-0.7 1.2q-0.1 0.1-0.2 0.1z"/>
			</g>
			<g id="&lt;Group&gt;">
				<path id="&lt;Path&gt;" class="s0" d="m179.7 72.8q-0.1 0-0.3 0c-0.5-0.1-0.8-0.7-0.7-1.2 0.9-3.5 2.3-6.9 4.2-10 0.2-0.5 0.9-0.6 1.3-0.3 0.5 0.3 0.6 0.9 0.4 1.3-1.8 3-3.1 6.1-4 9.5-0.1 0.4-0.5 0.7-0.9 0.7z"/>
			</g>
			<g id="&lt;Group&gt;">
				<path id="&lt;Path&gt;" class="s1" d="m150.6 86.7c-1.9 0-3.3-0.3-3.4-0.3-0.5-0.2-0.9-0.7-0.7-1.2 0.1-0.6 0.6-0.9 1.1-0.8 0.1 0 7.6 1.7 11.8-3.3 0.3-0.5 1-0.5 1.4-0.2 0.4 0.4 0.5 1 0.1 1.4-3 3.7-7.3 4.4-10.3 4.4z"/>
			</g>
		</g>
	</g>
	<g id="feminino">
	</g>
</svg>