<svg version="1.2" xmlns="http://www.w3.org/2000/svg" viewBox="0 0 320 700" width="320" height="700">
	<title>8440513-ai</title>
	<style>
		.s0 { fill: #e06a43 } 
		.s1 { fill: #e79e73 } 
		.s2 { fill: #2b3448 } 
		.s3 { fill: #000000 } 
		.s4 { fill: #df895d } 
	</style>
	<g id="feminino">
		<g id="&lt;Group&gt;">
			<g id="&lt;Group&gt;">
				<path id="&lt;Path&gt;" class="s0" d="m151.9 157.6c4.1 5.4 9.6 10.3 16.8 10.5q0.3 0.1 0.6 0.1 0.3 0 0.6-0.1c5-0.1 9.2-2.5 12.6-5.7l0.5 4.4c-12.2 10.4-32.8 7-32.8 7z"/>
			</g>
			<g id="&lt;Group&gt;">
				<path id="&lt;Path&gt;" class="s1" d="m165.3 585.1c-3.9 20.8-8.9 48.1-8.7 52.1 0 1.6 0.3 5 0.6 9.1 0.6 9.6 1.3 23.6-0.5 30.9-0.7 2.6-1.6 4.3-3 4.8-7 2.4-21.9 0.1-24.8-2.6-3-2.7-0.1-16.2 2.1-21.9 2.2-5.8 3.5-18 3.5-18 0 0 0-63.8-0.6-94.4-0.6-30.5 14.2-39 14.2-39-30.1-69.4-35.7-111.7-36.1-131.8 0 0 42 3.6 63.6 27.6 0 0 8 94.4 6.9 103-1.1 8.6-12.6 56-12.6 56 0 0-2.1 10.7-4.6 24.2z"/>
			</g>
			<g id="&lt;Group&gt;">
				<path id="&lt;Path&gt;" class="s1" d="m205.2 188.4c8.8 4.2 17.7 9.2 20.5 13.2 6.3 8.7 16.7 98.6 16.7 98.6l0.3 66.7c0 0 1.5 18.4 1.5 20.6 0 2.2-9.1 14-9.5 15.3-0.4 1.3-2.9 9.3-8.7 11.6 3.7-23.3 6.5-45.2 5.9-55.9-0.5-7.3-2.5-15.1-5.4-22.8-2-5.6-4.5-11.1-7.1-16.2l-6.6-29.9-7.1-29.7c2.9-5.6 5.5-12.2 5.5-18-0.1-12.9-15.8-57.9-15.8-57.9 3 1.3 6.4 2.8 9.8 4.4z"/>
			</g>
			<g id="&lt;Group&gt;">
				<path id="&lt;Path&gt;" class="s1" d="m231.9 356.7c0.6 10.7-2.2 34.8-5.9 58-6.2 38.7-15 80.9-15 80.9 0 0 2.9 31.6 0.9 46.3-2 14.6-28.2 85.5-28.2 85.5 0 0 5 39 2.1 45.7-2.9 6.6-23.2 7.4-29.1 4.4 1.8-7.3 1.1-21.3 0.5-30.8 0-0.2 7.2-21 7.2-21l0.9-40.3c2.5-13.4 4.6-24.2 4.6-24.2 0 0 11.5-47.3 12.6-55.9 1.1-8.7-6.9-105.2-6.9-105.2 10.7-32.5 56.3-43.4 56.3-43.4z"/>
			</g>
			<g id="&lt;Group&gt;">
				<path id="&lt;Path&gt;" class="s0" d="m226.5 335.7c2.9 7.7 4.9 15.5 5.4 22.8 0 0-45.6 10.9-56.3 43.4-21.6-24-63.6-27.6-63.6-27.6-0.2-9.4 0.7-14 0.8-14.2 2.8-1.3 4.7-2.6 4.7-2.6 0 0 6.3 2.9 11.4 3.1 5.1 0.1 7.2-3 7.2-3 0 0 4.9 3.1 6.9 0.6 1.9-2.4 0.2-3.4 0.2-3.4 0 0 1.1 0.2 1.4-0.8 0 0 49.6 6.5 81.4-18.1z"/>
			</g>
			<g id="&lt;Group&gt;">
				<path id="&lt;Path&gt;" class="s1" d="m226.5 335.7l-0.5 0.2c-31.8 24.6-81.4 18.1-81.4 18.1 0.3-1-28.7 0.5-30.4-0.6-0.2-0.1-0.2-0.6 0-1.2v-18.2c4.3-25.9 7.9-29.1 7.9-29.1l-6.5-27.1c0 0 37.5-15.7 83.2-3.2l4.6 17.9c0 0 8.4 11.7 16 27 2.6 5.1 5.1 10.6 7.1 16.2z"/>
			</g>
			<g id="&lt;Group&gt;">
				<path id="&lt;Path&gt;" class="s0" d="m211.2 241.9c0 5.8-2.6 12.4-5.5 18-3.6 6.7-7.6 11.9-7.6 11.9l0.7 2.8c-45.7-12.5-83.2 3.2-83.2 3.2l-7.5-31c29.9 0 18.3-66 18.2-67q0 0 0 0 2.5-0.7 5.1-1.4c0 1 4 47.1 37.9 46.2 34.1-0.9 20.3-42.6 20.1-43.2 1.7 0.7 3.8 1.6 6 2.6 0 0 15.7 45 15.8 57.9z"/>
			</g>
			<g id="&lt;Group&gt;">
				<path id="&lt;Path&gt;" class="s1" d="m198.5 141.9q-0.4 0.6-0.8 0.8c-1.4 1-3.1 0.3-3.1 0.3l-0.5-0.1q0.4-1.6 0.6-3.2c0.2-2.3 0.5-5.3 0.7-7.8 1.1-1.9 2-4 2.7-6.2q0.2-0.7 0.4-1.4h0.1c1.2 0.5 4 3.2 3.9 7.5-0.1 4.6-2.4 8.4-4 10.1z"/>
			</g>
			<g id="&lt;Group&gt;">
				<path id="&lt;Path&gt;" class="s1" d="m195.6 129c0 0.8-0.1 1.8-0.2 2.9-0.2 2.5-0.5 5.5-0.7 7.8q-0.2 1.6-0.6 3.2-0.4 2-1.3 4c-1.2 2.9-3.3 7-6.1 10.8-1.3 1.7-2.7 3.3-4.2 4.7-3.4 3.2-7.6 5.6-12.6 5.7q-0.3 0.1-0.6 0.1-0.3 0-0.6-0.1c-7.2-0.2-12.7-5.1-16.8-10.5-2.8-3.8-4.9-8-6.2-10.9q-0.7-1.8-1.2-3.6-0.4-1.7-0.6-3.4c-0.3-2.7-0.5-5.5-0.7-7.8q-0.1-1.7-0.1-3c0.6-0.5 22.4-15.1 25.9-30.3q0.2-1.2 0.3-2.4c0 0 21.9 4.1 26.3 32.8z"/>
			</g>
			<g id="&lt;Group&gt;">
				<path id="&lt;Path&gt;" class="s1" d="m189.4 181.4c0.2 0.6 14 42.3-20.1 43.2-33.9 0.9-37.9-45.2-37.9-46.2 10.2-2.7 18.8-4.6 18.8-4.6 0 0 20.6 3.4 32.8-7l1.4 12.6c0 0 1.9 0.8 5 2q0 0 0 0z"/>
			</g>
			<g id="&lt;Group&gt;">
				<path id="&lt;Path&gt;" class="s2" d="m169.3 96.2q-0.1 1.2-0.3 2.4c-3.5 15.2-25.3 29.8-25.9 30.3q0-0.2 0-0.5 0 0.3-0.1 0.5 0 0.1 0 0.1c0 0-1-2.2-2.4-3.3-0.4-0.4-0.8-0.6-1.3-0.7-1-0.2-1.9 0.2-2.4 1.4-0.5 1.1-0.8 2.8-0.7 5.4 0.1 5.5 3.4 9.9 4.7 10.9 1 0.7 2.7 0.6 3.6 0.4q0.5 1.8 1.2 3.6c1.3 2.9 3.4 7.1 6.2 10.9l-1.7 16.2c0 0-8.6 1.9-18.8 4.6q-2.6 0.7-5.1 1.4 0 0 0 0c-7.4 2.1-14.9 4.5-20.2 7-1.9 0.8-4.1 2.9-6.7 6-8.4-20.9 6.2-37.3 20.1-49.8 15.3-13.7 19.5-33.1 19.5-33.1h0.5c2.4-15.2 14.9-26.8 29.8-26.8 16.8 0 30.3 14.5 30.3 32.3 0 3.1-0.4 6.1-1.1 8.9q-0.2 0.7-0.4 1.4c-0.7 2.2-1.6 4.3-2.7 6.2 0.1-1.1 0.2-2.1 0.2-2.9-4.4-28.7-26.3-32.8-26.3-32.8z"/>
			</g>
			<g id="&lt;Group&gt;">
				<path id="&lt;Path&gt;" class="s2" d="m205.2 188.4c-3.4-1.6-6.8-3.1-9.8-4.4-2.2-1-4.3-1.9-6-2.6q0 0 0 0c-3.1-1.2-5-2-5-2l-1.4-12.6-0.5-4.4c1.5-1.4 2.9-3 4.2-4.7 2.8-3.8 4.9-7.9 6.1-10.8q0.9-2 1.3-4l0.5 0.1c0 0 1.7 0.7 3.1-0.3q0.4-0.2 0.8-0.8c2.1 5 10.5 26.5 6.7 46.5z"/>
			</g>
			<g id="&lt;Group&gt;">
				<path id="&lt;Path&gt;" class="s1" d="m114.2 334l10.8-10.2 15.8 3c0 6-14.2 5.3-14.2 5.3l-2.9 5.7c0 0 10.7 1.1 12.4 2.2 1.8 1.1 8.8 13 8.5 14-0.3 1-1.4 0.8-1.4 0.8 0 0 1.7 1-0.2 3.4-2 2.5-6.9-0.6-6.9-0.6 0 0-2.1 3.1-7.2 3-5.1-0.2-11.4-3.1-11.4-3.1 0 0-1.9 1.3-4.7 2.6-2.4 1-5.6 2-8.9 2-7.1 0-15.1-12.3-15.1-12.3 0 0-38.1-57.3-38.1-65 0-6.8 31.3-71.3 48.7-92 2.6-3.1 4.8-5.2 6.7-6 5.3-2.5 12.8-4.9 20.2-7 0.1 1 11.7 67-18.2 67l-1.4-6.2-27.7 40.7 24 58.9 11-5.9z"/>
			</g>
			<g id="&lt;Group&gt;">
				<path id="&lt;Path&gt;" class="s1" d="m136.9 126.4c0.5-1.2 1.4-1.6 2.4-1.4 0.5 0.1 0.9 0.3 1.3 0.7 1.4 1.1 2.4 3.3 2.4 3.3q0 0 0-0.1 0.1-0.2 0.1-0.5 0 0.3 0 0.5 0 1.3 0.1 3c0.2 2.3 0.4 5.1 0.7 7.8q0.2 1.7 0.6 3.4c-0.9 0.2-2.6 0.3-3.6-0.4-1.3-1-4.6-5.4-4.7-10.9-0.1-2.6 0.2-4.3 0.7-5.4z"/>
			</g>
			<g id="&lt;Group&gt;">
				<path id="&lt;Path&gt;" class="s3" d="m200.2 127.1v-0.1h2z"/>
			</g>
			<g id="&lt;Group&gt;">
				<path id="&lt;Path&gt;" class="s0" d="m167.5 144.8c0 0.3 0.3 0.5 0.6 0.4 1.7-0.2 6.5-0.8 7-2.6 0.3-1.7-3.7-9.2-5.5-12.5-0.2-0.4-1-0.3-1 0.1z"/>
			</g>
			<g id="&lt;Group&gt;">
				<path id="&lt;Path&gt;" class="s2" d="m175.7 130.2q-0.1 0-0.3-0.1c-0.5-0.2-0.8-0.7-0.6-1.2 0.1-0.2 1.4-3.5 6.7-3.6 5.3 0 7 2.6 7.1 2.7 0.3 0.5 0.2 1.1-0.2 1.4-0.5 0.3-1.1 0.2-1.4-0.3-0.1-0.1-1.4-1.8-5.5-1.8q0 0 0 0c-3.9 0-4.8 2.2-4.8 2.2-0.2 0.4-0.5 0.7-1 0.7z"/>
			</g>
			<g id="&lt;Group&gt;">
				<path id="&lt;Path&gt;" class="s2" d="m188.8 125.2q-0.3 0-0.6-0.2c-1.6-1.3-3.5-2.1-5.5-2.3-1.9-0.2-4 0.1-5.8 1-0.5 0.2-1 0-1.3-0.5-0.2-0.5 0-1.1 0.5-1.4 2.1-1 4.5-1.4 6.9-1.1 2.3 0.3 4.6 1.2 6.4 2.7 0.5 0.4 0.5 1 0.2 1.4-0.2 0.3-0.5 0.4-0.8 0.4z"/>
			</g>
			<g id="&lt;Group&gt;">
				<path id="&lt;Path&gt;" class="s2" d="m179.8 126.5c-0.4 0.1-0.3 0.7-0.3 1.1 0 1.3 1 2.3 2.3 2.3 1.2 0 2.3-1 2.3-2.3q0-0.6-0.3-1.1c0 0-2.3-0.6-4 0z"/>
			</g>
			<g id="&lt;Group&gt;">
				<path id="&lt;Path&gt;" class="s2" d="m163.3 130.2c-0.4 0-0.8-0.3-0.9-0.7-0.1-0.1-0.9-2.3-4.8-2.3q-0.1 0-0.1 0c-4 0-5.4 1.7-5.4 1.8-0.3 0.4-1 0.5-1.4 0.2-0.4-0.3-0.6-0.9-0.2-1.3 0-0.2 1.9-2.6 7.1-2.7 5.4 0.1 6.6 3.5 6.7 3.6 0.1 0.6-0.1 1.1-0.7 1.3q-0.1 0.1-0.3 0.1z"/>
			</g>
			<g id="&lt;Group&gt;">
				<path id="&lt;Path&gt;" class="s2" d="m150.3 125c-0.3 0-0.6-0.1-0.8-0.3-0.3-0.5-0.2-1.1 0.2-1.4 1.8-1.5 4.1-2.4 6.4-2.7 2.4-0.2 4.8 0.2 6.9 1.2 0.5 0.2 0.7 0.8 0.5 1.3-0.3 0.5-0.9 0.7-1.3 0.5-1.8-0.9-3.9-1.2-5.8-1-2 0.2-3.9 1-5.5 2.2q-0.3 0.2-0.6 0.2z"/>
			</g>
			<g id="&lt;Group&gt;">
				<path id="&lt;Path&gt;" class="s2" d="m155.3 126.4c-0.3 0.2-0.3 0.7-0.3 1.1 0 1.3 1 2.3 2.3 2.3 1.3 0 2.3-1 2.3-2.2q0-0.7-0.3-1.2c0 0-3-0.7-4 0z"/>
			</g>
			<g id="&lt;Group&gt;">
				<path id="&lt;Path&gt;" class="s4" d="m178.8 141c-0.2 2.2 2.4 4.1 5.8 4.3 3.3 0.3 6.1-1.3 6.3-3.5 0.1-2.2-2.5-4.1-5.8-4.3-3.4-0.2-6.2 1.4-6.3 3.5z"/>
			</g>
			<g id="&lt;Group&gt;">
				<path id="&lt;Path&gt;" class="s4" d="m148.9 139.6c-0.1 2.2 2.5 4.1 5.8 4.3 3.3 0.2 6.1-1.3 6.3-3.5 0.1-2.2-2.5-4.1-5.8-4.3-3.3-0.2-6.2 1.3-6.3 3.5z"/>
			</g>
			<g id="&lt;Group&gt;">
				<path id="&lt;Path&gt;" class="s0" d="m196 141.3q-0.1 0-0.3 0c-0.5-0.1-0.8-0.7-0.6-1.2 0.8-3.2 2.1-6.2 3.8-9 0.3-0.4 1-0.6 1.4-0.3 0.5 0.3 0.6 0.9 0.4 1.4-1.6 2.6-2.9 5.5-3.7 8.4-0.1 0.5-0.5 0.7-1 0.7z"/>
			</g>
			<g id="&lt;Group&gt;">
				<path id="&lt;Path&gt;" class="s0" d="m142.8 140.9c-0.5 0-0.9-0.3-1-0.7-0.7-3.1-1.9-6-3.6-8.7-0.3-0.4-0.1-1.1 0.4-1.3 0.4-0.3 1.1-0.2 1.3 0.3 1.8 2.8 3.1 5.9 3.9 9.2 0.1 0.5-0.2 1.1-0.8 1.2q-0.1 0-0.2 0z"/>
			</g>
			<g id="&lt;Group&gt;">
				<path id="&lt;Path&gt;" class="s2" d="m169.5 153.7c-2.7 0-6.7-0.7-9.5-4.1-0.4-0.4-0.3-1 0.1-1.4 0.4-0.3 1.1-0.3 1.4 0.2 3.8 4.5 10.6 3 10.7 3 0.6-0.1 1.1 0.2 1.2 0.8 0.1 0.5-0.2 1-0.7 1.2-0.2 0-1.4 0.3-3.2 0.3z"/>
			</g>
			<g id="&lt;Group&gt;">
				<path id="&lt;Path&gt;" class="s0" d="m169.1 332.2q-0.3 0-0.5-0.1c-0.5-0.2-0.7-0.8-0.5-1.3l2.9-6.2c0.2-0.5 0.8-0.8 1.3-0.5 0.5 0.2 0.8 0.8 0.5 1.3l-2.8 6.2c-0.2 0.4-0.6 0.6-0.9 0.6z"/>
			</g>
			<g id="&lt;Group&gt;">
				<path id="&lt;Path&gt;" class="s0" d="m226 415.4q-0.1 0-0.2 0c-0.5-0.1-0.9-0.7-0.8-1.2 9.8-54.4 5.6-65.3 1.4-75.9q-0.4-1.1-0.8-2.2c-4.2-11.4-12.9-27-13-27.1-0.3-0.5-0.1-1.1 0.4-1.4 0.5-0.3 1.1-0.1 1.4 0.4 0 0.2 8.8 15.9 13.1 27.4q0.4 1.1 0.8 2.2c4.2 10.8 8.6 22-1.3 76.9-0.1 0.5-0.5 0.9-1 0.9z"/>
			</g>
			<g id="&lt;Group&gt;">
				<path id="&lt;Path&gt;" class="s0" d="m229.9 396.5q-0.2 0-0.4-0.1c-0.5-0.2-0.7-0.8-0.5-1.3 1.3-3 3.1-5.9 5.1-8.5 0.3-0.5 1-0.5 1.4-0.2 0.4 0.3 0.5 1 0.2 1.4-2 2.5-3.6 5.2-4.9 8.1-0.1 0.4-0.5 0.6-0.9 0.6z"/>
			</g>
			<g id="&lt;Group&gt;">
				<path id="&lt;Path&gt;" class="s0" d="m104.9 244.2q-0.3 0-0.5-0.2c-0.5-0.3-0.6-0.9-0.3-1.4l11.1-16.2c0.3-0.4 0.9-0.5 1.4-0.2 0.5 0.3 0.6 0.9 0.3 1.4l-11.2 16.1c-0.1 0.3-0.5 0.5-0.8 0.5z"/>
			</g>
			<g id="&lt;Group&gt;">
				<path id="&lt;Path&gt;" class="s0" d="m79 282.3c-0.4 0-0.8-0.3-0.9-0.7-1.5-3.4-5.9-2.9-6.1-2.8-0.5 0-1-0.4-1.1-0.9-0.1-0.5 0.3-1 0.8-1.1 2.2-0.3 6.6 0.2 8.2 4.1 0.2 0.5 0 1.1-0.5 1.3q-0.2 0.1-0.4 0.1z"/>
			</g>
			<g id="&lt;Group&gt;">
				<path id="&lt;Path&gt;" class="s0" d="m124.1 338.5q-0.4 0-0.7-0.3c-0.4-0.4-0.4-1.1 0-1.4 0.5-0.6 0.8-1.4 1.2-2.2 0.4-1.2 0.9-2.5 2.1-3.3 1.2-0.8 2.6-0.9 3.8-0.9 3.2-0.2 6.1-0.4 8.7-1.6 0.4-0.2 0.8-0.4 1.1-0.8 0.1-0.2 0.2-0.5 0.1-0.6-0.1-0.3-0.9-0.4-1.2-0.4l-8.4-1.6c-1.7-0.3-3.3-0.6-4.9-0.3-2.6 0.4-4.7 2.4-6.3 4.3l-0.9 1c-1.6 1.9-3.3 3.8-5.5 5.1-0.5 0.2-1.1 0-1.4-0.4-0.3-0.5-0.1-1.1 0.4-1.4 1.9-1.1 3.4-2.8 5-4.6l0.9-1c1.8-2 4.2-4.4 7.4-5 2-0.4 3.9 0 5.6 0.3l8.5 1.6c0.6 0.1 2 0.4 2.6 1.5 0.4 0.8 0.3 1.9-0.4 2.8-0.5 0.6-1.2 1-1.8 1.3-2.9 1.3-6.1 1.6-9.5 1.8-0.9 0-2 0-2.7 0.5-0.6 0.5-1 1.4-1.4 2.4-0.4 1-0.8 2-1.6 2.9q-0.3 0.3-0.7 0.3z"/>
			</g>
			<g id="&lt;Group&gt;">
				<path id="&lt;Path&gt;" class="s0" d="m144.7 355.7c-0.4 0-0.8-0.2-0.9-0.6-0.3-0.5-0.1-1.1 0.4-1.3 0 0 0-0.1 0-0.3 0-0.2-0.2-0.6-0.4-0.9l-5-8.1c-0.8-1.3-1.7-2.7-3-3.4-0.8-0.5-1.9-0.7-2.9-0.9l-11-1.9c-0.6-0.1-0.9-0.6-0.8-1.2 0.1-0.5 0.6-0.9 1.1-0.8l11.1 1.9c1.1 0.2 2.4 0.5 3.5 1.1 1.8 1 2.8 2.7 3.7 4.1l5 8.2c0.3 0.4 0.6 1 0.7 1.7 0.1 0.9-0.3 1.9-1.1 2.3q-0.2 0.1-0.4 0.1z"/>
			</g>
			<g id="&lt;Group&gt;">
				<path id="&lt;Path&gt;" class="s0" d="m144.5 356.7q-0.3 0-0.5-0.1c-2-1.1-3.7-2.7-5.3-4.2-1.7-1.6-3.2-3.1-5.1-4-2.1-1-4.3-1.3-6.8-1.6-2.6-0.3-5.4-0.7-7.8-2.1-0.5-0.2-0.7-0.8-0.4-1.3 0.3-0.5 0.9-0.7 1.3-0.4 2.2 1.2 4.6 1.5 7.2 1.8 2.5 0.3 5 0.6 7.3 1.8 2.2 1 4 2.7 5.7 4.3 1.5 1.5 3 3 4.8 3.9 0.5 0.3 0.7 0.9 0.5 1.4-0.2 0.3-0.6 0.5-0.9 0.5z"/>
			</g>
			<g id="&lt;Group&gt;">
				<path id="&lt;Path&gt;" class="s0" d="m136.6 359.4c-0.3 0-0.5-0.1-0.7-0.3-5.1-5.6-12.9-8.5-20.3-7.7-0.6 0-1.1-0.4-1.1-0.9-0.1-0.6 0.3-1.1 0.8-1.1 8.1-0.9 16.6 2.3 22 8.4 0.4 0.4 0.4 1 0 1.4q-0.3 0.2-0.7 0.2z"/>
			</g>
			<g id="&lt;Group&gt;">
				<path id="&lt;Path&gt;" class="s0" d="m165.1 591.6q0 0-0.1 0c-0.6-0.1-0.9-0.6-0.8-1.2 0.1-0.6 12.5-62.7 17.3-85.7 4.8-22.8-6.8-101.8-6.9-102.6-0.1-0.6 0.3-1.1 0.9-1.2 0.5 0 1 0.3 1.1 0.9 0.5 3.3 11.7 80.2 6.9 103.3-4.8 23-17.2 85.1-17.4 85.7-0.1 0.5-0.5 0.8-1 0.8z"/>
			</g>
			<g id="&lt;Group&gt;">
				<path id="&lt;Path&gt;" class="s0" d="m166.9 511.2c-3.3 0-6.6-1-9.4-2.8-0.4-0.3-0.6-0.9-0.3-1.4 0.4-0.4 1-0.6 1.4-0.3 3.6 2.4 8.1 3.1 12.2 2 0.5-0.2 1.1 0.1 1.2 0.7 0.2 0.5-0.1 1.1-0.7 1.2q-2.1 0.6-4.4 0.6z"/>
			</g>
			<g id="&lt;Group&gt;">
				<path id="&lt;Path&gt;" class="s0" d="m191.2 510q-0.5 0-1 0c-0.6-0.1-1-0.6-1-1.1 0.1-0.6 0.5-1 1.1-0.9 4.1 0.2 8.2-1.2 11.3-4 0.4-0.4 1.1-0.3 1.4 0.1 0.4 0.4 0.4 1-0.1 1.4-3.2 2.9-7.4 4.5-11.7 4.5z"/>
			</g>
			<g id="&lt;Group&gt;">
				<path id="&lt;Path&gt;" class="s0" d="m156.3 678.2q-0.1 0-0.2 0c-0.5-0.1-0.9-0.6-0.8-1.2 2.1-13.2 2.2-26.7 0.2-39.9-0.1-0.6 0.2-1.1 0.8-1.2 0.5 0 1 0.3 1.1 0.9 2.1 13.5 2 27.1-0.1 40.5-0.1 0.5-0.5 0.9-1 0.9z"/>
			</g>
			<g id="&lt;Group&gt;">
				<path id="&lt;Path&gt;" class="s0" d="m147.2 683.8q-0.2 0-0.3-0.1c-0.6-0.2-0.8-0.7-0.7-1.2 0.7-1.8 0.7-3.7 0.1-5.4-0.1-0.6 0.2-1.1 0.7-1.3 0.5-0.2 1.1 0.1 1.2 0.7 0.7 2.1 0.7 4.5-0.1 6.6-0.1 0.4-0.5 0.7-0.9 0.7z"/>
			</g>
			<g id="&lt;Group&gt;">
				<path id="&lt;Path&gt;" class="s0" d="m140.1 683.4q-0.2 0-0.3-0.1c-0.6-0.2-0.8-0.7-0.6-1.3 0.6-1.4 0.7-2.9 0.5-4.4 0-0.5 0.3-1 0.9-1.1 0.5-0.1 1 0.3 1.1 0.9 0.3 1.8 0 3.7-0.6 5.4-0.2 0.4-0.6 0.6-1 0.6z"/>
			</g>
			<g id="&lt;Group&gt;">
				<path id="&lt;Path&gt;" class="s0" d="m134.4 682.4q-0.3 0-0.5-0.1c-0.5-0.2-0.7-0.8-0.4-1.3 0.5-1.2 0.7-2.5 0.7-3.8 0-0.5 0.4-1 1-1 0.5 0 1 0.4 1 1 0.1 1.6-0.3 3.2-0.9 4.6-0.2 0.4-0.6 0.6-0.9 0.6z"/>
			</g>
			<g id="&lt;Group&gt;">
				<path id="&lt;Path&gt;" class="s0" d="m130.8 681q-0.2 0-0.4-0.1c-0.5-0.3-0.7-0.9-0.5-1.4 0.5-0.9 0.8-2 0.9-3 0.1-0.6 0.6-1 1.1-0.9 0.6 0 1 0.5 0.9 1.1-0.1 1.3-0.5 2.6-1.1 3.8-0.2 0.3-0.5 0.5-0.9 0.5z"/>
			</g>
			<g id="&lt;Group&gt;">
				<path id="&lt;Path&gt;" class="s0" d="m162.3 679.9c-0.5 0-1-0.5-1-1l-0.1-4.6c0-0.6 0.5-1 1-1.1 0.6 0 1 0.5 1 1l0.1 4.7c0 0.5-0.4 1-1 1q0 0 0 0z"/>
			</g>
			<g id="&lt;Group&gt;">
				<path id="&lt;Path&gt;" class="s0" d="m169.6 680.2c-0.6 0-1-0.5-1-1l-0.1-4.8c0-0.5 0.5-1 1-1q0 0 0 0c0.6 0 1 0.5 1 1l0.1 4.7c0 0.6-0.5 1.1-1 1.1q0 0 0 0z"/>
			</g>
			<g id="&lt;Group&gt;">
				<path id="&lt;Path&gt;" class="s0" d="m175.4 679c-0.5 0-0.9-0.3-1-0.8l-0.4-3.9c-0.1-0.6 0.3-1.1 0.9-1.1 0.5-0.1 1 0.3 1.1 0.8l0.4 3.9c0.1 0.6-0.3 1.1-0.9 1.1q0 0-0.1 0z"/>
			</g>
			<g id="&lt;Group&gt;">
				<path id="&lt;Path&gt;" class="s0" d="m181.1 677.4c-0.4 0-0.9-0.4-0.9-0.9l-0.5-3.1c-0.1-0.6 0.2-1.1 0.8-1.2 0.5 0 1 0.3 1.1 0.9l0.5 3.1c0.1 0.6-0.3 1.1-0.8 1.2q-0.1 0-0.2 0z"/>
			</g>
			<g id="&lt;Group&gt;">
				<path id="&lt;Path&gt;" class="s0" d="m137 639c-0.4 0-0.8-0.3-1-0.7-0.2-0.5 0.1-1.1 0.6-1.3 2.8-1 6-1.1 8.8-0.2 0.6 0.1 0.9 0.7 0.7 1.2-0.1 0.5-0.7 0.8-1.2 0.7-2.5-0.7-5.2-0.6-7.6 0.2q-0.2 0.1-0.3 0.1z"/>
			</g>
			<g id="&lt;Group&gt;">
				<path id="&lt;Path&gt;" class="s0" d="m176.2 628q-0.1 0-0.3 0c-2.5-0.5-5-0.9-7.6-1.1-0.6 0-1-0.5-0.9-1 0-0.6 0.5-1 1-1 2.7 0.2 5.4 0.6 8 1.1 0.5 0.2 0.8 0.7 0.7 1.2-0.1 0.5-0.5 0.8-0.9 0.8z"/>
			</g>
		</g>
	</g>
</svg>