<svg version="1.2" xmlns="http://www.w3.org/2000/svg" viewBox="0 0 320 700" width="320" height="700">
	<title>8440513-ai</title>
	<style>
		.s0 { fill: #2b3448 } 
		.s1 { fill: #e06a43 } 
		.s2 { fill: #e79e73 } 
		.s3 { fill: #000000 } 
		.s4 { fill: #df895d } 
	</style>
	<g id="feminino">
		<g id="&lt;Group&gt;">
			<g id="&lt;Group&gt;">
				<path id="&lt;Path&gt;" class="s0" d="m227.5 166.9c-3.1-2.9-6.6-4.8-10.1-5.8-2.3-0.7-5.4-1.8-8.8-3-2.7-1-5.7-2.1-8.5-3.2-7.2-2.8-13.5-5.3-13.5-5.3l-42.4-6.1c0 0-12.1 2.7-23.8 5.5-2.7 0.6-5.3 1.3-7.8 1.9-5.2 1.3-9.8 2.6-12.2 3.4-1.5 0.5-3.9 3-6.9 7.1-1-1.5-1.6-3.2-1.8-5-0.4-3.9 1.4-7.9 4.5-10.3 1.8-1.3 4-2.2 5.3-4 3-4 0.1-10 2.3-14.5 2.4-5.2 10.1-5.5 13.7-10.1 2.6-3.3 2.4-7.9 1.9-12-0.5-4.1-1.2-8.5 0.7-12.3 2.5-4.9 8.8-7 11.2-12 1.8-4 2.3-19.8 14-22.5v-0.1c8.3-8.3 21.4-11.5 32.6-8 11.3 3.4 20.3 13.4 22.5 25 0.4 2 0.6 4.1 0.8 6.2 0.5 3.4 1.1 6.7 2.9 9.5 1 1.7 2.5 3.2 3.9 4.6 1.7 1.9 3.4 3.9 3.9 6.4 1.2 5.6-4 11.5-1.8 16.7 1.7 4.1 7.2 5.9 8.1 10.2 0.9 4.2-3.3 8.7-1.6 12.8 1.3 3.3 5.9 4.3 7.3 7.6 1 2.4-0.1 5.2 0.2 7.8 0.3 2.8 2.2 5.3 3.1 8q0.2 0.7 0.3 1.5z"/>
			</g>
			<g id="&lt;Group&gt;">
				<path id="&lt;Path&gt;" class="s1" d="m149 127.6c4.2 5.4 10.1 10.3 17.6 10.5q0.4 0.1 0.7 0.1 0.3 0 0.6-0.1c6.1-0.2 11.1-3.3 15-7.4l1 5.1c-17.9 20.3-39.6 7.7-39.6 7.7z"/>
			</g>
			<path id="&lt;Path&gt;" class="s2" d="m194.7 101.9c-0.2 2.5-0.5 5.5-0.7 7.8q-0.2 1.6-0.6 3.2 0 0.1 0 0.1h0.5c0 0-3.8 22.4-23.6 24.9q-0.9 0.1-1.8 0.2c-0.2 0-0.4 0-0.6 0q-0.3 0.1-0.6 0.1c-0.3 0-0.4 0-0.7-0.1-22.3 0-25.3-23.4-25.4-24.9q-0.1-0.1-0.1-0.1-0.4-1.7-0.6-3.4c-0.3-2.7-0.5-5.5-0.7-7.8q-0.1-1.7-0.2-3 0-0.2 0.1-0.5c0 0 3.7-33 28.6-33 25 0 27.2 28.7 26.4 36.5z"/>
			<g id="&lt;Group&gt;">
				<path id="&lt;Path&gt;" class="s1" d="m235 343.1c-36.6-1.1-67.3 42-67.3 42-17.8-40-78.5-53.2-78.5-53.2 1.2-5.3 2.6-10.3 4.3-14.9q0 0 0 0c1 0.8 60.4 47.3 135.8 3.9 1.4 4.8 2.8 10 4.2 15.3q0.8 3.4 1.5 6.9z"/>
			</g>
			<g id="&lt;Group&gt;">
				<path id="&lt;Path&gt;" class="s1" d="m100.2 225.4c0.3-11.5 4.9-24.8 8.1-36 3.9-14.2 4.3-37.8 4.4-38.5 2.4-0.6 5-1.3 7.7-1.9 0 0-6.1 59.8 44.7 59.8 50.8 0 35-53.9 35-53.9 2.8 1.1 5.8 2.2 8.6 3.2 0 0 16.9 41.5 17.8 61 0.9 19.5-8.9 34.2-8.9 34.2 0 0-0.5 4-1.1 9.5-48.9-23.2-107.7 0-107.7 0-0.1-5.8-0.1-10.1-0.1-10.1 0 0-4.1-4.7-7.5-17.9-0.8-3-1-6.1-1-9.4z"/>
			</g>
			<g id="&lt;Group&gt;">
				<path id="&lt;Path&gt;" class="s2" d="m227.5 166.9c5 4.6 8.9 11.5 9.9 20.5 1.7 14.5 7.6 96.4 7.6 96.4 0 0 1.6 63.1 0 75.9 0 0 1.8 21.7 0.7 28.2-1.1 6.5-8.6 19.4-8.6 19.4h-0.3c2.3-21 2.4-43.3-1.8-64.2q-0.7-3.5-1.5-6.9c-1.4-5.3-2.8-10.5-4.2-15.3-7.2-24.2-14.8-41.3-14.8-41.3 0.6-5.6 1.4-11.8 2-16.8 0.6-5.5 1.1-9.5 1.1-9.5 0 0 9.8-14.7 8.9-34.2-0.9-19.5-17.8-61-17.8-61 3.3 1.2 6.4 2.3 8.7 3 3.5 1 7 3 10.1 5.8z"/>
			</g>
			<g id="&lt;Group&gt;">
				<path id="&lt;Path&gt;" class="s2" d="m235 343.1c4.2 20.9 4.1 43.2 1.8 64.2-5.3 49.2-22.3 91.3-22.3 91.3 0 0 7.3 44.6 2 71.3-5.3 26.8-14.5 45.5-16.6 64.4-2.1 18.9 5.7 34.3 2.1 41.5-2.9 5.9-24.9 3.6-35.3-2.3 0.9-2.3 1.1-4.7 0.8-6.8-0.3-2.9-2.1-8-4.1-14.1 3.3-7.3 10.4-22 10.5-27.6 0.1-7.4-6.5-110.3-6.5-110.3 0.2-1.7 0.3-2.5 0.3-2.5 0 0 3.9-95.3 0-127.1 0 0 30.7-43.1 67.3-42z"/>
			</g>
			<g id="&lt;Group&gt;">
				<path id="&lt;Path&gt;" class="s2" d="m229.3 320.9q-4.8 2.7-9.4 5c0 0-19.6 23.9-48.2 23.9-28.5 0-53.6-19.3-53.6-19.3-15.2-6.1-24.3-13.2-24.6-13.5 6.8-19.2 16.4-31.6 16.4-31.6-0.7-5.8-1-15.4-1.1-22.6 0 0 26.2-10.4 58.1-10.4 15.9 0 33.3 2.6 49.6 10.4-0.6 5-1.4 11.2-2 16.8 0 0 7.6 17.1 14.8 41.3z"/>
			</g>
			<g id="&lt;Group&gt;">
				<path id="&lt;Path&gt;" class="s2" d="m200.1 95.1c1.4 0.5 2.2 2.4 2.1 6.7-0.1 5.6-3.6 9.9-5 10.9-1.5 1-3.3 0.3-3.3 0.3l-0.5-0.1q0.4-1.6 0.6-3.2c0.2-2.3 0.5-5.3 0.7-7.8 1.2-1.9 2.1-4 2.8-6.2 0.5-0.4 0.9-0.6 1.4-0.7q0.6-0.1 1.2 0.1z"/>
			</g>
			<g id="&lt;Group&gt;">
				<path id="&lt;Path&gt;" class="s2" d="m200.1 154.9c0 0 15.8 53.9-35 53.9-50.8 0-44.7-59.8-44.7-59.8 11.7-2.8 23.9-5.5 23.9-5.5 0 0 21.7 12.6 39.6-7.7l2.7 13.8c0 0 6.3 2.5 13.5 5.3z"/>
			</g>
			<g id="&lt;Group&gt;">
				<path id="&lt;Path&gt;" class="s2" d="m166.7 673.5c-2 5-7.5 9.5-19.1 9.5-17.1 0-24.7-7.5-22.1-11.6 2.6-4 6.4-27.4 6.4-27.4 0 0-21.7-90.5-22.4-106.7-0.8-16.2 6.6-39.5 6.6-39.5-14-30-22.4-72.5-26.4-97.7-2.1-12.7-3-21.1-3-21.1 2.8 3.4 5.7 7 6.3 8 1.4 2.1 8.8 1.4 4.1-10.2-4.7-11.5-7.5-14.6-7.5-14.6 0 0 3.9-9-2.6-15.8 0.4-5 1.2-9.9 2.2-14.5 0 0 60.7 13.2 78.5 53.2 3.9 31.8 0 127.1 0 127.1 0 0-0.1 0.8-0.3 2.5-1.7 15.4-10.5 98.1-9.8 111.8 0.4 8.5 3.2 18.1 5.8 26.1 2 6.1 3.8 11.2 4.1 14.1 0.3 2.1 0.1 4.5-0.8 6.8z"/>
			</g>
			<g id="&lt;Group&gt;">
				<path id="&lt;Path&gt;" class="s2" d="m133.1 96.4c0.6-1.2 1.5-1.6 2.6-1.4 0.5 0.1 0.9 0.3 1.3 0.7 1.5 1.1 2.6 3.3 2.6 3.3q0 0 0-0.1 0-0.2 0.1-0.5-0.1 0.3-0.1 0.5 0.1 1.3 0.2 3c0.2 2.4 0.4 5.1 0.7 7.8q0.2 1.7 0.7 3.4c-1 0.2-2.8 0.3-3.8-0.4-1.4-1-4.9-5.3-5-10.9-0.1-2.6 0.2-4.3 0.7-5.4z"/>
			</g>
			<g id="&lt;Group&gt;">
				<path id="&lt;Path&gt;" class="s2" d="m86.7 379c0 0 0.9 8.4 3 21.1 0 0-4.9-1.7-6.7-5.1-1.7-3.4-10.4-10.3-10.4-10.3 0 0 0 0-0.5-2.1-0.4-2.1-0.2-13.3-1.1-20-0.9-6.8-25.5-77.9-27.4-84.9-2-7.1-1.7-10.5-1.7-10.5 9.1-33.5 37.3-86.7 51.6-105.8 3-4.1 5.4-6.6 6.9-7.1 2.4-0.8 7-2.1 12.3-3.4-0.1 0.7-0.5 24.3-4.4 38.5-3.2 11.2-7.8 24.5-8.1 36l-25.4 47 8.3 71q2.4 1.4 3.9 3c6.5 6.8 2.6 15.8 2.6 15.8 0 0 2.8 3.1 7.5 14.6 4.7 11.6-2.7 12.3-4.1 10.2-0.6-1-3.5-4.6-6.3-8z"/>
			</g>
			<g id="&lt;Group&gt;">
				<path id="&lt;Path&gt;" class="s3" d="m132.6 94.5h2z"/>
			</g>
			<g id="&lt;Group&gt;">
				<path id="&lt;Path&gt;" class="s1" d="m169.5 113.4c0 0.3-0.3 0.5-0.7 0.5-1.8-0.2-6.9-1-7.4-2.9-0.4-1.8 3.9-9.8 5.8-13.3 0.2-0.4 1.1-0.3 1.1 0.2z"/>
			</g>
			<g id="&lt;Group&gt;">
				<path id="&lt;Path&gt;" class="s0" d="m160.7 97.8c-0.4 0-0.8-0.2-1-0.7 0 0-0.9-2.3-5.1-2.3q0 0-0.1 0c-4.3 0-5.7 1.8-5.8 1.9-0.3 0.4-0.9 0.6-1.4 0.2-0.4-0.3-0.5-0.9-0.2-1.3 0-0.1 1.9-2.8 7.4-2.8q0.1 0 0.1 0c5.7 0 7 3.5 7 3.7 0.2 0.5-0.1 1.1-0.6 1.3q-0.2 0-0.3 0z"/>
			</g>
			<g id="&lt;Group&gt;">
				<path id="&lt;Path&gt;" class="s0" d="m146.8 92.5c-0.3 0-0.6-0.1-0.8-0.4-0.3-0.4-0.2-1 0.2-1.4 1.9-1.5 4.3-2.6 6.8-2.8 2.5-0.3 5.1 0.1 7.3 1.2 0.5 0.2 0.7 0.8 0.5 1.3-0.3 0.5-0.9 0.7-1.4 0.5-1.9-0.9-4.1-1.3-6.2-1.1-2.1 0.3-4.1 1.1-5.7 2.5q-0.3 0.2-0.7 0.2z"/>
			</g>
			<g id="&lt;Group&gt;">
				<path id="&lt;Path&gt;" class="s0" d="m156.4 93.9c0.4 0.1 0.3 0.8 0.3 1.2 0 1.4-1.1 2.5-2.4 2.5-1.4 0-2.4-1.1-2.4-2.4q0-0.7 0.3-1.2c0 0 2.3-0.7 4.2-0.1z"/>
			</g>
			<g id="&lt;Group&gt;">
				<path id="&lt;Path&gt;" class="s0" d="m173.9 97.8q-0.2 0-0.3-0.1c-0.5-0.2-0.8-0.7-0.6-1.3 0-0.1 1.3-3.7 7-3.7q0 0 0.1 0c5.4 0 7.3 2.6 7.4 2.7 0.3 0.5 0.2 1.1-0.2 1.4-0.5 0.3-1.1 0.2-1.4-0.2-0.1-0.1-1.5-1.9-5.8-1.9q-0.1 0-0.1 0c-4.2 0-5.1 2.3-5.2 2.4-0.1 0.4-0.5 0.7-0.9 0.7z"/>
			</g>
			<g id="&lt;Group&gt;">
				<path id="&lt;Path&gt;" class="s0" d="m187.7 92.3q-0.3 0-0.6-0.2c-1.7-1.3-3.7-2.1-5.8-2.4-2.1-0.2-4.3 0.2-6.2 1.1-0.5 0.2-1.1 0-1.3-0.5-0.3-0.5-0.1-1.1 0.4-1.3 2.3-1.1 4.8-1.5 7.3-1.3 2.5 0.3 4.9 1.3 6.8 2.9 0.5 0.3 0.5 0.9 0.2 1.4-0.2 0.2-0.5 0.3-0.8 0.3z"/>
			</g>
			<g id="&lt;Group&gt;">
				<path id="&lt;Path&gt;" class="s0" d="m182.4 93.8c0.3 0.3 0.3 0.8 0.3 1.2 0 1.4-1.1 2.5-2.4 2.5-1.3 0-2.4-1.1-2.4-2.4q0-0.7 0.3-1.3c0 0 3.2-0.7 4.2 0z"/>
			</g>
			<g id="&lt;Group&gt;">
				<path id="&lt;Path&gt;" class="s4" d="m157.5 109.4c0.1 2.3-2.6 4.3-6.2 4.6-3.5 0.2-6.5-1.5-6.7-3.8-0.1-2.3 2.6-4.3 6.2-4.6 3.5-0.2 6.5 1.5 6.7 3.8z"/>
			</g>
			<g id="&lt;Group&gt;">
				<path id="&lt;Path&gt;" class="s4" d="m189.2 107.9c0.2 2.3-2.6 4.3-6.1 4.6-3.6 0.2-6.6-1.5-6.7-3.8-0.2-2.3 2.6-4.4 6.1-4.6 3.6-0.2 6.6 1.5 6.7 3.8z"/>
			</g>
			<g id="&lt;Group&gt;">
				<path id="&lt;Path&gt;" class="s1" d="m139.1 109.7c-0.4 0-0.8-0.3-0.9-0.8-0.9-3.1-2.2-6.2-3.9-9-0.3-0.4-0.2-1 0.3-1.3 0.5-0.3 1.1-0.2 1.4 0.3 1.8 3 3.2 6.2 4.1 9.5 0.2 0.5-0.2 1.1-0.7 1.2q-0.1 0.1-0.3 0.1z"/>
			</g>
			<g id="&lt;Group&gt;">
				<path id="&lt;Path&gt;" class="s1" d="m195.7 109.2q-0.1 0-0.2 0c-0.6-0.1-0.9-0.7-0.8-1.2 0.9-3.5 2.2-6.8 4.1-9.8 0.3-0.5 0.9-0.6 1.4-0.3 0.4 0.3 0.6 0.9 0.3 1.4-1.8 2.8-3 5.9-3.8 9.2-0.1 0.4-0.5 0.7-1 0.7z"/>
			</g>
			<g id="&lt;Group&gt;">
				<path id="&lt;Path&gt;" class="s0" d="m167.3 122.8c-1.9 0-3.2-0.3-3.3-0.4-0.6-0.1-0.9-0.6-0.8-1.2 0.2-0.5 0.7-0.8 1.2-0.7 0.1 0 7.4 1.6 11.5-3.3 0.3-0.4 0.9-0.5 1.4-0.1 0.4 0.3 0.4 1 0.1 1.4-3 3.5-7.2 4.3-10.1 4.3z"/>
			</g>
			<g id="&lt;Group&gt;">
				<path id="&lt;Path&gt;" class="s1" d="m236.8 408.3q0 0-0.1 0c-0.5-0.1-0.9-0.6-0.9-1.1 3.8-35.7-1.4-62.5-7.5-86-5.7-21.9-14.6-41-14.7-41.2q-0.2-0.2-0.1-0.5l2-16.9c0.1-0.5 0.6-0.9 1.1-0.8 0.5 0 0.9 0.5 0.9 1.1l-2 16.5c1.1 2.4 9.4 20.6 14.7 41.3 6.2 23.7 11.4 50.7 7.6 86.7 0 0.5-0.5 0.9-1 0.9z"/>
			</g>
			<g id="&lt;Group&gt;">
				<path id="&lt;Path&gt;" class="s1" d="m167.4 515.7q-0.1 0-0.2 0c-0.5-0.1-0.9-0.7-0.8-1.2 7.3-41.9 0.3-128.4 0.3-129.3-0.1-0.5 0.3-1 0.9-1 0.5-0.1 1 0.3 1.1 0.9 0 0.8 7 87.6-0.3 129.7-0.1 0.5-0.5 0.9-1 0.9z"/>
			</g>
			<g id="&lt;Group&gt;">
				<path id="&lt;Path&gt;" class="s1" d="m150.4 507.6c-2.4 0-4.8-0.4-7-1.2-4.6-1.6-8.6-4.8-11.1-9-0.3-0.4-0.1-1 0.3-1.3 0.5-0.3 1.1-0.2 1.4 0.3 2.3 3.7 5.9 6.7 10 8.1 4.1 1.4 8.8 1.4 12.9-0.1 0.6-0.2 1.1 0.1 1.3 0.6 0.2 0.5-0.1 1.1-0.6 1.3-2.3 0.8-4.8 1.3-7.2 1.3z"/>
			</g>
			<g id="&lt;Group&gt;">
				<path id="&lt;Path&gt;" class="s1" d="m190.4 507.6c-4.5 0-8.9-1.4-12.6-4-0.5-0.3-0.6-0.9-0.3-1.4 0.4-0.5 1-0.6 1.4-0.2 3.7 2.6 8.2 3.8 12.7 3.5 4.4-0.2 8.7-2.1 12.1-5.1 0.4-0.3 1-0.3 1.4 0.1 0.3 0.4 0.3 1-0.1 1.4-3.6 3.3-8.4 5.3-13.3 5.6q-0.7 0.1-1.3 0.1z"/>
			</g>
			<g id="&lt;Group&gt;">
				<path id="&lt;Path&gt;" class="s1" d="m166.1 674.2q-0.1 0-0.2 0c-0.5-0.2-0.9-0.7-0.7-1.2 1.5-6.7 0.5-14-2.8-20-0.3-0.5-0.1-1.1 0.4-1.4 0.5-0.2 1.1-0.1 1.4 0.4 3.5 6.5 4.5 14.3 2.9 21.4-0.1 0.5-0.5 0.8-1 0.8z"/>
			</g>
			<g id="&lt;Group&gt;">
				<path id="&lt;Path&gt;" class="s1" d="m155.4 682.8c-0.3 0-0.6-0.2-0.8-0.5-2.4-3.4-3.2-7.9-2-12 0.2-0.5 0.7-0.8 1.3-0.6 0.5 0.1 0.8 0.7 0.6 1.2-1 3.4-0.3 7.4 1.7 10.3 0.3 0.4 0.2 1.1-0.2 1.4q-0.3 0.2-0.6 0.2z"/>
			</g>
			<g id="&lt;Group&gt;">
				<path id="&lt;Path&gt;" class="s1" d="m145.4 683.2c-0.5 0-0.9-0.3-1-0.7-0.7-2.5-0.8-5.2-0.5-7.8 0.1-0.5 0.6-0.9 1.2-0.8 0.5 0.1 0.9 0.6 0.8 1.1-0.3 2.3-0.2 4.7 0.5 6.9 0.1 0.6-0.2 1.1-0.7 1.3q-0.2 0-0.3 0z"/>
			</g>
			<g id="&lt;Group&gt;">
				<path id="&lt;Path&gt;" class="s1" d="m138.4 682.7c-0.5 0-0.9-0.4-1-0.9-0.1-2.5 0.2-5.1 1.1-7.5 0.1-0.5 0.7-0.8 1.2-0.6 0.6 0.2 0.8 0.8 0.7 1.3-0.8 2.1-1.1 4.4-1 6.7 0.1 0.5-0.4 1-0.9 1q0 0-0.1 0z"/>
			</g>
			<g id="&lt;Group&gt;">
				<path id="&lt;Path&gt;" class="s1" d="m130.7 679.7q0 0 0 0c-0.6 0-1-0.5-1-1.1q0.2-3.2 1.2-6.4c0.2-0.5 0.7-0.8 1.3-0.6 0.5 0.2 0.8 0.7 0.6 1.2q-0.9 2.9-1.1 5.9c0 0.6-0.4 1-1 1z"/>
			</g>
			<g id="&lt;Group&gt;">
				<path id="&lt;Path&gt;" class="s1" d="m174.3 677.2q-0.2 0-0.4-0.1c-0.5-0.2-0.7-0.8-0.6-1.3q1-2.5 1.2-5.2 0.3-2.7-0.8-3.7c-0.4-0.4-0.5-1-0.1-1.4 0.4-0.4 1-0.5 1.4-0.1q1.8 1.7 1.5 5.4-0.2 2.9-1.3 5.7c-0.1 0.4-0.5 0.7-0.9 0.7z"/>
			</g>
			<g id="&lt;Group&gt;">
				<path id="&lt;Path&gt;" class="s1" d="m182 679q-0.3 0-0.5-0.1c-0.5-0.2-0.7-0.8-0.4-1.3 1-2.1 1.3-4.5 0.7-6.8-0.1-0.5 0.2-1 0.7-1.2 0.6-0.1 1.1 0.2 1.3 0.7 0.7 2.7 0.3 5.7-1 8.2-0.1 0.3-0.5 0.5-0.8 0.5z"/>
			</g>
			<g id="&lt;Group&gt;">
				<path id="&lt;Path&gt;" class="s1" d="m189 679.6q-0.2 0-0.4-0.1c-0.5-0.2-0.8-0.8-0.6-1.3 0.8-1.8 1-3.9 0.6-5.8-0.2-0.6 0.2-1.1 0.7-1.2 0.6-0.2 1.1 0.2 1.2 0.7 0.5 2.4 0.3 4.9-0.6 7.1-0.2 0.3-0.5 0.6-0.9 0.6z"/>
			</g>
			<g id="&lt;Group&gt;">
				<path id="&lt;Path&gt;" class="s1" d="m197.3 678.4q-0.2 0-0.4-0.1c-0.5-0.2-0.8-0.7-0.6-1.3 0.5-1.4 0.6-3.1 0.1-4.6-0.1-0.5 0.2-1.1 0.7-1.2 0.5-0.2 1.1 0.1 1.2 0.7 0.6 1.9 0.6 3.9-0.1 5.8-0.1 0.4-0.5 0.7-0.9 0.7z"/>
			</g>
			<g id="&lt;Group&gt;">
				<path id="&lt;Path&gt;" class="s1" d="m192.3 632.2q-0.2 0-0.4 0c-3.3-1.3-6.8-2.3-10.3-2.8-0.5 0-0.9-0.5-0.8-1.1 0-0.5 0.5-0.9 1.1-0.8 3.7 0.5 7.3 1.4 10.7 2.8 0.5 0.2 0.8 0.8 0.6 1.3-0.2 0.4-0.5 0.6-0.9 0.6z"/>
			</g>
			<g id="&lt;Group&gt;">
				<path id="&lt;Path&gt;" class="s1" d="m136.7 639.2c-0.4 0-0.7-0.2-0.9-0.6-0.2-0.5 0-1.1 0.5-1.3 2.8-1.2 5.8-2.1 8.9-2.7 0.5-0.1 1 0.2 1.1 0.8 0.1 0.5-0.2 1-0.8 1.1-2.9 0.6-5.7 1.5-8.4 2.6q-0.2 0.1-0.4 0.1z"/>
			</g>
			<g id="&lt;Group&gt;">
				<path id="&lt;Path&gt;" class="s1" d="m167.4 308.8q-0.3 0-0.6-0.2c-0.4-0.4-0.5-1-0.2-1.4l3.4-4.3c0.4-0.4 1-0.5 1.4-0.2 0.5 0.4 0.5 1 0.2 1.4l-3.4 4.3c-0.2 0.3-0.5 0.4-0.8 0.4z"/>
			</g>
			<g id="&lt;Group&gt;">
				<path id="&lt;Compound Path&gt;" fill-rule="evenodd" class="s1" d="m95.8 389.2q-0.2 0-0.3 0c-0.8-0.1-1.2-0.7-1.4-1l-13.8-17.4c-0.3-0.4-0.2-1 0.2-1.4 0.4-0.3 1.1-0.2 1.4 0.2l13.7 17.4c0.1 0 0.2 0.2 0.3 0.2 0 0 0.1-0.1 0.2-0.3 1.6-2.3 1.8-5.5 0.6-8.8-1-2.8-2.9-5.3-4.7-7.7l-0.5-0.7c-1.4-1.9-2.6-3.7-3-6-0.2-1.5 0-2.9 0.2-4.3q0.1-0.9 0.2-1.7c0.4-4.3-1.4-8.9-4.6-11.9-0.4-0.3-0.4-1 0-1.4 0.3-0.4 1-0.4 1.4 0 3.6 3.4 5.6 8.5 5.2 13.5q-0.1 0.9-0.2 1.8c-0.2 1.3-0.4 2.5-0.2 3.7 0.3 1.8 1.4 3.5 2.6 5.1l0.5 0.7c1.9 2.5 3.9 5.1 5 8.2 1.4 3.9 1.1 7.9-0.8 10.6-0.7 1-1.5 1.2-2 1.2zm0.1-1.9z"/>
			</g>
			<g id="&lt;Group&gt;">
				<path id="&lt;Path&gt;" class="s1" d="m92.7 414.8c-0.4 0-0.8-0.3-1-0.8-3.1-12-5.4-24.3-7-36.6 0-0.5 0.4-1 0.9-1.1 0.6-0.1 1.1 0.3 1.1 0.9 1.6 12.2 3.9 24.4 7 36.3 0.1 0.6-0.2 1.1-0.7 1.3q-0.2 0-0.3 0z"/>
			</g>
			<g id="&lt;Group&gt;">
				<path id="&lt;Path&gt;" class="s1" d="m87.1 387.8q-0.4 0-0.7-0.3l-5.3-4.8c-0.4-0.4-0.4-1 0-1.4 0.4-0.4 1-0.4 1.4-0.1l5.2 4.9c0.4 0.3 0.5 1 0.1 1.4-0.2 0.2-0.5 0.3-0.7 0.3z"/>
			</g>
		</g>
	</g>
</svg>