<svg version="1.2" xmlns="http://www.w3.org/2000/svg" viewBox="0 0 320 700" width="320" height="700">
	<title>8440513-ai</title>
	<style>
		.s0 { fill: #e06a43 } 
		.s1 { fill: #e79e73 } 
		.s2 { fill: #2b3448 } 
		.s3 { fill: #df895d } 
	</style>
	<g id="masculino">
		<g id="&lt;Group&gt;">
			<g id="&lt;Group&gt;">
				<path id="&lt;Path&gt;" class="s0" d="m220.1 321.8c0.8 7.8 1.3 14.6 1.4 18.8-22 4.6-57.8 42.7-57.8 42.7h-3.2c0 0-35.7-38.1-57.7-42.7 0.1-4.2 0.6-11 1.4-18.8 5.8 2.1 20.6 4.9 57.9 4.9 37.4 0 52.2-2.8 58-4.9z"/>
			</g>
			<g id="&lt;Group&gt;">
				<path id="&lt;Path&gt;" class="s0" d="m182.7 100.9c-13.1 20-43.7 13.3-43.7 13.3l3.1-16.2c4.2 5.2 10.4 10.7 12.3 11.8 2.7 1.7 7.4 1.8 7.4 1.8 0 0 4.8-0.1 7.5-1.8 1.9-1.2 8.6-7 12.8-12.4z"/>
			</g>
			<g id="&lt;Group&gt;">
				<path id="&lt;Path&gt;" class="s1" d="m137.2 83.4c0 0-1.7 0.7-3-0.2-1.4-1-4.6-5.3-4.7-10.7 0-3.3 0.5-5.2 1.3-6.1 0.5-0.5 1.1-0.6 1.8-0.5 1.9 0.3 3.6 3.9 3.6 3.9 0.2 3.5 0.5 8.9 1 13.6z"/>
			</g>
			<g id="&lt;Group&gt;">
				<path id="&lt;Path&gt;" class="s1" d="m192.7 66.3c1 0.8 1.5 2.7 1.4 6.2-0.1 5.4-3.3 9.7-4.6 10.7-1.4 0.9-3 0.2-3 0.2 0.4-4.7 0.8-10.1 1-13.6 0.2-0.4 1.8-3.6 3.5-3.9 0.7-0.1 1.3 0 1.7 0.4z"/>
			</g>
			<g id="&lt;Group&gt;">
				<path id="&lt;Path&gt;" class="s1" d="m142.1 98c-1.8-2.3-3.2-4.5-3.7-6.4-0.5-1.8-0.9-4.8-1.2-8.2-0.5-4.7-0.8-10.1-1-13.6-0.1-2.2-0.2-3.7-0.2-3.7 0 0 0.1-6.5 2.4-14.7 2.3-8.1 7.1-10.3 9.8-9.9 2.7 0.3 5.6 1.9 13.6 1.9 8 0 11-1.6 13.7-1.9 2.6-0.4 7.4 1.8 9.7 9.9 2.4 8.2 2.4 14.7 2.4 14.7 0 0 0 1.5-0.1 3.7-0.2 3.5-0.6 8.9-1 13.6-0.4 3.4-0.8 6.4-1.3 8.2-0.4 1.7-1.6 3.7-3.1 5.8-4.2 5.4-10.9 11.2-12.8 12.4-2.7 1.7-7.5 1.8-7.5 1.8 0 0-4.7-0.1-7.4-1.8-1.9-1.1-8.1-6.6-12.3-11.8z"/>
			</g>
			<g id="&lt;Group&gt;">
				<path id="&lt;Path&gt;" class="s1" d="m270 351.1c0 2.4-1.2 7.7-1.2 7.7 0 0 0.5 24 0.6 28.6 0.1 4.5-5.8 11.3-5.8 11.3 0 0-1.8 9.7-2.7 11.9-1 2.3-12 9.8-13.1 10.5-1 0.8-2.5-2.1-2.5-2.1l-3.8 3.8c0 0-4.3-0.6-1.9-6.8 2.4-6.1 8.4-13.4 8.4-13.4l1.8-16.2c0 0-5.4 7.1-7.5 12.3-2 5.1-3.9 8.1-4.9 8.1-0.9 0-3.6-1.3-3.1-6.7 0.4-5.3 5.3-15.9 5.3-15.9 0 0-0.1-9.9 1.7-16 1.8-6.2 9.4-16.9 9.4-16.9 0 0-16.1-49-19.7-60-3.6-11.1-2.8-32.4-2.8-32.4l-9.8-42.6-6.2 41.9c0 0 5.3 37.8 7.9 63.6-5.8 2.1-20.6 4.9-58 4.9-37.3 0-52.1-2.8-57.9-4.9 2.6-25.8 7.9-63.6 7.9-63.6l-6.2-41.9-9.8 42.6c0 0 0.8 21.3-2.8 32.4-3.6 11-19.7 60-19.7 60 0 0 7.6 10.7 9.4 16.9 1.8 6.1 1.7 16 1.7 16 0 0 4.9 10.6 5.3 15.9 0.5 5.4-2.2 6.7-3.1 6.7-1 0-2.9-3-5-8.1-2-5.2-7.4-12.3-7.4-12.3l1.8 16.2c0 0 6 7.3 8.4 13.4 2.4 6.2-1.9 6.8-1.9 6.8l-3.8-3.8c0 0-1.5 2.9-2.6 2.1-1-0.7-12-8.2-13-10.5-0.9-2.2-2.7-11.9-2.7-11.9 0 0-5.9-6.8-5.8-11.3 0.1-4.6 0.6-28.6 0.6-28.6 0 0-1.2-5.3-1.2-7.7 0-2.3 5.6-55.4 5.4-62.4-0.3-6.9 6.6-30.5 6.6-30.5 0 0 6.8-89.4 8.9-102.1 2.1-12.8 13-22.4 22.7-25.4 9.8-2.9 41.1-16.5 41.1-16.5 0 0 30.6 6.7 43.7-13.3l2.6 13.3c0 0 31.3 13.6 41.1 16.5 9.7 3 20.6 12.6 22.7 25.4 2.1 12.7 8.9 102.1 8.9 102.1 0 0 6.9 23.6 6.6 30.5-0.2 7 5.4 60.1 5.4 62.4z"/>
			</g>
			<g id="&lt;Group&gt;">
				<path id="&lt;Path&gt;" class="s1" d="m160.5 383.3l-19.9 117.1c0 0 1.1 22.8-1.6 40.6-2.7 17.7-17.4 90.4-17.4 90.4 0.6 3.2 0.8 10.2 0.8 10.2 0 0 3.8 16.4 3.3 19.8-0.5 3.3-14.5 6.6-14.5 6.6-2.4 3.1-10.9 7.4-10.9 7.4 0 0-5.4 4-11.6 3.8-6.3-0.2-20.4-1-22.4-2.8-1.9-1.8-3.3-2.6-3.3-5.3-0.1-2.7 14.5-10.6 16.5-12.9 2.1-2.3 18.7-21.3 18.7-21.3 0 0-1.4-109.2-1.8-116.7-0.4-7.5 1.8-30.1 1.8-30.1-4.6-34.7 4.5-132 4.6-149q0-0.3 0-0.5c22 4.6 57.7 42.7 57.7 42.7z"/>
			</g>
			<g id="&lt;Group&gt;">
				<path id="&lt;Path&gt;" class="s1" d="m244.8 658.2c2 2.3 16.6 10.2 16.5 12.9 0 2.7-1.4 3.5-3.3 5.3-2 1.8-16.1 2.6-22.4 2.8-6.3 0.2-11.6-3.8-11.6-3.8 0 0-8.5-4.3-10.9-7.4 0 0-14-3.3-14.5-6.6-0.5-3.4 3.3-19.8 3.3-19.8 0 0 0.2-7 0.8-10.2 0 0-14.7-72.7-17.4-90.4-2.7-17.8-1.6-40.6-1.6-40.6l-20-117.1c0 0 35.8-38.1 57.8-42.7q0 0.2 0 0.5c0.1 17 9.2 114.3 4.5 149 0 0 2.3 22.6 1.9 30.1-0.4 7.5-1.9 116.7-1.9 116.7 0 0 16.7 19 18.8 21.3z"/>
			</g>
			<g id="&lt;Group&gt;">
				<path id="&lt;Path&gt;" class="s2" d="m136.9 29.1c0.4-3 1.5-5.8 3.1-8.4 0.9-1.5 2.1-2.9 3.8-3.3 1.5-0.3 2.9 0.2 4.4 0.6 4.9 1.4 10.1 1.4 15.2 1.4 5.1 0 10.4 0.2 15.2 2.1 4.6 1.9 8.7 5.8 9.7 10.7 1.3 0.4 2.5 1.3 3.2 2.5 1.3 2 1.5 4.6 1.6 7 0.4 8.2 0 16.4-0.4 24.6-0.4-0.4-1-0.5-1.7-0.4-1.7 0.3-3.3 3.5-3.5 3.9 0.1-2.2 0.1-3.7 0.1-3.7 0 0 0-6.5-2.4-14.7-2.3-8.1-7.1-10.3-9.7-9.9-2.7 0.3-5.7 1.9-13.7 1.9-8 0-10.9-1.6-13.6-1.9-2.7-0.4-7.5 1.8-9.8 9.9-2.3 8.2-2.4 14.7-2.4 14.7 0 0 0.1 1.5 0.2 3.7 0 0-1.7-3.6-3.6-3.9-0.7-0.1-1.3 0-1.8 0.5-0.6-7.3-1.1-14.6-0.8-21.8 0.2-3.2 0.5-6.4 1.7-9.3 1-2.5 2.8-4.8 5.2-6.2z"/>
			</g>
			<g id="&lt;Group&gt;">
				<path id="&lt;Path&gt;" class="s0" d="m112.1 259.2c-0.5 0-0.9-0.4-1-0.9l-9.2-55.9-9.9-20.5c-0.2-0.5 0-1.1 0.5-1.3 0.5-0.3 1.1-0.1 1.3 0.4l9.9 20.7q0.1 0.1 0.1 0.2l9.2 56.1c0.1 0.5-0.2 1-0.8 1.1q-0.1 0.1-0.1 0.1z"/>
			</g>
			<g id="&lt;Group&gt;">
				<path id="&lt;Path&gt;" class="s0" d="m129.1 225.6c-0.4 0-0.7-0.2-0.9-0.6-0.2-0.5 0-1.1 0.6-1.3 0.9-0.4 23.8-10 33.5-8.9 9.4 1 34.5 6.9 35.5 7.2 0.6 0.1 0.9 0.7 0.8 1.2-0.2 0.5-0.7 0.9-1.2 0.7-0.3 0-26-6.1-35.4-7.1-9.1-1-32.2 8.7-32.5 8.8q-0.2 0-0.4 0z"/>
			</g>
			<g id="&lt;Group&gt;">
				<path id="&lt;Path&gt;" class="s0" d="m60.7 399.7c-0.5 0-0.9-0.4-1-0.9l-1.5-8.8c-0.1-0.6 0.2-1.1 0.8-1.2 0.5-0.1 1 0.3 1.1 0.8l1.6 8.9c0.1 0.5-0.3 1.1-0.8 1.2q-0.1 0-0.2 0z"/>
			</g>
			<g id="&lt;Group&gt;">
				<path id="&lt;Path&gt;" class="s0" d="m79 420q-0.4 0-0.7-0.2c-1-0.9-9.7-8.8-11-11.1-1.4-2.4-4-17.1-4.3-18.7-0.1-0.6 0.3-1.1 0.8-1.2 0.6-0.1 1.1 0.3 1.2 0.8 1.1 6.2 3.1 16.5 4 18.1 0.9 1.5 6.8 7.2 10.6 10.6 0.4 0.4 0.5 1 0.1 1.4-0.2 0.2-0.5 0.3-0.7 0.3z"/>
			</g>
			<g id="&lt;Group&gt;">
				<path id="&lt;Path&gt;" class="s0" d="m108.2 499c-4 0-7.9-2.2-9.8-5.7-0.3-0.5-0.1-1.1 0.3-1.4 0.5-0.2 1.1-0.1 1.4 0.4 1.9 3.4 5.9 5.3 9.7 4.6 0.5-0.1 1 0.3 1.1 0.8 0.2 0.5-0.2 1.1-0.7 1.2q-1 0.1-2 0.1z"/>
			</g>
			<g id="&lt;Group&gt;">
				<path id="&lt;Path&gt;" class="s0" d="m83.4 679.8q-0.2 0-0.3 0c-1.1-0.4-1.9-1.4-2.3-2.8-0.5-1.6-0.4-3.5 0.4-5 0.7-1.6 2-2.9 3.6-3.5 0.6-0.3 1.1 0 1.4 0.5 0.2 0.5-0.1 1.1-0.6 1.3-1.1 0.5-2.1 1.4-2.6 2.5-0.6 1.1-0.7 2.5-0.3 3.7 0.2 0.7 0.6 1.2 1 1.4 0.5 0.2 0.8 0.7 0.6 1.3-0.1 0.4-0.5 0.6-0.9 0.6z"/>
			</g>
			<g id="&lt;Group&gt;">
				<path id="&lt;Path&gt;" class="s0" d="m76.2 679q-0.1 0-0.1 0c-0.8-0.1-1.5-0.5-2-1.4-0.7-1.2-1-2.7-0.7-4.1 0.3-1.4 1.1-2.7 2.2-3.5 0.5-0.3 1.1-0.2 1.4 0.2 0.3 0.5 0.2 1.1-0.2 1.4-0.7 0.6-1.3 1.4-1.5 2.3-0.1 0.9 0 1.9 0.5 2.7 0.2 0.3 0.4 0.4 0.4 0.4 0.6 0 1 0.5 1 1.1-0.1 0.5-0.5 0.9-1 0.9z"/>
			</g>
			<g id="&lt;Group&gt;">
				<path id="&lt;Path&gt;" class="s0" d="m71.3 678.3q0 0 0 0c-0.6 0-1.1-0.3-1.4-0.8-0.3-0.4-0.4-0.8-0.5-1.1-0.5-2-0.2-4.3 1-6 0.3-0.4 0.9-0.6 1.4-0.3 0.4 0.4 0.6 1 0.3 1.4-0.9 1.3-1.2 2.9-0.8 4.4 0 0.1 0.1 0.3 0.2 0.4 0.5 0 0.9 0.5 0.9 1 0 0.6-0.5 1-1.1 1z"/>
			</g>
			<g id="&lt;Group&gt;">
				<path id="&lt;Path&gt;" class="s0" d="m66.9 677.5c-0.3 0-0.5-0.1-0.7-0.3-1.1-1.2-1.7-2.9-1.5-4.5 0.2-1.7 1.2-3.2 2.5-4.1 0.5-0.3 1.1-0.2 1.4 0.3 0.3 0.4 0.2 1.1-0.3 1.4-0.9 0.6-1.5 1.6-1.6 2.6-0.1 1.1 0.2 2.2 0.9 3 0.4 0.4 0.4 1 0 1.4q-0.3 0.2-0.7 0.2z"/>
			</g>
			<g id="&lt;Group&gt;">
				<path id="&lt;Path&gt;" class="s0" d="m116.7 640.5q-0.4 0-0.6-0.2-2.2-1.7-3.6-3.9c-0.3-0.5-0.2-1.1 0.3-1.4 0.5-0.3 1.1-0.2 1.4 0.3q1.2 2 3.1 3.4c0.4 0.3 0.5 1 0.2 1.4-0.2 0.3-0.5 0.4-0.8 0.4z"/>
			</g>
			<g id="&lt;Group&gt;">
				<path id="&lt;Path&gt;" class="s0" d="m127.7 201c0 1.8-2.1 3.3-4.7 3.3-2.5 0-4.6-1.5-4.6-3.3 0-1.7 2.1-3.2 4.6-3.2 2.6 0 4.7 1.5 4.7 3.2z"/>
			</g>
			<g id="&lt;Group&gt;">
				<path id="&lt;Path&gt;" class="s0" d="m205.9 201c0 1.8-2.1 3.3-4.6 3.3-2.6 0-4.7-1.5-4.7-3.3 0-1.7 2.1-3.2 4.7-3.2 2.5 0 4.6 1.5 4.6 3.2z"/>
			</g>
			<g id="&lt;Group&gt;">
				<path id="&lt;Path&gt;" class="s0" d="m162.5 290.7q-0.4 0-0.7-0.2c-1.6-1.5-3.1-3.1-4.3-5-0.3-0.4-0.2-1 0.3-1.3 0.4-0.3 1.1-0.2 1.4 0.2q1.6 2.6 3.9 4.6c0.5 0.3 0.5 0.9 0.2 1.4-0.2 0.2-0.5 0.3-0.8 0.3z"/>
			</g>
			<g id="&lt;Group&gt;">
				<path id="&lt;Path&gt;" class="s0" d="m212.2 259.2q0 0-0.1-0.1c-0.5 0-0.9-0.5-0.9-1.1l7.6-56q0-0.2 0.1-0.3l9.9-20.7c0.2-0.5 0.8-0.7 1.3-0.4 0.5 0.2 0.7 0.8 0.5 1.3l-9.9 20.5-7.5 55.9c0 0.5-0.5 0.9-1 0.9z"/>
			</g>
			<g id="&lt;Group&gt;">
				<path id="&lt;Path&gt;" class="s0" d="m261.9 399.7q-0.1 0-0.2 0c-0.5-0.1-0.9-0.7-0.8-1.2l1.6-8.9c0.1-0.5 0.6-0.9 1.1-0.8 0.6 0.1 0.9 0.6 0.8 1.2l-1.5 8.8c-0.1 0.5-0.5 0.9-1 0.9z"/>
			</g>
			<g id="&lt;Group&gt;">
				<path id="&lt;Path&gt;" class="s0" d="m243.6 420c-0.2 0-0.5-0.1-0.7-0.3-0.4-0.4-0.3-1 0.1-1.4 3.8-3.4 9.7-9.1 10.6-10.6 0.9-1.6 2.9-11.9 4-18.1 0.1-0.5 0.6-0.9 1.1-0.8 0.6 0.1 1 0.6 0.9 1.2-0.3 1.6-2.9 16.3-4.3 18.7-1.3 2.3-10 10.2-11 11.1q-0.3 0.2-0.7 0.2z"/>
			</g>
			<g id="&lt;Group&gt;">
				<path id="&lt;Path&gt;" class="s0" d="m214.4 499q-1 0-2-0.1c-0.5-0.1-0.9-0.7-0.8-1.2 0.1-0.5 0.7-0.9 1.2-0.8 3.8 0.7 7.8-1.2 9.7-4.6 0.3-0.5 0.9-0.6 1.3-0.4 0.5 0.3 0.7 0.9 0.4 1.4-1.9 3.5-5.8 5.7-9.8 5.7z"/>
			</g>
			<g id="&lt;Group&gt;">
				<path id="&lt;Path&gt;" class="s0" d="m239.2 679.8c-0.4 0-0.8-0.2-0.9-0.6-0.2-0.6 0.1-1.1 0.6-1.3 0.4-0.2 0.8-0.7 1-1.4 0.4-1.2 0.3-2.6-0.3-3.7-0.5-1.1-1.5-2-2.6-2.5-0.5-0.2-0.8-0.8-0.6-1.3 0.3-0.5 0.8-0.8 1.4-0.5 1.5 0.6 2.9 1.9 3.6 3.5 0.8 1.5 0.9 3.4 0.4 5-0.4 1.4-1.2 2.4-2.3 2.8q-0.1 0-0.3 0z"/>
			</g>
			<g id="&lt;Group&gt;">
				<path id="&lt;Path&gt;" class="s0" d="m246.4 679c-0.5 0-0.9-0.4-1-0.9 0-0.6 0.4-1.1 1-1.1 0 0 0.2-0.1 0.4-0.4 0.5-0.8 0.6-1.8 0.5-2.7-0.2-0.9-0.8-1.7-1.5-2.3-0.4-0.3-0.5-0.9-0.2-1.4 0.3-0.4 0.9-0.5 1.4-0.2 1.1 0.8 1.9 2.1 2.2 3.5 0.3 1.4 0 2.9-0.7 4.1-0.5 0.9-1.2 1.3-2 1.4q0 0-0.1 0z"/>
			</g>
			<g id="&lt;Group&gt;">
				<path id="&lt;Path&gt;" class="s0" d="m251.3 678.3c-0.6 0-1-0.4-1-1-0.1-0.5 0.3-0.9 0.8-1 0.1-0.1 0.2-0.3 0.2-0.4 0.4-1.5 0.1-3.1-0.8-4.4-0.3-0.4-0.2-1 0.3-1.4 0.5-0.3 1.1-0.1 1.4 0.3 1.2 1.7 1.5 4 1 6-0.1 0.3-0.2 0.7-0.5 1.1-0.3 0.5-0.8 0.8-1.4 0.8q0 0 0 0z"/>
			</g>
			<g id="&lt;Group&gt;">
				<path id="&lt;Path&gt;" class="s0" d="m255.7 677.5q-0.4 0-0.7-0.2c-0.4-0.4-0.4-1 0-1.4 0.7-0.8 1-1.9 0.9-3-0.1-1-0.7-2-1.6-2.6-0.5-0.3-0.6-1-0.3-1.4 0.3-0.5 0.9-0.6 1.4-0.3 1.3 0.9 2.3 2.4 2.5 4.1 0.2 1.6-0.4 3.3-1.5 4.5-0.2 0.2-0.4 0.3-0.7 0.3z"/>
			</g>
			<g id="&lt;Group&gt;">
				<path id="&lt;Path&gt;" class="s0" d="m205.9 640.5c-0.3 0-0.6-0.1-0.8-0.4-0.3-0.4-0.2-1.1 0.2-1.4q1.9-1.4 3.1-3.4c0.3-0.5 0.9-0.6 1.4-0.3 0.5 0.3 0.6 0.9 0.3 1.4q-1.4 2.2-3.6 3.9-0.2 0.2-0.6 0.2z"/>
			</g>
			<g id="&lt;Group&gt;">
				<path id="&lt;Path&gt;" class="s0" d="m164.1 85.3c0 0.2-0.3 0.4-0.6 0.4-1.7-0.2-6.5-0.9-6.9-2.7-0.4-1.7 3.6-9.1 5.4-12.4 0.2-0.3 1-0.2 1 0.2z"/>
			</g>
			<g id="&lt;Group&gt;">
				<path id="&lt;Path&gt;" class="s2" d="m155.9 70.8c-0.4 0-0.8-0.3-1-0.7 0-0.1-0.8-2.2-4.7-2.2q0 0 0 0c-4.1 0-5.4 1.7-5.4 1.8-0.4 0.5-1 0.6-1.4 0.3-0.5-0.4-0.6-1-0.3-1.4 0.1-0.1 1.9-2.7 7.1-2.7q0 0 0 0c5.3 0 6.6 3.4 6.6 3.5 0.2 0.6-0.1 1.1-0.6 1.3q-0.1 0.1-0.3 0.1z"/>
			</g>
			<g id="&lt;Group&gt;">
				<path id="&lt;Path&gt;" class="s2" d="m143 65.8c-0.3 0-0.6-0.1-0.8-0.4-0.4-0.4-0.3-1 0.1-1.4 1.8-1.4 4.1-2.4 6.4-2.7 2.3-0.2 4.8 0.2 6.9 1.2 0.5 0.2 0.7 0.8 0.4 1.3-0.2 0.5-0.8 0.7-1.3 0.5-1.8-0.9-3.8-1.2-5.7-1-2 0.3-3.9 1.1-5.4 2.3q-0.3 0.2-0.6 0.2z"/>
			</g>
			<g id="&lt;Group&gt;">
				<path id="&lt;Path&gt;" class="s2" d="m151.9 67.1c0.3 0.1 0.3 0.7 0.3 1.1 0 1.3-1 2.3-2.3 2.3-1.2 0-2.2-1-2.3-2.3q0.1-0.6 0.3-1.1c0 0 2.2-0.6 4 0z"/>
			</g>
			<g id="&lt;Group&gt;">
				<path id="&lt;Path&gt;" class="s2" d="m168.2 70.7q-0.1 0-0.3 0c-0.5-0.2-0.8-0.8-0.6-1.3 0-0.1 1.3-3.5 6.6-3.6 5.2 0 7 2.5 7.1 2.6 0.3 0.5 0.2 1.1-0.3 1.4-0.4 0.3-1 0.2-1.3-0.2-0.1-0.1-1.5-1.8-5.5-1.8-3.8 0-4.7 2.2-4.7 2.3-0.2 0.4-0.6 0.6-1 0.6z"/>
			</g>
			<g id="&lt;Group&gt;">
				<path id="&lt;Path&gt;" class="s2" d="m181.1 65.7q-0.3 0-0.6-0.2c-1.5-1.3-3.4-2.1-5.4-2.3-1.9-0.2-4 0.2-5.7 1-0.5 0.3-1.1 0.1-1.4-0.4-0.2-0.5 0-1.1 0.5-1.4 2.1-1 4.5-1.4 6.8-1.2 2.4 0.3 4.6 1.2 6.5 2.7 0.4 0.3 0.5 1 0.1 1.4-0.2 0.2-0.5 0.4-0.8 0.4z"/>
			</g>
			<g id="&lt;Group&gt;">
				<path id="&lt;Path&gt;" class="s2" d="m176.2 67c0.3 0.2 0.3 0.7 0.3 1.1 0 1.3-1 2.3-2.3 2.3-1.2 0-2.3-1-2.3-2.3q0-0.6 0.4-1.1c0 0 2.9-0.7 3.9 0z"/>
			</g>
			<g id="&lt;Group&gt;">
				<path id="&lt;Path&gt;" class="s3" d="m152.9 81.5c0.1 2.2-2.4 4.1-5.8 4.3-3.3 0.2-6.1-1.4-6.2-3.5-0.1-2.2 2.4-4.1 5.7-4.3 3.3-0.2 6.1 1.4 6.3 3.5z"/>
			</g>
			<g id="&lt;Group&gt;">
				<path id="&lt;Path&gt;" class="s3" d="m182.5 80.1c0.2 2.2-2.4 4.1-5.7 4.3-3.3 0.2-6.1-1.4-6.3-3.5-0.1-2.2 2.5-4.1 5.8-4.3 3.3-0.2 6.1 1.3 6.2 3.5z"/>
			</g>
			<g id="&lt;Group&gt;">
				<path id="&lt;Path&gt;" class="s0" d="m135.8 81.8c-0.5 0-0.9-0.2-1-0.7-0.8-2.9-2-5.7-3.6-8.4-0.3-0.4-0.2-1.1 0.3-1.3 0.5-0.3 1.1-0.2 1.4 0.3 1.7 2.8 3 5.7 3.8 8.9 0.2 0.5-0.1 1.1-0.6 1.2q-0.2 0-0.3 0z"/>
			</g>
			<g id="&lt;Group&gt;">
				<path id="&lt;Path&gt;" class="s0" d="m188.6 81.4q-0.1 0-0.2 0c-0.6-0.1-0.9-0.7-0.8-1.2 0.8-3.2 2.1-6.3 3.8-9.2 0.3-0.4 0.9-0.6 1.4-0.3 0.5 0.3 0.6 0.9 0.3 1.4-1.6 2.6-2.8 5.5-3.5 8.6-0.1 0.4-0.6 0.7-1 0.7z"/>
			</g>
			<g id="&lt;Group&gt;">
				<path id="&lt;Path&gt;" class="s2" d="m162.1 94.1c-1.8 0-3-0.3-3.1-0.3-0.6-0.2-0.9-0.7-0.8-1.2 0.1-0.6 0.7-0.9 1.2-0.8 0.1 0 6.9 1.5 10.6-3 0.4-0.4 1-0.5 1.4-0.2 0.4 0.4 0.5 1 0.2 1.5-2.8 3.3-6.8 4-9.5 4z"/>
			</g>
		</g>
	</g>
	<g id="feminino">
	</g>
</svg>