<svg version="1.2" xmlns="http://www.w3.org/2000/svg" viewBox="0 0 320 700" width="320" height="700">
	<title>8440513-ai</title>
	<style>
		.s0 { fill: #e06a43 } 
		.s1 { fill: #e79e73 } 
		.s2 { fill: #2b3448 } 
		.s3 { fill: #000000 } 
		.s4 { fill: #df895d } 
	</style>
	<g id="feminino">
		<g id="&lt;Group&gt;">
			<g id="&lt;Group&gt;">
				<path id="&lt;Path&gt;" class="s0" d="m172.8 136.6l0.6 4.1q-2.7 2.9-5.5 4.8c-14.4 10.1-27.7 1.8-27.7 1.8l0.2-1.9 1.4-9c3.8 4.5 8.8 8.1 15 8.3q0.3 0 0.6 0 0.3 0 0.6 0c6-0.2 11-3.8 14.8-8.1z"/>
			</g>
			<g id="&lt;Group&gt;">
				<path id="&lt;Path&gt;" class="s1" d="m218.9 310.5c-4 1.7-9 2.6-14.2-0.2l-6.8 4.7c0 0-3.2 7-7.7 7.9-1.2 0.2-2.4 0-3.7-0.8l6.9-11.1 8.3-6.7-7.6 1.2c0 0-8.4 13.5-13.6 9.8l6-11.5c0 0-6.8 3.2-10.1-0.3l3.6-4.4c0 0-3.8 1.3-5.3-1.8l10.9-8.6c0 0 16.4-4.5 21.6-4.5q0.9-0.1 1.3 0.1c2.7 1.1 7.8 6.4 7.8 6.4 0 0 21-32.8 23.5-33.5l-29.3-51.4-0.9 3.7h-0.8c0-11.3-5-22.1-7.5-29.6-2.6-8-4.7-21.5-5.2-25.1 10 1.5 21.1 3.8 27.2 7.3 13 7.5 25.5 32.2 32.9 51.6 7.3 19.5 15.7 49.2 12.7 56.5-3 7.3-42 34.7-42 34.7 0 0-3.2 3.4-8 5.6z"/>
			</g>
			<g id="&lt;Group&gt;">
				<path id="&lt;Path&gt;" class="s0" d="m220.4 315.3q1 3.8 1.8 7.9c-27.5 12.1-58 56.9-58 56.9-15.6-26.8-56.7-35.8-56.7-35.8-2.3-2.1-4-3.6-4-3.6-0.4-3-1.1-8.6-1.9-15.3l1.2-0.2c0 0 37.4 13 88 0.2 9.5-2.4 19.4-5.6 29.6-10.1z"/>
			</g>
			<g id="&lt;Group&gt;">
				<path id="&lt;Path&gt;" class="s1" d="m223.6 331.9c7 58.9-21.3 150.6-21.3 150.6 0 0 5 28.6-1.8 49.5-6.8 20.9-24.5 103-24.5 103 0 0 3.4 12.2 8.4 19.7 5 7.4 10.2 18.2-14.9 19.9 0.9-2.8 0.3-6.9-0.2-9-0.7-3.3-9.2-40.6-9.2-40.6 0 0 4.6-123.4 5.5-130.2 0.9-6.8-1.4-114.7-1.4-114.7 0 0 30.5-44.8 58-56.9q0.9 4.2 1.4 8.7z"/>
			</g>
			<g id="&lt;Group&gt;">
				<path id="&lt;Path&gt;" class="s1" d="m220.4 315.3c-10.2 4.5-20.1 7.7-29.6 10.1-50.6 12.8-88.1-0.2-88.1-0.2l-1.1 0.2c-0.8-6.4-1.8-13.8-2.7-20.7 4.2-16.2 10.6-28.7 10.6-28.7l-1.7-24.1c0 0 37.5-10.4 89.8 0l0.2 18.3c0 0 4.3 5.1 9.4 14 7.3 9.5 11.7 26.3 11.7 26.3q0.8 2.3 1.5 4.8z"/>
			</g>
			<g id="&lt;Group&gt;">
				<path id="&lt;Path&gt;" class="s1" d="m175.3 152.7c0 0 7.1 0.4 16.1 1.5 0 0-1 50.7-38.2 48.8-37.1-2-35.3-48.9-35.3-48.9 0.6-0.1 21.9-4.5 21.9-4.5l0.4-2.3c0 0 13.3 8.3 27.7-1.8l2.8 1.6q1.9 0.2 3.8 0.2z"/>
			</g>
			<g id="&lt;Group&gt;">
				<path id="&lt;Path&gt;" class="s1" d="m173.4 140.7l1.1 6.6q-1.9 0-3.8-0.2l-2.8-1.6q2.8-1.9 5.5-4.8z"/>
			</g>
			<g id="&lt;Group&gt;">
				<path id="&lt;Path&gt;" class="s0" d="m103.3 237.6c-1.8-3.3-3.7-7.9-4.7-13.3-2.3-11.8 6.6-32.2 11-42.4 4.4-10.1 4.8-28 4.8-28 2.1 0.1 3.4 0.2 3.5 0.2 0 0-1.8 46.9 35.3 48.9 37.2 1.9 38.2-48.8 38.2-48.8q2.3 0.3 4.7 0.6c0.5 3.6 2.6 17.1 5.2 25.1 2.5 7.5 7.5 18.3 7.5 29.6 0 2.6-0.3 5.2-1 7.9-3.5 14-10.3 23.3-10.3 23.3l0.1 11.3c-52.3-10.5-89.8 0-89.8 0l-0.6-8.4c0 0-1.8-2.2-3.9-6z"/>
			</g>
			<g id="&lt;Group&gt;">
				<path id="&lt;Path&gt;" class="s1" d="m188.6 101.6c1.2 0.5 2 2.4 1.9 6.7-0.1 5.6-3.4 9.9-4.7 10.9-1.4 1.1-3.1 0.3-3.1 0.3l-0.5-0.1q0.4-1.6 0.5-3.2c0.3-2.3 0.5-5.3 0.7-7.8 1.1-1.9 2-4 2.7-6.2 0.4-0.4 0.8-0.6 1.3-0.7q0.6-0.1 1.2 0.1z"/>
			</g>
			<g id="&lt;Group&gt;">
				<path id="&lt;Path&gt;" class="s1" d="m141.8 136.4q-0.9-1.1-1.8-2.2c-2.9-3.9-5-8.1-6.2-11q-0.8-1.7-1.2-3.6-0.5-1.7-0.6-3.4c-0.3-2.7-0.5-5.4-0.7-7.8q-0.1-1.7-0.2-3 0-0.2 0.1-0.5 0-0.1 0-0.3 0.1-0.3 0.1-0.8 0.1-0.4 0.2-0.9 0-0.1 0-0.2 0.1-0.2 0.2-0.5 0.2-1 0.5-2.4 0.1-0.3 0.2-0.6 0.2-0.7 0.4-1.5 0.4-1.1 0.8-2.3 0.3-0.8 0.6-1.6 0.4-0.8 0.7-1.7c0.9-1.9 2-4 3.3-6q0.6-0.9 1.2-1.7 0.6-0.9 1.3-1.7 1-1.3 2.2-2.5 0.3-0.4 0.7-0.8 1.3-1.2 2.6-2.3 0.7-0.5 1.3-1 0.7-0.5 1.4-1 0.8-0.4 1.5-0.8 0.8-0.5 1.5-0.9 0 0 0.2 0 0 0 0.1 0.1c0 0 11 30.1 31.4 32.1h0.1c-0.1 0.7-0.2 1.7-0.3 2.8-0.2 2.5-0.4 5.5-0.7 7.8q-0.1 1.6-0.5 3.2-0.5 2.1-1.3 4c-1.3 2.9-3.3 7-6.2 10.8q-0.9 1.2-1.9 2.4c-3.8 4.3-8.8 7.9-14.8 8.1q-0.3 0-0.6 0-0.3 0-0.6 0c-6.2-0.2-11.2-3.8-15-8.3z"/>
			</g>
			<g id="&lt;Group&gt;">
				<path id="&lt;Path&gt;" class="s1" d="m169.3 665.6c0.5 2.1 1.1 6.2 0.2 9-0.4 1.4-1.1 2.5-2.4 2.8-4 1.1-31 3.7-34.7-1.6-3.7-5.2 0.7-15.9 2.8-26.8 2.1-10.9 1.2-19.3 1.2-19.3 0 0-15.4-81.3-17.5-98.6-2.1-17.4 2.2-30 2.2-30-28.6-71.9-28.2-115.2-28.2-115.2 0 0 1.2 3.4 5.4 5.6 0 0 9.1 11.7 11.9 13.5 2.8 1.8 4.2-6.8 0.8-12.1l6.4 7.9c0 0 4.6-3.6 1.6-9.2-3-5.7-5.6-12.5-5.6-12.5l0.5-5.2c0 0 3.7 6.2 7.5 9.1 3.8 2.9 7.8 0.7 7.8 0.7 0 0-5.1-5.9-5.1-7.6 0-1.8-4.3-15.2-5.6-19.3-0.9-2.7-6.9-8.6-11-12.5 0 0 41.1 9 56.7 35.8 0 0 2.3 107.9 1.4 114.7-0.9 6.8-5.5 130.2-5.5 130.2 0 0 8.5 37.3 9.2 40.6z"/>
			</g>
			<g id="&lt;Group&gt;">
				<path id="&lt;Path&gt;" class="s2" d="m202.4 136.3c-7.4 7.1-17.7 11.1-27.9 11l-1.1-6.6-0.6-4.1q1-1.2 1.9-2.4c2.9-3.8 4.9-7.9 6.2-10.8q0.8-1.9 1.3-4l0.5 0.1c0 0 1.7 0.8 3.1-0.3 1.3-1 4.6-5.3 4.7-10.9 0.1-4.3-0.7-6.2-1.9-6.7q-0.6-0.2-1.2-0.1c-0.5 0.1-0.9 0.3-1.3 0.7-0.7 2.2-1.6 4.3-2.7 6.2 0.1-1.1 0.2-2.1 0.3-2.8h-0.1c-20.4-2-31.4-32.1-31.4-32.1q-0.2-0.1-0.2-0.1 0 0-0.1 0-0.7 0.4-1.5 0.9-0.7 0.4-1.5 0.8-0.7 0.5-1.4 1-0.6 0.5-1.3 1-1.3 1.1-2.6 2.3-0.4 0.4-0.7 0.8-1.2 1.2-2.2 2.4-0.7 0.9-1.3 1.8-0.6 0.8-1.2 1.7c-1.3 2-2.4 4.1-3.3 6q-0.3 0.9-0.7 1.7-0.3 0.8-0.6 1.6-0.4 1.2-0.8 2.3-0.2 0.8-0.4 1.5-0.1 0.3-0.2 0.6-0.3 1.4-0.6 2.4 0 0.3-0.1 0.5 0 0.1 0 0.2-0.1 0.5-0.2 0.9 0 0.5-0.1 0.8 0 0.2 0 0.3-0.1 0.3-0.1 0.5 0 0.2 0 0.2c0 0-1.1-2.3-2.5-3.4-0.4-0.4-0.8-0.6-1.2-0.7-1-0.1-1.9 0.2-2.5 1.4-0.5 1.1-0.7 2.8-0.7 5.4 0.1 5.6 3.4 9.9 4.8 10.9 1 0.8 2.7 0.6 3.6 0.4q0.4 1.9 1.2 3.6c1.2 2.9 3.3 7.1 6.2 11q0.9 1.1 1.8 2.2l-1.4 9h-0.2c-3.5-0.7-7.1-2-9.9-3.8-4.3-2.8-9.3-5.4-14.4-4.6 2-9.8 1.9-19.8 2.6-29.7 0.7-9.9 2.1-19.9 6.8-28.7 4.7-8.7 16.1-17.3 26-18.3q0 0 0 0 3-0.7 6.1-0.7c11.3 0 21.3 6.7 26.4 16.6 10.7 18.1 9.7 41 18.6 60.1z"/>
			</g>
			<g id="&lt;Group&gt;">
				<path id="&lt;Path&gt;" class="s1" d="m124.9 102.9c0.6-1.2 1.5-1.5 2.5-1.4 0.4 0.1 0.8 0.3 1.2 0.7 1.4 1.1 2.5 3.4 2.5 3.4q0 0 0-0.2 0-0.2 0.1-0.5-0.1 0.3-0.1 0.5 0.1 1.3 0.2 3c0.2 2.4 0.4 5.1 0.7 7.8q0.1 1.7 0.6 3.4c-0.9 0.2-2.6 0.4-3.6-0.4-1.4-1-4.7-5.3-4.8-10.9 0-2.6 0.2-4.3 0.7-5.4z"/>
			</g>
			<g id="&lt;Group&gt;">
				<path id="&lt;Path&gt;" class="s1" d="m103.5 340.7c0 0 1.7 1.5 4 3.6 4.1 3.9 10.1 9.8 11 12.5 1.3 4.1 5.6 17.5 5.6 19.3 0 1.7 5.1 7.6 5.1 7.6 0 0-4 2.2-7.8-0.7-3.8-2.9-7.5-9.1-7.5-9.1l-0.5 5.2c0 0 2.6 6.8 5.6 12.5 3 5.6-1.6 9.2-1.6 9.2l-6.4-7.9c3.4 5.3 2 13.9-0.8 12.1-2.8-1.8-11.9-13.5-11.9-13.5-4.2-2.2-5.4-5.6-5.4-5.6 0 0-5.3-6.2-5.8-15.1-0.5-8.6 0-23.1 0-23.9-3.9-12.3-18.7-59.9-19.4-63.8-0.8-4.4 3.2-89.4 11.5-110.9 6.6-17.2 27.1-18.4 35.2-18.3 0 0-0.4 17.9-4.8 28-4.4 10.2-13.3 30.6-11 42.4 1 5.4 2.9 10 4.7 13.3l-8 44.9c0.9 3.8 2.2 12.5 3.6 22.2 0.9 6.9 1.9 14.3 2.7 20.7 0.8 6.7 1.5 12.3 1.9 15.3z"/>
			</g>
			<g id="&lt;Group&gt;">
				<path id="&lt;Path&gt;" class="s3" d="m125.3 102.8h2z"/>
			</g>
			<g id="&lt;Group&gt;">
				<path id="&lt;Path&gt;" class="s0" d="m160 120.6c0.1 0.2-0.2 0.4-0.6 0.4-1.7-0.2-6.5-0.8-6.9-2.7-0.4-1.7 3.6-9.2 5.4-12.5 0.2-0.3 1-0.2 1 0.2z"/>
			</g>
			<g id="&lt;Group&gt;">
				<path id="&lt;Path&gt;" class="s2" d="m151.8 106c-0.4 0-0.8-0.3-1-0.7 0-0.1-0.9-2.2-4.8-2.2q0 0 0 0c-4.1 0-5.4 1.7-5.5 1.8-0.3 0.4-0.9 0.6-1.3 0.2-0.5-0.3-0.6-0.9-0.3-1.3 0.1-0.1 1.9-2.7 7.1-2.7q0 0 0 0c5.4 0 6.7 3.4 6.7 3.5 0.2 0.6-0.1 1.1-0.6 1.3q-0.2 0.1-0.3 0.1z"/>
			</g>
			<g id="&lt;Group&gt;">
				<path id="&lt;Path&gt;" class="s2" d="m138.7 101c-0.3 0-0.6-0.2-0.8-0.4-0.3-0.4-0.2-1.1 0.2-1.4 1.8-1.5 4.1-2.4 6.4-2.7 2.4-0.3 4.8 0.1 6.9 1.1 0.5 0.3 0.7 0.9 0.5 1.4-0.2 0.5-0.8 0.7-1.3 0.4-1.8-0.8-3.9-1.2-5.8-0.9-2 0.2-3.9 1-5.4 2.2q-0.3 0.3-0.7 0.3z"/>
			</g>
			<g id="&lt;Group&gt;">
				<path id="&lt;Path&gt;" class="s2" d="m147.7 102.2c0.4 0.1 0.3 0.8 0.3 1.2 0 1.3-1 2.3-2.2 2.3-1.3 0-2.3-1-2.3-2.3q0-0.6 0.3-1.1c0 0 2.2-0.6 3.9-0.1z"/>
			</g>
			<g id="&lt;Group&gt;">
				<path id="&lt;Path&gt;" class="s2" d="m164.2 105.9q-0.2 0-0.3 0c-0.5-0.2-0.8-0.8-0.6-1.3 0-0.1 1.2-3.6 6.7-3.6q0 0 0 0c5.2 0 7 2.5 7.1 2.6 0.3 0.5 0.2 1.1-0.3 1.4-0.4 0.3-1.1 0.2-1.4-0.2 0-0.1-1.4-1.8-5.4-1.8q0 0 0 0c-4 0-4.8 2.2-4.8 2.3-0.2 0.4-0.6 0.6-1 0.6z"/>
			</g>
			<g id="&lt;Group&gt;">
				<path id="&lt;Path&gt;" class="s2" d="m177.2 100.8q-0.3 0-0.6-0.2c-1.6-1.2-3.5-2-5.4-2.2-2-0.2-4.1 0.1-5.8 1-0.5 0.2-1.1 0-1.4-0.5-0.2-0.5 0-1.1 0.5-1.3 2.1-1.1 4.5-1.5 6.9-1.2 2.3 0.2 4.6 1.2 6.4 2.6 0.5 0.4 0.5 1 0.2 1.4-0.2 0.3-0.5 0.4-0.8 0.4z"/>
			</g>
			<g id="&lt;Group&gt;">
				<path id="&lt;Path&gt;" class="s2" d="m172.2 102.2c0.3 0.2 0.3 0.7 0.3 1.1 0 1.3-1 2.3-2.3 2.3-1.2 0-2.3-1-2.3-2.3q0-0.6 0.4-1.2c0 0 3-0.6 3.9 0.1z"/>
			</g>
			<g id="&lt;Group&gt;">
				<path id="&lt;Path&gt;" class="s4" d="m148.7 116.8c0.2 2.2-2.4 4.1-5.7 4.3-3.4 0.2-6.2-1.4-6.3-3.5-0.2-2.2 2.4-4.1 5.7-4.3 3.4-0.3 6.2 1.3 6.3 3.5z"/>
			</g>
			<g id="&lt;Group&gt;">
				<path id="&lt;Path&gt;" class="s4" d="m178.6 115.4c0.2 2.1-2.4 4.1-5.8 4.3-3.3 0.2-6.1-1.4-6.3-3.5-0.1-2.2 2.5-4.1 5.8-4.4 3.4-0.2 6.2 1.4 6.3 3.6z"/>
			</g>
			<g id="&lt;Group&gt;">
				<path id="&lt;Path&gt;" class="s0" d="m131.5 117.1c-0.4 0-0.8-0.3-1-0.7-0.8-3-2-5.8-3.6-8.5-0.3-0.4-0.2-1 0.3-1.3 0.5-0.3 1.1-0.2 1.4 0.3 1.7 2.8 3 5.8 3.9 8.9 0.1 0.6-0.2 1.1-0.7 1.3q-0.2 0-0.3 0z"/>
			</g>
			<g id="&lt;Group&gt;">
				<path id="&lt;Path&gt;" class="s0" d="m184.7 116.7q-0.1 0-0.2 0c-0.5-0.2-0.9-0.7-0.7-1.2 0.7-3.3 2-6.4 3.8-9.2 0.3-0.5 0.9-0.7 1.4-0.4 0.4 0.3 0.6 0.9 0.3 1.4-1.7 2.7-2.9 5.6-3.6 8.6-0.1 0.5-0.5 0.8-1 0.8z"/>
			</g>
			<g id="&lt;Group&gt;">
				<path id="&lt;Path&gt;" class="s2" d="m158 129.4c-1.8 0-3-0.2-3.1-0.3-0.6-0.1-0.9-0.6-0.8-1.2 0.1-0.5 0.7-0.8 1.2-0.7 0.1 0 6.9 1.5 10.7-3.1 0.4-0.4 1-0.5 1.4-0.1 0.4 0.4 0.5 1 0.1 1.4-2.8 3.4-6.7 4-9.5 4z"/>
			</g>
			<g id="&lt;Group&gt;">
				<path id="&lt;Path&gt;" class="s0" d="m118.5 357.8c-0.4 0-0.8-0.3-1-0.7-0.8-2.6-9.4-11.8-14.9-17.3q-0.3-0.3-0.3-0.6c-1.1-12.6-4.4-34.1-4.4-34.3-0.1-0.6 0.3-1.1 0.8-1.2 0.6-0.1 1.1 0.3 1.2 0.9 0 0.2 3.3 21.3 4.4 34 2.3 2.3 13.9 14.1 15.1 17.9 0.2 0.5-0.1 1.1-0.6 1.2q-0.2 0.1-0.3 0.1z"/>
			</g>
			<g id="&lt;Group&gt;">
				<path id="&lt;Path&gt;" class="s0" d="m124.3 387.3q-0.4 0-0.9-0.2c-0.7-0.3-1.2-0.9-1.6-1.3l-8.6-11.3c-0.3-0.4-0.2-1.1 0.2-1.4 0.4-0.3 1.1-0.3 1.4 0.2l8.6 11.3c0.2 0.2 0.5 0.6 0.7 0.7 0.5 0.1 1.1-0.5 1.4-1.1 0.7-1.8 0.1-3.9-0.7-6.1l-7.7-21.5c-0.2-0.5 0.1-1.1 0.6-1.3 0.5-0.2 1.1 0.1 1.3 0.6l7.7 21.5c0.8 2.5 1.6 5.1 0.6 7.6-0.5 1.3-1.7 2.3-3 2.3z"/>
			</g>
			<g id="&lt;Group&gt;">
				<path id="&lt;Path&gt;" class="s0" d="m117 399.4c-1.3 0-2.4-0.8-3.1-1.6-0.6-0.7-1-1.5-1.3-2.3q-0.2-0.5-0.5-0.9c-0.9-1.8-2.4-3.2-4-4.7-1.6-1.6-3.3-3.2-4.4-5.3-1.5-2.8-1.6-6-1.7-9-0.1-2.9-0.1-5.6-1.3-8-0.2-0.5 0-1.1 0.5-1.4 0.5-0.2 1.1 0 1.3 0.5 1.4 2.8 1.4 5.8 1.5 8.8 0.1 3 0.2 5.8 1.5 8.2 0.9 1.8 2.4 3.2 4 4.7 1.6 1.6 3.3 3.2 4.4 5.2q0.3 0.5 0.5 1.1c0.3 0.7 0.6 1.3 1 1.8 0.5 0.6 1.3 1 1.9 0.8 0.9-0.4 0.8-2.1 0.5-3.4-0.7-2.9-1.7-5.7-2.8-8.4q-0.3-0.8-0.6-1.5c-0.8-1.8-1.7-3.7-2.2-5.8-0.7-3.4-0.4-6.9-0.2-10.2 0.3-3.2 0.6-6.2 0-9.1-0.1-0.5 0.3-1.1 0.8-1.2 0.6-0.1 1.1 0.3 1.2 0.8 0.6 3.2 0.3 6.5 0 9.6-0.2 3.4-0.5 6.6 0.2 9.7 0.4 1.8 1.2 3.6 2 5.4q0.3 0.7 0.6 1.5c1.2 2.8 2.2 5.7 3 8.7 0.7 2.8 0.1 4.9-1.7 5.7q-0.6 0.3-1.1 0.3z"/>
			</g>
			<g id="&lt;Group&gt;">
				<path id="&lt;Path&gt;" class="s0" d="m109.7 405.8q-0.4 0-0.9-0.1c-1-0.3-1.6-1.1-2.1-1.7l-5.5-7.2c-1.6-2-3.2-4.1-4.3-6.5-1.5-3.3-1.8-6.8-2.2-10.3-0.3-3.3-0.6-6.4-1.8-9.2-0.2-0.6 0-1.1 0.5-1.4 0.6-0.2 1.1 0.1 1.3 0.6 1.3 3.1 1.7 6.5 2 9.8 0.4 3.5 0.7 6.7 2 9.7 1 2.2 2.6 4.2 4.1 6.1l5.5 7.1c0.4 0.5 0.8 1 1.1 1.1 0.9 0.3 1.9-1 2.2-2 1.1-2.9 0.7-6.2-0.8-8.8-0.3-0.5-0.1-1.1 0.3-1.4 0.5-0.3 1.1-0.1 1.4 0.4 1.9 3.1 2.2 7 1 10.4-0.6 1.8-2.1 3.4-3.8 3.4z"/>
			</g>
			<g id="&lt;Group&gt;">
				<path id="&lt;Path&gt;" class="s0" d="m97.5 391.6q-0.3 0-0.6-0.1c-3.6-2.5-5.4-6.4-6.3-9.3-1.2-3.5-1.5-7.2-1.8-10.8-0.1-0.5 0.3-1 0.9-1.1 0.5 0 1 0.4 1.1 1 0.3 3.4 0.6 7 1.7 10.3 0.8 2.6 2.4 6 5.5 8.2 0.5 0.3 0.6 1 0.3 1.4-0.2 0.3-0.5 0.4-0.8 0.4z"/>
			</g>
			<g id="&lt;Group&gt;">
				<path id="&lt;Path&gt;" class="s0" d="m167.1 678.4q-0.4 0-0.7-0.2c-0.4-0.4-0.4-1-0.1-1.4 0 0 2.2-2.8 2-11.2-0.3-8.9-9.1-40-9.1-40.3q-0.1-0.2-0.1-0.4c0.1-1 4.2-107.2 5.5-130.2 1.2-22.9-1.4-113.7-1.4-114.6 0-0.6 0.4-1 1-1 0.4 0 1 0.4 1 0.9 0 1 2.6 91.9 1.4 114.8-1.2 22.6-5.3 125.4-5.5 130.1 0.8 2.6 8.9 31.8 9.2 40.6 0.3 9.4-2.4 12.5-2.5 12.6-0.2 0.2-0.5 0.3-0.7 0.3z"/>
			</g>
			<g id="&lt;Group&gt;">
				<path id="&lt;Path&gt;" class="s0" d="m142.8 506.3c-3.3 0-6.7-0.9-9.6-2.8-0.4-0.3-0.6-0.9-0.3-1.3 0.3-0.5 1-0.6 1.4-0.3 5.2 3.3 12.4 3.2 17.5-0.3 0.4-0.3 1-0.2 1.4 0.3 0.3 0.4 0.2 1-0.3 1.4-2.9 2-6.5 3-10.1 3z"/>
			</g>
			<g id="&lt;Group&gt;">
				<path id="&lt;Path&gt;" class="s0" d="m182.9 500.5c-2.8 0-5.5-0.5-8-1.6-0.5-0.2-0.8-0.8-0.5-1.3 0.2-0.5 0.8-0.8 1.3-0.5 6.2 2.6 13.9 1.5 19.1-2.7 0.4-0.4 1.1-0.3 1.4 0.1 0.4 0.4 0.3 1.1-0.1 1.4-3.7 3-8.5 4.6-13.2 4.6z"/>
			</g>
			<g id="&lt;Group&gt;">
				<path id="&lt;Path&gt;" class="s0" d="m142.9 627.8c-0.4 0-0.8-0.3-0.9-0.7-0.2-0.5 0.1-1.1 0.6-1.2 3.8-1.3 7.9-1.5 11.8-0.6 0.6 0.1 0.9 0.6 0.8 1.2-0.1 0.5-0.7 0.8-1.2 0.7-3.6-0.7-7.3-0.5-10.8 0.6q-0.1 0-0.3 0z"/>
			</g>
			<g id="&lt;Group&gt;">
				<path id="&lt;Path&gt;" class="s0" d="m159.1 678.6c-0.5 0-0.9-0.3-1-0.8l-1.2-8.1c0-0.5 0.3-1 0.9-1.1 0.5-0.1 1 0.3 1.1 0.8l1.2 8.1c0.1 0.5-0.3 1-0.9 1.1q0 0-0.1 0z"/>
			</g>
			<g id="&lt;Group&gt;">
				<path id="&lt;Path&gt;" class="s0" d="m151.7 678.7q0 0 0 0c-0.6-0.1-1-0.6-1-1.1q0.2-3.3-0.5-6.6c-0.2-0.5 0.2-1 0.7-1.2 0.6-0.1 1.1 0.2 1.2 0.8 0.6 2.3 0.8 4.7 0.6 7.1 0 0.5-0.4 1-1 1z"/>
			</g>
			<g id="&lt;Group&gt;">
				<path id="&lt;Path&gt;" class="s0" d="m144 679.1q-0.1 0-0.1 0c-0.5-0.1-1-0.5-0.9-1.1l0.2-6.8c0-0.6 0.5-1 1-1 0.6 0 1 0.5 1 1l-0.2 6.9c-0.1 0.5-0.5 1-1 1z"/>
			</g>
			<g id="&lt;Group&gt;">
				<path id="&lt;Path&gt;" class="s0" d="m137.8 679.1c-0.6 0-1-0.5-1-1l-0.1-5.9c0-0.5 0.5-1 1-1 0.6 0 1 0.4 1 1l0.1 5.8c0 0.6-0.5 1.1-1 1.1q0 0 0 0z"/>
			</g>
			<g id="&lt;Group&gt;">
				<path id="&lt;Path&gt;" class="s0" d="m175 674q-0.1 0-0.2 0c-0.5-0.1-0.9-0.7-0.7-1.2 0.4-2.2 0.1-4.6-1-6.6-0.3-0.5-0.1-1.1 0.4-1.4 0.5-0.2 1.1 0 1.4 0.5 1.2 2.4 1.6 5.2 1.1 7.9-0.1 0.5-0.5 0.8-1 0.8z"/>
			</g>
			<g id="&lt;Group&gt;">
				<path id="&lt;Path&gt;" class="s0" d="m181.8 672.2q-0.1 0-0.2 0c-0.5-0.1-0.9-0.6-0.8-1.1 0.2-1.8-0.1-3.6-0.9-5.1-0.2-0.5 0-1.1 0.5-1.4 0.5-0.2 1.1 0 1.3 0.5 1 1.9 1.3 4.1 1.1 6.2-0.1 0.5-0.5 0.9-1 0.9z"/>
			</g>
			<g id="&lt;Group&gt;">
				<path id="&lt;Path&gt;" class="s0" d="m187 668.8c-0.5 0-0.9-0.4-1-0.9-0.1-1.6-0.6-3.1-1.4-4.4-0.3-0.5-0.2-1.1 0.3-1.4 0.5-0.3 1.1-0.2 1.4 0.3 0.9 1.6 1.6 3.4 1.7 5.3 0.1 0.5-0.3 1-0.9 1.1q0 0-0.1 0z"/>
			</g>
			<g id="&lt;Group&gt;">
				<path id="&lt;Path&gt;" class="s0" d="m236.4 261.9q-0.4 0-0.7-0.3c-0.4-0.4-0.4-1 0-1.4 5-5.3 11.7-9.2 18.9-10.9 0.5-0.1 1.1 0.2 1.2 0.7 0.1 0.6-0.2 1.1-0.7 1.2-6.8 1.6-13.2 5.3-18 10.4-0.2 0.2-0.4 0.3-0.7 0.3z"/>
			</g>
			<g id="&lt;Group&gt;">
				<path id="&lt;Path&gt;" class="s0" d="m207.4 214.6q-0.2 0-0.4-0.1c-0.5-0.3-0.7-0.9-0.5-1.4l7.5-16.2c0.2-0.5 0.8-0.7 1.3-0.5 0.5 0.3 0.8 0.9 0.5 1.4l-7.5 16.2c-0.1 0.3-0.5 0.6-0.9 0.6z"/>
			</g>
			<g id="&lt;Group&gt;">
				<path id="&lt;Path&gt;" class="s0" d="m104.3 201c-0.4 0-0.8-0.2-0.9-0.6-1-3.3-2.6-6.3-4.5-9.1-0.3-0.4-0.2-1.1 0.3-1.4 0.4-0.3 1.1-0.2 1.4 0.3 2 2.9 3.6 6.1 4.7 9.5 0.2 0.6-0.1 1.1-0.7 1.3q-0.1 0-0.3 0z"/>
			</g>
			<g id="&lt;Group&gt;">
				<path id="&lt;Path&gt;" class="s0" d="m154.1 301.8q-0.2 0-0.4-0.1c-2-0.8-3.7-2.2-4.7-4.1-0.3-0.4-0.1-1 0.4-1.3 0.4-0.3 1.1-0.1 1.3 0.3 0.9 1.5 2.2 2.6 3.7 3.3 0.5 0.2 0.8 0.8 0.6 1.3-0.2 0.4-0.5 0.6-0.9 0.6z"/>
			</g>
			<g id="&lt;Group&gt;">
				<path id="&lt;Path&gt;" class="s0" d="m177.9 300q-2.1 0-3.2-0.8c-0.5-0.4-0.9-1.1-1-1.8 0-0.6-0.2-2.3 11.4-9.5q0.1-0.1 0.3-0.1c0.7-0.2 18.6-5 23.2-4.5 4.8 0.5 9.4 8.4 9.9 9.3 0.3 0.5 0.1 1.1-0.4 1.3-0.4 0.3-1 0.2-1.3-0.3-1.3-2.2-5.2-7.9-8.4-8.3-3.4-0.4-17.2 3-22.4 4.4-4.7 2.9-9.9 6.6-10.3 7.7 0.1 0 0.1 0.1 0.2 0.2 0.6 0.4 2.1 0.5 4 0.2 0.6-0.1 1.1 0.3 1.2 0.9 0.1 0.5-0.3 1-0.8 1.1q-1.3 0.2-2.4 0.2z"/>
			</g>
			<g id="&lt;Group&gt;">
				<path id="&lt;Path&gt;" class="s0" d="m181.2 305.3c-2.4 0-4.5-0.7-5.6-1.3-0.4-0.2-1-0.6-1.1-1.3 0-0.5 0-1.6 14.5-11.4 1.6-1 9.6 0.2 14.2 1 0.6 0.1 0.9 0.6 0.8 1.2-0.1 0.5-0.6 0.9-1.1 0.8-5.4-1-11.8-1.7-12.8-1.3-3.3 2.2-10.9 7.6-13.1 9.5 1.6 0.6 5.6 1.5 9.1-0.4 0.4-0.3 1.1-0.1 1.3 0.4 0.3 0.4 0.1 1-0.4 1.3-1.9 1.1-3.9 1.5-5.8 1.5z"/>
			</g>
			<g id="&lt;Group&gt;">
				<path id="&lt;Path&gt;" class="s0" d="m188.2 323.2c-1 0-1.7-0.1-1.8-0.1-0.3 0-0.6-0.2-0.8-0.5-0.1-0.3-0.1-0.7 0.1-1l5.3-9.9q0.1-0.1 0.3-0.3l5.8-4.7-2.5-0.2c-0.7 0.9-2.2 3-4.5 5.9-2.3 2.7-7.5 5.9-9.8 4.7-0.5-0.3-1.4-1.1-0.8-3.1 1.3-4.4 8.1-14.6 10.2-15.9 2-1.2 11.2-0.2 13.9 0.2 0.6 0.1 1 0.6 0.9 1.1-0.1 0.5-0.6 0.9-1.1 0.9-5.3-0.7-11.7-1.1-12.7-0.5-1.6 1-8.1 10.7-9.3 14.8-0.2 0.6-0.1 0.8-0.1 0.8 0.7 0.4 4.8-1.4 7.2-4.3 3-3.6 4.7-6.2 4.8-6.2 0.2-0.3 0.5-0.5 0.9-0.4l5.6 0.3c0.4 0 0.8 0.3 0.9 0.7 0.1 0.4 0 0.8-0.3 1.1l-7.7 6.3-4.5 8.3q0 0 0 0c2.2 0 6.2-0.4 8.4-3.5 3.5-4.8 7.3-8 7.4-8.1 0.3-0.3 0.8-0.4 1.1-0.2 0.1 0.1 6.1 3.2 13.4 0.1 0.5-0.2 1.1 0.1 1.3 0.6 0.3 0.5 0 1.1-0.5 1.3-6.9 2.8-12.6 0.9-14.5 0.1-1.1 1-3.9 3.8-6.6 7.4-2.7 3.7-7.4 4.3-10 4.3z"/>
			</g>
		</g>
	</g>
</svg>