<svg version="1.2" xmlns="http://www.w3.org/2000/svg" viewBox="0 0 320 700" width="320" height="700">
	<title>8440513-ai</title>
	<style>
		.s0 { fill: #e79e73 } 
		.s1 { fill: #e06a43 } 
		.s2 { fill: #2b3448 } 
		.s3 { fill: #df895d } 
	</style>
	<g id="masculino">
		<g id="&lt;Group&gt;">
			<g id="&lt;Group&gt;">
				<path id="&lt;Path&gt;" class="s0" d="m274.1 333c0 0.5 0 31.9 0 34.8 0 2.9-4.8 10.8-4.8 10.8 0 0-0.4 7-2.1 8.7-1.8 1.8-14.7 11.9-14.7 11.9 0 0-4.9-3.5-1.3-8 3.6-4.5 7.9-13.1 7.9-13.1l-3.5-22c0 0-7.1 12.4-10.3 15.2-3.1 2.8-7.9 0.6-7.9 0.6 0 0 6.5-15.5 7.9-18.6 1.5-3.1 2.7-17 7.1-18.5 0 0-21.1-71.9-21.7-76.5-0.6-4.7-0.5-9.7-0.5-9.7l-7.9-18.3-0.7 22.1c0 0 7 16.1 10.1 34.6 0.9 5.4 1.8 16.1 2.5 29.4-8.2 7.2-31.1 23-72.5 23-41.3 0-64.2-15.8-72.5-23 0.7-13.3 1.6-24 2.5-29.4 3.1-18.5 10.2-34.6 10.2-34.6l-0.8-22.1-7.8 18.3c0 0 0 5-0.5 9.7-0.6 4.6-21.7 76.5-21.7 76.5 4.4 1.5 5.5 15.4 7 18.5 1.5 3.1 8 18.6 8 18.6 0 0-4.8 2.2-8-0.6-3.1-2.8-10.3-15.2-10.3-15.2l-3.4 22c0 0 4.2 8.6 7.8 13.1 3.6 4.5-1.3 8-1.3 8 0 0-12.9-10.1-14.6-11.9-1.8-1.7-2.2-8.7-2.2-8.7 0 0-4.8-7.9-4.8-10.8 0-2.9 0-34.3 0-34.8 0-0.5 5.8-58.2 7-69.7 1.1-11.6 5.2-19.2 5.2-19.2 0 0 4.2-33.4 10.2-65.6 6-32.2 14.6-40.9 23.5-45.6 8.9-4.7 45.3-16.3 45.3-16.3 0 0 29.9 2.9 40.9-13.6l1.5 13.6c0 0 36.5 11.6 45.4 16.3 8.8 4.7 17.4 13.4 23.5 45.6 6 32.2 10.1 65.6 10.1 65.6 0 0 4.1 7.6 5.3 19.2 1.1 11.5 6.9 69.2 6.9 69.7z"/>
			</g>
			<g id="&lt;Group&gt;">
				<path id="&lt;Path&gt;" class="s1" d="m168.4 110.1c1.9-1.1 8.3-6.4 12.6-11.6l0.8 7.6c-11 16.5-41.3 10.5-41.3 10.5l1.8-16c4.1 4.4 9 8.6 10.7 9.5 2.8 1.7 7.7 1.8 7.7 1.8 0 0 4.9-0.1 7.7-1.8z"/>
			</g>
			<path id="&lt;Path&gt;" class="s0" d="m187.2 70.1c-0.1 3.5-0.5 8.9-1 13.6 0 0 0.6 30.2-25.5 28.2 0 0-3-0.1-5.7-0.9-20.3-5-19.8-27.3-19.8-27.3-0.5-4.7-0.9-10.1-1.1-13.6-0.1-2.2-0.1-3.7-0.1-3.7 0 0 0-6.5 2.4-14.7 2.4-8.1 7.4-10.3 10.2-9.9 2.7 0.3 5.8 1.9 14.1 1.9 8.3 0 11.4-1.6 14.1-1.9 2.8-0.4 7.7 1.8 10.2 9.9 2.4 8.2 2.4 14.7 2.4 14.7 0 0 0 1.5-0.2 3.7z"/>
			<g id="&lt;Group&gt;">
				<path id="&lt;Path&gt;" class="s1" d="m234.2 316.4c0.3 5.1 0.5 10.6 0.7 16.4-24.6 1.3-72.1 45.9-72.1 45.9h-2.1c0 0-47.5-44.6-72.2-45.9 0.2-5.8 0.5-11.3 0.7-16.4 8.3 7.2 31.2 23 72.5 23 41.4 0 64.3-15.8 72.5-23z"/>
			</g>
			<g id="&lt;Group&gt;">
				<path id="&lt;Path&gt;" class="s0" d="m244.1 671.3c0 1.9-0.8 4.1-3.9 5.3-3.1 1.2-16.8 2-20.9 2.6-4.1 0.5-13.1-2.8-18.3-8 0 0-9.5 0-12.6-3.1-3-3.1 2.3-20.8 2.3-20.8 0 0-6.6-39.2-7.8-47.9-1.1-8.7-6.3-84.8-6-96.1l-14.1-124.6c0 0 47.5-44.6 72.1-45.9 0.5 12.6 0.7 26.2 0.7 39.1-0.1 18.5-0.9 35.5-2.6 45.8-4.9 29.5-13.9 76.9-13.9 76.9 0 0 6.5 39.9 5.8 62.7-0.6 22.7-8.5 87.6-8.5 87.6 0 0 11 14.4 17 18.2 6 3.8 10.7 6.3 10.7 8.2z"/>
			</g>
			<g id="&lt;Group&gt;">
				<path id="&lt;Path&gt;" class="s0" d="m160.7 378.7l-14.2 124.6c0.4 11.3-4.8 87.4-6 96.1-1.1 8.7-7.8 47.9-7.8 47.9 0 0 5.4 17.7 2.3 20.8-3.1 3.1-12.6 3.1-12.6 3.1-5.1 5.2-14.1 8.5-18.2 8-4.1-0.6-17.9-1.4-21-2.6-3-1.2-3.8-3.4-3.8-5.3 0-1.9 4.6-4.4 10.7-8.2 6-3.8 16.9-18.2 16.9-18.2 0 0-7.8-64.9-8.5-87.6-0.6-22.8 5.8-62.7 5.8-62.7 0 0-8.9-47.4-13.9-76.9-1.7-10.3-2.4-27.3-2.5-45.8-0.1-12.9 0.2-26.5 0.6-39.1 24.7 1.3 72.2 45.9 72.2 45.9z"/>
			</g>
			<g id="&lt;Group&gt;">
				<path id="&lt;Path&gt;" class="s0" d="m132.1 83.4c-1.4-1-4.8-5.2-4.9-10.6-0.1-5.4 1.3-6.9 3.2-6.6 2 0.3 3.7 3.9 3.7 3.9 0.2 3.5 0.6 8.9 1.1 13.6 0 0-1.7 0.7-3.1-0.3z"/>
			</g>
			<g id="&lt;Group&gt;">
				<path id="&lt;Path&gt;" class="s0" d="m189.3 83.4c-1.3 1-3.1 0.3-3.1 0.3 0.5-4.7 0.9-10.1 1.1-13.6 0 0 1.7-3.6 3.7-3.9 1.9-0.3 3.3 1.2 3.2 6.6-0.1 5.4-3.5 9.6-4.9 10.6z"/>
			</g>
			<g id="&lt;Group&gt;">
				<path id="&lt;Path&gt;" class="s2" d="m161 24.5c34.5 0 30 41.7 30 41.7-2 0.3-3.7 3.9-3.7 3.9 0.1-2.2 0.1-3.7 0.1-3.7 0 0 0-6.5-2.4-14.7-2.5-8.1-7.4-10.3-10.2-9.9-2.7 0.3-5.8 1.9-14.1 1.9-8.3 0-11.4-1.6-14.1-1.9-2.8-0.4-7.7 1.8-10.2 9.9-2.4 8.2-2.4 14.7-2.4 14.7 0 0 0 1.5 0.1 3.7 0 0-1.7-3.6-3.7-3.9 0 0-3.9-41.7 30.6-41.7z"/>
			</g>
			<g id="&lt;Group&gt;">
				<path id="&lt;Path&gt;" class="s1" d="m101.1 231.3c-0.5 0-1-0.4-1-1-0.1-2-3.3-50.7-3.3-54 0-0.5 0.4-1 1-1 0.5 0 1 0.5 1 1 0 3.2 3.3 53.4 3.3 53.9 0 0.6-0.4 1-0.9 1.1q-0.1 0-0.1 0z"/>
			</g>
			<g id="&lt;Group&gt;">
				<path id="&lt;Path&gt;" class="s1" d="m99.3 203.1c-0.3 0-0.7-0.1-0.8-0.4-3.1-4.5-6.9-13.8-7.1-14.2-0.2-0.6 0.1-1.1 0.6-1.3 0.5-0.3 1.1 0 1.3 0.5 0 0.1 3.9 9.6 6.8 13.9 0.3 0.4 0.2 1.1-0.3 1.4q-0.2 0.1-0.5 0.1z"/>
			</g>
			<g id="&lt;Group&gt;">
				<path id="&lt;Path&gt;" class="s1" d="m130.3 214.8c-14.7 0-23.3-5.9-23.9-6.2-0.4-0.4-0.5-1-0.2-1.4 0.3-0.5 0.9-0.6 1.4-0.3 0.2 0.1 18.2 12.4 46.8 0.9 0.5-0.2 1.1 0 1.3 0.5 0.2 0.5 0 1.1-0.5 1.3-9.6 3.9-17.9 5.2-24.9 5.2z"/>
			</g>
			<g id="&lt;Group&gt;">
				<path id="&lt;Path&gt;" class="s1" d="m130.9 202.1c0 1.8-2.1 3.3-4.7 3.3-2.5 0-4.6-1.5-4.6-3.3 0-1.7 2.1-3.2 4.6-3.2 2.6 0 4.7 1.5 4.7 3.2z"/>
			</g>
			<g id="&lt;Group&gt;">
				<path id="&lt;Path&gt;" class="s1" d="m55.5 387.1c-0.4 0-0.8-0.3-0.9-0.7-0.8-2.4-1.5-7.5-1.5-7.7l-0.6-9.9c-0.1-0.6 0.3-1 0.9-1.1 0.5 0 1 0.4 1.1 1l0.6 9.8c0 0 0.6 5.1 1.4 7.2 0.1 0.6-0.1 1.1-0.7 1.3q-0.1 0.1-0.3 0.1z"/>
			</g>
			<g id="&lt;Group&gt;">
				<path id="&lt;Path&gt;" class="s1" d="m160 294.6c-0.5 0-0.9-0.3-1-0.8-0.1-0.5 0.2-1 0.7-1.2 2.7-0.6 5.2-1.9 7.3-3.7 0.5-0.4 1.1-0.3 1.5 0.1 0.3 0.5 0.2 1.1-0.2 1.4-2.3 2-5.1 3.4-8.1 4.2q-0.1 0-0.2 0z"/>
			</g>
			<g id="&lt;Group&gt;">
				<path id="&lt;Path&gt;" class="s1" d="m123 502.3c-4.4 0-8.9-1.9-11.9-5.3-0.3-0.4-0.3-1 0.1-1.4 0.4-0.3 1.1-0.3 1.4 0.1 3.1 3.4 7.9 5.2 12.5 4.4 0.5 0 1 0.3 1.1 0.9 0.1 0.5-0.3 1-0.8 1.1q-1.2 0.2-2.4 0.2z"/>
			</g>
			<g id="&lt;Group&gt;">
				<path id="&lt;Path&gt;" class="s1" d="m126.3 655.1c-0.3 0-0.6-0.1-0.8-0.3-0.3-0.4-0.3-1.1 0.1-1.4 1.9-1.6 3.2-4 3.5-6.4 0.1-0.5 0.6-0.9 1.2-0.8 0.5 0.1 0.9 0.6 0.8 1.1-0.4 2.9-2 5.7-4.2 7.6q-0.2 0.2-0.6 0.2z"/>
			</g>
			<g id="&lt;Group&gt;">
				<path id="&lt;Path&gt;" class="s1" d="m103.2 679.6q-0.3 0-0.5-0.1c-1.3-0.7-2.1-2.2-2.4-4 0-0.3-0.1-1.4 0.5-2.3 0.4-0.5 1-0.8 1.4-1l3.7-1.7c0.5-0.2 1.1 0 1.3 0.5 0.3 0.5 0 1.1-0.5 1.3l-3.6 1.7c-0.3 0.1-0.6 0.3-0.7 0.4-0.1 0.1-0.1 0.3-0.1 0.9 0.2 1.1 0.7 2.1 1.4 2.5 0.5 0.2 0.6 0.9 0.3 1.3-0.1 0.4-0.5 0.5-0.8 0.5z"/>
			</g>
			<g id="&lt;Group&gt;">
				<path id="&lt;Path&gt;" class="s1" d="m96 679.3c-0.3 0-0.6-0.2-0.8-0.5-0.9-1.5-1.7-3.1-1.2-4.8 0.3-1.1 1-2.1 2.2-2.8 0.9-0.6 1.9-0.9 2.8-1.2 0.6-0.1 1.1 0.2 1.3 0.7 0.1 0.5-0.2 1.1-0.7 1.2-0.8 0.3-1.7 0.6-2.4 1-0.4 0.2-1.1 0.8-1.3 1.6-0.2 1 0.3 2.1 1 3.3 0.3 0.5 0.1 1.1-0.4 1.3q-0.2 0.2-0.5 0.2z"/>
			</g>
			<g id="&lt;Group&gt;">
				<path id="&lt;Path&gt;" class="s1" d="m90.9 678.3c-0.3 0-0.5-0.1-0.7-0.3-0.7-0.9-1.5-1.8-1.9-3-0.5-1.5-0.3-3 0.6-4 0.5-0.5 1.1-0.8 1.7-1.1l3-1.5c0.5-0.3 1.1-0.1 1.4 0.4 0.2 0.5 0 1.1-0.5 1.4l-3 1.5c-0.5 0.2-0.9 0.4-1.1 0.7-0.5 0.5-0.4 1.3-0.2 2 0.3 0.8 0.9 1.6 1.5 2.3 0.4 0.4 0.3 1.1-0.1 1.4q-0.3 0.2-0.7 0.2z"/>
			</g>
			<g id="&lt;Group&gt;">
				<path id="&lt;Path&gt;" class="s1" d="m84.4 678.1c-0.4 0-0.8-0.2-0.9-0.5-0.5-0.9-0.9-1.8-1.2-2.8-0.2-1.2-0.2-2.4 0.3-3.4 0.4-1 1.2-1.8 2.4-2.4 0.9-0.5 1.8-0.8 2.8-1.1 0.5-0.1 1.1 0.2 1.2 0.7 0.2 0.5-0.1 1.1-0.7 1.2-0.8 0.3-1.6 0.5-2.4 0.9-0.5 0.3-1.2 0.8-1.5 1.5-0.3 0.8-0.2 1.6-0.1 2.1 0.2 0.8 0.5 1.6 0.9 2.4 0.3 0.5 0.1 1.1-0.4 1.3q-0.2 0.1-0.4 0.1z"/>
			</g>
			<g id="&lt;Group&gt;">
				<path id="&lt;Path&gt;" class="s1" d="m222 231.5q-0.1 0-0.1 0c-0.6-0.1-1-0.6-0.9-1.1 0-0.5 3.3-50.7 3.3-53.9 0-0.5 0.4-1 1-1 0.5 0 1 0.5 1 1 0 3.3-3.2 52-3.3 54-0.1 0.6-0.5 1-1 1z"/>
			</g>
			<g id="&lt;Group&gt;">
				<path id="&lt;Path&gt;" class="s1" d="m223.8 203.3q-0.3 0-0.6-0.2c-0.4-0.3-0.6-0.9-0.2-1.3 2.9-4.4 6.7-13.8 6.8-13.9 0.2-0.5 0.7-0.8 1.3-0.6 0.5 0.2 0.7 0.8 0.5 1.3-0.1 0.4-4 9.8-7 14.3-0.2 0.3-0.5 0.4-0.8 0.4z"/>
			</g>
			<g id="&lt;Group&gt;">
				<path id="&lt;Path&gt;" class="s1" d="m192.8 214.9c-7 0-15.4-1.3-24.9-5.1-0.5-0.2-0.8-0.8-0.6-1.3 0.2-0.5 0.8-0.8 1.3-0.6 28.6 11.5 46.7-0.7 46.9-0.8 0.4-0.3 1.1-0.2 1.4 0.2 0.3 0.5 0.2 1.1-0.3 1.4-0.5 0.4-9.1 6.2-23.8 6.2z"/>
			</g>
			<g id="&lt;Group&gt;">
				<path id="&lt;Path&gt;" class="s1" d="m267.6 387.2q-0.2 0-0.4 0c-0.5-0.2-0.8-0.8-0.6-1.3 0.7-2.2 1.3-7.2 1.4-7.2l0.6-9.9c0-0.5 0.5-0.9 1.1-0.9 0.5 0 0.9 0.5 0.9 1.1l-0.7 9.9c0 0.2-0.6 5.3-1.4 7.7-0.1 0.4-0.5 0.6-0.9 0.6z"/>
			</g>
			<g id="&lt;Group&gt;">
				<path id="&lt;Path&gt;" class="s1" d="m163.1 294.8q-0.1 0-0.2-0.1c-3-0.7-5.8-2.1-8.2-4.1-0.4-0.3-0.4-1-0.1-1.4 0.4-0.4 1-0.5 1.4-0.1 2.1 1.7 4.7 3 7.3 3.7 0.6 0.1 0.9 0.7 0.8 1.2-0.1 0.5-0.6 0.8-1 0.8z"/>
			</g>
			<g id="&lt;Group&gt;">
				<path id="&lt;Path&gt;" class="s1" d="m200 502.5q-1.2 0-2.3-0.2c-0.6-0.1-0.9-0.6-0.9-1.2 0.1-0.5 0.7-0.9 1.2-0.8 4.5 0.7 9.4-1 12.4-4.4 0.4-0.4 1-0.5 1.5-0.1 0.4 0.4 0.4 1 0 1.4-2.9 3.3-7.4 5.3-11.9 5.3z"/>
			</g>
			<g id="&lt;Group&gt;">
				<path id="&lt;Path&gt;" class="s1" d="m196.8 655.3q-0.4 0-0.7-0.2c-2.2-2-3.7-4.7-4.2-7.6 0-0.5 0.3-1.1 0.9-1.1 0.5-0.1 1 0.3 1.1 0.8 0.4 2.4 1.7 4.7 3.5 6.3 0.4 0.4 0.5 1 0.1 1.5-0.2 0.2-0.5 0.3-0.7 0.3z"/>
			</g>
			<g id="&lt;Group&gt;">
				<path id="&lt;Path&gt;" class="s1" d="m219.9 679.8c-0.4 0-0.7-0.2-0.9-0.5-0.3-0.5-0.1-1.1 0.4-1.4 0.7-0.4 1.2-1.3 1.3-2.4 0.1-0.6 0-0.8 0-0.9-0.1-0.2-0.5-0.3-0.7-0.4l-3.7-1.7c-0.5-0.2-0.7-0.8-0.5-1.3 0.3-0.5 0.9-0.8 1.4-0.5l3.6 1.7c0.5 0.2 1.1 0.4 1.5 1q0.6 0.9 0.4 2.3c-0.2 1.8-1.1 3.3-2.3 4q-0.3 0.1-0.5 0.1z"/>
			</g>
			<g id="&lt;Group&gt;">
				<path id="&lt;Path&gt;" class="s1" d="m227 679.4q-0.2 0-0.5-0.1c-0.5-0.3-0.6-0.9-0.4-1.3 0.7-1.2 1.3-2.4 1-3.4-0.2-0.7-0.9-1.3-1.3-1.5-0.7-0.5-1.5-0.7-2.4-1-0.5-0.2-0.8-0.7-0.6-1.2 0.1-0.6 0.7-0.9 1.2-0.7 0.9 0.3 2 0.6 2.9 1.2 1.1 0.7 1.9 1.7 2.2 2.7 0.5 1.9-0.6 3.7-1.2 4.8-0.2 0.4-0.5 0.5-0.9 0.5z"/>
			</g>
			<g id="&lt;Group&gt;">
				<path id="&lt;Path&gt;" class="s1" d="m232.1 678.5q-0.3 0-0.6-0.2c-0.4-0.4-0.5-1-0.1-1.4 0.6-0.8 1.2-1.5 1.5-2.4 0.2-0.6 0.2-1.5-0.2-2-0.3-0.2-0.7-0.4-1.1-0.6l-3.1-1.6c-0.4-0.2-0.6-0.8-0.4-1.3 0.2-0.5 0.8-0.7 1.3-0.5l3.1 1.6c0.5 0.2 1.1 0.5 1.6 1.1 0.9 1 1.2 2.5 0.7 4-0.4 1.2-1.2 2.1-1.9 3-0.2 0.2-0.5 0.3-0.8 0.3z"/>
			</g>
			<g id="&lt;Group&gt;">
				<path id="&lt;Path&gt;" class="s1" d="m238.7 678.3q-0.2 0-0.5-0.1c-0.4-0.2-0.6-0.8-0.4-1.3 0.4-0.8 0.8-1.6 1-2.4 0.1-0.5 0.2-1.4-0.1-2.1-0.4-0.7-1.1-1.2-1.6-1.5-0.7-0.4-1.5-0.6-2.4-0.9-0.5-0.2-0.8-0.7-0.7-1.2 0.2-0.6 0.8-0.9 1.3-0.7 0.9 0.3 1.9 0.6 2.8 1.1 1.1 0.6 1.9 1.4 2.4 2.4 0.4 1 0.5 2.1 0.2 3.4-0.2 1-0.7 2-1.1 2.8-0.2 0.3-0.5 0.5-0.9 0.5z"/>
			</g>
			<g id="&lt;Group&gt;">
				<path id="&lt;Path&gt;" class="s1" d="m202.2 202.1c0 1.8-2.1 3.3-4.6 3.3-2.6 0-4.7-1.5-4.7-3.3 0-1.7 2.1-3.2 4.7-3.2 2.5 0 4.6 1.5 4.6 3.2z"/>
			</g>
			<g id="&lt;Group&gt;">
				<path id="&lt;Path&gt;" class="s1" d="m162.4 85.7c0 0.2-0.3 0.4-0.6 0.4-1.8-0.2-6.7-0.9-7.1-2.7-0.4-1.8 3.7-9.3 5.6-12.7 0.2-0.4 0.9-0.3 1 0.1z"/>
			</g>
			<g id="&lt;Group&gt;">
				<path id="&lt;Path&gt;" class="s2" d="m154 70.8c-0.4 0-0.8-0.2-0.9-0.6-0.1-0.1-0.9-2.3-4.9-2.3q0 0 0 0c-4.2 0-5.5 1.8-5.6 1.9-0.3 0.4-0.9 0.5-1.4 0.2-0.4-0.3-0.5-0.9-0.2-1.4 0.1-0.1 1.9-2.7 7.2-2.7 5.5-0.1 6.7 3.5 6.8 3.6 0.1 0.5-0.1 1.1-0.7 1.3q-0.1 0-0.3 0z"/>
			</g>
			<g id="&lt;Group&gt;">
				<path id="&lt;Path&gt;" class="s2" d="m140.8 65.8c-0.3 0-0.6-0.2-0.8-0.4-0.3-0.4-0.3-1.1 0.2-1.4 1.8-1.5 4.1-2.5 6.5-2.8 2.3-0.2 4.8 0.2 7 1.2 0.5 0.2 0.7 0.8 0.4 1.3-0.2 0.5-0.8 0.7-1.3 0.5-1.8-0.9-3.9-1.2-5.9-1-2 0.3-3.9 1.1-5.5 2.3q-0.3 0.3-0.6 0.3z"/>
			</g>
			<g id="&lt;Group&gt;">
				<path id="&lt;Path&gt;" class="s2" d="m149.9 67c0.4 0.2 0.3 0.8 0.3 1.2 0 1.3-1 2.4-2.3 2.4-1.3 0-2.3-1.1-2.3-2.3q0-0.7 0.3-1.2c0 0 2.3-0.6 4-0.1z"/>
			</g>
			<g id="&lt;Group&gt;">
				<path id="&lt;Path&gt;" class="s2" d="m166.6 70.8q-0.1 0-0.3-0.1c-0.5-0.2-0.8-0.7-0.6-1.2 0-0.2 1.3-3.7 6.8-3.7 5.3 0 7.1 2.6 7.1 2.7 0.4 0.4 0.2 1.1-0.2 1.4-0.5 0.3-1.1 0.2-1.4-0.3-0.1-0.1-1.5-1.7-5.5-1.8-4 0-4.9 2.2-4.9 2.3-0.2 0.4-0.6 0.7-1 0.7z"/>
			</g>
			<g id="&lt;Group&gt;">
				<path id="&lt;Path&gt;" class="s2" d="m179.8 65.6q-0.3 0-0.6-0.2c-1.6-1.3-3.5-2.1-5.5-2.3-2-0.2-4.1 0.2-5.9 1-0.5 0.3-1.1 0.1-1.3-0.4-0.3-0.5-0.1-1.1 0.4-1.4 2.2-1 4.6-1.4 7-1.2 2.4 0.3 4.7 1.3 6.5 2.7 0.5 0.4 0.5 1 0.2 1.4-0.2 0.3-0.5 0.4-0.8 0.4z"/>
			</g>
			<g id="&lt;Group&gt;">
				<path id="&lt;Path&gt;" class="s2" d="m174.7 67c0.3 0.2 0.3 0.7 0.3 1.1 0 1.3-1 2.4-2.3 2.4-1.2 0-2.3-1.1-2.3-2.3q0-0.7 0.3-1.2c0 0 3.1-0.7 4 0z"/>
			</g>
			<g id="&lt;Group&gt;">
				<path id="&lt;Path&gt;" class="s3" d="m150.9 81.8c0.2 2.2-2.4 4.2-5.8 4.4-3.4 0.2-6.2-1.4-6.4-3.6-0.1-2.2 2.5-4.1 5.9-4.4 3.3-0.2 6.2 1.4 6.3 3.6z"/>
			</g>
			<g id="&lt;Group&gt;">
				<path id="&lt;Path&gt;" class="s3" d="m181.2 80.4c0.2 2.2-2.5 4.1-5.8 4.4-3.4 0.2-6.3-1.4-6.4-3.6-0.2-2.2 2.5-4.2 5.9-4.4 3.3-0.2 6.2 1.4 6.3 3.6z"/>
			</g>
			<g id="&lt;Group&gt;">
				<path id="&lt;Path&gt;" class="s1" d="m133.5 82.1c-0.5 0-0.9-0.3-1-0.7-0.8-3-2.1-5.9-3.7-8.6-0.3-0.4-0.2-1 0.3-1.3 0.5-0.3 1.1-0.2 1.4 0.3 1.7 2.8 3 5.9 3.9 9.1 0.2 0.5-0.1 1-0.7 1.2q-0.1 0-0.2 0z"/>
			</g>
			<g id="&lt;Group&gt;">
				<path id="&lt;Path&gt;" class="s1" d="m187.4 81.7q-0.1 0-0.2 0c-0.5-0.1-0.9-0.7-0.7-1.2 0.8-3.3 2.1-6.5 3.8-9.4 0.3-0.4 0.9-0.6 1.4-0.3 0.5 0.3 0.6 0.9 0.3 1.4-1.6 2.7-2.8 5.6-3.6 8.7-0.1 0.5-0.5 0.8-1 0.8z"/>
			</g>
			<g id="&lt;Group&gt;">
				<path id="&lt;Path&gt;" class="s2" d="m160.3 94.6c-1.7 0-3-0.3-3.1-0.3-0.6-0.1-0.9-0.6-0.8-1.2 0.1-0.5 0.7-0.8 1.2-0.7 0.1 0 7 1.5 10.9-3.1 0.3-0.5 1-0.5 1.4-0.2 0.4 0.4 0.5 1 0.1 1.4-2.8 3.4-6.9 4.1-9.7 4.1z"/>
			</g>
		</g>
	</g>
	<g id="feminino">
	</g>
</svg>