<svg version="1.2" xmlns="http://www.w3.org/2000/svg" viewBox="0 0 320 700" width="320" height="700">
	<title>8440513-ai</title>
	<style>
		.s0 { fill: #2b3448 } 
		.s1 { fill: #e79e73 } 
		.s2 { fill: #e06a43 } 
		.s3 { fill: #000000 } 
		.s4 { fill: #df895d } 
	</style>
	<g id="feminino">
		<g id="&lt;Group&gt;">
			<g id="&lt;Group&gt;">
				<path id="&lt;Path&gt;" class="s0" d="m193.4 130.6c0 0-6.6 4.2-11.1 0.7l-0.8-4.4-0.9-4.4q1.1-1.1 2.1-2.3c3.2-3.9 5.5-8 6.9-10.9q1-1.9 1.5-3.9l0.5 0.1c0 0 0.6 0.2 1.4 0.2-2 4.6-6.4 15.6-4.5 19 2.4 4.4 4.9 5.9 4.9 5.9z"/>
			</g>
			<g id="&lt;Group&gt;">
				<path id="&lt;Path&gt;" class="s0" d="m199.7 89.1c-0.4-0.8-0.9-1.3-1.5-1.5q-0.6-0.2-1.3-0.1c-0.5 0.1-1 0.3-1.4 0.6-0.8 2.2-1.8 4.3-3 6.3 0.1-1.1 0.2-2.1 0.2-2.9q-1-0.1-1.9-0.3-0.3-0.1-0.6-0.1-0.2-0.1-0.4-0.1-0.2-0.1-0.5-0.1-0.1-0.1-0.3-0.1-0.1 0-0.2-0.1-0.1 0-0.1 0-0.1 0-0.1-0.1-0.1 0-0.1 0 0 0 0 0c-0.1 0-0.1 0-0.2 0q-0.2-0.1-0.3-0.1 0 0 0 0-0.2-0.1-0.3-0.1-0.4-0.2-0.7-0.3-0.7-0.3-1.4-0.6-0.6-0.3-1.1-0.7-0.4-0.2-0.7-0.5-0.4-0.3-0.7-0.5c-4.7-4.4-3.9-11.5-8.4-17.8-1.5-2.1-3.3-3.8-5.2-5.2q-0.4-0.3-0.8-0.6-0.5-0.4-1-0.7-0.9-0.5-1.8-1-1.2-0.7-2.4-1.2-0.6-0.2-1.3-0.5-0.9-0.3-1.7-0.6-0.4-0.1-0.8-0.2-0.2-0.1-0.4-0.1-0.1-0.1-0.3-0.1-0.1-0.1-0.2-0.1-0.3 0-0.4-0.1-0.1 0-0.2 0-0.2-0.1-0.3-0.1 0 0 0 0-0.1 0-0.2 0-0.2-0.1-0.3-0.1 0 0 0 0-0.2 0-0.2 0 0 0 0 0-0.9 0.4-1.8 0.8-0.8 0.4-1.6 0.9-0.8 0.5-1.6 1-0.7 0.4-1.5 1-1.5 1.1-2.8 2.2-0.5 0.4-0.9 0.8-1.3 1.2-2.5 2.5-0.7 0.9-1.4 1.7-0.7 0.9-1.3 1.7c-1.5 2.1-2.7 4.1-3.7 6.1q-0.4 0.8-0.8 1.7-0.4 0.8-0.7 1.6-0.5 1.2-0.9 2.3-0.2 0.7-0.4 1.4-0.1 0.4-0.2 0.7-0.1 0.3-0.2 0.6-0.3 1-0.5 1.8-0.1 0.2-0.1 0.5 0 0-0.1 0.1-0.1 0.5-0.2 1 0 0.4-0.1 0.8 0 0.2 0 0.3-0.1 0.3-0.1 0.4 0 0.2 0 0.2c0 0-1.2-2.2-2.8-3.4-0.4-0.3-0.9-0.5-1.4-0.6-1.1-0.2-2.1 0.2-2.7 1.4-0.6 1.1-0.9 2.8-0.8 5.4 0.1 5.5 3.8 9.9 5.3 10.9 1.1 0.7 3 0.6 4 0.4q0.5 1.8 1.4 3.6c1.4 2.9 3.7 7 7 10.9q1 1.2 2.1 2.4l-0.8 7.8c-4.7 3.9-8.5 0-8.5 0 7.9-5.8-14.6-22.5-13.2-31.5 0.2-1.3 0.3-2.9 0.2-4.5 0-9.3-2.7-22.4-0.2-29.5 2.9-8.4 13.2-10.9 13.2-10.9 0 0 6.7-11.7 26.7-11.5q1.8 0 3.7 0.2c18.4 1.7 33.8 14.1 36.5 19 2.1 3.8-1.6 19.2-3.8 27.5z"/>
			</g>
			<path id="&lt;Path&gt;" class="s1" d="m192.7 91.5c0 0.8-0.1 1.8-0.2 2.9-0.3 2.4-0.6 5.5-0.8 7.8q-0.2 1.6-0.6 3.2 0 0 0 0.1h0.5c0 0 1 14.3-10.4 21.8-4 2.6-9.4 4.3-16.8 4.4q-0.2 0-0.5 0-0.3 0-0.7 0c-0.2 0-0.4 0-0.6 0q-0.7 0-1.4-0.1c-7-0.4-12-2.3-15.7-5-10.6-7.6-10.1-21-10.1-21q-0.5-1.7-0.7-3.4c-0.3-2.7-0.5-5.5-0.7-7.8-0.1-1.1-0.2-2.2-0.2-3.1q0-0.1 0-0.4 0.1-0.1 0.1-0.3 0.1-0.4 0.1-0.8 0.1-0.5 0.2-1c0 0 0.1-0.1 0.1-0.2q0-0.2 0.1-0.4 0.2-0.8 0.5-1.8 0.1-0.3 0.2-0.6 0.1-0.3 0.2-0.7 0.2-0.7 0.4-1.4 0.4-1.1 0.9-2.3 0.3-0.8 0.7-1.6 0.4-0.9 0.8-1.7c1-2 2.2-4 3.7-6.1q0.6-0.8 1.3-1.7 0.7-0.8 1.4-1.7 1.2-1.3 2.5-2.5 0.4-0.4 0.8-0.8 1.4-1.2 2.9-2.2 0.8-0.6 1.5-1 0.8-0.5 1.6-1 0.8-0.4 1.6-0.9 0.9-0.4 1.8-0.8 0 0 0.1 0h0.1q0 0 0 0 0.1 0 0.2 0.1h0.1c0 0 0.1 0 0.2 0q0 0 0 0 0.1 0 0.3 0.1 0.1 0 0.1 0 0.3 0.1 0.5 0.1 0.1 0.1 0.2 0.1 0.2 0 0.3 0.1 0.2 0 0.4 0.1 0.4 0.1 0.8 0.2 0.8 0.3 1.7 0.6 0.7 0.3 1.3 0.5 1.2 0.5 2.4 1.2 0.9 0.5 1.7 1 0.6 0.3 1.1 0.7 0.4 0.3 0.8 0.6c1.9 1.4 3.6 3.1 5.2 5.2 4.5 6.3 3.6 13.4 8.4 17.8q0.3 0.2 0.7 0.5 0.3 0.2 0.7 0.5 0.5 0.4 1.1 0.7 0.7 0.3 1.4 0.6 0.3 0.1 0.7 0.3 0.1 0 0.3 0.1 0 0 0 0 0.1 0 0.3 0.1 0.1 0 0.2 0 0 0 0 0 0 0 0 0 0.1 0.1 0.2 0.1c0 0 0 0 0.1 0q0.1 0.1 0.2 0.1 0.2 0 0.3 0.1 0.3 0 0.5 0.1 0.2 0 0.4 0.1 0.3 0 0.6 0.1c0.6 0.1 1.2 0.2 1.9 0.3z"/>
			<g id="&lt;Group&gt;">
				<path id="&lt;Path&gt;" class="s2" d="m234 319.1l-8.5 7.2-1.1 2c-32.2 16.2-66.9 46.9-66.9 46.9-18.2-16.5-43.3-25.2-60.8-31.2-12.2-4.2-28.4-9.6-28.4-9.6 0.9-2.3 3.3-10.6 4-12 1-0.1 15.5 5.6 25 9.1 4.3 1.5 7.6 2.7 8.1 2.5 4 1.5 47.5 15.7 110.1-11 1.5 1.5 5.5 5.2 8.8 2.1 3.9-3.7 9.4-5.8 9.7-6z"/>
			</g>
			<g id="&lt;Group&gt;">
				<path id="&lt;Path&gt;" class="s1" d="m217.1 322.5l1.8-0.1c0 0-38 30.2-70.5 28.7-25.8-1.2-42.8-12.8-48.7-17.6l-27.4-11.1c0.8-2.3 4.2-19.3 4.4-21.7 1.2-12.5 13.2-36 13.2-36 0 0 67.5-21.6 138.1-5.4 0 0 8.1 20.7 15.1 39.8 0.5 1.3 2 15.5 2.4 16.8 0 0-22.1 4.9-28.4 6.6z"/>
			</g>
			<g id="&lt;Group&gt;">
				<path id="&lt;Path&gt;" class="s2" d="m181.2 127.3c-12.3 14-36.8 10.5-36.8 10.5l0.7-7.5 0.4-3.7c3.7 2.7 8.7 4.6 15.7 5q0.7 0.1 1.4 0.1c0.2 0 0.4 0 0.6 0q0.4 0 0.7 0 0.3 0 0.5 0c7.4-0.1 12.8-1.8 16.8-4.4z"/>
			</g>
			<g id="&lt;Group&gt;">
				<path id="&lt;Path&gt;" class="s1" d="m256.5 303.8l2.7-57.4-31.2-19.9c1-12.1-5.1-19.2-8.8-31.2-5.3-17.2 0-47.7 0-47.7 4.2 1.4 12.3 0 20.2 3.2 8.6 3.5 57.2 71.6 57 91.4-0.3 19.7-18.6 84.3-18.6 84.3-4.4 11.7-26.4 5.4-26.4 5.4l-1.9 0.9-9.1 4.2c0 6.5-7.6 6.3-7.6 6.3l1.6-8.7 11-11.2-9.5 3.1c0 0-3.6 6.3-7.6 9.2-4 2.9-8.2 0-8.2 0l4.3-7.4 1.1-2 8.5-7.2c-0.3 0.2-5.8 2.3-9.7 6-3.3 3.1-7.3-0.6-8.7-2.1-0.4-0.4-0.6-0.6-0.6-0.6l7.7-5.5c-5.8 1.4-7.1-2.7-7.1-2.7 0 0 12.5-8.4 16.3-9.6 3.8-1.3 12.2-1.6 12.6-1.6q-0.7-2-1.4-3.9l12 4.6z"/>
			</g>
			<g id="&lt;Group&gt;">
				<path id="&lt;Path&gt;" class="s1" d="m157.5 375.2c6.8 41.8-10.2 138.8-9.3 158.5 0 0 0 1 0 2.8q0 0.1 0 0.1c-0.4 23.6-14.5 96-14.5 96 0 0 5.4 27.2 6 29.6 0.1 0.3 0.2 0.7 0.3 1.2 1 3.8 2.3 12.5-18.7 11.5-23.9-1-21.1-6.8-17-13.9 4.1-7.1 7.9-25.7 7.9-25.7 0 0-20.7-88.7-26.5-104.3-5.8-15.6 2-35.4 2-35.4 0 0-14.8-46.6-24.2-96.5-6-31.5 1.1-58.6 4.8-64.7 0 0 16.2 5.4 28.4 9.6 17.5 6 42.6 14.7 60.8 31.2z"/>
			</g>
			<g id="&lt;Group&gt;">
				<path id="&lt;Path&gt;" class="s1" d="m176 635.8c0 4.6 12.1 24.5 11.9 30.7-0.1 6.2-39.7 11.6-45.3 0q-0.8-1.7-1.1-3.4c-2.4-11.5 7.4-27.1 7.6-35.5 0.1-8.3-0.7-76-0.9-91q0 0 0-0.1 0-1.5 0-2.8c-0.9-19.7 16.1-116.7 9.3-158.5 0 0 34.7-30.7 66.9-46.9l-4.3 7.4c0 0 4.2 2.9 8.2 0 4-2.9 7.6-9.2 7.6-9.2l9.5-3.1-11 11.2-1.6 8.7c0 0 7.6 0.2 7.6-6.3l10.3-10.9c0 0 7.4 15.9 7.1 30.7-1.2 56.9-49.5 133.2-49.5 133.2 0 0 10.3 31.7 0 59-10.2 27.3-32.3 82.2-32.3 86.8z"/>
			</g>
			<g id="&lt;Group&gt;">
				<path id="&lt;Path&gt;" class="s1" d="m81.8 221.5l-19.8 21.2 4.5 59.9c0 0 4.6-6 12.9-8.8-0.9 2.3-1.8 4.6-2.7 6.9l15.5 1 12.8 11.2c-1.5 3.2-7 0.7-7.4 0.5l7.2 8.1c-3 4.9-10.6-0.6-11-0.8l6.8 11.9c-2.6 1.4-5.2 1.4-7.6 0.6q-0.2-0.1-0.2-0.1c-5.2-4.6-7.2-8.5-7.2-8.5l-9.5-4.3c0.6 0.6 9.6 10.2 10.5 11.9 0.9 1.8 2.4 9.2-2.1 7.6-4.5-1.6-13.8-12-13.8-12q-2.3 0.4-4.4 0.5c-9.2 0.5-16.5-3.6-22.6-14.9-7.1-13-18-71.1-17.2-79 0.9-8 47.5-81.1 68.7-89.4 4.4-1.6 12.4-2.6 16.8-3.6q0 0 0 0.1c-0.5 1.4-10.4 33-17.4 48.7-3.6 8.1-10 17.3-12.1 26.7q-0.5 2.3-0.7 4.6z"/>
				<path id="&lt;Path&gt;" class="s2" d="m231.9 226.5c-0.4 5.3-3.1 13.9-7.1 22l3.2 10.8c-70.6-16.2-138.1 5.4-138.1 5.4l3-13.3c-5.3-5.8-10.2-19.6-11-25.7q-0.2-2.1-0.1-4.2 0.2-2.3 0.7-4.6c2.1-9.4 8.5-18.6 12.1-26.7 7-15.7 16.9-47.3 17.4-48.7q0-0.1 0-0.1 2.4-0.6 4.8-1.1c0 0-21 51.2 44.5 54.9 50.6 2.9 46.2-50.9 46.2-50.9 4.2 1.1 8.3 2.3 11.7 3.3 0 0-5.3 30.5 0 47.7 3.7 11.9 13.8 19.1 12.7 31.2z"/>
			</g>
			<g id="&lt;Group&gt;">
				<path id="&lt;Path&gt;" class="s1" d="m182.3 131.3l1.4 6.9c0 0 12.3 3 23.9 6.1 0 0 4.3 53.8-46.2 50.9-65.6-3.7-44.6-54.9-44.6-54.9 14.9-3 27.6-2.5 27.6-2.5 0 0 24.9 3.6 37.1-10.9z"/>
			</g>
			<g id="&lt;Group&gt;">
				<path id="&lt;Path&gt;" class="s1" d="m199.7 89.1c0.5 1 0.8 2.7 0.7 5.2-0.1 5.5-3.8 9.9-5.3 10.9-0.7 0.4-1.5 0.6-2.1 0.5-0.8 0-1.4-0.2-1.4-0.2l-0.5-0.1q0.4-1.6 0.6-3.2c0.2-2.3 0.5-5.4 0.8-7.8 1.2-2 2.2-4.1 3-6.3 0.4-0.3 0.9-0.5 1.4-0.6q0.7-0.1 1.3 0.1c0.6 0.2 1.1 0.7 1.5 1.5z"/>
			</g>
			<g id="&lt;Group&gt;">
				<path id="&lt;Path&gt;" class="s1" d="m126.9 88.9c0.6-1.2 1.6-1.6 2.7-1.4 0.5 0.1 1 0.3 1.4 0.6 1.6 1.2 2.8 3.4 2.8 3.4q0 0 0-0.2 0-0.1 0.1-0.4-0.1 0.3-0.1 0.4 0.1 1.4 0.2 3.1c0.2 2.3 0.4 5.1 0.7 7.8q0.2 1.7 0.7 3.4c-1 0.2-2.9 0.3-4-0.4-1.5-1-5.2-5.4-5.3-10.9-0.1-2.6 0.2-4.3 0.8-5.4z"/>
			</g>
			<g id="&lt;Group&gt;">
				<path id="&lt;Path&gt;" class="s2" d="m148.5 311.2c-6.5 0-8.3-4.1-8.3-4.2-0.2-0.5 0-1.1 0.5-1.3 0.5-0.2 1.1 0 1.3 0.5 0.1 0.1 1.4 3 6.5 3 0.5 0 1 0.5 1 1 0 0.6-0.5 1-1 1z"/>
			</g>
			<g id="&lt;Group&gt;">
				<path id="&lt;Path&gt;" class="s2" d="m148.5 542.3c-0.5 0-1-0.4-1-0.9-1.1-10.5 0.4-23.6 3.7-52.4 0.5-4.9 1.1-10.3 1.8-16.2 4.5-40.4 3.6-97 3.5-97.5 0-0.6 0.5-1.1 1-1.1 0.6 0 1 0.5 1 1 0.1 0.6 1 57.3-3.5 97.8-0.7 6-1.3 11.3-1.8 16.3-3.3 28.6-4.8 41.6-3.7 51.9 0 0.5-0.4 1-0.9 1.1q-0.1 0-0.1 0z"/>
			</g>
			<g id="&lt;Group&gt;">
				<path id="&lt;Path&gt;" class="s2" d="m119.3 504.5c-8.3 0-13.2-5.4-13.3-5.5-0.4-0.4-0.3-1 0.1-1.4 0.4-0.3 1-0.3 1.4 0.1 0.4 0.4 10 10.7 25.3-0.1 0.4-0.4 1-0.3 1.4 0.2 0.3 0.4 0.2 1.1-0.3 1.4-5.5 4-10.5 5.3-14.6 5.3z"/>
			</g>
			<g id="&lt;Group&gt;">
				<path id="&lt;Path&gt;" class="s2" d="m186.4 497.2c-8.5 0-15.1-4.3-15.5-4.5-0.5-0.3-0.6-0.9-0.3-1.4 0.3-0.4 0.9-0.6 1.4-0.3 0.1 0.1 11.3 7.2 22.9 2.5 0.6-0.2 1.1 0.1 1.3 0.6 0.3 0.5 0 1.1-0.5 1.3-3.2 1.3-6.4 1.8-9.3 1.8z"/>
			</g>
			<g id="&lt;Group&gt;">
				<path id="&lt;Path&gt;" class="s2" d="m129.9 674.9c-0.5 0-0.9-0.4-1-0.9-0.3-2.2-0.4-4.4 0-6.6 0-0.6 0.5-0.9 1.1-0.9 0.5 0.1 0.9 0.6 0.8 1.2q-0.4 3 0.1 6c0.1 0.6-0.3 1.1-0.8 1.2q-0.1 0-0.2 0z"/>
			</g>
			<g id="&lt;Group&gt;">
				<path id="&lt;Path&gt;" class="s2" d="m121.9 675.5q0 0-0.1 0c-0.5-0.1-0.9-0.5-0.9-1.1l0.4-5.9c0.1-0.5 0.6-1 1.1-0.9 0.6 0 1 0.5 0.9 1.1l-0.4 5.9c0 0.5-0.5 0.9-1 0.9z"/>
			</g>
			<g id="&lt;Group&gt;">
				<path id="&lt;Path&gt;" class="s2" d="m115.3 674.4q0 0 0 0c-0.6 0-1-0.5-0.9-1.1l0.3-4.8c0.1-0.5 0.6-0.9 1.1-0.9 0.6 0 1 0.5 0.9 1.1l-0.4 4.8c0 0.5-0.4 0.9-1 0.9z"/>
			</g>
			<g id="&lt;Group&gt;">
				<path id="&lt;Path&gt;" class="s2" d="m107.3 673.8c-0.5 0-0.9-0.4-1-0.9q-0.1-2.8 0.7-5.4c0.2-0.5 0.7-0.8 1.2-0.6 0.6 0.1 0.9 0.7 0.7 1.2q-0.7 2.3-0.6 4.7c0.1 0.5-0.4 1-0.9 1q0 0-0.1 0z"/>
			</g>
			<g id="&lt;Group&gt;">
				<path id="&lt;Path&gt;" class="s2" d="m158.4 674.6q-0.2 0-0.4-0.1c-0.5-0.3-0.7-0.9-0.5-1.4 1.1-2.3 0.6-5.3-1.2-7.1-0.4-0.4-0.3-1 0.1-1.4 0.4-0.4 1-0.4 1.4 0 2.3 2.4 3 6.3 1.5 9.4-0.1 0.3-0.5 0.6-0.9 0.6z"/>
			</g>
			<g id="&lt;Group&gt;">
				<path id="&lt;Path&gt;" class="s2" d="m165.7 673.7q-0.2 0-0.3-0.1c-0.6-0.2-0.8-0.8-0.6-1.3 0.8-1.7 0.8-3.7 0.2-5.5-0.1-0.5 0.1-1.1 0.7-1.3 0.5-0.2 1 0.1 1.2 0.6 0.8 2.3 0.7 4.8-0.2 7-0.2 0.4-0.6 0.6-1 0.6z"/>
			</g>
			<g id="&lt;Group&gt;">
				<path id="&lt;Path&gt;" class="s2" d="m174.3 672.8q-0.1 0-0.2-0.1c-0.5-0.1-0.9-0.6-0.8-1.1 0.4-1.9 0.3-3.8-0.2-5.6-0.2-0.6 0.2-1.1 0.7-1.3 0.5-0.1 1.1 0.2 1.2 0.7 0.6 2.1 0.7 4.4 0.3 6.5-0.1 0.5-0.5 0.9-1 0.9z"/>
			</g>
			<g id="&lt;Group&gt;">
				<path id="&lt;Path&gt;" class="s2" d="m182.8 671.1c-0.5 0-1-0.4-1-1q-0.1-2.4-1-4.7c-0.2-0.5 0.1-1 0.6-1.2 0.5-0.2 1.1 0 1.3 0.5q1 2.6 1.1 5.4c0 0.5-0.4 1-1 1q0 0 0 0z"/>
			</g>
			<g id="&lt;Group&gt;">
				<path id="&lt;Path&gt;" class="s2" d="m119.7 635q-1.3 0-2.7-0.1c-0.6 0-1-0.5-1-1 0.1-0.6 0.5-1.1 1.1-1 2.9 0.2 5.9 0.1 8.9-0.3 0.5-0.1 1 0.3 1.1 0.9 0.1 0.5-0.3 1-0.9 1.1q-3.2 0.4-6.5 0.4z"/>
			</g>
			<g id="&lt;Group&gt;">
				<path id="&lt;Path&gt;" class="s2" d="m167.5 636.2q-0.1 0-0.2-0.1c-2.6-0.7-5.3-1-7.9-1q0 0 0 0c-0.6 0-1-0.4-1-1 0-0.5 0.4-1 0.9-1q4.4 0 8.5 1.1c0.5 0.1 0.8 0.7 0.7 1.2-0.1 0.5-0.5 0.8-1 0.8z"/>
			</g>
			<g id="&lt;Group&gt;">
				<path id="&lt;Path&gt;" class="s2" d="m101.6 316.1c-1.5 0-2.9-0.6-4-1.5-0.4-0.4-0.4-1 0-1.5 0.3-0.4 1-0.4 1.4 0 1.1 1 2.9 1.3 4.3 0.8 0.5-0.2 0.9-0.6 0.8-0.8 0-0.1-0.3-0.4-0.5-0.5l-8.7-7.7c-1.2-1-2.5-2.2-4-2.6-1.2-0.4-2.5-0.3-3.9-0.2h-0.6c-4.5 0.3-9.1-0.2-13.5-1.5-0.5-0.1-0.8-0.7-0.7-1.2 0.2-0.6 0.7-0.9 1.3-0.7 4.1 1.2 8.5 1.7 12.8 1.4h0.6c1.5-0.1 3.1-0.2 4.6 0.3 1.9 0.5 3.4 1.8 4.7 3l8.7 7.6c0.4 0.4 1 0.9 1.2 1.7 0.3 1.4-0.9 2.6-2.1 3.1-0.8 0.2-1.6 0.4-2.4 0.3z"/>
			</g>
			<g id="&lt;Group&gt;">
				<path id="&lt;Path&gt;" class="s2" d="m100.6 324.6c-2.6-0.2-5.1-1.2-7-2.9-0.4-0.4-0.4-1-0.1-1.4 0.4-0.4 1-0.4 1.4-0.1 2.1 1.9 5 2.7 7.7 2.2 0.6-0.1 0.9-0.3 1-0.4 0-0.1-0.2-0.4-0.3-0.5l-6.5-7.5c-1.5-1.8-3.3-3.8-5.5-4.7-1.8-0.8-3.8-0.8-5.7-0.8l-9.5-0.2q0 0 0 0c-0.6 0-1-0.5-1-1 0-0.6 0.5-1 1-1l9.5 0.2c2 0 4.3 0 6.5 0.9 2.6 1.1 4.6 3.4 6.2 5.3l6.5 7.5c0.2 0.3 0.7 0.8 0.8 1.5 0.1 1.3-1 2.4-2.7 2.7q-1.1 0.2-2.3 0.2z"/>
			</g>
			<g id="&lt;Group&gt;">
				<path id="&lt;Path&gt;" class="s2" d="m95.3 335q-1.7 0-3.3-0.5c-0.5-0.2-0.8-0.7-0.6-1.3 0.1-0.5 0.7-0.8 1.2-0.6 2.4 0.7 4.9 0.6 7.2-0.2q0 0 0.1-0.1 0 0 0 0l-7.2-11.5c-0.7-1.2-1.5-2.5-2.6-3.2-1-0.6-2.2-0.8-3.4-1l-10.7-1.9c-0.5-0.1-0.9-0.6-0.8-1.1 0.1-0.6 0.6-0.9 1.1-0.8l10.7 1.8c1.4 0.2 2.9 0.5 4.2 1.3 1.5 1 2.4 2.5 3.2 3.8l7.2 11.5c0.1 0.3 0.5 0.9 0.4 1.6q-0.3 1-1.6 1.5c-1.6 0.6-3.4 0.8-5.1 0.7z"/>
			</g>
			<g id="&lt;Group&gt;">
				<path id="&lt;Path&gt;" class="s2" d="m55.6 313.8q-0.3 0-0.6-0.1c-0.4-0.3-0.5-1-0.2-1.4 2.9-4.4 6.8-8.1 11.3-10.7 0.5-0.3 1.1-0.1 1.4 0.4 0.3 0.4 0.1 1.1-0.4 1.3-4.2 2.5-7.9 6-10.7 10.1-0.2 0.3-0.5 0.4-0.8 0.4z"/>
			</g>
			<g id="&lt;Group&gt;">
				<path id="&lt;Path&gt;" class="s2" d="m244.4 305.5c-0.4 0-0.9-0.3-1-0.8l-1.2-5c-0.1-0.6 0.2-1.1 0.7-1.2 0.6-0.2 1.1 0.2 1.2 0.7l1.3 5c0.1 0.6-0.2 1.1-0.8 1.2q-0.1 0.1-0.2 0.1z"/>
			</g>
			<g id="&lt;Group&gt;">
				<path id="&lt;Path&gt;" class="s2" d="m221.7 317.9c-2.1 0-4.3-0.8-5.8-2.3q-1.1-1.1-0.9-2.2c0.2-0.9 1-1.4 1.4-1.7l6.4-3.8c2.2-1.4 4.5-2.7 7.1-3.5 2.8-0.8 5.8-0.8 8.6-0.7 5.1 0.1 10.8 0.2 15.8 2.4 0.5 0.3 0.8 0.9 0.5 1.4-0.2 0.5-0.8 0.7-1.3 0.5-4.6-2.2-10.2-2.2-15-2.3-2.7-0.1-5.5-0.1-8.1 0.6-2.3 0.7-4.5 2-6.6 3.3l-6.4 3.8c-0.3 0.2-0.4 0.3-0.4 0.4 0 0 0.1 0.1 0.3 0.3 1.2 1.2 2.8 1.8 4.4 1.8q0 0 0.1 0c0.5 0 1 0.5 1 1 0 0.6-0.5 1.1-1.1 1z"/>
			</g>
			<g id="&lt;Group&gt;">
				<path id="&lt;Compound Path&gt;" fill-rule="evenodd" class="s2" d="m215.5 324.3q-0.1 0-0.3 0c-0.4-0.1-0.7-0.4-0.9-0.8-0.2-0.4-0.2-0.9 0-1.3 0.2-0.6 0.6-1 0.9-1.2l10.3-8.2c1.3-1.1 2.8-2.3 4.6-3 2.7-1 5.5-0.8 8.2-0.5 2.3 0.2 4.4 0.4 6.4-0.1 0.5-0.1 1.1 0.2 1.2 0.8 0.1 0.5-0.2 1-0.7 1.2-2.4 0.5-4.7 0.3-7.1 0.1-2.6-0.3-5.1-0.5-7.3 0.4-1.5 0.6-2.8 1.6-4 2.6l-10.3 8.2q-0.1 0.1-0.2 0.2c0.2 0.2 0.3 0.6 0.2 0.9-0.2 0.4-0.6 0.7-1 0.7zm0.3-1.9z"/>
			</g>
			<g id="&lt;Group&gt;">
				<path id="&lt;Path&gt;" class="s2" d="m234.5 319.7c-0.5 0-0.9-0.3-1-0.8-0.1-0.6 0.3-1.1 0.8-1.2l11.2-1.8c0.5 0 1 0.3 1.1 0.9 0.1 0.5-0.3 1-0.8 1.1l-11.2 1.8q-0.1 0-0.1 0z"/>
			</g>
			<g id="&lt;Group&gt;">
				<path id="&lt;Path&gt;" class="s2" d="m223.7 337.8q-1.2 0-2.3-0.4c-1.4-0.5-1.7-1.3-1.8-1.8-0.2-0.7 0.2-1.3 0.4-1.7l3.8-7.3c0.3-0.5 0.9-0.7 1.4-0.4 0.5 0.3 0.7 0.9 0.4 1.4l-3.9 7.2c0 0.1-0.2 0.4-0.2 0.5 0 0 0.2 0.1 0.5 0.2 1.7 0.6 3.8 0.2 5.7-0.9 1.9-1.2 3.3-3 4.5-4.7l0.2-0.4c0.8-1.1 1.7-2.2 2.8-3.1 1.6-1.2 3.5-1.8 5.3-2.2 1.5-0.5 3-0.8 4.2-1.6 0.4-0.3 1.1-0.2 1.4 0.2 0.3 0.5 0.1 1.1-0.3 1.4-1.5 1-3.2 1.5-4.8 1.9-1.7 0.4-3.3 0.9-4.5 1.8-1 0.8-1.7 1.8-2.4 2.8l-0.3 0.4c-1.3 1.8-2.9 3.8-5 5.1-1.6 1.1-3.4 1.6-5.1 1.6z"/>
			</g>
			<g id="&lt;Group&gt;">
				<path id="&lt;Path&gt;" class="s2" d="m234.2 345c-1.3 0-2.2-0.5-2.6-1.4-0.2-0.7-0.1-1.3 0.1-1.8l0.9-3.4c0.3-1.4 0.7-2.9 1.6-4.2 0.8-1.3 1.8-2.3 2.9-3.2l0.3-0.3c3.4-3 6.5-6.5 9.1-10.2 0.3-0.5 0.9-0.6 1.4-0.3 0.4 0.3 0.5 0.9 0.2 1.4-2.7 3.9-5.8 7.4-9.4 10.6l-0.3 0.3c-1 0.9-1.9 1.7-2.5 2.7-0.7 1.1-1.1 2.4-1.4 3.7l-0.9 3.4c0 0.2-0.1 0.5-0.1 0.6 0 0 0.3 0.1 0.7 0.1 2.2 0 4.2-1.5 4.9-3.5q0.2-0.4 0.3-0.9c0.2-0.8 0.5-1.7 1.1-2.4 0.7-0.8 1.6-1.2 2.3-1.5l8.4-3.7c0.5-0.3 1.1 0 1.3 0.5 0.2 0.5 0 1.1-0.5 1.3l-8.4 3.7c-0.6 0.3-1.2 0.5-1.6 1-0.3 0.4-0.5 1-0.7 1.7q-0.1 0.5-0.3 1c-1 2.8-3.8 4.8-6.7 4.8q-0.1 0-0.1 0z"/>
			</g>
			<g id="&lt;Group&gt;">
				<path id="&lt;Path&gt;" class="s2" d="m269.6 310.3q-0.3 0-0.6-0.2c-3.3-2.2-7.2-3.7-11.2-4.3-0.5-0.1-0.9-0.6-0.8-1.1 0.1-0.6 0.6-0.9 1.1-0.9 4.3 0.6 8.5 2.2 12 4.7 0.5 0.3 0.6 0.9 0.3 1.4-0.2 0.3-0.5 0.4-0.8 0.4z"/>
			</g>
			<g id="&lt;Group&gt;">
				<path id="&lt;Path&gt;" class="s2" d="m61.6 243.4c-0.3 0-0.6-0.1-0.8-0.4-2-2.6-4.9-4.6-8-5.6-0.6-0.2-0.9-0.7-0.7-1.2 0.2-0.6 0.7-0.9 1.3-0.7 3.5 1.1 6.7 3.3 9 6.3 0.4 0.4 0.3 1.1-0.2 1.4q-0.2 0.2-0.6 0.2z"/>
			</g>
			<g id="&lt;Group&gt;">
				<path id="&lt;Path&gt;" class="s2" d="m78.5 225.8c-0.4 0-0.8-0.2-0.9-0.6-1.4-3.1-3.3-5.9-5.7-8.2-0.4-0.4-0.4-1.1 0-1.4 0.3-0.4 1-0.4 1.4-0.1 2.6 2.6 4.6 5.6 6.1 8.9 0.2 0.5 0 1.1-0.5 1.3q-0.2 0.1-0.4 0.1z"/>
			</g>
			<g id="&lt;Group&gt;">
				<path id="&lt;Path&gt;" class="s2" d="m219.9 205.1q-0.2 0-0.4-0.1c-0.5-0.2-0.7-0.8-0.5-1.3 1.7-4.2 4.4-8.1 7.7-11.3 0.4-0.4 1-0.3 1.4 0 0.4 0.4 0.4 1.1 0 1.5-3.1 3-5.6 6.6-7.3 10.6-0.2 0.4-0.5 0.6-0.9 0.6z"/>
			</g>
			<g id="&lt;Group&gt;">
				<path id="&lt;Path&gt;" class="s2" d="m259.1 247.7q-0.1 0-0.2 0c-0.5-0.2-0.9-0.7-0.7-1.3 0.9-3.3 3.7-6.1 7-6.9 0.6-0.2 1.1 0.1 1.3 0.7 0.1 0.5-0.2 1.1-0.8 1.2-2.6 0.7-4.9 2.9-5.6 5.6-0.1 0.4-0.5 0.7-1 0.7z"/>
			</g>
			<g id="&lt;Group&gt;">
				<path id="&lt;Path&gt;" class="s3" d="m127.4 88.2h2z"/>
			</g>
			<g id="&lt;Group&gt;">
				<path id="&lt;Path&gt;" class="s2" d="m164.9 107.4c0 0.3-0.3 0.5-0.7 0.5-1.8-0.2-7.1-0.9-7.5-2.9-0.4-1.9 3.9-9.9 5.9-13.5 0.2-0.4 1.1-0.3 1.1 0.1z"/>
			</g>
			<g id="&lt;Group&gt;">
				<path id="&lt;Path&gt;" class="s0" d="m155.9 91.5c-0.4 0-0.8-0.2-0.9-0.6 0-0.1-1-2.5-5.2-2.5q-0.1 0-0.1 0c-4.5 0-5.9 1.9-6 2-0.3 0.5-0.9 0.6-1.3 0.3-0.5-0.4-0.6-1-0.3-1.4 0.1-0.1 2-2.9 7.6-2.9q0 0 0.1 0c5.7 0 7 3.6 7.1 3.8 0.2 0.5-0.1 1.1-0.6 1.3q-0.2 0-0.4 0z"/>
			</g>
			<g id="&lt;Group&gt;">
				<path id="&lt;Path&gt;" class="s0" d="m141.8 86.1c-0.2 0-0.5-0.1-0.7-0.4-0.4-0.4-0.3-1 0.1-1.4 2-1.5 4.4-2.6 6.9-2.9 2.5-0.3 5.2 0.2 7.5 1.3 0.5 0.2 0.7 0.8 0.4 1.3-0.2 0.5-0.8 0.7-1.3 0.5-2-1-4.2-1.3-6.3-1.1-2.2 0.3-4.3 1.1-5.9 2.5q-0.3 0.2-0.7 0.2z"/>
			</g>
			<g id="&lt;Group&gt;">
				<path id="&lt;Path&gt;" class="s0" d="m151.5 87.6c0.5 0.1 0.4 0.8 0.4 1.2 0 1.4-1.1 2.5-2.5 2.5-1.3 0-2.4-1.1-2.4-2.4q0-0.7 0.3-1.3c0 0 2.4-0.6 4.2 0z"/>
			</g>
			<g id="&lt;Group&gt;">
				<path id="&lt;Path&gt;" class="s0" d="m169.4 91.5q-0.2 0-0.3-0.1c-0.5-0.2-0.8-0.7-0.6-1.2 0-0.2 1.3-3.9 7.1-3.9q0.1 0 0.1 0c5.5 0 7.5 2.7 7.5 2.8 0.4 0.5 0.2 1.1-0.2 1.4-0.5 0.3-1.1 0.2-1.4-0.2-0.1-0.1-1.5-2-5.9-2q0 0-0.1 0c-4.3 0-5.2 2.4-5.3 2.5-0.1 0.4-0.5 0.7-0.9 0.7z"/>
			</g>
			<g id="&lt;Group&gt;">
				<path id="&lt;Path&gt;" class="s0" d="m183.5 86q-0.4 0-0.7-0.3c-1.6-1.3-3.7-2.2-5.9-2.4-2.1-0.2-4.3 0.2-6.3 1.1-0.5 0.2-1.1 0-1.3-0.5-0.3-0.5 0-1.1 0.4-1.3 2.3-1.1 4.9-1.6 7.4-1.3 2.6 0.3 5 1.3 7 2.9 0.4 0.3 0.5 1 0.2 1.4-0.2 0.2-0.5 0.4-0.8 0.4z"/>
			</g>
			<g id="&lt;Group&gt;">
				<path id="&lt;Path&gt;" class="s0" d="m178.1 87.5c0.3 0.3 0.3 0.8 0.3 1.2 0 1.4-1.1 2.5-2.5 2.5-1.3 0-2.5-1.1-2.5-2.4q0-0.7 0.4-1.3c0 0 3.2-0.7 4.3 0z"/>
			</g>
			<g id="&lt;Group&gt;">
				<path id="&lt;Path&gt;" class="s4" d="m152.7 103.3c0.1 2.4-2.7 4.5-6.3 4.7-3.6 0.2-6.6-1.5-6.8-3.8-0.1-2.4 2.7-4.5 6.3-4.7 3.6-0.2 6.6 1.5 6.8 3.8z"/>
			</g>
			<g id="&lt;Group&gt;">
				<path id="&lt;Path&gt;" class="s4" d="m185 101.8c0.1 2.3-2.7 4.4-6.3 4.7-3.6 0.2-6.6-1.5-6.8-3.9-0.1-2.3 2.7-4.4 6.3-4.6 3.6-0.3 6.6 1.4 6.8 3.8z"/>
			</g>
			<g id="&lt;Group&gt;">
				<path id="&lt;Path&gt;" class="s2" d="m134 103.6c-0.4 0-0.8-0.3-0.9-0.7-0.9-3.3-2.3-6.3-4-9.2-0.3-0.5-0.2-1.1 0.3-1.4 0.5-0.2 1.1-0.1 1.4 0.4 1.8 3 3.2 6.2 4.2 9.6 0.1 0.6-0.2 1.1-0.7 1.3q-0.1 0-0.3 0z"/>
			</g>
			<g id="&lt;Group&gt;">
				<path id="&lt;Path&gt;" class="s2" d="m191.6 103.1q-0.1 0-0.2 0c-0.6-0.1-0.9-0.7-0.8-1.2 0.9-3.5 2.3-6.8 4.2-9.9 0.2-0.5 0.9-0.7 1.3-0.4 0.5 0.3 0.6 0.9 0.4 1.4-1.8 2.9-3.1 6.1-3.9 9.4-0.1 0.4-0.5 0.7-1 0.7z"/>
			</g>
			<g id="&lt;Group&gt;">
				<path id="&lt;Path&gt;" class="s0" d="m162.7 116.9c-1.9 0-3.2-0.3-3.4-0.3-0.5-0.1-0.9-0.7-0.7-1.2 0.1-0.5 0.6-0.9 1.2-0.8 0 0.1 7.5 1.7 11.6-3.3 0.4-0.4 1-0.5 1.4-0.1 0.4 0.3 0.5 1 0.2 1.4-3.1 3.6-7.3 4.3-10.3 4.3z"/>
			</g>
			<path id="&lt;Path&gt;" class="s2" d="m84.8 274.7c-3.9 7.7-7 15.7-9.1 24-0.3 1.3 1.6 1.8 1.9 0.6 2.1-8.2 5.1-16.1 8.9-23.6 0.6-1.1-1.1-2.1-1.7-1z"/>
			<path id="&lt;Path&gt;" class="s2" d="m93.2 332.9c-2.9-2-4.6-5.2-6.3-8.1-0.5-0.7-0.9-1.3-1.8-1.6-0.8-0.3-1.7-0.5-2.5-0.8q-2.9-0.9-5.5-2.4c-0.2-0.1-0.5-0.1-0.7-0.1-0.8-0.3-1.8 0.9-1.1 1.7q6.4 7 13.1 13.6c0.9 0.9 2.3-0.5 1.4-1.4-3.4-3.4-6.7-6.8-10-10.3q0.8 0.3 1.6 0.6 1.3 0.5 2.7 0.9c0.5 0.1 0.7 0.2 0.9 0.6q0.4 0.6 0.7 1.1c1.7 3 3.6 5.9 6.5 7.9 1 0.7 2-1 1-1.7z"/>
		</g>
	</g>
</svg>