<svg version="1.2" xmlns="http://www.w3.org/2000/svg" viewBox="0 0 950 620" width="950" height="620">
	<title>IMC RESULTADO (1)-svg</title>
	<defs>
		<linearGradient id="g1" x2="1" gradientUnits="userSpaceOnUse" gradientTransform="matrix(-406.538,-341.126,253.658,-302.298,442.394,485.339)">
			<stop offset="0" stop-color="#00789b"/>
			<stop offset=".5" stop-color="#00b3e7"/>
			<stop offset="1" stop-color="#00c4fd"/>
		</linearGradient>
		<linearGradient id="g2" x2="1" gradientUnits="userSpaceOnUse" gradientTransform="matrix(-222.899,-478.008,361.116,-168.391,421.074,482.977)">
			<stop offset="0" stop-color="#009b1a"/>
			<stop offset=".5" stop-color="#25d02d"/>
			<stop offset="1" stop-color="#2ec92e"/>
		</linearGradient>
		<linearGradient id="g3" x2="1" gradientUnits="userSpaceOnUse" gradientTransform="matrix(276.768,-479.376,363.637,209.946,503.684,483.758)">
			<stop offset="0" stop-color="#9b8e00"/>
			<stop offset=".5" stop-color="#f9ce00"/>
			<stop offset="1" stop-color="#fdc400"/>
		</linearGradient>
		<linearGradient id="g4" x2="1" gradientUnits="userSpaceOnUse" gradientTransform="matrix(471.546,-272.247,204.614,354.402,473.127,451.67)">
			<stop offset="0" stop-color="#9b0000"/>
			<stop offset=".503" stop-color="#f00000"/>
			<stop offset="1" stop-color="#fd0000"/>
		</linearGradient>
		<radialGradient id="g5" cx="0" cy="0" r="1" gradientUnits="userSpaceOnUse" gradientTransform="matrix(-50.828,-109,109,-50.828,474.953,428.953)">
			<stop offset="0" stop-color="#6f7074"/>
			<stop offset=".634" stop-color="#6f7074"/>
			<stop offset="1" stop-color="#5d5e62"/>
		</radialGradient>
		<linearGradient id="g6" x2="1" gradientUnits="userSpaceOnUse" gradientTransform="matrix(0,-133,937,0,474.5,605)">
			<stop offset="0" stop-color="#282627"/>
			<stop offset="1" stop-color="#312f30"/>
		</linearGradient>
	</defs>
	<style>
		.s0 { fill: url(#g1) } 
		.s1 { fill: url(#g2) } 
		.s2 { fill: url(#g3) } 
		.s3 { fill: url(#g4) } 
		.s4 { opacity: .3;fill: #000000 } 
		.s5 { fill: #423d41 } 
		.s6 { fill: url(#g5) } 
		.s7 { fill: url(#g6) } 
		.s8 { fill: #ffffff } 
	</style>
	<path id="Camada 1" class="s0" d="m473.2 483.5c-235.6 0-468.2 2.1-468.2 1.8 0-133.5 53.2-254.2 139.2-341.1"/>
	<path id="Camada 1 copy" class="s1" d="m472.7 483c-166.8-166.5-328.7-337.5-328.5-337.8 94.4-94.5 208.5-139.5 330.8-140.2"/>
	<path id="Camada 1 copy 2" class="s2" d="m473.1 483.8c0.3-238.8 1.6-479.4 1.9-479.4 131 0.2 250.9 55.9 336 143.2"/>
	<path id="Camada 1 copy 3" class="s3" d="m473.1 484.2c163.5-168.8 337.4-337.6 337.6-337.3 92.6 95.7 133.4 211.6 134 335.5"/>
	<path id="Camada 2" fill-rule="evenodd" class="s4" d="m135 493c0-204.1 152.2-358 340.5-358 188.3 0 339.5 153.9 339.5 358 0 0.2-23.3 0.3-61.3 0.4q0.3-6.4 0.3-12.9c0-159.5-114.5-281.5-278.5-281.5-164 0-272.5 122-272.5 281.5q0 6.5 0.2 12.9c-42-0.1-68.2-0.2-68.2-0.4z"/>
	<path id="Camada 3" class="s5" d="m475 548.9c-66.4 0-120-53.6-120-119.9 0-66.4 53.6-120 120-120 66.3 0 119.9 53.6 119.9 120 0 66.3-53.6 119.9-119.9 119.9z"/>
	<path id="Camada 3 copy" class="s6" d="m475 538c-60.3 0-109-48.8-109-109 0-60.3 48.7-109 109-109 60.2 0 109 48.7 109 109 0 60.2-48.8 109-109 109z"/>
	<path id="Camada 3 copy 2" class="s5" d="m475 498.5c-38.5 0-69.5-31.1-69.5-69.5 0-38.5 31-69.5 69.5-69.5 38.4 0 69.5 31 69.5 69.5 0 38.4-31.1 69.5-69.5 69.5z"/>
	<g id="Pasta 1">
		<path id="Forma 1" class="s7" d="m6 472h937v133h-937z"/>
		<path id="ÍNDICE DE MASSA CORPORAL" class="s8" d="m88.8 566c0.7 0 0.9-0.2 1-0.9 0.2-1.9 2.5-34.4 2.5-36.1 0-4.2-1.3-6.3-6.3-6.3h-3.4c-0.6 0-0.9 0.2-0.9 0.9 0 4.2-2.6 32.3-2.6 37.2 0 3.3 1.8 5.2 6.4 5.2zm-1.6-47.6c2.2 0 13-4.1 13-6.1 0-1.2-4.5-5.1-6-5.1-2.1 0-9.8 6.8-9.8 7.9 0 0.4 1 3.3 2.8 3.3z"/>
		<path id="ÍNDICE DE MASSA CORPORAL" fill-rule="evenodd" class="s8" d="m125.6 566c-3.3 0-4.8-1.1-5.5-2.6-4.2-8.6-7.8-16.5-11.6-24.5 0.1 8.7 0.3 17.5 0.4 26.2 0 0.5-0.2 0.9-0.9 0.9h-3.4c-4.6 0-6.3-1.9-6.3-5.4 0-2 0.6-9.8 1.2-17.6 1-12.3 1.2-15.5 1.3-19.4 0-0.7 0.3-0.9 1-0.9h4.9c5.4 0 6.4 2.7 7.6 5.6 6 15.1 7 17.1 9.5 22.8 0-9.6-0.2-20.7-0.2-27.9 0-0.3 0.3-0.5 1.1-0.5h3.3c5.3 0 6.2 2.2 6.2 5.9 0 6-2.3 34.7-2.5 36.4 0 0.7-0.6 1-1.1 1zm18.2-43.3c5.5 0 10.7-0.6 13.5-0.6 13.8 0 18.3 5.3 18.3 18.3 0 13.3-4.7 26.2-21.9 26.2-8 0-13.5-0.3-13.5-6 0-2.1 0.5-8.8 1.2-16.6 1.3-16.2 1.2-17.8 1.3-20.4 0.1-0.7 0.6-0.9 1.1-0.9zm20.7 19.1c0-6.9-1.5-10.3-7.4-10.3-0.9 0-2.3 0.2-4.2 0.3-0.3 6-1.1 17.2-1.7 25 1.2 0.2 2.3 0.2 2.9 0.2 9.1 0 10.4-8.8 10.4-15.2zm22.7 24.2c-4.5 0-6.3-1.9-6.3-5.2 0-4.9 2.5-33 2.5-37.2 0-0.7 0.3-0.9 1-0.9h3.4c5 0 6.2 2.1 6.2 6.3 0 1.7-2.3 34.2-2.5 36.1 0 0.7-0.2 0.9-0.9 0.9zm42.4-13.7c1 0 1.3 0.7 1.3 1.9 0 1.2-0.4 3.1-1 5.4-0.6 2.7-5 7-13.3 7-8.4 0-17.3-4.3-17.3-19.3 0-8.1 2.6-25.2 20.6-25.2 9.6 0 14 4.9 14 11 0 5.1-3.2 7.5-8.8 7.5-1.7 0-2-0.3-2-1.1-0.1-5.6-0.1-8.1-3.8-8.1-7.7 0-8.6 10.7-8.6 15.3 0 7.5 2.5 10.4 7.7 10.4 6.7 0 8.7-4.8 11.2-4.8zm14.4 13.7c-4.5 0-6.3-1.9-6.3-5.2 0-4.9 2.6-33 2.6-37.2 0-0.7 0.3-0.9 0.9-0.9h21.5c0.5 0 1 0.2 1 0.8l-0.3 3.6c-0.1 2.5-0.9 4.1-4.6 4.1h-8.4l-0.6 8.6h8.6c0.5 0 1 0.3 1 0.9l-0.2 3.6c-0.2 2.4-1 4.1-4.7 4.1h-5.3l-0.6 9.1h13.4c0.5 0 0.9 0.3 0.9 0.8l-0.2 3.6c-0.2 2.5-1 4.1-4.6 4.1zm41-43.3c5.5 0 10.7-0.6 13.5-0.6 13.8 0 18.3 5.3 18.3 18.3 0 13.3-4.7 26.2-21.9 26.2-8 0-13.5-0.3-13.5-6 0-2.1 0.5-8.8 1.2-16.6 1.3-16.2 1.2-17.8 1.3-20.4 0.1-0.7 0.7-0.9 1.1-0.9zm20.7 19.1c0-6.9-1.5-10.3-7.4-10.3-0.9 0-2.3 0.2-4.2 0.3-0.3 6-1.1 17.2-1.7 25 1.2 0.2 2.3 0.2 2.9 0.2 9.1 0 10.4-8.8 10.4-15.2zm22.7 24.2c-4.5 0-6.3-1.9-6.3-5.2 0-4.9 2.5-33 2.5-37.2 0-0.7 0.3-0.9 1-0.9h21.5c0.5 0 1 0.2 1 0.8l-0.3 3.6c-0.2 2.5-1 4.1-4.6 4.1h-8.4l-0.7 8.6h8.7c0.5 0 1 0.3 1 0.9l-0.3 3.6c-0.1 2.4-0.9 4.1-4.6 4.1h-5.3l-0.7 9.1h13.4c0.5 0 1 0.3 1 0.8l-0.2 3.6c-0.2 2.5-1 4.1-4.7 4.1zm65.4-1c-0.3 0.6-1.2 1-3.4 1-2.8 0-6-0.6-6.9-3.1-2.4-8.2-4.3-21.1-6.4-29.4 0 3.3-0.7 23.2-0.7 29.7 0 2.4-0.3 2.8-1 2.8h-3.3c-4.6 0-6.4-1.9-6.4-5.4 0-2 0.6-9.8 1.2-17.6 1.3-15.8 1.3-14.9 1.3-19.4 0-0.7 0.6-0.9 1-0.9h8.6c9.6 0 7.7 8.8 11.9 31.5 5.4-20.3 2.9-10.4 8.1-30.5 0.2-0.5 0.5-1 1.5-1h9.5c5.2 0 6.2 2.1 6.2 5.8 0 5.6-2.2 34.9-2.4 36.6 0 0.7-0.2 0.9-1 0.9h-3.3c-4.6 0-6.4-2-6.4-4.9 0-2.8 2.1-19.5 2.5-27.6-2 5.8-7.3 23.4-10.6 31.5zm46.5-42.3c4.1 0 5.2 3.3 6.1 6.8 6.5 26.3 8.1 33 8.1 35 0 1.2-0.5 1.5-1.6 1.5h-3.1c-7 0-7.7-3.5-8.4-9.4h-10.6l-2 8.4c-0.2 0.6-0.7 1-1.4 1h-3.3c-2.6 0-5.7-1.1-5.7-4 0-5.5 11.2-33.6 13.7-38.2 0.7-1.1 1-1.1 2.4-1.1zm-7.3 25.1h7l-2.6-16.1zm53.9-16.7c0 4.5-2.7 7-7.4 7-1.4 0-1.7-0.2-1.7-1.1 0-1.6-0.2-5.6-3.9-5.6-2.5 0-5 1.7-5 4.2 0 6.7 17 4.4 17 18.2 0 7.2-4.6 12.8-14 12.8-8.2 0-14.3-4.1-14.3-6.7 0-5.4 0.5-7.6 2.1-7.6 2.3 0 4.8 4.8 10.6 4.8 2.3 0 4.5-0.8 4.5-3.1 0-6.2-15.8-3.2-15.8-17.5 0-10.5 8.8-14.4 16.6-14.4 7.5 0 11.3 3.6 11.3 9zm33 0c0 4.5-2.7 7-7.4 7-1.4 0-1.7-0.2-1.7-1.1 0-1.6-0.2-5.6-3.9-5.6-2.5 0-5 1.7-5 4.2 0 6.7 17 4.4 17 18.2 0 7.2-4.6 12.8-14 12.8-8.2 0-14.3-4.1-14.3-6.7 0-5.4 0.5-7.6 2.1-7.6 2.3 0 4.8 4.8 10.6 4.8 2.3 0 4.5-0.8 4.5-3.1 0-6.2-15.8-3.2-15.8-17.5 0-10.5 8.8-14.4 16.6-14.4 7.5 0 11.3 3.6 11.3 9zm24.1-8.4c4.1 0 5.2 3.3 6.1 6.8 6.5 26.3 8.1 33 8.1 35 0 1.2-0.5 1.5-1.6 1.5h-3.1c-7 0-7.7-3.5-8.4-9.4h-10.6l-2 8.4c-0.2 0.6-0.7 1-1.4 1h-3.2c-2.7 0-5.8-1.1-5.8-4 0-5.5 11.2-33.6 13.7-38.1 0.7-1.2 1-1.2 2.4-1.2zm-7.3 25.1h7l-2.6-16.1zm66.9 4.5c0.9 0 1.2 0.7 1.2 1.9q0 1.9-0.9 5.4c-0.6 2.7-5 7-13.3 7-8.4 0-17.3-4.3-17.3-19.3 0-8.1 2.6-25.2 20.6-25.2 9.6 0 14 4.9 14 11 0 5.2-3.2 7.5-8.8 7.5-1.8 0-2-0.3-2-1.1-0.1-5.6-0.1-8.1-3.8-8.1-7.7 0-8.6 10.7-8.6 15.3 0 7.5 2.4 10.4 7.6 10.4 6.7 0 8.8-4.8 11.3-4.8zm46-11.7c0 9.8-3.3 26-21.6 26-13.4 0-17.3-8.6-17.3-19.3 0-12.7 5.3-25.3 22.3-25.3 11.9 0 16.6 6.9 16.6 18.6zm-27.6 5.8c0 7.4 2.7 10.7 7.2 10.7 7.5 0 9.1-11 9.1-16 0-5.9-1.9-9.6-6.6-9.6-8.6 0-9.7 10.1-9.7 14.9zm39.1 19.6c-4.6 0-6.4-1.9-6.4-5.4 0-2 0.6-9.8 1.3-17.6 0.6-8.2 0.8-13.1 1-16 0.2-3.7 0.4-4.3 1.2-4.3 5.1 0 10.6-0.6 14-0.6 10.5 0 14.6 5.4 14.6 13.6 0 6.3-2.4 11.6-7.9 14.1l5.1 7.4c1.9 2.7 2.9 4.1 2.9 4.8 0 1.1-2.9 4.6-7.7 4.6-5.1 0-7.6-7.3-9.5-15.2-1.4-0.1-2.5-0.2-3.6-0.5-0.4 7.2-0.9 13.5-1 14.2-0.1 0.7-0.2 0.9-1 0.9zm6.2-34.5c-0.1 2.9-0.4 7-0.7 11.4 1.4 0.4 2.7 0.5 3.8 0.5 5.1 0 6-4.4 6-7 0-3.3-1.5-5.2-5.5-5.2-1 0-2.2 0.2-3.6 0.3zm31.4 34.5c-4.6 0-6.4-1.9-6.4-5.4 0-2.1 0.6-9.8 1.2-17.6 1.3-14.4 1.3-15.7 1.3-19.4 0-0.6 0.5-0.9 0.9-0.9 4.2 0 10.5-0.6 14.1-0.6 10.5 0 14.6 5.2 14.6 13.9 0 9.5-4.9 18.4-16.6 18.4-1.9 0-3.3-0.2-4.5-0.5l-0.9 11.2c0 0.7-0.2 0.9-0.9 0.9zm6-34.5c-0.1 3.5-0.4 8.6-0.8 14 1.2 0.3 2.4 0.4 3.4 0.4 5.7 0 6.7-6.2 6.7-9.3 0-3.5-1.3-5.4-5.5-5.4-1 0-2.3 0.2-3.8 0.3zm61.7 9.1c0 9.8-3.3 26-21.6 26-13.4 0-17.3-8.6-17.3-19.3 0-12.7 5.3-25.3 22.3-25.3 11.9 0 16.6 6.9 16.6 18.6zm-27.5 5.8c0 7.4 2.6 10.7 7.1 10.7 7.5 0 9.1-11 9.1-16 0-5.9-1.9-9.6-6.6-9.6-8.5 0-9.6 10.1-9.6 14.9zm39 19.6c-4.6 0-6.3-1.9-6.3-5.4 0-2 0.6-9.8 1.2-17.6 0.6-8.2 0.8-13.1 1-16 0.3-3.7 0.4-4.3 1.2-4.3 5.1 0 10.6-0.6 14-0.6 10.5 0 14.6 5.4 14.6 13.6 0 6.3-2.4 11.6-7.9 14.1l5.1 7.4c1.9 2.7 2.9 4.1 2.9 4.8 0 1.1-2.9 4.6-7.7 4.6-5.1 0-7.5-7.3-9.4-15.2-1.4-0.1-2.6-0.2-3.6-0.5-0.5 7.2-1 13.5-1.1 14.2 0 0.7-0.2 0.9-1 0.9zm6.2-34.5c-0.1 2.9-0.3 7-0.6 11.4 1.3 0.4 2.6 0.5 3.7 0.5 5.1 0 6-4.4 6-7 0-3.3-1.4-5.2-5.5-5.2-0.9 0-2.2 0.2-3.6 0.3zm44.3-8.8c4 0 5.1 3.3 6 6.8 6.5 26.3 8.2 33 8.2 35 0 1.2-0.6 1.5-1.7 1.5h-3.1c-7 0-7.7-3.5-8.3-9.4h-10.7l-2 8.4c-0.2 0.6-0.7 1-1.4 1h-3.2c-2.6 0-5.8-1.1-5.8-4 0-5.5 11.2-33.6 13.8-38.1 0.7-1.2 0.9-1.2 2.4-1.2zm-7.4 25.1h7l-2.5-16.1zm32.3 18.2c-4.5 0-6.4-1.9-6.4-5.2 0-4.9 2.6-33 2.6-37.2 0-0.7 0.3-0.9 1-0.9h3.3c4.6 0 6.1 1.8 6.1 5.2 0 0.4-0.1 0.7-0.1 1.1l-2 28.5h11c0.5 0 1 0.3 1 0.8l-0.3 3.6c-0.2 2.5-1 4.1-4.6 4.1z"/>
	</g>
	<path id="ABAIXO  " fill-rule="evenodd" class="s8" d="m51.6 359.1c0.2-1.1 0.7-1.7 1.4-2.1 0.6-0.4 1.4-0.6 2.2-0.7 0.8-0.1 1.5-0.2 2.2-0.2 0.7-0.1 1.4-0.2 2-0.3 1.2-0.1 2.4-0.2 3.4-0.4 1-0.1 1.9-0.1 2.7-0.2 0.8-0.1 1.4-0.2 2.1-0.2 2.4-0.2 3.4-0.2 3.8-0.1 0.5 0.1 0.6 0.4 0.5 0.9l-0.4 1.5c-0.3 1.6-0.9 2.5-1.7 2.9-0.8 0.5-1.9 0.5-3.2 0.5 0 0-0.2 1.3-0.5 2.6-0.2 1.3-0.4 2.6-0.4 2.6l3.6 1.4c0.2 0.1 0.3 0.4 0.3 0.7l-0.2 1.6c-0.2 1.2-0.9 2.7-2.2 2.6-0.6 0-1.8-0.5-3.3-1.1-0.7-0.4-1.5-0.8-2.3-1.2-0.9-0.4-1.7-0.9-2.6-1.4-0.8-0.5-1.7-1-2.5-1.5-0.8-0.5-1.6-0.9-2.3-1.4-1.3-0.9-2.4-1.7-2.8-2.1-0.5-0.4-0.4-0.5-0.3-1.3zm10.4 5.2l0.7-3.5c0 0-1.9 0.1-3.7 0.2-1.8 0-3.6 0.1-3.6 0.1zm11.4-14.3c-0.3 0.8-0.6 1.3-1 1.7-0.7 0.7-1.6 0.9-2.6 0.7-0.3-0.1-0.8-0.2-1.9-0.5-0.5-0.2-1.2-0.4-2-0.6-0.8-0.3-1.8-0.6-3.1-0.9-1.5-0.5-2.7-0.9-3.6-1.1-1-0.3-1.6-0.5-2.1-0.7-1-0.3-1.3-0.3-1.6-0.4-1.1-0.2-1.3-0.3-1.2-0.8 0.2-1.3 0.5-2.4 0.7-3.3 0.2-0.9 0.4-1.7 0.5-2.4 0.5-1.6 1-2.9 1.5-4 0.6-1.1 1.2-2 1.8-2.6 0.6-0.6 1.3-1 2-1.1 0.7-0.2 1.4-0.1 2.1 0.1 0.8 0.2 1.7 0.7 2.3 1.4 0.7 0.7 1.1 1.7 1 3 0.6-1 1.4-1.7 2.3-2 0.8-0.3 1.7-0.2 2.7 0.1 0.8 0.2 1.5 0.5 2.1 1.1 0.6 0.5 1.1 1.1 1.4 2 0.3 0.8 0.5 1.9 0.4 3.1 0 0.6-0.1 1.3-0.2 2.1q-0.2 1-0.6 2.4-0.5 1.6-0.9 2.7zm-7.1-4.5c0 0 1.1 0.4 2.1 0.7 1.1 0.3 2.1 0.6 2.1 0.6 0.4-0.6 0.7-1.2 0.8-1.8 0.4-1.2 0.2-2-0.1-2.5-0.4-0.6-1-0.8-1.5-0.9-1.3-0.4-2.5 0.1-3 2.1-0.1 0.4-0.3 1.1-0.4 1.8zm-3.7-1.2c0.3-0.6 0.6-1.1 0.7-1.7 0.7-2.4-0.2-3.1-1.1-3.4-1-0.2-2.2 0.3-2.8 2.4-0.1 0.4-0.2 1-0.3 1.6 0.9 0.3 2.2 0.7 3.5 1.1zm0.3-24.2c0.4-1 1-1.5 1.7-1.8 0.7-0.2 1.5-0.2 2.3-0.1 0.8 0 1.5 0.1 2.2 0.2 0.7 0 1.3 0.1 1.9 0.2 1.3 0.1 2.4 0.2 3.4 0.3 1 0.2 1.9 0.3 2.6 0.4 0.8 0.1 1.5 0.2 2.1 0.2 2.3 0.4 3.3 0.6 3.7 0.8 0.5 0.2 0.5 0.4 0.3 0.9l-0.6 1.4c-0.6 1.6-1.4 2.3-2.2 2.6-0.9 0.2-1.9 0-3.2-0.3 0 0-0.5 1.2-0.9 2.5-0.5 1.2-1 2.5-1 2.5l3.2 2.1c0.2 0.2 0.3 0.5 0.2 0.8l-0.5 1.5c-0.5 1.2-1.4 2.5-2.6 2.1-0.6-0.2-1.7-0.9-3-1.8-0.6-0.5-1.3-1.1-2-1.7-0.8-0.6-1.5-1.2-2.2-1.9-0.8-0.7-1.5-1.4-2.2-2-0.7-0.7-1.3-1.3-1.9-1.9-1.1-1.2-2-2.2-2.4-2.7-0.3-0.5-0.3-0.6 0-1.4zm9.1 7.4l1.2-3.4c0 0-1.7-0.3-3.5-0.6-1.8-0.3-3.6-0.6-3.6-0.6zm13.5-11.8c-0.4 1-1 1.6-1.5 1.9q-0.9 0.4-1.8 0c-0.5-0.2-1.6-0.8-2.9-1.5q-1-0.6-2.1-1.2c-0.8-0.4-1.6-0.8-2.4-1.3-0.8-0.4-1.6-0.9-2.3-1.3q-1-0.6-2.1-1.2c-1.3-0.7-2.2-1.2-2.7-1.4-0.2-0.1-0.2-0.3-0.1-0.7l0.8-1.6c0.5-1.3 1.1-1.9 1.8-2.2q0.9-0.3 2.1 0.3c0.2 0.1 1.1 0.6 2.3 1.4 0.7 0.4 1.4 0.8 2.2 1.2q1.1 0.7 2.4 1.5c0.8 0.4 1.6 0.9 2.4 1.4 0.7 0.4 1.5 0.9 2.1 1.3 1.3 0.7 2.2 1.2 2.4 1.3 0.2 0.2 0.3 0.3 0.1 0.7zm9.8-18.2c-0.8 1.3-1.4 2.1-2 2.6q-0.9 0.8-1.8 0.6c0 0-1.4 0-2.7-0.1-1.3 0-2.7 0-2.7 0 0.5 1.1 1 2.2 1.6 3.3 0.5 1.1 1.1 2.2 1.6 3.4 0.1 0.2 0.3 0.9 0 1.4-0.2 0.5-1.1 0.9-2.1 1-1 0.2-2 0.2-2.6-0.1-0.7-0.3-1.2-1.7-1.6-3.5-0.2-0.8-0.3-1.8-0.4-2.7-0.1-1-0.2-1.9-0.2-2.7-0.8 0.1-1.5 0.1-2.2 0.2-0.7 0.1-1.4 0.2-2 0.3-1.3 0.1-2.4 0.3-3.4 0.4-1.9 0.3-3.2 0.5-3.3 0.4-0.2-0.1 0-0.9 0.6-2.2 0.8-1.5 1.6-2.5 2.4-3.2 0.8-0.6 1.7-0.8 2.9-0.8l3.8 0.1c-0.4-1.2-0.8-2.2-1.2-3.3-0.2-0.6-0.4-1.2-0.7-1.8-0.2-0.7-0.5-1.5-0.8-2.4-0.1-0.2 0-0.6 0.2-0.8 0.4-0.7 1.4-1.1 2.4-1.2 1.1-0.1 2.1 0 2.5 0.3 0.6 0.3 0.9 1.9 1.1 3.8 0.1 0.9 0.1 1.9 0.2 2.8 0 0.9 0 1.8 0 2.5 0.8 0 1.8-0.1 2.8-0.1 1.1-0.1 2.3-0.2 3.4-0.3 1.1 0 2.1-0.1 3-0.1 0.8 0.1 1.4 0.1 1.7 0.3 0.4 0.3 0.1 0.9-0.5 1.9zm-4.6-26.9c1-0.7 1.9-1.1 2.9-1.2 1-0.1 2 0 3 0.4 0.9 0.4 1.9 1 2.9 1.9 0.8 0.7 1.7 1.6 2.5 2.6 0.8 1.1 1.5 2.3 1.9 3.7 0.2 0.7 0.4 1.4 0.5 2.1 0 0.8 0 1.6-0.1 2.3-0.2 0.8-0.4 1.7-0.8 2.5-0.3 0.9-0.8 1.8-1.4 2.7-1 1.3-1.9 2.3-2.9 2.9-0.9 0.7-1.9 1.1-2.9 1.2-1 0.1-2 0-3-0.4q-1.5-0.5-3-1.5c-0.6-0.3-1.1-0.8-1.6-1.2q-0.9-0.7-1.5-1.5c-0.9-1.1-1.5-2.3-1.9-3.6-0.4-1.4-0.4-2.9 0-4.6 0.2-0.8 0.5-1.7 0.9-2.5 0.4-0.9 0.9-1.8 1.6-2.8 1-1.3 1.9-2.3 2.9-3zm-0.9 8.8c-0.1 0.8 0.2 1.6 0.5 2.3 0.4 0.7 0.9 1.3 1.4 1.8 0.5 0.5 1 1 1.5 1.3 1.3 0.9 2.4 1.3 3.4 1.3q1.5-0.2 2.4-1.5c0.6-0.8 0.8-1.6 0.7-2.4 0-0.8-0.3-1.5-0.7-2.3-0.4-0.7-0.9-1.4-1.4-2-0.5-0.6-1-1-1.5-1.4-1-0.8-2-1.3-2.9-1.3-0.9 0-1.8 0.5-2.5 1.5q-0.9 1.3-0.9 2.7z"/>
	<path id="  NORMAL  " fill-rule="evenodd" class="s8" d="m263.9 115.1c-1.4 1-2.3 1-3 0.7-1-0.5-2-0.9-3-1.4-1-0.4-1.9-0.9-2.9-1.3-1-0.4-1.9-0.8-2.9-1.2-1-0.4-1.9-0.9-2.9-1.3 0.6 0.8 1.3 1.6 1.9 2.3 0.7 0.8 1.3 1.5 1.9 2.3 0.7 0.7 1.3 1.5 2 2.2 0.6 0.8 1.3 1.5 1.9 2.3 0.2 0.2 0.2 0.4-0.1 0.6l-1.3 1c-0.9 0.7-1.7 1-2.4 1-0.6 0-1.2-0.3-1.7-0.9-0.3-0.3-1-1.2-1.8-2.4-0.5-0.6-0.9-1.2-1.4-1.9q-0.7-1-1.5-2.1c-0.9-1.2-1.5-2.1-2.1-2.9-0.5-0.7-1-1.3-1.3-1.9-0.8-1-1.3-1.6-1.8-2.3-0.2-0.3-0.2-0.4 0.1-0.7l2.1-1.6c1.2-0.9 2.1-1.2 2.9-1.2 0.8 0 1.4 0.3 2.1 0.7 0.8 0.4 1.6 0.8 2.3 1.1 0.7 0.4 1.3 0.7 1.8 1 1.1 0.5 1.9 0.9 2.6 1.3 1.5 0.7 2.4 1.1 3.7 1.8q-1-1.4-2.1-2.7c-0.7-0.9-1.4-1.8-2-2.6-0.7-0.9-1.4-1.8-2-2.5-0.6-0.8-1.2-1.6-1.7-2.2 0-0.1 0-0.3 0.4-0.5l1.5-1.1c1.1-0.8 2-1.1 2.7-1 0.6 0.1 1.1 0.6 1.6 1.3 0.4 0.5 1.1 1.6 1.9 3 0.5 0.7 0.9 1.4 1.4 2.2 0.5 0.8 1 1.6 1.4 2.4 0.5 0.8 1 1.5 1.4 2.3 0.5 0.7 0.9 1.4 1.2 1.9 0.7 1.2 1.2 2 1.3 2.2 0.2 0.3 0 0.5-0.2 0.7zm8.4-28.2q1.8-0.5 3.3 0 1.5 0.4 2.7 1.5c0.8 0.7 1.5 1.7 2.2 2.8 0.5 1 1 2.2 1.4 3.5 0.4 1.2 0.6 2.6 0.5 4 0 0.8-0.1 1.5-0.4 2.2q-0.3 1-0.9 2.1c-0.4 0.6-1 1.3-1.6 2-0.7 0.6-1.5 1.2-2.5 1.8-1.4 0.9-2.7 1.4-3.9 1.7-1.2 0.2-2.3 0.1-3.3-0.1-1-0.3-1.9-0.8-2.8-1.5-0.8-0.7-1.6-1.6-2.3-2.6-0.4-0.6-0.8-1.2-1.1-1.8-0.3-0.7-0.6-1.3-0.8-2-0.5-1.3-0.6-2.7-0.5-4 0.2-1.4 0.7-2.8 1.7-4.2 0.5-0.6 1.1-1.3 1.8-2 0.8-0.6 1.6-1.2 2.6-1.8 1.4-0.8 2.7-1.4 3.9-1.6zm-4.1 7.6c-0.4 0.8-0.4 1.6-0.4 2.3 0.1 0.8 0.4 1.6 0.7 2.3 0.3 0.6 0.6 1.2 0.9 1.7 1 1.4 1.9 2.2 2.9 2.5 0.9 0.4 1.9 0.2 2.9-0.4 0.8-0.5 1.3-1.2 1.5-1.9 0.3-0.7 0.3-1.5 0.2-2.4q-0.2-1.2-0.6-2.4-0.5-1.1-0.9-1.8c-0.7-1.2-1.5-2-2.4-2.3-0.8-0.4-1.8-0.3-2.9 0.4-1 0.5-1.6 1.3-1.9 2zm23 4c-1 0.5-1.8 0.7-2.5 0.6-0.6-0.1-1.1-0.6-1.5-1.3-0.2-0.4-0.7-1.4-1.3-2.7-0.3-0.6-0.6-1.4-0.9-2.1-0.4-0.8-0.7-1.6-1.1-2.4-0.4-0.9-0.7-1.6-1-2.3q-0.5-1.1-0.9-1.8c-0.4-1.1-0.8-1.9-1.1-2.5-0.7-1.5-0.7-1.8-0.4-2 1.3-0.6 2.5-1.4 3.7-2 1.1-0.7 2.2-1.3 3-1.7 1.3-0.6 2.5-1 3.5-1.2 1-0.2 2-0.2 2.8 0 0.8 0.3 1.5 0.7 2 1.2q0.9 0.9 1.5 2.1c0.6 1.3 0.8 2.6 0.7 3.9-0.2 1.3-0.7 2.5-1.8 3.7l3.8 1.8c1.4 0.8 2.1 1.1 2.2 1.4 0.1 0.3 0 0.9-0.4 1.6-0.4 0.7-1.1 1.4-2.2 1.9-1.1 0.6-2.3 0.2-3.6-0.6q-0.9-0.6-1.8-1.5c-0.6-0.6-1.3-1.3-1.9-2-0.7 0.3-1.2 0.6-1.7 0.7q0.4 1.2 0.9 2.1c0.3 0.7 0.5 1.3 0.7 1.9 0.5 1 0.8 1.7 0.8 1.9 0.2 0.3 0.1 0.4-0.2 0.6zm-4.4-15.3c0.2 0.6 0.6 1.4 0.9 2.2 0.4 0.8 0.7 1.6 1.1 2.6 0.7-0.2 1.3-0.4 1.9-0.7 1.2-0.6 1.6-1.4 1.8-2.2 0.1-0.8-0.1-1.5-0.4-2-0.7-1.4-1.7-1.8-3.7-0.8-0.4 0.2-1 0.5-1.6 0.9zm31.4-9.4c0 1.2 0 2.7-0.1 4.2 0 0.7 0 1.4 0 2.2q0 1 0 2.1c-0.1 1.4-0.1 2.7-0.2 3.7 0 0.3-0.4 0.7-1.4 1-1.3 0.5-2.9 0.9-3.7 0-0.6-0.8-1.3-1.6-2-2.6-0.6-0.9-1.3-1.9-2-2.9q-1.1-1.5-2.1-3c-0.7-0.9-1.3-1.8-1.9-2.6 0.1 0.4 0.4 1.2 0.8 2.2 0.4 1 0.9 2.3 1.3 3.6 0.5 1.3 1 2.7 1.5 3.9 0.4 1.1 0.8 2.2 1.1 2.9 0.4 1 0.4 1.2 0.1 1.3l-1.6 0.7c-1 0.4-1.8 0.5-2.5 0.4-0.6-0.2-1-0.7-1.4-1.4-0.1-0.4-0.5-1.5-1-2.8-0.2-0.7-0.5-1.4-0.7-2.2-0.3-0.8-0.6-1.7-0.9-2.5-0.5-1.7-0.9-3-1.3-3.9-0.3-1-0.5-1.6-0.7-2.1-0.3-1-0.4-1.4-0.8-2.3-0.2-0.3 0.1-0.5 0.3-0.6l4.3-1.8c1.2-0.5 2.1-0.6 3-0.4 0.8 0.3 1.5 0.9 2.2 1.8 0.4 0.5 0.7 1 1.1 1.6 0.4 0.7 0.8 1.4 1.3 2.2 0.5 0.8 1 1.6 1.5 2.6 0.6 0.9 1.2 2 1.9 3.1-0.1-1.2-0.1-2.2-0.2-3 0-0.8-0.1-1.5-0.1-2 0-1-0.1-1.7-0.1-2.3 0-0.6 0-1.2-0.1-2.2 0-0.5 0-1.2-0.1-2 0-0.8 0-1.7-0.1-2.9 0-0.3 0.1-0.6 0.6-0.8 0 0 1.3-0.4 2.5-0.8 1.2-0.5 2.4-0.9 2.4-0.9 1.4-0.4 2.2-0.5 2.8-0.2 0.6 0.3 0.9 0.9 1.2 1.7 0.2 0.6 0.5 1.8 0.8 3.4 0.2 0.8 0.4 1.7 0.6 2.5 0.2 0.9 0.4 1.9 0.6 2.8 0.2 0.9 0.4 1.8 0.6 2.6 0.2 0.9 0.4 1.6 0.5 2.3 0.3 1.4 0.5 2.3 0.6 2.5 0 0.3 0 0.5-0.4 0.6l-1.6 0.5c-2.1 0.8-3.2 0.2-3.7-1.1-0.1-0.3-0.2-0.9-0.4-1.9-0.2-0.9-0.5-2.1-0.7-3.3-0.3-1.2-0.6-2.5-0.9-3.7-0.2-1.3-0.5-2.4-0.7-3.3-0.1 0.7-0.1 1.8-0.2 3.1zm17.3-13.5c1.1-0.3 1.9-0.1 2.5 0.3 0.6 0.5 1 1.2 1.4 1.9 0.4 0.6 0.7 1.3 1.1 1.9 0.3 0.6 0.6 1.2 0.9 1.7 0.6 1.1 1.1 2.1 1.6 3 0.5 0.9 0.9 1.7 1.3 2.5 0.3 0.7 0.7 1.3 0.9 1.8 1.1 2.2 1.5 3.1 1.6 3.6 0.1 0.5-0.1 0.7-0.7 0.8l-1.5 0.4c-1.7 0.4-2.7 0.3-3.4-0.3-0.7-0.6-1.1-1.6-1.6-2.8 0 0-1.3 0.3-2.6 0.7-1.3 0.4-2.6 0.7-2.6 0.7v4c0 0.3-0.2 0.5-0.5 0.6l-1.6 0.5c-1.2 0.4-2.9 0.4-3.2-0.9-0.2-0.6-0.2-1.9-0.1-3.6 0-0.8 0.1-1.7 0.2-2.7 0.1-1 0.2-2 0.4-3 0.1-1 0.3-2.1 0.4-3 0.2-1 0.3-1.9 0.5-2.8 0.4-1.7 0.7-3 0.9-3.6 0.2-0.6 0.3-0.6 1.1-0.8zm-0.9 12.1l3.5-1c0 0-0.8-1.6-1.5-3.3-0.8-1.7-1.6-3.4-1.6-3.4zm17.5 4.1c-1.1 0.2-1.9 0.2-2.5-0.1-0.6-0.3-0.9-0.8-1-1.5-0.1-0.6-0.3-1.8-0.5-3.3-0.1-0.8-0.1-1.6-0.2-2.5-0.1-0.9-0.2-1.9-0.3-2.8q-0.2-1.4-0.3-2.7c0-0.9-0.1-1.7-0.2-2.5-0.1-1.5-0.3-2.6-0.3-3.1-0.1-0.3 0-0.4 0.4-0.5l1.8-0.4c2.4-0.5 3.3 0.1 3.6 1.7 0 0.1 0 0.3 0 0.5 0 0 0.1 0.8 0.2 2 0 0.6 0.1 1.3 0.1 2.1 0.1 0.7 0.2 1.5 0.2 2.3 0.1 0.8 0.2 1.7 0.2 2.4 0.1 0.8 0.1 1.5 0.2 2.1 0.1 1.2 0.2 2 0.2 2 0 0 1.3-0.3 2.7-0.5 1.4-0.3 2.7-0.5 2.7-0.5 0.3-0.1 0.5 0 0.6 0.2l0.1 1.7c0 1.1-0.3 1.9-2.1 2.2z"/>
	<path id="SOBREPESO" fill-rule="evenodd" class="s8" d="m576.2 45.3c0.8 0.9 1.2 2 1 3.2-0.2 1-0.7 1.8-1.4 2.2-0.7 0.4-1.7 0.5-2.9 0.2-0.8-0.1-0.9-0.2-0.8-0.6 0.1-0.8 0.3-2.6-1.7-3-1.3-0.2-2.7 0.4-2.8 1.5-0.1 0.8 0.3 1.4 1.1 1.9 0.8 0.6 1.8 1.1 2.9 1.8 1 0.6 2 1.4 2.7 2.4 0.7 0.9 1 2.1 0.8 3.7-0.2 0.8-0.4 1.5-0.8 2.2-0.4 0.6-0.9 1.1-1.6 1.5-0.6 0.4-1.4 0.7-2.3 0.8-0.9 0.2-2 0.1-3.1-0.1-1-0.1-1.9-0.4-2.8-0.8-0.8-0.3-1.5-0.7-2.1-1.1-1.2-0.8-1.9-1.7-1.8-2.2 0.2-2.5 0.6-3.4 1.4-3.3 0.5 0.1 1.1 0.7 1.9 1.4 0.7 0.7 1.7 1.4 3.1 1.6 1.2 0.2 2.4 0.1 2.5-1 0.1-0.7-0.3-1.2-1-1.7-0.7-0.5-1.7-1-2.7-1.6-0.9-0.5-1.9-1.2-2.5-2.2-0.7-0.9-1.1-2.1-0.9-3.7 0.1-1.2 0.5-2.2 1.1-2.9 0.5-0.8 1.3-1.3 2.2-1.7 0.9-0.4 1.9-0.6 3-0.7 1 0 2.1 0 3.1 0.2 2 0.4 3.5 1.1 4.4 2zm19.4 3.9c1.1 0.7 1.8 1.5 2.3 2.4q0.7 1.4 0.9 3c0 1.1-0.1 2.3-0.4 3.5-0.3 1.1-0.7 2.3-1.4 3.5q-0.9 1.8-2.4 3.3-0.8 0.8-1.8 1.2c-0.6 0.4-1.3 0.7-2.1 0.8-0.8 0.2-1.6 0.3-2.6 0.3-0.9 0-1.9-0.2-3-0.4-1.6-0.4-2.9-1-3.9-1.7-1-0.6-1.8-1.5-2.3-2.4q-0.8-1.3-0.9-3c-0.1-1.1 0-2.3 0.2-3.5 0.1-0.7 0.2-1.4 0.5-2.1 0.2-0.6 0.4-1.3 0.7-1.9 0.7-1.3 1.5-2.4 2.6-3.2 1.1-0.9 2.4-1.5 4-1.7 0.8-0.2 1.7-0.2 2.7-0.2 0.9 0.1 2 0.3 3.1 0.5 1.5 0.5 2.8 1 3.8 1.6zm-8.2 2.5c-0.7 0.3-1.3 0.9-1.8 1.5-0.5 0.6-0.9 1.3-1.1 2-0.3 0.7-0.5 1.4-0.6 1.9-0.3 1.6-0.2 2.9 0.3 3.8 0.4 0.9 1.2 1.5 2.3 1.8 1 0.2 1.8 0.1 2.5-0.2 0.7-0.4 1.3-0.9 1.8-1.6q0.7-1.1 1.2-2.1c0.3-0.8 0.5-1.5 0.6-2 0.3-1.3 0.3-2.4-0.1-3.3-0.3-0.9-1.1-1.5-2.3-1.8-1.1-0.3-2-0.2-2.8 0zm13.5 19.2c-0.8-0.4-1.3-0.7-1.6-1.1-0.8-0.8-0.8-1.7-0.6-2.7 0.1-0.4 0.3-0.9 0.7-1.9 0.1-0.5 0.4-1.2 0.7-2 0.3-0.9 0.7-1.9 1.1-3.1 0.6-1.5 1-2.7 1.4-3.7 0.3-0.9 0.6-1.6 0.7-2.1 0.4-0.9 0.5-1.2 0.6-1.5 0.3-1.1 0.3-1.4 0.9-1.2 1.3 0.3 2.3 0.6 3.2 0.8 0.9 0.2 1.7 0.5 2.3 0.7 1.6 0.5 2.9 1 4 1.6 1 0.6 1.8 1.3 2.4 1.9 0.6 0.7 0.9 1.3 1 2 0.2 0.8 0.1 1.5-0.2 2.2-0.2 0.8-0.7 1.7-1.5 2.3-0.7 0.7-1.8 1-3.1 0.9 1.1 0.7 1.7 1.5 2 2.4 0.2 0.9 0.1 1.8-0.2 2.8q-0.5 1.2-1.2 2.1c-0.5 0.6-1.2 1.1-2.1 1.3-0.9 0.3-2 0.5-3.2 0.3q-1.1 0-2.1-0.3c-0.8-0.1-1.6-0.3-2.5-0.6-1.1-0.4-2-0.7-2.7-1.1zm5-7c0 0-0.4 1.1-0.8 2.1-0.4 1.1-0.8 2.1-0.8 2.1q0.9 0.6 1.8 0.9c1.2 0.4 2 0.3 2.6 0 0.5-0.4 0.8-1 1-1.5 0.4-1.3 0-2.5-2-3.2-0.4-0.1-1.1-0.3-1.8-0.4zm1.4-3.7c0.6 0.3 1.1 0.6 1.7 0.8 2.3 0.8 3.1-0.2 3.4-1 0.4-1.1-0.1-2.3-2.1-2.9-0.5-0.2-1.1-0.3-1.7-0.4-0.3 0.9-0.8 2.1-1.3 3.5zm11 16.6c-1-0.4-1.7-0.8-2-1.4-0.4-0.6-0.4-1.2-0.1-2 0.1-0.4 0.6-1.4 1.2-2.7 0.2-0.7 0.6-1.4 0.9-2.2 0.4-0.7 0.7-1.5 1.1-2.3 0.4-0.9 0.7-1.6 1-2.3 0.3-0.7 0.6-1.3 0.8-1.9 0.5-1 0.9-1.9 1.1-2.5 0.7-1.5 0.9-1.7 1.3-1.6 1.3 0.5 2.6 1 3.9 1.4 1.2 0.4 2.4 0.8 3.2 1.1 1.3 0.6 2.4 1.2 3.2 1.8 0.8 0.7 1.4 1.4 1.7 2.1 0.4 0.7 0.6 1.5 0.6 2.3-0.1 0.8-0.3 1.7-0.7 2.5-0.5 1.3-1.3 2.4-2.4 3.1-1 0.8-2.3 1.2-3.8 1.2l1.1 4c0.4 1.6 0.6 2.3 0.5 2.6-0.1 0.3-0.6 0.6-1.4 0.7-0.8 0.2-1.8 0.2-2.9-0.3-1.2-0.5-1.8-1.6-2-3-0.1-0.8-0.1-1.6-0.1-2.5 0-0.8 0.1-1.7 0.2-2.7-0.6-0.2-1.2-0.5-1.6-0.8-0.4 0.7-0.7 1.4-1 2.1-0.3 0.6-0.6 1.3-0.9 1.8-0.5 1-0.8 1.7-0.9 1.9-0.1 0.2-0.2 0.3-0.6 0.2zm8.5-13.3c-0.3 0.6-0.6 1.3-1 2.1-0.4 0.8-0.8 1.7-1.2 2.6 0.6 0.4 1.2 0.7 1.7 0.9 1.2 0.5 2.2 0.3 2.8-0.1 0.7-0.4 1.1-1.1 1.3-1.7 0.6-1.3 0.2-2.4-1.8-3.2q-0.7-0.3-1.8-0.6zm8.7 20.6c-1-0.4-1.6-1-1.9-1.5-0.3-0.6-0.3-1.2 0-1.9 0.2-0.5 0.8-1.6 1.5-2.9 0.4-0.7 0.8-1.5 1.2-2.2 0.5-0.8 0.9-1.6 1.4-2.4 0.4-0.8 0.9-1.6 1.3-2.4q0.6-1.2 1.2-2.1c0.7-1.3 1.3-2.3 1.5-2.8 0.1-0.2 0.3-0.3 0.6-0.1 0 0 0.7 0.3 1.7 0.7 0.9 0.5 2.2 1.1 3.5 1.7 1.3 0.6 2.6 1.3 3.6 1.7 1 0.5 1.6 0.8 1.6 0.8q0.5 0.3 0.3 0.6l-0.8 1.4c-0.6 0.9-1.3 1.4-3.1 0.6l-4-2-1.9 3.4 4 1.9c0.3 0.1 0.4 0.4 0.3 0.6l-0.8 1.4c-0.6 0.9-1.3 1.4-3 0.6l-2.4-1.2-2.1 3.6c0 0 1.5 0.7 3.1 1.5 1.5 0.7 3 1.4 3 1.4 0.2 0.2 0.4 0.4 0.3 0.6l-0.9 1.4c-0.6 0.9-1.2 1.4-2.9 0.6zm13.6 6.8c-1-0.6-1.6-1.1-1.8-1.7-0.3-0.6-0.2-1.3 0.2-2 0.2-0.4 0.8-1.3 1.5-2.5 0.4-0.6 0.8-1.3 1.3-2 0.5-0.7 0.9-1.5 1.4-2.2 0.9-1.4 1.6-2.4 2.2-3.3 0.5-0.8 0.9-1.4 1.2-1.9 0.6-1 0.9-1.5 1.3-2.2 0.1-0.3 0.4-0.3 0.6-0.2 1 0.6 2.3 1.2 3.5 1.7 1.3 0.6 2.5 1.2 3.3 1.7 1.2 0.7 2.2 1.4 2.9 2.1 0.8 0.7 1.3 1.5 1.5 2.3 0.3 0.8 0.3 1.5 0.2 2.4-0.2 0.8-0.5 1.6-1 2.4-0.6 0.9-1.3 1.8-2.1 2.4q-1.2 1-2.7 1.5c-1 0.4-2 0.5-3.2 0.3-1.2-0.1-2.4-0.5-3.7-1.3-0.8-0.4-1.4-0.8-1.9-1.3 0 0-0.7 1.1-1.4 2.2-0.7 1-1.4 2.1-1.4 2.1-0.2 0.2-0.3 0.3-0.6 0.1zm10.3-12.3q-0.6 1-1.5 2.4c-0.6 0.9-1.2 1.9-1.9 2.9 0.5 0.4 1 0.8 1.5 1 1.2 0.7 2.3 0.6 3.2 0 0.9-0.5 1.5-1.3 1.9-1.9 0.8-1.4 0.6-2.4-1.3-3.5-0.5-0.3-1.2-0.6-1.9-0.9zm5.3 21c-1-0.6-1.5-1.2-1.7-1.8-0.3-0.6-0.2-1.2 0.2-1.8 0.3-0.5 1-1.5 2-2.7 0.4-0.6 0.9-1.3 1.5-2 0.5-0.7 1.1-1.5 1.6-2.2 0.6-0.7 1.1-1.5 1.7-2.2 0.5-0.7 1-1.3 1.5-1.9 0.9-1.2 1.5-2.2 1.8-2.6 0.2-0.2 0.4-0.2 0.7 0 0 0 0.6 0.3 1.5 0.9 0.9 0.6 2.2 1.3 3.4 2.1 1.2 0.8 2.4 1.6 3.3 2.2 0.9 0.5 1.5 0.9 1.5 0.9 0.2 0.2 0.4 0.4 0.2 0.6l-1 1.3c-0.7 0.9-1.5 1.2-3.1 0.2l-3.8-2.4-2.4 3 3.8 2.5c0.2 0.1 0.4 0.3 0.2 0.6l-1 1.2c-0.7 0.9-1.5 1.3-3 0.3l-2.3-1.5-2.6 3.3c0 0 1.5 0.9 2.9 1.8 1.4 0.9 2.8 1.8 2.8 1.8 0.2 0.2 0.4 0.4 0.2 0.6l-1 1.3c-0.7 0.8-1.5 1.2-3 0.2zm32.1-0.9c0.3 1.2 0.1 2.3-0.7 3.2-0.6 0.8-1.4 1.2-2.2 1.2-0.9 0.1-1.9-0.3-2.8-1-0.7-0.5-0.7-0.6-0.5-0.9 0.5-0.6 1.5-2.1-0.1-3.3-1.1-0.8-2.6-0.9-3.3 0-0.4 0.7-0.3 1.4 0.1 2.2 0.5 0.8 1.2 1.7 1.8 2.7 0.6 1 1.1 2.1 1.3 3.3 0.1 1.1-0.1 2.3-1.1 3.5-0.5 0.6-1.1 1.2-1.8 1.5-0.7 0.4-1.4 0.6-2.2 0.7-0.8 0-1.6-0.1-2.5-0.4-0.9-0.2-1.8-0.7-2.8-1.4q-1.2-0.9-2.1-1.8c-0.6-0.7-1.1-1.3-1.4-1.9-0.7-1.3-0.9-2.3-0.6-2.8 1.4-2 2.2-2.6 2.9-2.2 0.5 0.4 0.7 1.1 1 2 0.4 1 1 2 2.1 2.8 1 0.7 2.2 1.1 2.8 0.2 0.4-0.5 0.3-1.2-0.1-1.9-0.4-0.7-1.1-1.5-1.7-2.4-0.6-1-1.1-2-1.2-3.1-0.2-1.1 0-2.3 1-3.6 0.7-0.9 1.5-1.6 2.4-2 0.9-0.4 1.9-0.5 2.9-0.5 1 0.1 2 0.4 3 0.8 1 0.4 1.9 0.9 2.8 1.5q2.4 1.8 3 3.6zm16 11.9q0.9 1.5 0.9 3c0.1 1-0.2 2-0.6 3-0.5 0.9-1.2 1.9-2.2 2.9-0.7 0.8-1.7 1.6-2.9 2.4-1.1 0.7-2.4 1.3-3.8 1.7-0.8 0.2-1.5 0.3-2.3 0.3-0.7 0-1.5-0.1-2.3-0.3-0.8-0.2-1.7-0.5-2.5-0.9-0.9-0.4-1.7-1-2.6-1.7-1.3-1-2.2-2.1-2.8-3.1-0.6-1-0.9-2.1-0.9-3.1q0-1.5 0.6-3c0.5-1 1.1-1.9 1.9-2.9 0.4-0.5 0.9-1.1 1.5-1.6 0.5-0.4 1-0.9 1.6-1.3 1.2-0.8 2.5-1.4 3.9-1.6 1.4-0.3 3-0.2 4.6 0.3 0.8 0.2 1.6 0.6 2.5 1.1 0.8 0.4 1.7 1 2.6 1.8 1.2 1 2.1 2 2.8 3zm-8.8-1.4c-0.9-0.1-1.7 0-2.4 0.4-0.8 0.3-1.4 0.7-2 1.2-0.6 0.5-1.1 1-1.4 1.4-1.1 1.3-1.7 2.4-1.7 3.4 0 1 0.4 1.8 1.3 2.5q1.2 0.9 2.4 0.9c0.8 0 1.6-0.2 2.4-0.5 0.7-0.4 1.5-0.8 2.1-1.3 0.7-0.5 1.2-1 1.6-1.4 0.9-1 1.5-2 1.5-2.9 0.1-0.9-0.3-1.8-1.2-2.6-0.9-0.7-1.8-1.1-2.6-1.1z"/>
	<path id="OBESIDADE" fill-rule="evenodd" class="s8" d="m856.5 255.2c0.3 1.1 0.4 2.2 0.3 3.2-0.2 1.1-0.6 2-1.3 2.9-0.6 0.9-1.5 1.7-2.6 2.5-0.9 0.7-2 1.3-3.2 1.9-1.2 0.5-2.6 0.9-4 0.9-0.7 0.1-1.4 0-2.1-0.1-0.7-0.2-1.5-0.4-2.2-0.8-0.7-0.3-1.4-0.8-2.1-1.4-0.7-0.6-1.4-1.4-2.1-2.3-1-1.3-1.6-2.6-2-3.7-0.3-1.2-0.4-2.3-0.2-3.4 0.2-1 0.7-2 1.3-2.9 0.6-0.9 1.4-1.8 2.3-2.6 0.5-0.5 1.1-0.9 1.7-1.3 0.6-0.4 1.2-0.8 1.8-1 1.3-0.6 2.6-0.9 4-0.9q2.1 0 4.2 1.2c0.7 0.5 1.5 1 2.2 1.7 0.7 0.6 1.3 1.4 2 2.3 1 1.4 1.6 2.6 2 3.8zm-7.9-3.4q-1.2-0.3-2.4 0c-0.7 0.1-1.5 0.5-2.1 0.8-0.6 0.4-1.2 0.8-1.6 1.2-1.3 1.1-2 2.1-2.3 3.1-0.2 1 0 2 0.7 2.9 0.6 0.7 1.3 1.2 2 1.4 0.8 0.1 1.6 0.1 2.4-0.1 0.8-0.2 1.6-0.5 2.3-0.9 0.7-0.4 1.3-0.8 1.8-1.1 1-0.8 1.7-1.7 2-2.6 0.3-1 0.1-1.9-0.6-2.9-0.7-1-1.5-1.5-2.2-1.8zm-1.9 23.5c-0.3-0.7-0.5-1.3-0.5-1.9-0.1-1 0.4-1.8 1.3-2.4 0.3-0.2 0.7-0.5 1.7-1.1 0.5-0.2 1.1-0.6 1.8-1.1 0.8-0.4 1.7-1 2.9-1.6 1.4-0.9 2.5-1.5 3.3-2 0.9-0.5 1.5-0.9 2-1.1 0.9-0.6 1.1-0.7 1.3-0.9 1-0.7 1.2-0.8 1.5-0.3 0.8 1 1.4 1.9 2 2.6 0.5 0.8 0.9 1.5 1.3 2 0.9 1.5 1.6 2.7 2 3.9 0.4 1.1 0.6 2.1 0.7 3 0 0.9-0.2 1.6-0.5 2.2-0.4 0.7-0.9 1.2-1.6 1.6-0.7 0.5-1.7 0.8-2.6 0.8-1 0-2-0.3-2.9-1.3 0.3 1.2 0.3 2.2-0.1 3.1-0.4 0.9-1 1.5-1.9 2.1-0.7 0.4-1.5 0.7-2.3 0.8-0.8 0.1-1.6 0.1-2.5-0.3-0.8-0.3-1.7-0.9-2.6-1.8-0.5-0.5-0.9-1-1.4-1.6q-0.8-0.9-1.5-2.1c-0.6-1-1.1-1.8-1.4-2.6zm8.3-2.2c0 0-1 0.6-1.9 1.1-1 0.6-2 1.2-2 1.2 0.2 0.7 0.5 1.3 0.8 1.8 0.7 1.1 1.4 1.5 2 1.6 0.7 0.1 1.3-0.1 1.7-0.4 1.2-0.8 1.7-2 0.5-3.8-0.2-0.4-0.6-0.9-1.1-1.5zm3.5-2c0.2 0.7 0.4 1.2 0.7 1.7 1.4 2.2 2.6 1.9 3.3 1.5 1-0.7 1.4-1.9 0.2-3.7-0.2-0.4-0.6-0.9-1-1.4-0.8 0.5-1.9 1.2-3.2 1.9zm-2.2 20c-0.6-1-0.8-1.8-0.7-2.4 0.1-0.7 0.5-1.2 1.1-1.6 0.5-0.2 1.6-0.8 3-1.5 0.6-0.3 1.4-0.7 2.2-1.1 0.8-0.4 1.6-0.8 2.5-1.2q1.2-0.6 2.4-1.2c0.8-0.3 1.6-0.7 2.2-1 1.4-0.7 2.4-1.2 2.8-1.4 0.3-0.2 0.4-0.1 0.6 0.2 0 0 0.4 0.6 0.9 1.6 0.5 0.9 1.2 2.2 1.9 3.5 0.7 1.3 1.4 2.5 1.9 3.5 0.5 1 0.8 1.6 0.8 1.6 0.1 0.3 0.1 0.5-0.1 0.7l-1.5 0.6c-1 0.4-1.9 0.4-2.8-1.3l-2.1-4-3.5 1.7 2.1 4c0.2 0.2 0.2 0.5-0.1 0.6l-1.5 0.7c-1 0.4-1.8 0.4-2.7-1.3l-1.3-2.4-3.7 1.8c0 0 0.8 1.4 1.6 2.9 0.8 1.5 1.6 3 1.6 3 0.1 0.3 0.1 0.6-0.1 0.7l-1.5 0.6c-1 0.5-1.9 0.5-2.7-1.2zm27.9 14.3c-0.2 1.2-0.9 2.1-2 2.6-1 0.4-1.8 0.4-2.6 0-0.7-0.4-1.4-1.1-1.9-2.2-0.3-0.7-0.3-0.9 0.1-1.1 0.7-0.3 2.3-1.1 1.4-2.9-0.5-1.3-1.8-2.1-2.8-1.6-0.7 0.4-0.9 1.1-0.9 2-0.1 1 0.1 2.1 0.2 3.3 0 1.2 0 2.4-0.5 3.5-0.4 1.1-1.2 2.1-2.6 2.7-0.7 0.3-1.5 0.5-2.2 0.5-0.8 0-1.5-0.1-2.2-0.4-0.8-0.4-1.4-0.9-2.1-1.5-0.6-0.7-1.2-1.6-1.7-2.6q-0.6-1.3-0.9-2.7-0.3-1.3-0.3-2.4c0-1.4 0.3-2.4 0.8-2.7 2.2-1.1 3.2-1.3 3.6-0.6 0.2 0.5 0 1.3-0.1 2.3-0.1 1-0.1 2.2 0.5 3.5 0.5 1 1.3 1.9 2.2 1.5 0.6-0.3 0.8-1 0.8-1.8 0.1-0.9-0.1-1.9-0.2-3-0.1-1.1 0-2.2 0.4-3.3 0.3-1.1 1.1-2 2.5-2.8 1.1-0.5 2.1-0.7 3.1-0.6 0.9 0 1.9 0.4 2.7 0.9 0.8 0.5 1.6 1.2 2.2 2.1 0.7 0.8 1.2 1.7 1.7 2.7 0.8 1.9 1.1 3.4 0.8 4.6zm-14.3 14.1c-0.4-1-0.5-1.8-0.3-2.5 0.1-0.6 0.6-1 1.3-1.3 0.5-0.2 1.6-0.6 3.1-1.1 0.7-0.3 1.5-0.5 2.4-0.8 0.8-0.3 1.7-0.6 2.6-0.9 0.9-0.2 1.7-0.5 2.6-0.8 0.8-0.3 1.6-0.5 2.3-0.7 1.4-0.5 2.5-0.9 2.9-1.1 0.3-0.1 0.5 0 0.6 0.4l0.7 1.6c0.5 1.3 0.6 2.2 0.4 2.8-0.3 0.7-0.9 1.1-1.8 1.4-0.1 0.1-1.2 0.4-2.6 0.9-0.7 0.2-1.5 0.4-2.4 0.7-0.9 0.3-1.8 0.5-2.7 0.8-1 0.3-1.9 0.6-2.8 0.9-0.8 0.2-1.7 0.5-2.4 0.7-1.4 0.5-2.5 0.8-2.7 0.8-0.3 0.1-0.4 0.1-0.5-0.3zm21.4 0.7c0.5 1.4 1.1 2.8 1.6 3.9 0.4 1.2 0.9 2.2 1.1 2.9 0.6 1.7 1 3.3 1.1 4.6 0.1 1.3-0.1 2.4-0.5 3.3-0.4 0.9-1.1 1.7-2 2.3-0.9 0.6-2 1.1-3.4 1.5-0.7 0.2-1.5 0.4-2.2 0.5-0.7 0.2-1.4 0.2-2.2 0.3-1.4 0-2.8-0.2-4.1-0.7q-2-0.6-3.6-2.4c-0.5-0.6-1-1.2-1.5-2q-0.6-1.2-1.2-2.7c-0.3-0.9-0.6-1.8-0.9-2.6-0.2-0.7-0.3-1.4-0.4-2-0.1-1.3 0.3-2.1 1.5-2.6 0.5-0.2 1.4-0.5 2.7-0.8q0.9-0.3 2.1-0.6c0.8-0.2 1.6-0.5 2.5-0.7 0.8-0.2 1.6-0.4 2.3-0.6 0.7-0.2 1.3-0.4 1.9-0.5 1-0.4 1.8-0.6 2.4-0.8 1.2-0.3 1.7-0.5 2.2-0.7 0.3 0 0.5 0.2 0.6 0.4zm-11.2 12.7c0.7 0.5 1.4 0.8 2.1 1q1.2 0.1 2.4 0c0.8-0.1 1.5-0.3 2.2-0.5 1.5-0.5 2.5-1 3.1-1.8 0.5-0.8 0.6-1.9 0.1-3.4-0.2-0.4-0.5-1.1-0.9-2-0.6 0.2-1.4 0.4-2.3 0.6-0.9 0.3-1.9 0.5-2.8 0.8-1 0.3-2.1 0.5-3 0.8-1 0.2-2 0.5-2.8 0.7 0.1 0.6 0.3 1.1 0.4 1.4 0.4 1.1 0.9 1.8 1.5 2.4zm20.3 16c0.3 1.1 0.1 1.8-0.3 2.4-0.5 0.6-1.2 1-1.9 1.4-0.6 0.4-1.3 0.7-1.9 1.1-0.6 0.3-1.2 0.6-1.7 0.9-1.1 0.6-2.1 1.2-3 1.7-0.9 0.4-1.7 0.8-2.5 1.2-0.7 0.4-1.3 0.7-1.8 1-2.2 1-3.1 1.4-3.6 1.5-0.5 0.1-0.7-0.1-0.8-0.6l-0.4-1.5c-0.4-1.7-0.2-2.7 0.3-3.4 0.6-0.8 1.6-1.2 2.9-1.6 0 0-0.4-1.3-0.7-2.6-0.4-1.3-0.7-2.6-0.7-2.6h-4c-0.3 0-0.5-0.3-0.6-0.6l-0.5-1.5c-0.3-1.3-0.3-2.9 1-3.3 0.5-0.2 1.9-0.2 3.5-0.1q1.3 0.1 2.7 0.3 1.5 0.1 3 0.3c1.1 0.2 2.1 0.3 3 0.5 1 0.2 1.9 0.3 2.8 0.5 1.6 0.4 3 0.7 3.6 0.9 0.6 0.2 0.6 0.3 0.8 1.1zm-12-1l1 3.5c0 0 1.7-0.8 3.3-1.5 1.7-0.8 3.4-1.5 3.4-1.5zm14.8 12.6c0.4 1.5 0.7 2.9 1 4.1 0.3 1.2 0.6 2.3 0.8 3 0.3 1.9 0.4 3.4 0.3 4.7-0.1 1.3-0.4 2.4-0.9 3.2-0.5 0.8-1.3 1.5-2.3 1.9-1 0.5-2.2 0.8-3.7 1-0.7 0-1.5 0.1-2.2 0.1-0.8 0-1.5-0.1-2.2-0.1-1.4-0.2-2.8-0.7-4.1-1.3-1.2-0.7-2.3-1.7-3.2-3-0.4-0.7-0.8-1.4-1.2-2.3-0.3-0.8-0.6-1.8-0.8-2.8-0.2-1-0.3-1.9-0.5-2.7-0.1-0.8-0.1-1.5-0.1-2.1 0.1-1.2 0.7-2 1.9-2.3 0.5-0.1 1.5-0.2 2.8-0.3 0.6-0.1 1.4-0.2 2.2-0.3 0.8-0.1 1.6-0.1 2.5-0.2 0.9-0.1 1.7-0.2 2.5-0.3 0.7 0 1.3-0.1 1.9-0.1 1.1-0.2 1.9-0.3 2.5-0.3 1.3-0.2 1.7-0.3 2.3-0.4 0.3 0 0.5 0.3 0.5 0.5zm-12.9 10.6c0.5 0.6 1.2 1.1 1.9 1.3 0.8 0.3 1.6 0.4 2.4 0.5 0.8 0 1.5-0.1 2.3-0.2 1.5-0.2 2.6-0.6 3.3-1.3 0.6-0.7 0.8-1.7 0.5-3.2-0.1-0.5-0.2-1.2-0.5-2.2q-1.1 0.1-2.4 0.3c-0.9 0-1.9 0.1-2.9 0.2-1.1 0.1-2.1 0.2-3.1 0.3-1.1 0.1-2 0.2-2.9 0.2 0 0.7 0.1 1.2 0.2 1.5 0.2 1.1 0.6 2 1.2 2.6zm-2.5 14.3c-0.2-1.1-0.1-1.9 0.2-2.5 0.4-0.5 0.9-0.8 1.7-0.9 0.5 0 1.7-0.1 3.3-0.1 0.8 0 1.6 0 2.5-0.1 0.9 0 1.8 0 2.8 0q1.3 0 2.7 0c0.9 0 1.7-0.1 2.5-0.1 1.5 0 2.7 0 3.1-0.1 0.3 0 0.5 0.2 0.5 0.5 0 0 0.1 0.7 0.3 1.8 0.1 1.1 0.3 2.5 0.5 4 0.1 1.4 0.3 2.9 0.4 4 0.1 1 0.2 1.8 0.2 1.8 0 0.2-0.1 0.5-0.3 0.5h-1.7c-1.1-0.1-1.9-0.5-2.1-2.4l-0.5-4.5h-3.9l0.5 4.5q0 0.4-0.3 0.6l-1.7-0.1c-1.1 0-1.9-0.4-2.1-2.2l-0.3-2.8h-4.2c0 0 0.2 1.7 0.4 3.4 0.2 1.7 0.4 3.4 0.4 3.4 0 0.2-0.1 0.5-0.4 0.5h-1.6c-1.1-0.1-1.9-0.4-2.1-2.3z"/>
</svg>